<?xml version="1.0" encoding="utf-8" ?>
<svg xmlns="http://www.w3.org/2000/svg" xmlns:xlink="http://www.w3.org/1999/xlink" width="385" height="435">
	<path fill="#F39191" transform="scale(2.21272 2.22127)" d="M60.2067 96.7864C59.6488 96.5183 59.026 95.8468 58.5329 95.451C52.1896 90.3602 45.2925 82.2645 42.5914 74.5239L41.2904 70.7782C41.262 70.6447 41.2412 70.5403 41.1912 70.4103C38.7172 63.9732 39.0466 52.4735 40.2119 45.9375C40.3995 44.8859 40.5363 43.7317 40.9053 42.724L41.8328 39.5211L45.4996 31.25C51.0285 22.6798 55.8832 16.1085 65.6011 11.5243L73.4665 8.466C79.1328 6.50984 86.1328 6.67977 91.9956 7.1875C92.5767 7.23783 93.3001 7.18455 93.8503 7.35881C96.7021 8.26211 99.7363 8.42889 102.562 9.49818L108.475 11.7953C120.823 17.4687 133.79 30.5344 136.965 44.1297C137.248 44.814 137.457 45.5569 137.648 46.2734L138.219 48.6542C138.319 49.0738 138.276 49.506 138.378 49.9375L138.665 51.4757C138.856 52.1669 138.766 52.9721 138.805 53.6875L138.9 60.2755C138.884 63.5544 138.215 66.5625 137.414 69.6965C136.555 73.0589 134.916 77.0539 132.996 80L132.265 81.2865C128.315 88.9781 117.714 98.048 110.311 102.034L96.8289 108.396C94.4786 109.594 94.3811 108.358 94.3771 111.4L94.3764 129.204L94.2723 142.497C94.733 142.94 100.009 142.752 100.929 142.751L128.003 142.75C129.657 142.752 131.139 142.655 132.625 143.5L132.744 143.567C133.974 144.289 134.758 145.713 134.967 147.101C134.981 147.841 134.869 148.533 134.507 149.188L134.461 149.277C133.879 150.39 132.901 151.111 131.709 151.478L131.232 151.612C130.059 151.919 128.823 151.854 127.613 151.855L97.6022 151.859C96.5367 151.859 95.4223 151.793 94.3637 151.89L94.3756 165.681L94.3788 171.957L94.4067 183.378C94.4477 185.959 95.0717 188.69 93.8957 191.125L93.8524 191.219C93.1968 192.557 91.1997 193.283 89.7928 192.917C89.481 192.836 89.1313 192.917 88.8168 192.966L88.6875 192.987C84.7924 191.433 84.9888 190.062 84.9882 186.456L84.9723 154.847C84.9606 153.888 85.0237 152.889 84.9425 151.937L84.9355 151.863L62.1038 151.861C60.0711 151.863 50.7623 152.408 49.48 151.549L49.0176 151.344C45.4056 150.189 43.6345 146.376 46.1252 143.095C47.9879 142.663 50.1187 142.894 52.0257 142.853L79.0156 142.742C80.9953 142.744 83.0433 142.633 85.0077 142.87L84.9985 108.997C84.4376 109.017 83.7996 109.026 83.2688 108.816L82.5925 108.527L82.52 108.531C81.5891 108.314 80.6486 107.834 79.75 107.5C74.1618 105.422 64.6679 100.88 60.2067 96.7864ZM48.1106 53.5846C47.7402 55.4458 47.8459 58.9885 48.2981 60.9543L49.6186 67.75C53.9723 81.5289 63.0443 91.0772 76.5978 96.6573L84.132 99.748C85.9098 100.381 87.7031 101.104 89.4375 101.854C90.9416 100.639 93.216 99.8922 94.9659 99.0902L101.718 96.092C104.096 95.0527 106.568 93.8072 108.719 92.344L113.562 88.7486C116.355 86.5486 119.631 83.1545 121.656 80.2805L123.155 78.155C124.407 76.2521 126.031 73.8652 126.721 71.7111C127.701 68.6516 128.364 66.8225 129.111 63.625C129.364 62.5452 129.298 61.3504 129.529 60.2541C130.326 56.4745 129.576 51.106 128.751 47.4375C125.921 34.8677 116.207 24.1829 104.487 19.1875C102.388 18.2928 99.8236 17.165 97.5537 16.7754L96.4213 16.5109C92.9728 15.7179 86.2828 14.7147 82.7037 15.5907C81.1292 15.976 79.4239 15.8575 77.8544 16.3945L73.6178 17.7785C73.4836 17.8159 73.378 17.8751 73.2537 17.9342C66.6934 21.0483 62.0208 23.8729 57.6256 29.62C52.3308 36.5435 48.9977 44.9097 48.1106 53.5846Z"/>
	<path fill="#FEFADC" transform="scale(2.21272 2.22127)" d="M60.2067 96.7864L62.7298 98.2975C62.9935 98.5038 63.2507 98.5815 63.4375 98.875L63.5584 98.9144C65.058 99.432 68.3888 102.043 70.3342 102.895L71.7866 103.642C72.4855 104.029 73.504 104.492 74.2494 104.751L75.0842 105.145C76.2315 105.642 77.3304 106.158 78.4992 106.645L78.585 106.706C78.7901 106.843 79.1879 106.939 79.4375 107.064L79.875 107.25C80.0496 107.352 80.2745 107.353 80.4688 107.344L80.5625 107.186C79.5631 105.697 74.9218 104.932 73.9062 103.876C74.8216 103.669 79.9091 106.362 80.9727 106.828C81.5442 107.079 84.2186 107.648 82.4124 108.161C82.4625 108.318 82.4929 108.389 82.5925 108.527L82.52 108.531C81.5891 108.314 80.6486 107.834 79.75 107.5C74.1618 105.422 64.6679 100.88 60.2067 96.7864Z"/>
	<defs>
		<linearGradient id="gradient_0" gradientUnits="userSpaceOnUse" x1="90.117897" y1="184.45432" x2="95.487495" y2="187.40263">
			<stop offset="0" stop-color="#EFA56A"/>
			<stop offset="1" stop-color="white"/>
		</linearGradient>
	</defs>
	<path fill="url(#gradient_0)" transform="scale(2.21272 2.22127)" d="M89.7928 192.917C90.8952 190.855 93.1865 191.783 93.1923 187.206L93.1924 183.924C93.1908 179.772 92.9306 175.443 93.2921 171.312C93.6518 171.744 93.0164 177.409 93.3066 178.62L94.0836 178.625L94.2534 171.957L94.4067 183.378C94.4477 185.959 95.0717 188.69 93.8957 191.125L93.8524 191.219C93.1968 192.557 91.1997 193.283 89.7928 192.917Z"/>
	<path fill="#F5DFD1" transform="scale(2.21272 2.22127)" d="M48.3949 150.269C46.8286 149.288 49.7705 149.948 50.2334 150.027L81.3885 149.995C82.5504 149.997 83.8383 149.895 84.9843 150.069L84.9254 151.863L62.1038 151.861C60.0711 151.863 50.7623 152.408 49.48 151.549L49.4348 151.325C49.2286 151.071 49.0883 150.962 48.7723 150.865L48.3949 150.269Z"/>
	<path fill="#FFE2C4" transform="scale(2.21272 2.22127)" d="M48.3949 150.269C46.8286 149.288 49.7705 149.948 50.2334 150.027L50.4724 150.196C50.3235 150.383 50.3166 150.387 50.3125 150.625L50.3947 150.75C49.9975 150.96 49.8904 150.954 49.4363 150.938L48.3949 150.269Z"/>
	<defs>
		<linearGradient id="gradient_1" gradientUnits="userSpaceOnUse" x1="113.45821" y1="148.08075" x2="114.06627" y2="153.25478">
			<stop offset="0" stop-color="#F5EFEC"/>
			<stop offset="1" stop-color="#FFF8F5"/>
		</linearGradient>
	</defs>
	<path fill="url(#gradient_1)" transform="scale(2.21272 2.22127)" d="M134.967 147.101C134.981 147.841 134.869 148.533 134.507 149.188L134.461 149.277C133.879 150.39 132.901 151.111 131.709 151.478L131.232 151.612C130.059 151.919 128.823 151.854 127.613 151.855L97.6022 151.859C96.5367 151.859 95.4223 151.793 94.3637 151.89L94.3756 165.681L94.1553 155.062C94.035 154.899 94.0245 154.924 93.8428 154.864L94.125 153C93.7735 152.666 93.8517 152.422 94 152L93.875 151.852C92.7791 151.527 92.61 152.053 92.9848 153.158C93.2086 153.817 93.0099 154.719 93.0792 155.422L93.1169 156.181C92.8957 155.425 92.3107 150.559 93.0857 150.369C94.5145 150.018 95.967 150.016 97.4301 150.002L127.972 149.992C129.13 149.991 130.877 150.21 131.914 149.699L132.062 149.623C133.184 149.072 133.258 147.663 134.688 147.674C134.881 147.513 134.893 147.337 134.967 147.101Z"/>
	<path fill="#F5DFD1" transform="scale(2.21272 2.22127)" d="M48.1874 53.5846C47.9164 53.5422 47.6906 53.493 47.4375 53.3858C46.103 44.1445 52.4875 32.9324 58.5805 26.1085C66.4928 17.247 81.3308 11.2985 92.9375 14.8052L92.8084 14.868C92.4097 14.7475 89.8417 13.9275 90.2946 14.8661C90.6239 15.5484 91.7435 15.1068 92.3119 15.3737L92.4363 15.4375C93.6434 15.0404 94.9695 16.0085 96.1027 16.0676L96.4213 16.5109C92.9728 15.7179 86.2828 14.7147 82.7037 15.5907C81.1292 15.976 79.4239 15.8575 77.8544 16.3945L73.6178 17.7785C73.4836 17.8159 73.378 17.8751 73.2537 17.9342C66.6934 21.0483 62.0208 23.8729 57.6256 29.62C52.3308 36.5435 48.9977 44.9097 48.1874 53.5846Z"/>
	<defs>
		<linearGradient id="gradient_2" gradientUnits="userSpaceOnUse" x1="127.26353" y1="103.49259" x2="103.51428" y2="83.120712">
			<stop offset="0" stop-color="#E9B47F"/>
			<stop offset="1" stop-color="#FFF7F1"/>
		</linearGradient>
	</defs>
	<path fill="url(#gradient_2)" transform="scale(2.21272 2.22127)" d="M136.965 44.1297C137.248 44.814 137.457 45.5569 137.648 46.2734L138.219 48.6542C138.319 49.0738 138.276 49.506 138.378 49.9375L138.665 51.4757C138.856 52.1669 138.766 52.9721 138.805 53.6875L138.9 60.2755C138.884 63.5544 138.215 66.5625 137.414 69.6965C136.555 73.0589 134.916 77.0539 132.996 80L132.265 81.2865C128.315 88.9781 117.714 98.048 110.311 102.034L96.8289 108.396C94.4786 109.594 94.3811 108.358 94.3771 111.4L94.3764 129.204L94.2723 142.497C93.9992 142.367 93.7699 142.285 93.5355 142.198L93.4319 142.16C93.1034 140.494 93.2159 138.704 93.2147 137.013L93.2176 129.459L93.2 115.141C93.1879 112.588 92.1954 108.972 94.3789 107.865L106.462 102.209C128.581 91.4076 141.371 70.6922 136.021 45.5C136.267 45.966 136.477 46.459 136.574 46.9793L137.594 47.3131C137.457 46.8232 137.143 46.1126 137.08 45.6463L137.064 45.5C137.023 45.3309 136.998 45.0523 136.935 44.9119L136.895 44.8342C136.783 44.5465 136.832 44.3896 136.965 44.1297Z"/>
</svg>
