<?xml version="1.0" encoding="utf-8" ?>
<svg xmlns="http://www.w3.org/2000/svg" xmlns:xlink="http://www.w3.org/1999/xlink" width="570" height="489">
	<path transform="scale(1.54742 1.48197)" d="M10.5199 222.338C12.1636 216.17 16.7002 210.207 20.7783 205.423C21.6062 204.452 23.5632 202.795 24.0019 201.629C24.1845 201.144 23.9948 199.501 23.9973 198.898C24.0103 195.809 24.1717 192.412 25.4232 189.54C27.6431 184.445 31.2778 182.009 36.3385 180.057L38.2495 164.494L38.9706 158.291C39.0256 157.705 39.2899 156.933 39.2665 156.375C39.2618 156.262 39.0292 155.907 38.9679 155.786C36.0103 154.61 32.8397 151.665 30.9885 149.125C28.2135 145.318 26.9853 139.374 27.7026 134.75L28.0006 131.875C28.8652 125.782 31.2916 119.719 33.4886 114C44.0054 86.6251 61.0191 61.1238 84.4771 43.1327C103.028 28.9051 123.79 18.2753 146.529 12.5734C154.677 10.5302 162.837 9.33046 171.163 8.39054C177.66 7.65698 183.922 7.40503 190.459 7.46081C193.251 7.48463 196.055 7.38774 198.83 7.75416C200.735 7.7541 202.694 7.80091 204.559 8.2321C211.649 8.63684 218.819 10.0671 225.718 11.6926C257.349 19.145 287.732 36.347 309.487 60.6949C315.056 66.9271 320.413 73.4776 324.963 80.5C329.824 88.0017 333.795 95.923 337.487 104.037L340.07 110.387C340.317 111.023 340.906 112.035 340.942 112.691C343.534 119.051 345.975 125.802 346.94 132.625C347.119 133.888 346.995 135.176 347.131 136.445C347.318 138.194 347.203 142.805 346.212 144.218L346.118 144.324L346.051 144.589C344.974 148.722 341.484 152.248 338.084 154.625C337.73 154.873 336.219 155.628 336.04 155.969C335.973 156.096 336.359 157.773 336.395 158.125C337.136 165.342 337.491 172.651 338.852 179.791C343.698 182.513 348.747 186.037 350.317 191.732C350.603 192.771 350.881 193.958 350.896 195.044C350.926 197.114 349.88 200.268 350.875 202.127C351.652 203.579 353.718 205.093 354.826 206.407C358.299 210.526 360.928 214.686 363.141 219.582C364.184 221.892 365.319 224.769 365.591 227.311L366.406 232.562C366.793 234.39 366.586 236.613 366.581 238.491C366.567 244.202 366.62 250.212 365.269 255.798C364.146 261.04 362.371 265.962 360.242 270.875C355.494 281.828 348.608 292.455 338.408 299.022C329.628 304.673 320.35 306.541 310.053 306.551C309.392 306.551 306.534 306.341 306.181 306.824C305.152 308.228 303.688 309.513 302.25 310.49L302.003 310.661C298.053 313.35 293.011 314.853 288.234 313.94C283.76 313.084 279.541 310.452 277.043 306.59C275.357 303.985 274.405 299.938 275.084 296.85L275.278 296.172L275.346 295.49C275.803 293.625 276.478 291.873 277.311 290.146C277.626 289.279 278.122 288.448 278.55 287.629L307.249 218.02L307.429 217.731L314.704 199.544L306.207 196.807L280.409 260.373L280.137 261.018C278.843 264.875 277.157 268.595 275.659 272.375C274.116 276.27 272.772 280.912 270.485 284.418C269.151 286.463 267.503 288.201 265.297 289.319C262.207 290.887 258.111 291.251 254.802 290.127C250.418 288.639 246.867 285.546 244.848 281.39C243.792 279.215 243.181 276.396 243.385 273.983C243.729 269.925 245.06 266.02 246.423 262.21L251.475 249L260.248 225.558L262.553 219.537L275.026 189.407C277.428 184.172 280.766 178.746 286.443 176.661C292.733 174.351 299.835 176.154 304.257 181.234C305.133 182.241 306.014 183.334 306.726 184.465C307.152 185.14 307.532 186.073 308.022 186.675C308.75 187.568 315.738 189.078 317.286 189.807L317.539 189.928C318.687 188.361 319.638 186.65 320.835 185.125C322.91 182.484 325.64 180.364 328.596 178.794L326.272 158.24C325.584 157.659 323.521 157.491 322.586 157.201C321.622 156.901 320.677 156.431 319.776 155.978C310.56 151.34 308.906 140.056 305.998 131.289C296.063 101.334 273.459 75.5844 245.25 61.4703C230.255 53.9678 213.483 48.8126 196.708 47.6177C192.949 47.3499 189.061 47.4336 185.289 47.4665C181.489 47.4996 177.673 47.4773 173.889 47.8724C164.892 48.8117 156.313 50.8811 147.749 53.7186C121.177 62.5227 97.7567 80.4889 82.3974 103.898C78.9346 109.176 76.1909 114.676 73.379 120.302C73.1131 120.978 72.8782 121.872 72.4378 122.446C71.9943 123.989 71.2395 125.483 70.6525 126.983L68.2485 133.703C67.2029 136.747 66.6203 140.362 65.2373 143.219L65.1059 143.535L65.0396 143.838C64.089 148.095 61.2316 151.76 57.5716 154.041C55.7527 155.175 53.8712 156.055 51.9011 156.89C51.097 157.23 49.4676 157.719 49.0549 158.501C48.8664 158.859 48.7901 159.553 48.6946 159.959C47.7274 164.068 47.5182 168.66 47.175 172.875C47.0303 174.651 47.0137 176.469 46.6235 178.212C47.8109 178.997 49.1057 179.658 50.2664 180.47C51.6253 181.422 52.9615 182.998 54.0111 184.285C54.8776 185.347 55.5876 186.5 56.2946 187.671C56.4163 187.873 56.8373 188.743 56.9953 188.844C57.0274 188.864 59.2609 188.493 59.6049 188.463C61.8724 188.267 64.3578 187.905 66.6196 188.053C67.4782 186.342 68.2497 184.417 69.2659 182.806C71.3203 179.548 74.7315 177.041 78.364 175.859C82.0284 174.665 86.4843 175.316 89.859 177.048C93.5129 178.922 96.1376 182.739 98.0891 186.245C100.991 191.457 103.004 197.319 105.115 202.886L112.231 221L124.596 252.165C126.325 256.673 128.5 261.02 129.922 265.651L131.011 270.116C131.434 273.31 132.354 278.502 130.406 281.303L130.164 281.91C128.648 285.402 124.516 288.326 121.09 289.66C117.374 291.106 113.102 291.045 109.464 289.417C106.851 288.247 105.065 286.129 103.764 283.625C102.412 281.023 101.674 278.1 100.677 275.35L94.4923 259.22L78.7942 221.619L68.4225 197.043L59.5062 199.009C60.9201 201.315 61.7973 204.035 62.8895 206.513L72.9226 230.593L92.473 277.284L97.0842 288.476C98.2511 291.238 99.5344 293.832 100.279 296.75C100.606 298.031 100.647 299.577 100.437 300.894C99.8617 304.509 96.7916 308.15 93.8683 310.18C89.2499 313.387 84.3478 314.696 78.8125 313.634C74.7188 312.848 70.851 310.293 68.5425 306.821L58.4043 306.25C44.9459 304.842 33.7856 299.279 25.2239 288.659C15.0872 276.084 8.19389 258.308 7.91361 242.075C7.88316 240.312 7.72459 238.371 7.92227 236.624C8.07118 235.309 8.00766 234.037 8.25818 232.721C8.25934 229.573 9.34643 225.231 10.5199 222.338ZM44.1693 114.532C43.883 115.321 43.6206 116.383 43.1389 117.057L41.1438 122.525L38.7569 131.587L38.3124 135.261C37.9164 137.979 38.1734 141.866 39.8463 144.126C41.2789 146.061 43.2386 147.04 45.5896 147.34C48.2563 147.68 50.8386 146.779 52.9093 145.151C54.4965 143.903 55.3991 141.584 56.1474 139.757L58.3376 131.381C61.524 119.236 67.5713 107.239 74.5441 96.8598C89.8321 74.1038 112.432 56.5799 137.819 46.418C145.109 43.5004 152.789 41.0017 160.5 39.5038C167.523 38.1396 174.618 37.7233 181.75 37.469C186.638 37.2948 191.486 37.1735 196.375 37.5148C221.489 39.2679 245.281 47.8879 266.083 61.9319C287.598 76.4576 305.437 98.6161 313.864 123.248C315.078 126.796 316.329 130.481 317.06 134.16C317.936 138.566 319.873 143.642 323.844 146.133C326.064 147.526 327.593 147.544 330.049 146.996C330.415 146.914 330.775 146.834 331.125 146.694C333.534 145.724 335.398 143.669 336.374 141.295C339.48 133.748 332.539 118.036 329.415 110.818C313.012 72.9199 281.332 42.2156 242.781 27.2018C220.474 18.5142 196.367 15.6402 172.604 18.1481C169.919 18.4315 167.162 18.5627 164.5 18.9966C149.858 21.3838 135.869 25.7055 122.341 31.7748C115.749 34.7323 109.371 38.4402 103.286 42.325C76.4399 59.4639 55.4649 84.6751 44.1693 114.532ZM21.116 223.521C19.0423 230.313 17.7128 236.803 18.2654 243.955C18.5285 244.857 18.4435 245.818 18.5201 246.75C18.6775 248.666 18.856 250.738 19.2036 252.625C21.1935 263.428 26.1369 274.246 33.375 282.535C38.5555 288.468 45.9677 293.905 53.7949 295.522C57.3235 296.251 61.069 296.348 64.6595 296.587L30.6209 211.06C26.3066 214.714 23.6121 218.447 21.116 223.521ZM344.547 211.125L310.761 296.354C314.249 296.507 318.213 296.457 321.557 295.309C333.143 291.815 342.381 283.311 348.018 272.768C355.497 258.78 359.086 241.332 354.354 225.928C352.642 220.355 349.423 214.964 345.115 211.032L344.547 211.125ZM40.4788 189.525C39.1884 190.034 38.068 190.585 36.8923 191.313C35.1365 192.402 33.8693 194.153 32.6038 195.743C34.7777 199.048 37.1945 202.452 39.0269 205.953C41.2601 210.22 42.9088 214.907 44.6043 219.404L50.2283 233.671L69.9943 282.625L74.0426 293.451C74.7536 295.396 75.3886 297.607 76.3724 299.416C77.6239 301.716 79.0066 303.665 81.7198 304.232L82.0971 304.306C84.2693 303.932 87.1906 303.497 88.5573 301.545C89.1945 300.634 89.3582 299.657 89.1535 298.582C88.3748 294.49 86.2942 291.004 84.625 287.255L79.5203 275.163L60.0669 227.91L54.0624 212.219L50.7069 202.846C49.6128 199.413 48.7814 192.597 45.5 190.526C43.8089 189.459 42.4112 189.463 40.4788 189.525ZM326.161 196.044C325.998 196.679 324.87 199.726 324.972 200.219L323.108 205.937L322.191 208.54C321.901 209.3 321.607 210.45 321.121 211.077C319.877 215.695 317.747 220.271 315.932 224.704L307.841 244.6L304.545 252.651C304.195 253.507 303.855 254.87 303.325 255.594L303.102 256.029C302.517 258.692 300.895 261.654 299.865 264.195L291.538 284.454C289.796 288.454 287.363 292.346 286.112 296.541C285.618 298.198 285.548 299.528 285.712 301.251C286.645 302.059 287.68 303.079 288.793 303.615C289.997 304.195 292.275 304.247 293.517 303.793C295.912 302.917 297.604 300.374 298.697 298.183C300.261 295.048 301.248 291.529 302.498 288.25L309.509 270.625L327.405 226.674L335.509 206.885C337.314 202.949 339.785 199.338 341.704 195.446C338.829 192.907 337.332 189.989 333.036 189.736C332.262 189.691 331.079 189.547 330.381 189.922C328.189 191.1 327.006 193.861 326.161 196.044ZM81.6061 185.257C79.5633 185.93 79.0383 186.559 77.8851 188.34C78.0824 190.39 78.4161 192.047 79.1591 193.984L87.3979 213.213L100.924 246.176L109.851 270.133C111.214 273.761 112.36 277.43 114.112 280.901L117.516 280.105C118.948 279.703 120.166 278.296 121.261 277.327C121.231 274.523 120.994 271.956 120.19 269.25C116.621 257.228 111.072 245.672 106.516 234L95.8078 207.554C93.5827 202.089 91.6457 196.496 89.0981 191.168C88.3812 189.668 87.4955 188.196 86.2982 187.038C84.8266 185.616 83.6515 185.374 81.6061 185.257ZM255.161 267.541C254.173 270.75 253.243 273.93 253.856 277.311L254.194 278.125L254.281 278.342C254.913 279.789 257.109 280.489 258.491 281.019C259.902 280.372 261.094 279.84 261.859 278.428C263.489 275.422 264.332 271.789 265.452 268.561L269.261 258.836L288.254 211.688L289.831 207.915L290.283 206.667L291.323 204.244C292.57 200.616 297.437 191.039 296.416 187.734C296.219 187.098 295.222 186.452 294.628 186.222C293.895 185.938 292.249 185.243 291.526 185.579C289.755 186.401 288.41 187.424 287.246 189.011C285.109 191.929 284.053 195.907 282.704 199.252L278.819 208.751L255.161 267.541ZM340.942 112.691C340.203 113.533 340.362 114.323 340.377 115.375L340.625 115.623L340.873 115.25C340.877 115.953 341.199 117.946 341.625 118.373L341.873 118C341.875 118.256 342.107 120.074 342.245 120.281C342.406 120.523 342.444 120.72 342.501 120.999C342.999 121.331 343.004 121.61 343.104 122.203C343.155 122.506 343.137 122.82 343.127 123.125C343.436 123.587 343.23 123.697 343.377 124.125C343.46 124.365 344.037 124.633 344.127 124.875C344.393 125.584 344.086 127.431 344.495 128.017C344.821 128.485 344.902 128.702 345.001 129.249L345.072 129.554C345.152 129.911 345.139 130.262 345.127 130.625C345.619 131.363 345.52 134.087 345.369 135.027L345.25 135.5C345.401 135.941 345.479 136.216 345.877 136.5L345.875 138L345.415 138.375C345.66 140.716 345.268 142.546 344.875 144.826L344.595 144.784L344.126 146.812L344.448 146.875C344.899 146.146 344.663 145.678 344.925 145.024L345.125 145.535C345.266 144.866 345.299 144.801 345.796 144.332L346.118 144.324L346.212 144.218C347.203 142.805 347.318 138.194 347.131 136.445C346.995 135.176 347.119 133.888 346.94 132.625C345.975 125.802 343.534 119.051 340.942 112.691ZM18.2654 243.955C17.7128 236.803 19.0423 230.313 21.116 223.521C21.0657 223.229 20.8908 222.745 21.0451 222.5C21.3741 221.976 21.6247 221.441 21.8725 220.875L21.6964 220.7L21.3377 220.3C20.4819 221.273 20.4305 222.208 19.7992 223.242C19.3915 223.909 19.4298 224.536 19.2006 225.25C18.5364 227.319 17.6616 229.605 17.4662 231.794C17.2895 233.773 17.3606 235.802 17.3661 237.787C17.3675 238.311 17.514 239.417 17.375 239.877C17.2406 240.323 17.1275 240.311 17.1275 240.875C17.7735 241.844 17.3775 245.553 17.3775 246.865C17.3775 247.366 17.2574 247.755 17.625 248.123C18.5585 246.954 17.9092 245.384 18.2654 243.955ZM365.269 255.798C366.62 250.212 366.567 244.202 366.581 238.491C366.586 236.613 366.793 234.39 366.406 232.562L365.591 227.311L365.087 227.441L364.875 226.195L364.558 226.264C364.528 226.947 364.471 227.598 364.625 228.271L364.894 228.125C364.984 229.873 365.397 231.529 365.493 233.25C365.806 238.865 365.567 244.662 365.042 250.25C364.968 251.036 365.148 252.195 364.833 252.875L364.608 252.542C364.506 253.53 364.238 254.776 364.521 255.729L364.833 255.602C364.975 255.064 365.033 254.572 365.057 254.017L365.309 254.25C365.275 254.759 365.207 255.291 365.269 255.798ZM253.856 277.311C253.243 273.93 254.173 270.75 255.161 267.541C254.964 266.485 255.44 265.935 254.795 265.108L254.625 264.892L254.578 265.164C254.389 266.229 253.932 266.9 253.582 267.875C253.271 268.741 253.178 269.835 252.981 270.743C252.874 271.238 252.865 271.51 253.001 271.999L253.125 272.127C252.855 272.536 252.877 272.627 252.873 273.125L252.625 272.877C252.122 273.715 252.376 275.627 252.379 276.625L252.625 276.873L252.877 276.75L253.384 277.306L253.856 277.311ZM38.7569 131.587L41.1438 122.525C41.0693 121.753 41.3875 120.98 41.125 120.377L40.8725 120.25L40.625 119.627C40.1542 121.871 39.0326 123.924 38.5249 126.125C38.3725 126.786 38.5449 127.584 38.2493 128.188C37.9762 128.747 38.1163 129.75 38.1275 130.375L38.375 130.623L38.6275 129.875L38.7569 131.587ZM130.406 281.303C132.354 278.502 131.434 273.31 131.011 270.116C130.841 270.353 130.47 270.742 130.377 271C130.283 271.263 130.383 271.943 130.385 272.269C130.39 273.493 130.639 275.457 130.231 276.574C129.718 277.98 129.528 279.929 129.295 281.438L129.679 281.694L130.118 281.098L130.406 281.303ZM10.5199 222.338C9.34643 225.231 8.25934 229.573 8.25818 232.721L8.40534 233.21C8.57076 233.949 8.79214 235.253 8.3775 235.875L8.875 236.373C9.38556 235.484 9.11671 233.428 9.11497 232.375L9.375 232.25L9.58676 230.752L9.625 230.185C10.0257 229.111 10.6055 226.585 10.6258 225.42L10.625 225.187C10.8195 225.003 10.8782 224.885 10.9462 224.623C11.2186 223.572 11.0247 223.251 10.5199 222.338ZM58.3376 131.381L56.1474 139.757L56.7474 139.62C56.9963 139.605 57.1333 139.598 57.375 139.534C57.4906 139.124 57.6346 138.704 57.6222 138.274L57.6103 138.037L57.875 137.973L59.2633 132C59.0251 131.606 58.7456 131.533 58.3376 131.381ZM324.026 198.535C323.551 199.52 323.523 200.38 323.2 201.375C323.03 201.896 322.684 202.352 322.521 202.875C322.254 203.732 322.449 204.602 321.897 205.375C322.33 205.535 322.712 205.698 323.108 205.937L324.972 200.219L324.625 199.377L324.375 199.623C324.15 199.268 324.099 198.939 324.026 198.535ZM262.553 219.537L260.248 225.558C260.531 225.887 260.692 226.234 260.875 226.623C261.3 226.266 261.429 225.768 261.574 225.25C262.123 223.288 263.308 221.556 263.618 219.5L263.3 219.282C263.245 219.685 263.191 219.946 263 220.314C262.818 220.125 262.735 220.008 262.634 219.757L262.553 219.537ZM198.83 7.75416C198.014 8.34918 197.365 8.23523 196.375 8.25961C194.269 8.3115 191.365 7.84487 189.377 8.375L189.625 8.71597C194.473 8.56503 199.795 8.93679 204.559 8.2321C202.694 7.80091 200.735 7.7541 198.83 7.75416ZM72.4378 122.446C72.8782 121.872 73.1131 120.978 73.379 120.302C73.2508 119.272 73.1589 119.211 73.8725 118.375L73.3302 117.558C73.1073 117.946 72.9228 118.362 72.5482 118.625L72.5133 118.815C72.3729 119.533 72.1583 120.274 71.5626 120.75C71.412 121.438 71.2618 122.068 71.0134 122.729C70.9327 122.943 70.969 122.889 71.0012 123.188L71.3989 123.673C71.715 123.14 71.8296 122.543 72.2524 122.175L72.4378 122.446ZM324.026 198.535C324.099 198.939 324.15 199.268 324.375 199.623L324.625 199.377L324.972 200.219C324.87 199.726 325.998 196.679 326.161 196.044L325.5 195.5L325.438 194.539C324.745 195.668 324.33 197.238 324.026 198.535ZM43.1389 117.057C43.6206 116.383 43.883 115.321 44.1693 114.532C43.4696 113.845 43.4973 113.83 43.4375 112.845C43.2429 113.374 43.075 113.874 42.7597 114.346C42.2733 115.073 42.1858 116.165 41.8982 117L42.2512 117.476C42.5336 117.366 42.5942 117.308 42.7968 117.098L43.1389 117.057ZM321.121 211.077C321.607 210.45 321.901 209.3 322.191 208.54C321.622 207.992 321.511 207.938 321.375 207.171L320.876 208.1C320.352 209.053 320.259 210.109 319.877 211.125C320.074 211.376 320.144 211.477 320.435 211.625L320.698 211.15L321.121 211.077ZM55.5067 88.625L55.4073 88.8306C55.0793 89.496 54.5791 89.88 54.3445 90.5552C54.2185 90.9179 54.043 91.2589 53.875 91.6035L53.5594 91.75L53.5222 91.9051C53.3855 92.4452 53.2048 92.8027 52.8775 93.25L53.3096 93.6046L53.6044 93.375C54.0848 92.5551 54.5318 91.638 55.115 90.8999C55.5504 90.3489 55.7648 89.6337 56.1907 89.0625C56.0051 88.9375 55.7143 88.6779 55.5067 88.625ZM65.1059 143.535L65.2373 143.219L65.1862 143.079C65.0493 142.695 64.9714 142.417 64.9858 142.001L64.8125 142.001L64.6875 143.188C64.3693 142.803 64.4501 142.049 64.4375 141.557L62.994 145.875L62.8775 146.375L63.375 146.873C64.034 145.771 64.0592 144.65 64.6726 143.612L65.1059 143.535ZM289.831 207.915L288.254 211.688C288.695 211.784 288.827 212.05 289.125 212.373C289.505 211.529 290.701 209.358 290.499 208.501L290.292 208.501L290.125 209.238C290.144 208.782 289.964 208.345 289.831 207.915ZM291.323 204.244L290.283 206.667C290.605 206.848 290.828 206.955 291.007 207.291L291.125 207.527L292.193 205.054L292.462 204.5C292.612 204.025 292.603 203.8 292.375 203.377C292.273 203.803 292.218 204.034 291.924 204.375L291.323 204.244ZM280.137 261.018L280.409 260.373C280.36 260.004 280.156 259.244 280.367 258.969L280.849 258.25L280.682 258.03C280.498 257.78 280.435 257.577 280.375 257.27C279.701 258.434 279.461 259.577 278.877 260.75L278.995 260.918C279.116 261.099 279.182 261.239 279.251 261.442L279.353 261.358C279.566 261.206 279.796 261.145 280.038 261.057L280.137 261.018ZM277.311 290.146C277.512 290.421 277.601 290.591 277.645 290.923C277.682 291.201 277.725 291.363 277.875 291.609L278.121 290.751L278.375 290.614C278.519 289.862 278.883 289.485 279.094 288.75C279.035 288.297 278.798 287.997 278.55 287.629C278.122 288.448 277.626 289.279 277.311 290.146ZM303.102 256.029L303.325 255.594L302.872 255.515C303.076 255.023 303.146 254.57 303.305 254.087C303.342 253.975 303.465 253.841 303.53 253.75L303.849 253.25L303.682 253.028C303.504 252.786 303.436 252.591 303.375 252.294L302.711 253.469C302.328 254.129 302.204 255.025 301.877 255.75L302.251 256.422C302.568 256.1 302.65 256.115 303.102 256.029ZM307.429 217.731L307.249 218.02L307.598 218.198L307.666 218.999L307.438 218.812C307.296 219.022 307.312 218.943 307.285 219.163C307.244 219.484 307.227 219.769 307.12 220.079L307.036 220.315L307.25 220.621L307.377 220.482C307.663 220.104 307.73 219.504 307.927 219.06C308.447 217.888 309.752 215.77 309.498 214.501L309.294 214.501C309.247 215.276 308.736 215.584 308.705 216.358L308.702 216.5C308.424 216.824 308.343 217.124 308.229 217.524L308.183 217.689L307.429 217.731ZM47.2964 103.875C46.53 104.919 46.2843 105.921 45.8775 107.125L46.1871 107.484L46.5146 107.375C46.6917 107.135 47.7551 104.953 47.7356 104.789C47.6956 104.453 47.4705 104.158 47.2964 103.875ZM49.3567 99.625C49.1205 100.042 48.9267 100.443 48.5466 100.75L48.5219 100.906C48.41 101.552 48.1786 102.048 47.8775 102.625C48.0267 102.768 48.2826 103.097 48.4778 103.125L49.1264 101.984C49.2752 101.733 49.272 101.566 49.3376 101.296C49.4191 100.962 49.6753 100.653 49.8725 100.375L49.6939 100.215C49.4797 100.005 49.4345 99.9031 49.3567 99.625ZM275.346 295.49L275.278 296.172C276.132 298.091 275.044 300.567 275.875 302.119C275.956 301.955 276.036 301.812 276.052 301.625C276.16 300.37 275.97 299.038 276.016 297.766C276.025 297.501 276.167 296.578 276.079 296.375C275.974 296.131 275.528 295.709 275.346 295.49Z"/>
	<path transform="scale(1.54742 1.48197)" d="M275.346 295.49C275.528 295.709 275.974 296.131 276.079 296.375C276.167 296.578 276.025 297.501 276.016 297.766C275.97 299.038 276.16 300.37 276.052 301.625C276.036 301.812 275.956 301.955 275.875 302.119C275.044 300.567 276.132 298.091 275.278 296.172L275.346 295.49Z"/>
	<path transform="scale(1.54742 1.48197)" d="M49.3567 99.625C49.4345 99.9031 49.4797 100.005 49.6939 100.215L49.8725 100.375C49.6753 100.653 49.4191 100.962 49.3376 101.296C49.272 101.566 49.2752 101.733 49.1264 101.984L48.4778 103.125C48.2826 103.097 48.0267 102.768 47.8775 102.625C48.1786 102.048 48.41 101.552 48.5219 100.906L48.5466 100.75C48.9267 100.443 49.1205 100.042 49.3567 99.625Z"/>
	<path transform="scale(1.54742 1.48197)" d="M47.2964 103.875C47.4705 104.158 47.6956 104.453 47.7356 104.789C47.7551 104.953 46.6917 107.135 46.5146 107.375L46.1871 107.484L45.8775 107.125C46.2843 105.921 46.53 104.919 47.2964 103.875Z"/>
	<path transform="scale(1.54742 1.48197)" d="M307.429 217.731L308.183 217.689L308.229 217.524C308.343 217.124 308.424 216.824 308.702 216.5L308.705 216.358C308.736 215.584 309.247 215.276 309.294 214.501L309.498 214.501C309.752 215.77 308.447 217.888 307.927 219.06C307.73 219.504 307.663 220.104 307.377 220.482L307.25 220.621L307.036 220.315L307.12 220.079C307.227 219.769 307.244 219.484 307.285 219.163C307.312 218.943 307.296 219.022 307.438 218.812L307.666 218.999L307.598 218.198L307.249 218.02L307.429 217.731Z"/>
	<path transform="scale(1.54742 1.48197)" d="M303.102 256.029C302.65 256.115 302.568 256.1 302.251 256.422L301.877 255.75C302.204 255.025 302.328 254.129 302.711 253.469L303.375 252.294C303.436 252.591 303.504 252.786 303.682 253.028L303.849 253.25L303.53 253.75C303.465 253.841 303.342 253.975 303.305 254.087C303.146 254.57 303.076 255.023 302.872 255.515L303.325 255.594L303.102 256.029Z"/>
	<path transform="scale(1.54742 1.48197)" d="M277.311 290.146C277.626 289.279 278.122 288.448 278.55 287.629C278.798 287.997 279.035 288.297 279.094 288.75C278.883 289.485 278.519 289.862 278.375 290.614L278.121 290.751L277.875 291.609C277.725 291.363 277.682 291.201 277.645 290.923C277.601 290.591 277.512 290.421 277.311 290.146Z"/>
	<path transform="scale(1.54742 1.48197)" d="M280.137 261.018L280.038 261.057C279.796 261.145 279.566 261.206 279.353 261.358L279.251 261.442C279.182 261.239 279.116 261.099 278.995 260.918L278.877 260.75C279.461 259.577 279.701 258.434 280.375 257.27C280.435 257.577 280.498 257.78 280.682 258.03L280.849 258.25L280.367 258.969C280.156 259.244 280.36 260.004 280.409 260.373L280.137 261.018Z"/>
	<path transform="scale(1.54742 1.48197)" d="M291.323 204.244L291.924 204.375C292.218 204.034 292.273 203.803 292.375 203.377C292.603 203.8 292.612 204.025 292.462 204.5L292.193 205.054L291.125 207.527L291.007 207.291C290.828 206.955 290.605 206.848 290.283 206.667L291.323 204.244Z"/>
	<defs>
		<linearGradient id="gradient_0" gradientUnits="userSpaceOnUse" x1="289.80176" y1="210.3768" x2="289.19824" y2="210.1232">
			<stop offset="0" stop-color="#010001" stop-opacity="0.96078432"/>
			<stop offset="1" stop-color="#000100"/>
		</linearGradient>
	</defs>
	<path fill="url(#gradient_0)" transform="scale(1.54742 1.48197)" d="M289.831 207.915C289.964 208.345 290.144 208.782 290.125 209.238L290.292 208.501L290.499 208.501C290.701 209.358 289.505 211.529 289.125 212.373C288.827 212.05 288.695 211.784 288.254 211.688L289.831 207.915Z"/>
	<path transform="scale(1.54742 1.48197)" d="M65.1059 143.535L64.6726 143.612C64.0592 144.65 64.034 145.771 63.375 146.873L62.8775 146.375L62.994 145.875L64.4375 141.557C64.4501 142.049 64.3693 142.803 64.6875 143.188L64.8125 142.001L64.9858 142.001C64.9714 142.417 65.0493 142.695 65.1862 143.079L65.2373 143.219L65.1059 143.535Z"/>
	<path transform="scale(1.54742 1.48197)" d="M55.5067 88.625C55.7143 88.6779 56.0051 88.9375 56.1907 89.0625C55.7648 89.6337 55.5504 90.3489 55.115 90.8999C54.5318 91.638 54.0848 92.5551 53.6044 93.375L53.3096 93.6046L52.8775 93.25C53.2048 92.8027 53.3855 92.4452 53.5222 91.9051L53.5594 91.75L53.875 91.6035C54.043 91.2589 54.2185 90.9179 54.3445 90.5552C54.5791 89.88 55.0793 89.496 55.4073 88.8306L55.5067 88.625Z"/>
	<path transform="scale(1.54742 1.48197)" d="M321.121 211.077L320.698 211.15L320.435 211.625C320.144 211.477 320.074 211.376 319.877 211.125C320.259 210.109 320.352 209.053 320.876 208.1L321.375 207.171C321.511 207.938 321.622 207.992 322.191 208.54C321.901 209.3 321.607 210.45 321.121 211.077Z"/>
	<path transform="scale(1.54742 1.48197)" d="M43.1389 117.057L42.7968 117.098C42.5942 117.308 42.5336 117.366 42.2512 117.476L41.8982 117C42.1858 116.165 42.2733 115.073 42.7597 114.346C43.075 113.874 43.2429 113.374 43.4375 112.845C43.4973 113.83 43.4696 113.845 44.1693 114.532C43.883 115.321 43.6206 116.383 43.1389 117.057Z"/>
	<path transform="scale(1.54742 1.48197)" d="M324.026 198.535C324.33 197.238 324.745 195.668 325.438 194.539L325.5 195.5L326.161 196.044C325.998 196.679 324.87 199.726 324.972 200.219L324.625 199.377L324.375 199.623C324.15 199.268 324.099 198.939 324.026 198.535Z"/>
	<path transform="scale(1.54742 1.48197)" d="M72.4378 122.446L72.2524 122.175C71.8296 122.543 71.715 123.14 71.3989 123.673L71.0012 123.188C70.969 122.889 70.9327 122.943 71.0134 122.729C71.2618 122.068 71.412 121.438 71.5626 120.75C72.1583 120.274 72.3729 119.533 72.5133 118.815L72.5482 118.625C72.9228 118.362 73.1073 117.946 73.3302 117.558L73.8725 118.375C73.1589 119.211 73.2508 119.272 73.379 120.302C73.1131 120.978 72.8782 121.872 72.4378 122.446Z"/>
	<path transform="scale(1.54742 1.48197)" d="M198.83 7.75416C200.735 7.7541 202.694 7.80091 204.559 8.2321C199.795 8.93679 194.473 8.56503 189.625 8.71597L189.377 8.375C191.365 7.84487 194.269 8.3115 196.375 8.25961C197.365 8.23523 198.014 8.34918 198.83 7.75416Z"/>
	<path transform="scale(1.54742 1.48197)" d="M262.553 219.537L262.634 219.757C262.735 220.008 262.818 220.125 263 220.314C263.191 219.946 263.245 219.685 263.3 219.282L263.618 219.5C263.308 221.556 262.123 223.288 261.574 225.25C261.429 225.768 261.3 226.266 260.875 226.623C260.692 226.234 260.531 225.887 260.248 225.558L262.553 219.537Z"/>
	<path transform="scale(1.54742 1.48197)" d="M324.026 198.535C324.099 198.939 324.15 199.268 324.375 199.623L324.625 199.377L324.972 200.219L323.108 205.937C322.712 205.698 322.33 205.535 321.897 205.375C322.449 204.602 322.254 203.732 322.521 202.875C322.684 202.352 323.03 201.896 323.2 201.375C323.523 200.38 323.551 199.52 324.026 198.535Z"/>
	<path transform="scale(1.54742 1.48197)" d="M58.3376 131.381C58.7456 131.533 59.0251 131.606 59.2633 132L57.875 137.973L57.6103 138.037L57.6222 138.274C57.6346 138.704 57.4906 139.124 57.375 139.534C57.1333 139.598 56.9963 139.605 56.7474 139.62L56.1474 139.757L58.3376 131.381Z"/>
	<path transform="scale(1.54742 1.48197)" d="M10.5199 222.338C11.0247 223.251 11.2186 223.572 10.9462 224.623C10.8782 224.885 10.8195 225.003 10.625 225.187L10.6258 225.42C10.6055 226.585 10.0257 229.111 9.625 230.185L9.58676 230.752L9.375 232.25L9.11497 232.375C9.11671 233.428 9.38556 235.484 8.875 236.373L8.3775 235.875C8.79214 235.253 8.57076 233.949 8.40534 233.21L8.25818 232.721C8.25934 229.573 9.34643 225.231 10.5199 222.338Z"/>
	<path transform="scale(1.54742 1.48197)" d="M130.406 281.303L130.118 281.098L129.679 281.694L129.295 281.438C129.528 279.929 129.718 277.98 130.231 276.574C130.639 275.457 130.39 273.493 130.385 272.269C130.383 271.943 130.283 271.263 130.377 271C130.47 270.742 130.841 270.353 131.011 270.116C131.434 273.31 132.354 278.502 130.406 281.303Z"/>
	<path transform="scale(1.54742 1.48197)" d="M38.7569 131.587L38.6275 129.875L38.375 130.623L38.1275 130.375C38.1163 129.75 37.9762 128.747 38.2493 128.188C38.5449 127.584 38.3725 126.786 38.5249 126.125C39.0326 123.924 40.1542 121.871 40.625 119.627L40.8725 120.25L41.125 120.377C41.3875 120.98 41.0693 121.753 41.1438 122.525L38.7569 131.587Z"/>
	<path transform="scale(1.54742 1.48197)" d="M253.856 277.311L253.384 277.306L252.877 276.75L252.625 276.873L252.379 276.625C252.376 275.627 252.122 273.715 252.625 272.877L252.873 273.125C252.877 272.627 252.855 272.536 253.125 272.127L253.001 271.999C252.865 271.51 252.874 271.238 252.981 270.743C253.178 269.835 253.271 268.741 253.582 267.875C253.932 266.9 254.389 266.229 254.578 265.164L254.625 264.892L254.795 265.108C255.44 265.935 254.964 266.485 255.161 267.541C254.173 270.75 253.243 273.93 253.856 277.311Z"/>
	<path transform="scale(1.54742 1.48197)" d="M365.269 255.798C365.207 255.291 365.275 254.759 365.309 254.25L365.057 254.017C365.033 254.572 364.975 255.064 364.833 255.602L364.521 255.729C364.238 254.776 364.506 253.53 364.608 252.542L364.833 252.875C365.148 252.195 364.968 251.036 365.042 250.25C365.567 244.662 365.806 238.865 365.493 233.25C365.397 231.529 364.984 229.873 364.894 228.125L364.625 228.271C364.471 227.598 364.528 226.947 364.558 226.264L364.875 226.195L365.087 227.441L365.591 227.311L366.406 232.562C366.793 234.39 366.586 236.613 366.581 238.491C366.567 244.202 366.62 250.212 365.269 255.798Z"/>
	<path transform="scale(1.54742 1.48197)" d="M18.2654 243.955C17.9092 245.384 18.5585 246.954 17.625 248.123C17.2574 247.755 17.3775 247.366 17.3775 246.865C17.3775 245.553 17.7735 241.844 17.1275 240.875C17.1275 240.311 17.2406 240.323 17.375 239.877C17.514 239.417 17.3675 238.311 17.3661 237.787C17.3606 235.802 17.2895 233.773 17.4662 231.794C17.6616 229.605 18.5364 227.319 19.2006 225.25C19.4298 224.536 19.3915 223.909 19.7992 223.242C20.4305 222.208 20.4819 221.273 21.3377 220.3L21.6964 220.7L21.8725 220.875C21.6247 221.441 21.3741 221.976 21.0451 222.5C20.8908 222.745 21.0657 223.229 21.116 223.521C19.0423 230.313 17.7128 236.803 18.2654 243.955Z"/>
	<path transform="scale(1.54742 1.48197)" d="M340.942 112.691C343.534 119.051 345.975 125.802 346.94 132.625C347.119 133.888 346.995 135.176 347.131 136.445C347.318 138.194 347.203 142.805 346.212 144.218L346.118 144.324L345.796 144.332C345.299 144.801 345.266 144.866 345.125 145.535L344.925 145.024C344.663 145.678 344.899 146.146 344.448 146.875L344.126 146.812L344.595 144.784L344.875 144.826C345.268 142.546 345.66 140.716 345.415 138.375L345.875 138L345.877 136.5C345.479 136.216 345.401 135.941 345.25 135.5L345.369 135.027C345.52 134.087 345.619 131.363 345.127 130.625C345.139 130.262 345.152 129.911 345.072 129.554L345.001 129.249C344.902 128.702 344.821 128.485 344.495 128.017C344.086 127.431 344.393 125.584 344.127 124.875C344.037 124.633 343.46 124.365 343.377 124.125C343.23 123.697 343.436 123.587 343.127 123.125C343.137 122.82 343.155 122.506 343.104 122.203C343.004 121.61 342.999 121.331 342.501 120.999C342.444 120.72 342.406 120.523 342.245 120.281C342.107 120.074 341.875 118.256 341.873 118L341.625 118.373C341.199 117.946 340.877 115.953 340.873 115.25L340.625 115.623L340.377 115.375C340.362 114.323 340.203 113.533 340.942 112.691Z"/>
	<path transform="scale(1.54742 1.48197)" d="M340.301 243.258C341.838 243.176 343.151 243.34 344.434 244.283C345.476 245.051 345.693 246 345.875 247.197C346.038 248.265 346.008 249.204 345.848 250.267C345.061 255.47 341.466 267.462 337.119 270.61L336.875 270.783C336.005 271.413 335.141 271.683 334.125 272.002C333.677 272.042 333.194 272.079 332.75 271.989C330.571 271.543 329.332 269.798 328.182 268.086L328.833 265.145C329.511 262.917 330.625 260.954 331.455 258.804C333.004 254.789 333.906 250.01 336.366 246.458C337.374 245.002 338.767 244.083 340.301 243.258Z"/>
	<path transform="scale(1.54742 1.48197)" d="M33.099 243.497L33.4089 243.48C34.57 243.464 36.262 244.606 37.0074 245.435C37.9901 246.528 38.8377 247.879 39.4836 249.193C41.0215 252.323 42.0141 255.679 43.2762 258.917L45.724 265.25C46.0179 266.074 46.4737 267.029 46.3704 267.922C46.2691 268.797 45.8786 269.752 45.1877 270.312L44.9809 270.473C44.0576 271.234 43.0806 271.644 41.9899 272.12C40.8313 272.09 39.7932 272.031 38.7185 271.558C35.1796 270.004 33.6201 265.268 32.4808 261.875L30.0101 255.065C29.1801 252.927 27.4973 248.947 28.5079 246.788C29.4064 244.869 31.2159 244.158 33.099 243.497Z"/>
</svg>
