<?xml version="1.0" encoding="utf-8" ?>
<svg xmlns="http://www.w3.org/2000/svg" xmlns:xlink="http://www.w3.org/1999/xlink" width="512" height="512">
	<path d="M122.713 12.7513C126.619 11.8888 130.976 12.08 134.961 12.0707L149.96 12.0641L202.274 12.0663L324.622 12.075L364.913 12.0773L386.064 12.1017C387.629 12.1435 389.572 12.245 391.057 12.7502C390.097 12.7592 389.226 12.7479 388.3 13.0224L122.713 12.7513Z"/>
	<path d="M119.918 13.2483C120.82 13.004 121.79 12.9032 122.713 12.7513L388.3 13.0224C389.226 12.7479 390.097 12.7592 391.057 12.7502C399.336 14.3707 407.391 19.2507 412.099 26.3564C413.159 27.9557 414.019 29.7662 414.64 31.5766L414.755 31.902C416.629 37.4422 415.941 44.772 413.316 49.9776C410.201 56.1552 404.448 60.1978 397.943 62.276C395.548 63.0413 392.833 63.4778 390.338 63.7595L386.227 76.6169C385.813 78.0984 385.273 79.5561 384.965 81.0644L383.774 88.2102C383.637 89.1974 383.732 90.179 383.457 91.1328C383.237 91.8941 383.509 92.3716 383.56 93.125C383.665 94.6713 383.536 96.1839 383.712 97.75L387.001 118.79C387.678 124.575 387.533 130.462 387.092 136.25C386.735 140.943 386.292 145.506 385.339 150.125C384.782 152.821 384.323 155.407 383.369 158.008L382.391 161.42C382.101 162.314 381.867 163.36 381.381 164.166C380.3 167.958 378.662 171.311 377.022 174.875C367.088 196.462 350.926 214.733 332.346 229.362C325.484 234.765 318.019 239.394 310.757 244.234C307.385 246.481 299.831 250.454 302.516 255.528C303.755 257.868 306.144 259.289 308.223 260.807L321.322 269.701L328.396 274.921C343.23 285.993 356.305 299.949 366.752 315.193C367.454 316.219 371.993 322.953 371.895 323.733C374.526 327.552 376.687 332.52 378.414 336.819C379.042 338.383 379.832 339.879 380.312 341.499L381.306 344.405L383.009 349.375C385.019 356.169 386.17 363.079 386.904 370.112C387.182 372.776 387.521 375.697 387.324 378.369C387.287 378.873 387.33 379.32 387.379 379.822C387.988 386.042 386.89 392.931 386.123 399.117C385.871 401.151 385.802 403.411 385.253 405.376L384.214 413.528C383.882 415.379 383.919 417.327 383.904 419.203C383.84 426.823 385.375 433.628 388.01 440.75C388.507 442.094 388.807 443.995 389.589 445.167C390.174 446.043 391.49 446.016 392.459 446.111C399.092 446.76 405.578 449.341 409.909 454.616C414.189 459.83 416.079 466.559 415.415 473.258C414.713 480.337 411.112 486.382 405.575 490.802C400.59 494.781 394.302 496.881 388 497.477C382.44 498.004 376.58 497.698 370.992 497.697L340.607 497.696L244.272 497.694L162.102 497.694C157.437 497.695 152.654 497.488 148 497.753C139.857 498.218 131.466 498.435 123.349 497.473C115.193 496.507 106.975 492.878 101.795 486.323C100.153 484.246 98.9552 482.194 97.8581 479.796C96.9569 477.827 96.5012 475.343 96.3999 473.192L96.3477 473.11C96.197 469.061 96.616 465.9 97.8314 462.058C99.4585 459.094 100.728 456.543 103.1 454.055C107.79 449.138 114.826 445.646 121.69 445.518C122.096 445.511 122.43 445.566 122.799 445.371C123.111 445.206 123.188 444.105 123.259 443.737L124.883 438.106C126.939 430.529 128.476 422.841 127.918 414.951C127.685 411.661 127.003 408.381 126.512 405.125L124.552 389.875C123.977 382.546 124.657 375.511 125.129 368.222L128.445 351.675C135.721 324.838 153.303 300.924 173.968 282.754C178.336 278.914 182.894 275.063 187.638 271.693L195 266.549C199.848 263.416 206.077 260.796 209.625 256.082C210.334 255.14 210.381 254.052 210.225 252.924C209.978 251.13 208.897 249.935 207.564 248.783C206.161 247.569 204.584 246.728 203.021 245.757L194.987 240.614L177.395 227.695C172.519 224.032 168.033 219.73 163.705 215.446C159.641 211.424 155.586 207.263 152.022 202.786C139.786 187.417 131.516 169.842 127.027 150.75C125.893 145.924 125.523 141.125 124.783 136.25C124.371 133.529 124.455 130.747 124.471 128.001C124.518 119.88 125.79 112.007 126.902 103.986C127.281 101.254 127.333 98.3754 127.814 95.6778C128.209 93.4617 128.117 90.6793 127.915 88.4364C127.296 81.5635 125.528 75.4423 123.517 68.875C123.344 68.3114 122.276 64.5617 121.924 64.3925C121.11 64.0011 119.319 64.0183 118.333 63.7635C113.189 62.4346 108.743 60.4536 104.675 56.9771C100.803 53.668 96.752 48.1887 96.3688 42.9448C95.5547 40.6117 95.8939 36.7567 96.3877 34.3365C97.3492 30.7581 98.7244 27.7026 100.937 24.6931C105.323 18.7269 112.593 14.3634 119.918 13.2483ZM142.014 409.453C143.33 419.991 143.051 430.407 140.416 440.705C140.107 441.939 139.954 443.465 139.332 444.575L139.078 445.002L139.268 445.427C144.86 445.849 150.819 445.467 156.444 445.477L194.373 445.438L306.504 445.465L357.551 445.313L368.879 445.304C369.892 445.297 372.115 445.542 372.92 444.954C372.312 442.02 371.305 439.142 370.587 436.228C369.766 432.896 369.295 429.59 368.861 426.194C368.205 423.236 368.189 418.889 368.6 415.889C368.857 414.013 368.822 412.254 369.242 410.373C369.265 408.099 369.987 405.28 370.382 403.01L372.244 391.512C372.683 388.639 372.597 385.678 372.912 382.79C373.073 381.323 372.848 379.769 372.789 378.289C372.642 374.65 372.377 370.987 371.828 367.385C366.847 334.677 344.521 306.301 318.891 286.625C311.769 281.157 303.882 276.873 296.724 271.517C292.5 268.358 288.138 263.711 287.375 258.28C286.175 255.334 287.054 250.446 287.74 247.435C287.992 245.997 288.748 244.281 289.48 243.018L289.714 242.625C294.148 235.096 304.144 230.546 311.298 225.939L320.85 219.119C338.637 205.504 354.814 188.293 363.717 167.457C367.5 158.603 369.977 149.236 371.252 139.703L372.178 130.619L372.093 130.295C371.746 128.858 371.992 126.774 371.989 125.266C371.983 122.471 371.905 119.802 371.634 117.018C371.219 112.763 370.147 108.643 369.55 104.425C367.581 90.5258 368.708 77.3052 373.252 64.0033L138.503 64.246L138.67 64.6671C143.464 77.0007 144.431 91.9965 142.483 105C141.12 114.093 139.069 123.633 140.112 132.88L140.683 140.742C141.274 145.859 142.495 151.167 144.063 156.065C144.643 157.879 145.067 159.695 145.87 161.433C147.184 164.276 148.083 167.317 149.461 170.141C155.106 181.71 162.683 192.564 171.531 201.911C178.529 209.301 186.502 216.071 194.75 222.015L207.509 230.311C210.031 231.896 212.711 233.324 215.082 235.133C220.72 239.434 225.121 246.025 224.83 253.349C224.817 253.694 224.834 253.967 224.876 254.305C224.941 254.839 224.848 255.224 224.823 255.75L224.834 256.258C224.858 257.644 224.502 259.012 224.101 260.327L223.987 260.713C223.008 263.918 221.069 267.082 218.59 269.345C215.168 272.469 211.014 274.762 207.125 277.233L192.515 287.129C173.833 300.469 157.333 319.827 148.305 341C147.053 343.936 145.494 347.071 144.711 350.162C143.612 354.503 142.055 358.719 141.105 363.125C139.96 368.441 139.852 373.832 139.325 379.203C139.153 380.951 139.377 382.64 139.483 384.375C139.809 389.677 140.07 394.839 140.866 400.113C141.298 402.97 142.249 406.608 142.014 409.453ZM124.703 460.093C122.309 460.418 119.647 460.565 117.48 461.682C114.95 462.985 112.738 464.501 111.722 467.316C110.738 470.042 111.007 472.179 112.27 474.75C113.987 478.244 118.132 481.046 121.726 482.21C123.736 482.86 125.886 483.209 128 483.278L147.943 483.301L187.069 483.304L304.749 483.309L360.476 483.308L376.366 483.299C379.812 483.295 383.401 483.507 386.806 482.936C390.156 482.455 393.368 481.558 395.966 479.285L396.758 478.5L397.013 478.241C399.204 475.96 400.135 472.943 400.051 469.837C399.98 467.172 398.563 464.736 396.635 462.955C394.313 460.81 391.503 460.257 388.442 460.016C384.551 459.709 380.442 459.952 376.533 459.953L353.268 459.954L280.392 459.964L177.319 459.957L143.616 459.956L126.018 459.991L124.703 460.093ZM127.223 26.6064C122.339 26.9497 117.158 29.2575 113.923 32.9951C112.025 35.1867 110.851 37.6445 111.105 40.5856C111.275 42.5444 112.874 45.2378 114.399 46.375C116.448 47.9027 118.93 48.9825 121.484 49.2163C124.833 49.5229 128.311 49.3441 131.677 49.3408L148.835 49.3206L203.432 49.2949L384.921 49.3566C389.134 49.34 393.227 49.5645 396.713 46.758C398.78 45.0935 400.242 42.5775 400.476 39.914C400.738 36.9395 399.267 33.7002 397.332 31.4658C395.645 29.5179 392.443 27.7736 389.935 27.2782C382.718 25.8522 374.898 26.5099 367.515 26.5063L332.757 26.4958L200.354 26.4993L147.165 26.5032L133.317 26.5124C131.425 26.5159 129.067 26.2604 127.223 26.6064ZM119.918 13.2483C121.042 13.322 121.957 13.1526 122.875 13.842C123.522 13.6003 124.049 13.7318 124.691 13.6156C125.845 13.4067 126.762 13.5151 127.924 13.4489L139.273 13.344L169.183 13.374L324.05 13.3618L370.213 13.3481L382.861 13.3636C384.199 13.3792 385.885 13.6985 387.173 13.5496C387.552 13.5057 387.981 13.2049 388.3 13.0224L122.713 12.7513C121.79 12.9032 120.82 13.004 119.918 13.2483ZM371.895 323.733C371.958 324.912 372.06 325.516 372.479 326.625L372.625 327.246L372.89 326.875L372.948 327.243C373.048 327.751 373.23 328.041 373.432 328.5L373.669 329.16L373.89 328.875L373.989 329.271C374.104 329.696 374.261 329.978 374.415 330.375L374.651 331.125L374.89 330.875L374.988 331.235L375.289 332.102C375.446 332.505 375.499 332.824 375.543 333.25L375.827 333.561C376.257 334.058 376.339 334.635 376.457 335.26C377.202 336.047 377.271 336.836 377.625 337.826L377.927 337.76L378.52 340.066C378.638 340.589 378.557 340.382 378.812 340.785C379.231 341.449 379.39 342.228 379.539 342.991C379.643 343.528 379.562 343.274 379.808 343.72C380.106 344.261 380.212 344.786 380.373 345.376C380.51 345.876 380.446 345.678 380.701 346.201L380.906 346L381.117 347.109C381.244 347.814 381.337 348.769 381.625 349.41C381.773 349.74 382.013 349.9 382.121 350.274C382.38 351.177 382.276 352.446 382.625 353.243C382.827 353.703 382.946 353.574 383.171 354C383.637 354.879 383.23 356.383 383.625 357.243C383.758 357.532 384.058 357.718 384.203 358C384.328 358.242 384.324 359.044 384.358 359.336C384.504 360.616 384.44 361.95 384.932 363.125C385.861 365.347 385.074 367.982 385.888 370.125C386.137 370.781 386.088 371.907 386.169 372.625C386.903 379.136 386.329 385.508 385.927 392C385.876 392.828 386.078 393.719 385.75 394.484C385.417 395.262 385.449 396.385 385.375 397.236C385.194 399.302 384.814 401.486 385.192 403.5L385.253 405.376C385.802 403.411 385.871 401.151 386.123 399.117C386.89 392.931 387.988 386.042 387.379 379.822C387.33 379.32 387.287 378.873 387.324 378.369C387.521 375.697 387.182 372.776 386.904 370.112C386.17 363.079 385.019 356.169 383.009 349.375L381.306 344.405L380.312 341.499C379.832 339.879 379.042 338.383 378.414 336.819C376.687 332.52 374.526 327.552 371.895 323.733ZM142.014 409.453L141.873 426.625L141.625 426.377C141.235 426.964 141.316 428.708 141.189 429.5C141.063 430.29 141.338 431.058 140.877 431.75L140.873 434.375L140.625 434.127L139.795 437.344C139.474 438.355 139.425 439.328 139.375 440.377L139.127 440.75C139.127 441.289 138.982 441.73 139.375 442.123C139.743 441.525 139.904 441.202 140.022 440.5L140.125 439.974L140.244 440.345L140.416 440.705C143.051 430.407 143.33 419.991 142.014 409.453ZM125.129 368.222C125.313 368.329 125.194 368.246 125.421 368.573L125.625 368.873L126.098 368.625C126.102 368.13 126.054 367.464 126.249 366.999C126.513 366.367 126.574 366.138 126.594 365.425C126.607 364.943 126.568 364.54 126.75 364.082C127.203 362.945 127.213 361.702 127.445 360.492C127.915 358.034 128.402 355.484 129.234 353.125C129.048 352.543 128.791 352.169 128.445 351.675L125.129 368.222ZM368.861 426.194L369.111 425.521L369.375 425.716C369.631 425.231 369.668 424.921 369.643 424.391C369.48 420.927 369.899 417.301 369.468 413.87L369.242 410.373C368.822 412.254 368.857 414.013 368.6 415.889C368.189 418.889 368.205 423.236 368.861 426.194ZM97.8314 462.058C96.616 465.9 96.197 469.061 96.3477 473.11L96.3999 473.192C96.9125 473.077 96.6516 473.1 97.1829 473.125L97.2485 476L97.4656 476.182C97.8375 475.188 97.5912 474.399 97.5375 473.375C97.448 471.667 97.4034 469.862 97.5423 468.158C97.6719 466.57 98.4513 465.067 98.5606 463.584C98.6239 462.727 98.3646 462.65 97.8314 462.058ZM287.74 247.435C287.054 250.446 286.175 255.334 287.375 258.28L287.516 258.256L287.757 258.135L288.021 258.125C288.167 256.759 287.794 255.49 287.911 254.176C287.991 253.277 288.47 250.667 288.218 249.875C288.124 249.579 287.851 249.375 287.667 249.125L287.74 247.435ZM372.178 130.619L371.252 139.703L371.607 141.235L371.75 140.875L372.125 140.811L372.24 139.875C372.649 138.038 372.571 136.713 372.485 134.875C372.457 134.273 372.595 133.715 372.46 133.118C372.341 132.594 372.386 133.024 372.346 132.447L372.178 130.619ZM96.3877 34.3365C95.8939 36.7567 95.5547 40.6117 96.3688 42.9448L96.6081 42.5587L96.8386 42.875L97.0412 42.5C97.4181 41.3344 97.0393 38.7261 97.0505 37.4138C97.0547 36.9241 97.1968 35.9481 97.0674 35.5C96.9676 35.1543 96.5783 34.6627 96.3877 34.3365ZM123.259 443.737L123.875 445.373L124.187 444.917L124.156 444.5C124.206 443.998 124.497 443.307 124.584 442.75C125.143 442.258 124.961 441.546 125.2 440.875C125.381 440.365 125.552 439.906 125.693 439.375C125.551 438.796 125.284 438.535 124.883 438.106L123.259 443.737ZM381.49 160.142L381.375 162.123C381.763 161.657 381.703 161.516 381.92 161L382.125 160.627C382.375 161.113 382.281 160.85 382.391 161.42L383.369 158.008L382.5 157.377C381.606 158.124 381.522 158.763 381.478 159.91L381.49 160.142ZM381.381 164.166C381.867 163.36 382.101 162.314 382.391 161.42C382.281 160.85 382.375 161.113 382.125 160.627L381.92 161C381.703 161.516 381.763 161.657 381.375 162.123L381.49 160.142C380.853 161.685 380.31 163.236 379.969 164.875L380.375 165.401C380.718 164.8 380.946 164.328 381.122 163.649L381.381 164.166Z"/>
	<path fill="#010000" fill-opacity="0.96078432" d="M381.381 164.166L381.122 163.649C380.946 164.328 380.718 164.8 380.375 165.401L379.969 164.875C380.31 163.236 380.853 161.685 381.49 160.142L381.375 162.123C381.763 161.657 381.703 161.516 381.92 161L382.125 160.627C382.375 161.113 382.281 160.85 382.391 161.42C382.101 162.314 381.867 163.36 381.381 164.166Z"/>
	<defs>
		<linearGradient id="gradient_0" gradientUnits="userSpaceOnUse" x1="381.64777" y1="161.50925" x2="381.83569" y2="158.50536">
			<stop offset="0" stop-color="black" stop-opacity="0.93333334"/>
			<stop offset="1" stop-color="black" stop-opacity="0.97647059"/>
		</linearGradient>
	</defs>
	<path fill="url(#gradient_0)" d="M381.49 160.142L381.478 159.91C381.522 158.763 381.606 158.124 382.5 157.377L383.369 158.008L382.391 161.42C382.281 160.85 382.375 161.113 382.125 160.627L381.92 161C381.703 161.516 381.763 161.657 381.375 162.123L381.49 160.142Z"/>
	<path fill="#010000" fill-opacity="0.96862745" d="M123.259 443.737L124.883 438.106C125.284 438.535 125.551 438.796 125.693 439.375C125.552 439.906 125.381 440.365 125.2 440.875C124.961 441.546 125.143 442.258 124.584 442.75C124.497 443.307 124.206 443.998 124.156 444.5L124.187 444.917L123.875 445.373L123.259 443.737Z"/>
	<path fill="#010000" fill-opacity="0.94117647" d="M96.3877 34.3365C96.5783 34.6627 96.9676 35.1543 97.0674 35.5C97.1968 35.9481 97.0547 36.9241 97.0505 37.4138C97.0393 38.7261 97.4181 41.3344 97.0412 42.5L96.8386 42.875L96.6081 42.5587L96.3688 42.9448C95.5547 40.6117 95.8939 36.7567 96.3877 34.3365Z"/>
	<path fill="#010000" fill-opacity="0.96078432" d="M372.178 130.619L372.346 132.447C372.386 133.024 372.341 132.594 372.46 133.118C372.595 133.715 372.457 134.273 372.485 134.875C372.571 136.713 372.649 138.038 372.24 139.875L372.125 140.811L371.75 140.875L371.607 141.235L371.252 139.703L372.178 130.619Z"/>
	<path fill="#010000" fill-opacity="0.96078432" d="M287.74 247.435L287.667 249.125C287.851 249.375 288.124 249.579 288.218 249.875C288.47 250.667 287.991 253.277 287.911 254.176C287.794 255.49 288.167 256.759 288.021 258.125L287.757 258.135L287.516 258.256L287.375 258.28C286.175 255.334 287.054 250.446 287.74 247.435Z"/>
	<path fill="#010000" fill-opacity="0.96862745" d="M97.8314 462.058C98.3646 462.65 98.6239 462.727 98.5606 463.584C98.4513 465.067 97.6719 466.57 97.5423 468.158C97.4034 469.862 97.448 471.667 97.5375 473.375C97.5912 474.399 97.8375 475.188 97.4656 476.182L97.2485 476L97.1829 473.125C96.6516 473.1 96.9125 473.077 96.3999 473.192L96.3477 473.11C96.197 469.061 96.616 465.9 97.8314 462.058Z"/>
	<path fill="#010000" fill-opacity="0.96078432" d="M368.861 426.194C368.205 423.236 368.189 418.889 368.6 415.889C368.857 414.013 368.822 412.254 369.242 410.373L369.468 413.87C369.899 417.301 369.48 420.927 369.643 424.391C369.668 424.921 369.631 425.231 369.375 425.716L369.111 425.521L368.861 426.194Z"/>
	<path fill="#010000" fill-opacity="0.96862745" d="M125.129 368.222L128.445 351.675C128.791 352.169 129.048 352.543 129.234 353.125C128.402 355.484 127.915 358.034 127.445 360.492C127.213 361.702 127.203 362.945 126.75 364.082C126.568 364.54 126.607 364.943 126.594 365.425C126.574 366.138 126.513 366.367 126.249 366.999C126.054 367.464 126.102 368.13 126.098 368.625L125.625 368.873L125.421 368.573C125.194 368.246 125.313 368.329 125.129 368.222Z"/>
	<path fill="#010000" fill-opacity="0.96862745" d="M142.014 409.453C143.33 419.991 143.051 430.407 140.416 440.705L140.244 440.345L140.125 439.974L140.022 440.5C139.904 441.202 139.743 441.525 139.375 442.123C138.982 441.73 139.127 441.289 139.127 440.75L139.375 440.377C139.425 439.328 139.474 438.355 139.795 437.344L140.625 434.127L140.873 434.375L140.877 431.75C141.338 431.058 141.063 430.29 141.189 429.5C141.316 428.708 141.235 426.964 141.625 426.377L141.873 426.625L142.014 409.453Z"/>
	<path d="M371.895 323.733C374.526 327.552 376.687 332.52 378.414 336.819C379.042 338.383 379.832 339.879 380.312 341.499L381.306 344.405L383.009 349.375C385.019 356.169 386.17 363.079 386.904 370.112C387.182 372.776 387.521 375.697 387.324 378.369C387.287 378.873 387.33 379.32 387.379 379.822C387.988 386.042 386.89 392.931 386.123 399.117C385.871 401.151 385.802 403.411 385.253 405.376L385.192 403.5C384.814 401.486 385.194 399.302 385.375 397.236C385.449 396.385 385.417 395.262 385.75 394.484C386.078 393.719 385.876 392.828 385.927 392C386.329 385.508 386.903 379.136 386.169 372.625C386.088 371.907 386.137 370.781 385.888 370.125C385.074 367.982 385.861 365.347 384.932 363.125C384.44 361.95 384.504 360.616 384.358 359.336C384.324 359.044 384.328 358.242 384.203 358C384.058 357.718 383.758 357.532 383.625 357.243C383.23 356.383 383.637 354.879 383.171 354C382.946 353.574 382.827 353.703 382.625 353.243C382.276 352.446 382.38 351.177 382.121 350.274C382.013 349.9 381.773 349.74 381.625 349.41C381.337 348.769 381.244 347.814 381.117 347.109L380.906 346L380.701 346.201C380.446 345.678 380.51 345.876 380.373 345.376C380.212 344.786 380.106 344.261 379.808 343.72C379.562 343.274 379.643 343.528 379.539 342.991C379.39 342.228 379.231 341.449 378.812 340.785C378.557 340.382 378.638 340.589 378.52 340.066L377.927 337.76L377.625 337.826C377.271 336.836 377.202 336.047 376.457 335.26C376.339 334.635 376.257 334.058 375.827 333.561L375.543 333.25C375.499 332.824 375.446 332.505 375.289 332.102L374.988 331.235L374.89 330.875L374.651 331.125L374.415 330.375C374.261 329.978 374.104 329.696 373.989 329.271L373.89 328.875L373.669 329.16L373.432 328.5C373.23 328.041 373.048 327.751 372.948 327.243L372.89 326.875L372.625 327.246L372.479 326.625C372.06 325.516 371.958 324.912 371.895 323.733Z"/>
	<path fill="#010000" fill-opacity="0.96078432" d="M119.918 13.2483C120.82 13.004 121.79 12.9032 122.713 12.7513L388.3 13.0224C387.981 13.2049 387.552 13.5057 387.173 13.5496C385.885 13.6985 384.199 13.3792 382.861 13.3636L370.213 13.3481L324.05 13.3618L169.183 13.374L139.273 13.344L127.924 13.4489C126.762 13.5151 125.845 13.4067 124.691 13.6156C124.049 13.7318 123.522 13.6003 122.875 13.842C121.957 13.1526 121.042 13.322 119.918 13.2483Z"/>
	<path d="M339.167 78.6198C342.214 78.534 345.456 78.6255 348.346 79.6917C349.788 80.2237 350.835 81.0515 351.476 82.4699C352.154 83.9697 352.343 86.2616 351.696 87.8117L351.555 88.125C351.095 89.17 350.628 89.991 349.817 90.8054C348.383 92.2438 346.234 93.2643 344.223 93.4861C342.279 93.7006 340.178 93.5397 338.22 93.532L327.466 93.5238L291.372 93.5213L172.446 93.5311L165.488 93.4548C164.054 93.2898 162.305 92.1556 161.467 91.0086C160.195 89.2691 159.295 87.286 159.66 85.0889L159.72 84.75C159.909 83.5149 160.25 82.8028 161.123 81.875C162.968 79.9127 165.673 79.2681 168.257 78.9781C174.229 78.3076 180.577 78.6961 186.6 78.6879L219.754 78.6795L295.888 78.6778L339.167 78.6198Z"/>
	<path d="M350.964 423.45C348.966 427.01 346.798 429.907 342.649 431.068L342.25 431.175C340.674 431.609 339.063 431.521 337.441 431.525L330.722 431.525L310.612 431.526L222.911 431.525L188.795 431.521L178.578 431.521C176.47 431.517 174.303 431.611 172.213 431.32L171.75 431.252C170.717 431.107 169.749 430.828 168.769 430.474C165.504 429.296 161.802 425.935 160.396 422.711C158.989 419.485 159.311 416.875 160.668 413.713C163.088 408.076 168.556 403.054 173.125 399.061C180.118 392.948 187.939 387.977 195.497 382.625L220.027 364.512L231.77 355.72C235.996 352.323 240.005 348.614 244.691 345.843C245.909 345.123 247.3 344.568 248.676 344.246C249.691 344.008 250.792 343.999 251.761 343.625L251.625 343.24L249.875 342.709C249.21 341.946 249.049 340.833 248.873 339.861C248.281 336.578 248.457 333.129 248.456 329.801L248.455 317.402L248.273 279.537L248.272 264.669C248.268 260.083 248.528 255.486 247.376 251.007C244.775 240.889 237.736 232.713 230.023 225.967L221.875 219.419L203.896 205.214C194.962 198.064 186.102 190.6 178.303 182.201C174.039 177.609 169.355 172.227 167.547 166.133C167.022 164.364 166.987 161.59 167.962 160C168.829 158.586 170.549 157.158 172.16 156.689C173.317 156.353 174.623 156.469 175.816 156.477C179.328 156.501 182.652 156.964 186.137 157.275C192.872 157.877 199.337 158.358 206.015 159.625L221.031 162.699C231.987 165.201 242.932 168.671 254.222 169.035C255.145 169.065 256.139 169.384 257.037 169.175C258.469 168.841 260.066 169.104 261.538 168.973C264.445 168.715 267.31 168.265 270.175 167.721C281.711 165.531 292.921 161.685 304.497 159.677C310.608 158.616 317.056 157.957 323.25 157.59C327.008 157.368 330.792 157.212 334.516 156.619C337.452 156.151 340.692 156.453 343.096 158.349C344.212 159.229 344.981 161.063 345.13 162.448C345.879 169.428 335.007 180.288 330.324 184.968L317.625 197.252L299.591 212.346C291.552 218.856 282.974 224.871 275.62 232.165C272.607 235.153 270.121 238.436 268.007 242.111C265.687 246.145 264.349 251.02 263.813 255.625C263.42 259.006 263.506 262.417 263.508 265.814L263.517 279.014L263.536 321.709L263.595 333.61C263.604 335.652 263.759 337.837 263.539 339.868C263.45 340.692 263.234 341.464 262.656 342.083L261.778 343C261.811 343.102 261.797 343.233 261.875 343.305C261.941 343.365 262.052 343.325 262.141 343.333C264.501 343.567 265.909 343.765 268.007 345.034C271.893 347.384 274.863 350.838 278.249 353.799L283.707 358.111L292.125 365.01C306.003 375.768 321.114 384.796 334.666 396.004C338.939 399.538 343.128 403.06 346.878 407.164C348.039 408.553 349.353 410.086 350.086 411.75C351.739 415.502 352.964 418.423 351.393 422.505L350.964 423.45ZM255.436 353.099C252.242 357.175 248.214 360.793 244.398 364.286C230.96 376.585 216.198 386.776 201.284 397.165L187.27 407.625C183.882 410.296 180.329 413.03 177.638 416.421L256.375 416.472L333.834 416.315C319.834 401.626 301.738 391.507 285.75 379.243L265.825 362.865C262.295 359.685 259.057 356.168 255.436 353.099ZM190.623 172.726L198.929 180.584L205.228 185.936L213.483 193.222C222.853 201.016 232.872 208.058 241.827 216.361C245.028 219.33 248.176 222.457 251.051 225.745C252.827 227.778 254.395 229.946 256.294 231.874C258.484 229.738 260.236 226.982 262.181 224.601C264.121 222.226 266.378 220.065 268.59 217.945C277.001 209.886 286.492 203.348 295.347 195.866L321.06 173.02L313.583 173.999L296.851 176.875L282.131 180.293C271.202 182.687 260.428 184.196 249.211 183.552C245.498 183.339 241.807 182.482 238.168 181.752L224.401 179.054L190.623 172.726ZM346.878 407.164C346.558 407.507 346.249 407.641 346.255 408.125L347.125 409.495L347.627 409.875L347.786 410.361L348.376 410.312L348.127 410.75L348.065 411.215L348.26 411.373C348.816 411.894 348.726 412.231 348.921 412.875C349.158 413.657 349.463 413.933 349.564 414.847C349.918 415.241 349.906 415.136 349.98 415.717C350.038 416.182 350.272 416.383 350.375 416.764L350.389 417.125C350.551 419.143 350.732 421.024 349.889 422.94C349.963 423.334 349.977 423.546 350.218 423.875C350.27 423.309 350.177 423.417 350.621 422.955L350.964 423.45L351.393 422.505C352.964 418.423 351.739 415.502 350.086 411.75C349.353 410.086 348.039 408.553 346.878 407.164Z"/>
	<path fill="#010000" fill-opacity="0.94117647" d="M346.878 407.164C348.039 408.553 349.353 410.086 350.086 411.75C351.739 415.502 352.964 418.423 351.393 422.505L350.964 423.45L350.621 422.955C350.177 423.417 350.27 423.309 350.218 423.875C349.977 423.546 349.963 423.334 349.889 422.94C350.732 421.024 350.551 419.143 350.389 417.125L350.375 416.764C350.272 416.383 350.038 416.182 349.98 415.717C349.906 415.136 349.918 415.241 349.564 414.847C349.463 413.933 349.158 413.657 348.921 412.875C348.726 412.231 348.816 411.894 348.26 411.373L348.065 411.215L348.127 410.75L348.376 410.312L347.786 410.361L347.627 409.875L347.125 409.495L346.255 408.125C346.249 407.641 346.558 407.507 346.878 407.164Z"/>
</svg>
