<?xml version="1.0" encoding="utf-8" ?>
<svg xmlns="http://www.w3.org/2000/svg" xmlns:xlink="http://www.w3.org/1999/xlink" width="512" height="512">
	<path d="M389.145 255.721C385.858 266.932 380.651 277.508 374.815 287.587C359.488 314.062 334.885 336.227 306.418 347.651C297.702 351.149 288.762 352.929 279.74 355.345C279.359 358.676 279.509 362.144 279.507 365.495L279.505 380.988L279.645 431.674C289.381 432.235 299.072 433.428 308.5 435.972C316.738 438.195 324.345 440.937 331.319 446C335.104 448.747 339.774 453.544 340.476 458.33C341.195 463.238 339.756 467.122 336.771 471C335.13 473.131 332.92 474.811 330.751 476.367C323.011 481.918 313.521 485.007 304.347 487.205C296.52 489.08 288.615 490.491 280.625 491.486L272.063 492.41C270.178 492.544 268.23 492.503 266.363 492.786C263.591 493.205 260.201 493.123 257.375 493.106C241.153 493.009 225.184 491.466 209.375 487.784C197.431 485.002 185.004 480.958 176.295 471.904C173.051 468.531 171.078 464.736 171.265 460C171.457 455.149 174.231 451.148 177.743 447.999C181.126 444.966 184.911 442.884 189 440.989C198.49 436.59 208.696 434.471 219 433.011C223.034 432.44 227.575 431.74 231.64 431.989L231.875 432.005C231.995 431.878 232.168 431.786 232.236 431.625C232.46 431.099 232.256 429.479 232.26 428.805L232.27 417.476L232.222 355.566C227.676 354.56 223.084 353.658 218.614 352.345C203.404 347.879 188.887 340.65 176.221 331.123C142.502 305.761 121.889 267.84 116.594 226.221L115.237 213.54C114.466 206.676 113.233 199.511 114.054 192.606C114.377 189.887 115.471 186.435 117.185 184.253C120.968 179.434 124.983 176.232 131.117 175.008C135.703 174.094 141.6 175.463 145.449 178.088L147.847 179.812C158.384 188.578 155.599 201.814 155.546 213.829C155.534 216.792 156.117 219.663 156.389 222.598C156.926 228.416 158.62 234.123 159.946 239.78C160.611 242.617 161.678 245.25 162.695 247.967C166.244 257.455 171.226 266.007 177.273 274.109C179.523 277.124 181.772 280.092 184.375 282.814C188.624 287.259 193.137 291.702 198 295.471C213.63 307.584 233.004 315.321 252.875 315.643C279.918 316.082 304.669 305.628 323.864 286.713C343.179 267.681 355.893 240.032 356.079 212.748L356.422 195.399L357.157 190.872C358.516 185.489 362.114 180.374 366.96 177.584L370.809 175.848C372.935 175.056 375.174 175.027 377.408 174.919C379.271 174.829 381.303 175.164 383.126 175.546C388.318 176.633 392.679 180.495 395.461 184.858C396.669 186.753 397.245 188.946 397.825 191.092C398.341 192.995 398.56 196.596 398.101 198.517C397.84 199.612 398.036 200.993 397.914 202.155L396.412 216.875C395.338 228.802 393.695 240.221 390.372 251.752L389.145 255.721ZM373.844 253.493L374.291 251.904C376.91 244.434 378.522 235.962 379.666 228.125L380.779 219.697C380.692 218.266 380.956 216.144 381.178 214.711L381.474 212.237L382.408 198.859C382.465 197.076 382.614 195.183 382.367 193.416C382.271 192.735 381.963 192.156 381.625 191.57C380.255 190.649 379.106 190.426 377.496 190.187C374.965 191.214 373.449 191.964 372.408 194.684C371.632 196.709 371.899 199.231 371.807 201.375L371.389 213.099C371.349 214.04 371.11 214.94 371.071 215.877L370.338 227.875C369.769 232.978 368.486 238.124 367.097 243.055C357.742 276.268 335.769 304.427 304.507 319.65C277.667 332.72 247.287 334.351 219.124 324.628C190.737 314.828 166.092 290.809 153.117 263.969C146.575 250.435 142.339 236.132 140.607 221.18L140.056 212.845C139.732 207.586 140.326 202.255 139.834 197L139.796 196.556C139.64 194.87 139.333 193.243 137.928 192.127C136.262 190.803 133.942 190.055 131.847 190.356C130.575 191.16 130.033 192.252 129.72 193.688L129.44 195.14C129.065 197.184 129.351 198.973 129.504 201L130.584 213.062L132.349 226.763C132.601 228.652 132.64 230.557 132.971 232.439C136.556 252.809 144.994 272.181 156.94 289.013C175.401 315.023 204.153 334.928 235.875 340.264L240.187 340.937C244.441 341.834 248.982 341.497 253.296 341.957C255.038 342.143 257.136 342.106 258.863 341.85C261.269 341.494 263.941 341.597 266.381 341.451C269.488 341.264 272.726 340.67 275.785 340.072C301.044 335.136 323.326 323.332 341.549 305.13C344.962 301.72 348.487 298.126 351.448 294.318C356.3 288.076 360.852 281.556 364.675 274.625C368.393 267.885 371.267 260.73 373.844 253.493ZM231.728 447.379C220.892 448.448 210.002 449.647 199.622 453.161C195.139 454.678 189.632 456.188 186.771 460.206C187.541 461.528 188.407 462.56 189.625 463.501C191.215 464.729 193.235 465.569 195.046 466.416C199.704 468.597 204.532 470.524 209.504 471.866C218.989 474.425 228.67 475.767 238.433 476.637C255.149 478.127 271.094 477.279 287.631 474.571C291.146 474.094 294.54 473.27 298 472.511C302.623 471.497 307.431 470.425 311.897 468.854C316.688 467.169 321.801 464.719 325.055 460.696C319.899 455.761 313.126 453.217 306.375 451.255C297.256 448.604 287.393 447.037 277.877 447.271C277.514 447.28 277.605 447.284 277.159 447.364L276.869 447.718C272.269 453.303 266.147 456.866 258.875 457.481C252.449 458.024 244.611 457.263 239.53 452.894C238.354 451.883 237.336 450.777 236.399 449.542C236.032 449.059 235.296 447.533 234.884 447.249C234.701 447.122 232.15 447.362 231.728 447.379ZM247.709 357.375L247.231 357.758C247.04 360.744 247.459 363.52 247.5 366.451L247.559 386.381L247.548 421.029L247.504 437.25C247.536 438.201 247.697 439.656 248.341 440.407C249.457 441.711 251.372 442.256 253 442.508L253.461 442.583C254.803 442.784 255.854 442.57 257.172 442.441C259.019 442.26 260.707 441.732 262.395 440.978C263.289 440.226 263.863 439.76 264.191 438.625L264.277 438.347C264.826 436.394 264.474 433.649 264.472 431.575L264.444 416.654L264.413 357.351L247.709 357.375ZM356.422 195.399L356.079 212.748C356.438 213.127 356.362 212.964 356.517 213.415L356.607 213.714L356.947 213.749C357.284 211.852 357.06 209.585 357.064 207.65L357.088 200.183C357.082 198.531 357.281 196.878 356.422 195.399ZM381.474 212.237L381.178 214.711C380.956 216.144 380.692 218.266 380.779 219.697C380.94 220.365 380.994 221.067 381.081 221.749L381.438 220.624C381.46 221.097 381.416 221.465 381.637 221.886L381.686 220.75C381.888 219.857 381.913 219.214 382.006 218.311C382.211 216.301 382.48 214.034 381.474 212.237ZM389.145 255.721L390.372 251.752C390.008 251.763 389.886 251.75 389.562 251.938L389.4 250.634C388.807 252.113 388.565 253.538 388.069 255L388.258 255.346L388.575 255.429L389.145 255.721ZM374.291 251.904L373.844 253.493L374.137 254.077C374.079 254.623 374.051 254.886 374.312 255.376L374.682 254.25C374.968 253.695 375.004 253.173 375.249 252.603C375.441 252.157 375.423 252.46 375.25 251.875L374.291 251.904Z"/>
	<path d="M374.291 251.904L375.25 251.875C375.423 252.46 375.441 252.157 375.249 252.603C375.004 253.173 374.968 253.695 374.682 254.25L374.312 255.376C374.051 254.886 374.079 254.623 374.137 254.077L373.844 253.493L374.291 251.904Z"/>
	<path d="M389.145 255.721L388.575 255.429L388.258 255.346L388.069 255C388.565 253.538 388.807 252.113 389.4 250.634L389.562 251.938C389.886 251.75 390.008 251.763 390.372 251.752L389.145 255.721Z"/>
	<path d="M381.474 212.237C382.48 214.034 382.211 216.301 382.006 218.311C381.913 219.214 381.888 219.857 381.686 220.75L381.637 221.886C381.416 221.465 381.46 221.097 381.438 220.624L381.081 221.749C380.994 221.067 380.94 220.365 380.779 219.697C380.692 218.266 380.956 216.144 381.178 214.711L381.474 212.237Z"/>
	<path fill="#010000" fill-opacity="0.93333334" d="M356.422 195.399C357.281 196.878 357.082 198.531 357.088 200.183L357.064 207.65C357.06 209.585 357.284 211.852 356.947 213.749L356.607 213.714L356.517 213.415C356.362 212.964 356.438 213.127 356.079 212.748L356.422 195.399Z"/>
	<path d="M246.63 16.7325L251.476 16.1996C253.472 15.9561 255.612 16.068 257.624 16.0607C260.628 16.0497 264.446 15.8102 267.316 16.751C288.968 18.925 309.594 31.817 323.177 48.4656C329.843 56.6349 334.648 65.9965 338.211 75.8768C339.754 80.9539 341.04 86.4866 341.397 91.7852L341.907 117.439L341.892 147.809L341.963 192.403L341.916 213.937L340.817 228C340.653 229.291 340.667 230.846 340.234 232.067L339.236 236.797C338.996 237.871 338.755 240.23 338.124 241.047C337.923 242.609 337.229 244.254 336.716 245.75C334.192 253.115 330.441 260.51 325.969 266.875C312.798 285.622 293.194 298.311 270.553 302.209C248.445 306.015 225.686 301.307 207.359 288.195C192.105 277.282 179.678 261.033 174.43 242.918C172.456 236.102 171.772 229.236 170.661 222.275C170.368 220.44 170.439 218.448 170.388 216.584L170.29 204.621L170.273 171.583L170.276 120.622C170.279 109.537 169.458 97.7624 171.408 86.8439C173.549 74.8506 178.736 61.8136 186.07 52.007C188.454 48.8201 190.896 45.609 193.656 42.7351C205.032 30.8904 219.7 22.476 235.674 18.6377C239.288 17.7693 242.961 17.2772 246.63 16.7325ZM251.122 31.5961C240.633 32.9768 230.552 35.4173 221.262 40.6539C218.786 42.0495 216.542 43.7463 214.134 45.225C212.804 46.0424 211.544 47.2509 210.351 48.2653C206.283 51.7263 202.68 55.7698 199.711 60.213L195.586 66.3217C195.014 67.2014 194.584 68.1608 193.954 69L194.125 69.469C199.183 69.0134 204.413 69.1015 209.492 68.9846C211.904 68.929 214.309 68.5585 216.737 68.9565C218.206 69.1973 219.539 69.6837 220.714 70.625C222.305 71.8981 223.4 74.6419 223.538 76.625C223.686 78.7356 223.099 80.9223 221.625 82.4834C219.03 85.233 214.168 84.5421 210.736 84.5311L201.838 84.4846L186.99 84.2573C186.563 89.4466 185.465 94.301 185.958 99.5263L208.387 99.4421C211.528 99.4231 215.031 98.8627 218.132 99.4112C219.413 99.638 220.712 100.307 221.644 101.217C223.329 102.861 223.818 105.201 223.768 107.463C223.724 109.467 222.836 111.112 221.375 112.457C220.207 113.534 218.413 114.278 216.862 114.57C212.958 115.305 208.625 114.937 204.652 114.934L186.363 115.032C185.996 115.037 185.457 114.737 185.264 115.049C185.175 115.192 185.159 116.312 185.142 116.547L185.078 128.669L185.102 129.103L185.12 129.375L206.278 129.471C209.568 129.465 213.482 129.071 216.711 129.766C218.557 130.163 220.587 131.007 221.913 132.387C222.713 133.219 223.176 134.181 223.568 135.25L223.696 135.592C224.266 137.207 224.09 139.114 223.314 140.625C222.169 142.853 220.334 144.194 217.936 144.875C216.491 145.285 214.508 145.428 213 145.338L185.265 145.423L185.207 155.25C185.17 156.575 184.801 158.219 185.124 159.485C192.384 159.947 199.745 159.756 207.021 159.752C210.249 159.75 213.744 159.446 216.929 159.92C218.662 160.177 220.984 160.775 222.237 162.077C223.675 163.572 224.247 166.136 224.135 168.158C224.019 170.274 223.296 171.87 221.659 173.246C220.127 174.535 217.678 174.97 215.75 175.172C211.027 175.668 206.268 175.531 201.524 175.524C197.463 175.517 193.305 175.662 189.258 175.34C188.264 175.261 185.94 174.981 185.8 176.182C185.443 179.251 185.547 182.413 185.54 185.498L185.524 198.733C185.521 206.971 185.274 215.304 186.12 223.509C187.641 238.264 193.382 251.338 202.701 262.842C214.243 277.091 232.078 286.218 250.25 287.949L258.562 288.031C261.939 287.919 265.316 287.23 268.625 286.586C282.613 283.867 296.214 276.964 306.047 266.553C307.676 264.828 309.434 262.997 310.89 261.127C313.172 258.198 314.977 255.017 316.905 251.858C318.166 249.792 319.175 247.351 320.127 245.115C323.849 236.382 325.908 226.806 326.394 217.334L326.441 200.248L326.445 175.61L309.017 175.504C304.907 175.501 300.51 175.765 296.457 175.079C294.252 174.706 292.064 174.175 290.408 172.56C288.892 171.082 288.296 168.777 288.383 166.706C288.453 165.057 289.002 163.183 290.234 162.015C293.567 158.856 301.292 159.632 305.562 159.643L319.178 159.744C321.667 159.773 324.27 160.004 326.743 159.761L326.704 149.965C326.711 148.715 326.98 146.86 326.604 145.685C319.071 144.854 311.239 145.263 303.661 145.23C300.956 145.218 297.792 145.511 295.152 144.974C293.227 144.583 291.498 143.774 290.224 142.223C288.96 140.682 288.238 138.506 288.466 136.52C288.666 134.788 289.599 132.628 291 131.537C292.088 130.69 293.599 130.105 294.938 129.853C298.218 129.235 301.793 129.492 305.126 129.491L326.855 129.532L326.825 115.688C319.233 114.354 311.175 114.943 303.466 114.951C300.655 114.954 297.592 115.223 294.855 114.625L294.508 114.557C292.606 114.137 290.724 112.238 289.741 110.647C289.249 109.852 288.984 109.012 288.716 108.125L288.625 107.834C288.196 106.367 288.487 104.234 289.28 102.942C290.317 101.251 292.919 99.9936 294.832 99.6404C296.442 99.3433 298.26 99.4554 299.897 99.4583L307.72 99.4784L319.235 99.3002C320.783 99.3134 325.313 99.8961 326.475 99.2373C326.451 94.2802 326.625 89.3742 324.837 84.6635C317.934 84.2242 310.841 84.5164 303.916 84.5197C301.061 84.5211 297.832 84.8368 295.047 84.2809C293.279 83.9278 291.249 83.0655 290.051 81.667C288.514 79.8732 288.217 77.7509 288.484 75.4793C288.689 73.7418 289.551 72.0447 290.974 71.0036L291.261 70.8017L291.519 70.6132C292.32 70.0496 293.204 69.7924 294.125 69.4934L294.534 69.3558C297.175 68.5116 301.065 69.016 303.875 69.0217L318.132 69.0102C314.321 61.648 309.542 54.7678 303.386 49.1594C296.738 43.1032 287.865 38.2263 279.315 35.4538C271.382 32.8814 263.057 31.4678 254.711 31.5117C253.631 31.5174 252.157 31.3553 251.122 31.5961ZM338.211 75.8768L337.381 76.4141L337.625 77.9609L337.939 77.875L337.965 78.1293C338.019 78.6378 338.06 79.0325 338.255 79.5083C338.558 80.2445 338.443 81.0592 338.625 81.8359L338.919 81.875L338.915 82.145C338.909 82.9968 339.061 83.3297 339.3 84.125C339.59 85.0862 339.574 86.5267 339.625 87.5467L339.846 87L339.855 87.3135L340.675 98.4006C340.706 98.8368 340.668 99.2022 340.633 99.6327L340.234 232.067C340.667 230.846 340.653 229.291 340.817 228L341.916 213.937L341.963 192.403L341.892 147.809L341.907 117.439L341.397 91.7852C341.04 86.4866 339.754 80.9539 338.211 75.8768ZM246.63 16.7325C247.396 16.7683 248.569 16.6767 249.26 16.9852C250 17.3149 251.628 17.1018 252.474 17.102C255.809 17.1028 259.376 16.8395 262.668 17.23C263.152 17.2873 263.378 17.1882 263.828 17.0546C264.9 16.7362 266.202 16.7734 267.316 16.751C264.446 15.8102 260.628 16.0497 257.624 16.0607C255.612 16.068 253.472 15.9561 251.476 16.1996L246.63 16.7325ZM192.181 113.875L188.125 113.922L188.001 114.171L210.625 114.23L213.625 114.241L213.876 113.954L192.181 113.875ZM297.112 113.875L296.524 114.171L320.875 114.217C319.985 113.542 316.647 113.867 315.419 113.866L297.112 113.875ZM338.124 241.047C338.755 240.23 338.996 237.871 339.236 236.797C339.09 235.824 338.964 234.895 338.664 233.955C337.95 236.342 337.462 238.642 336.991 241.085L337.398 241.695L337.674 241.111L338.124 241.047Z"/>
	<path d="M338.124 241.047L337.674 241.111L337.398 241.695L336.991 241.085C337.462 238.642 337.95 236.342 338.664 233.955C338.964 234.895 339.09 235.824 339.236 236.797C338.996 237.871 338.755 240.23 338.124 241.047Z"/>
	<path d="M297.112 113.875L315.419 113.866C316.647 113.867 319.985 113.542 320.875 114.217L296.524 114.171L297.112 113.875Z"/>
	<path d="M192.181 113.875L213.876 113.954L213.625 114.241L210.625 114.23L188.001 114.171L188.125 113.922L192.181 113.875Z"/>
	<path fill="#010000" fill-opacity="0.93333334" d="M246.63 16.7325L251.476 16.1996C253.472 15.9561 255.612 16.068 257.624 16.0607C260.628 16.0497 264.446 15.8102 267.316 16.751C266.202 16.7734 264.9 16.7362 263.828 17.0546C263.378 17.1882 263.152 17.2873 262.668 17.23C259.376 16.8395 255.809 17.1028 252.474 17.102C251.628 17.1018 250 17.3149 249.26 16.9852C248.569 16.6767 247.396 16.7683 246.63 16.7325Z"/>
	<path d="M338.211 75.8768C339.754 80.9539 341.04 86.4866 341.397 91.7852L341.907 117.439L341.892 147.809L341.963 192.403L341.916 213.937L340.817 228C340.653 229.291 340.667 230.846 340.234 232.067L340.633 99.6327C340.668 99.2022 340.706 98.8368 340.675 98.4006L339.855 87.3135L339.846 87L339.625 87.5467C339.574 86.5267 339.59 85.0862 339.3 84.125C339.061 83.3297 338.909 82.9968 338.915 82.145L338.919 81.875L338.625 81.8359C338.443 81.0592 338.558 80.2445 338.255 79.5083C338.06 79.0325 338.019 78.6378 337.965 78.1293L337.939 77.875L337.625 77.9609L337.381 76.4141L338.211 75.8768Z"/>
</svg>
