<?xml version="1.0" encoding="utf-8" ?>
<svg xmlns="http://www.w3.org/2000/svg" xmlns:xlink="http://www.w3.org/1999/xlink" width="512" height="512">
	<path d="M153.367 97.0151C153.472 96.0656 153.644 95.1253 154.187 94.3216C155.822 91.9044 158.811 90.8564 161.506 90.0859C163.69 89.4617 166.049 89.2633 168.278 88.8185L187.571 85.243L249.632 73.8159L418.495 42.6321L465.144 34.5716C467.172 34.2206 469.239 34.1438 471.25 33.774C476.234 32.8571 481.55 33.9369 486.556 33.5604C486.277 31.5495 486.294 29.5019 486.011 27.5C485.531 24.1117 484.703 20.953 483.692 17.6864C481.38 18.2213 479.057 18.4912 476.728 18.9091L465.113 21.067L430.321 27.3535L321.701 46.9182L291.375 52.4855L222 65.0089L190.875 70.7858L176.286 73.407C172.461 73.9473 167.844 74.5554 164.129 73.1719C162.335 72.5042 161.175 71.58 160.427 69.7869C159.727 68.1079 159.747 66.0541 160.543 64.4207C161.663 62.1244 164.18 60.5793 166.55 59.7661C169.47 58.7644 172.95 58.5619 176 58.0032L197.875 54.0023L267.75 41.28L420.261 13.6051L462.095 5.87349C468.076 4.77315 474.095 3.35261 480.125 2.58253C483.661 2.13089 487.004 2.23608 490.254 3.88786C496.339 6.9797 498.222 13.258 500.136 19.2685L501.43 27.6865C501.856 30.0978 501.571 33.0989 501.587 35.5706L501.598 55.1943L501.586 123.54L501.59 250.875L501.933 261.649L501.962 310.801L501.936 346.656L500.803 368.875C500.666 370.41 500.748 372.361 500.27 373.804L498.998 380.957C498.749 382.202 498.588 383.554 498.107 384.726C497.645 386.921 497 389.119 496.299 391.25C496.01 392.128 495.742 393.238 495.266 394.026L495.172 394.34C485.539 424.554 460.788 447.37 433.28 461.62C429.371 463.645 424.923 465.875 420.72 467.162L419.501 467.675C408.916 471.879 397.795 474.973 386.517 476.658C367.549 479.491 348.128 478.811 329.73 473.14C321.367 470.562 313.01 466.874 305.995 461.559C293.257 451.905 285.014 438.543 282.864 422.687C282.291 421.161 282.421 419.177 282.371 417.55C282.207 412.132 282.125 406.448 283.246 401.128C283.077 399.455 284.089 396.476 284.511 394.783C288.359 379.339 296.881 365.085 306.744 352.763C313.399 344.447 321.252 337.187 329.634 330.653C349.489 315.174 372.65 304.208 397.25 298.787C404.753 297.133 412.259 296.581 419.85 295.68C422.962 295.311 426.217 295.462 429.352 295.471C431.36 295.476 433.584 295.307 435.55 295.713L438.497 296.288L439.103 175.246L439.212 174.829C438.975 174.746 438.751 174.598 438.5 174.58C438.207 174.56 437.529 174.807 437.232 174.875L433.063 175.873L416.125 180.003L359.342 193.871L345.28 197.34C343.556 197.756 340.873 198.015 339.375 198.789C339.042 198.961 339.011 199.02 338.781 199.25C338.523 201.086 339.525 203.109 340.033 204.875L342.233 213.125L350.806 246.769L354.004 258.562C354.346 260.01 354.898 261.718 354.979 263.183C355.753 267.146 356.241 271.003 356.422 275.037C356.507 276.92 356.631 278.975 356.217 280.81C355.991 281.812 356.069 282.907 355.895 283.93C355.323 287.274 354.361 291.115 352.666 294.081L352.636 294.095L351.116 297.128C346.649 304.895 339.198 311.063 331.022 314.625C329.237 315.403 327.507 316.336 325.614 316.839C324.174 317.221 322.828 317.836 321.373 318.191C318.05 319.001 314.812 319.29 311.454 319.8C308.817 320.2 305.746 320.026 303.097 319.784C298.174 319.334 293.428 318.553 289.073 316.023C285.839 314.144 282.178 310.673 281.194 306.952L281.079 306.498C280.826 305.596 280.584 304.782 280.523 303.836C280.048 296.462 283.341 289.516 288.181 284.075C294.984 276.428 304.644 271.377 314.437 268.765C317.461 267.959 320.714 267.222 323.841 267.064C329.646 266.771 334.916 266.865 340.525 268.619L336.653 253.375L329.26 224.625L326.16 212.556C325.467 209.777 324.625 207.056 324.369 204.193C323.743 201.249 323.626 197.104 324.484 194.216C324.965 192.628 325.558 191.113 326.559 189.773C328.948 186.572 333.735 184.974 337.358 183.771C342.973 181.907 349.144 180.884 354.909 179.474L394.625 169.749L427.042 161.668C432.608 160.282 438.425 158.403 444.086 157.592C446.463 157.252 449.75 156.851 451.752 158.48C452.742 159.286 453.38 160.459 453.472 161.727C453.984 164.192 454.091 166.736 454.147 169.25L454.114 202.907L454.061 269.879L454.039 292.07L454.12 299.875C454.145 301.855 454.266 303.904 453.77 305.839L453.707 306.116C453.26 307.994 452.387 309.623 450.706 310.673C449.605 311.361 448.167 311.699 446.875 311.728C442.038 311.835 437.424 310.911 432.64 310.593C424.231 310.034 415.741 310.696 407.448 312.083C390.463 314.923 374.185 321.074 359.17 329.457L348.177 336.192C345.053 338.024 342.041 340.539 339.17 342.757C320.86 356.904 304.777 376.655 299.096 399.493C297.915 404.24 297.493 409.255 297.503 414.133C297.508 416.373 297.5 418.589 297.948 420.794L299.104 426.369C301.242 435.843 309.636 445.803 317.726 450.895C333.748 460.977 351.011 463.562 369.658 462.683C377.989 462.29 386.334 461.256 394.475 459.406C399.748 458.208 405.026 456.797 410.125 454.989L422.83 450.001L429.888 446.412C430.781 445.618 432.328 444.986 433.392 444.371L440.094 440.215C451.314 432.553 461.881 422.894 469.484 411.551C478.014 398.824 483.781 384.045 485.63 368.789C486.826 358.92 486.464 348.958 486.458 339.03L486.44 297.263L486.447 155.443L486.445 81.8169L486.436 62.7754C486.433 59.3226 486.827 55.2766 486.092 51.8962L486.03 51.625C485.838 50.7254 485.542 49.783 484.783 49.1926C483.026 47.825 480.006 48.2171 477.927 48.3705C474.904 48.5936 472 49.1489 469.012 49.554L451.202 52.3553L398.5 61.7266L242 90.3207L195.699 99.0247L168.556 104.112L168.54 127.471L168.529 171.203L168.555 305.069L168.552 351.566L168.574 364.611C168.574 366.803 168.854 369.457 168.299 371.572L168.239 371.778C168.042 372.691 167.86 373.464 167.419 374.292L167.391 374.3L167.252 374.59C166.46 376.178 165.4 377.285 164.007 378.375C162.024 379.927 159.443 382.03 156.75 381.68C151.089 380.943 145.867 378.489 140.119 378.035C135.391 377.661 130.423 377.972 125.704 378.271C101.186 379.827 75.6106 387.145 55.6552 401.861C45.858 409.086 38.132 418.066 32.7621 429C31.0242 432.539 29.3899 436.383 28.5747 440.25C27.9751 443.094 27.3666 445.96 27.2443 448.875C26.961 455.626 29.223 462.068 32.8739 467.669C35.7538 472.087 39.9419 475.671 44.2574 478.597C54.14 485.297 66.3697 489.657 78.0739 491.864C84.025 492.986 90.0164 494.007 96.0649 494.438C122.321 496.309 149.847 491.349 171.727 476.125C176.574 472.752 181.215 468.397 185.017 463.865C186.489 462.109 187.726 460.228 189.128 458.432C190.179 457.085 190.948 455.487 191.781 454C194.065 449.922 195.862 445.762 197.277 441.303L198.092 438.419L199.363 432.959C199.704 430.278 200.252 427.574 200.418 424.875L200.778 397.543L200.775 362.029L200.768 239.976L200.787 203.236L200.779 193.979C200.778 192.257 200.627 190.366 200.943 188.679L201.003 188.375C201.157 187.499 201.329 186.681 201.682 185.855C202.472 184.007 204.519 182.731 206.331 182.037C211.129 180.199 216.031 178.999 220.986 177.689L234.783 173.927L282.794 161.083L412.339 126.166L429.019 122.162C432.137 121.481 435.776 121.144 438.71 119.944C439.176 118.804 439.045 117.373 439.072 116.152L439.05 91.2753L439.037 85.9896C439.034 85.0272 439.198 83.9047 438.727 83.0378C432.824 83.4279 426.743 85.0268 420.907 86.0567L380.5 93.4681L331.545 102.345L276 113.081L234.535 121.141L216.605 124.429C215.626 128.085 215.878 131.989 215.884 135.748L215.946 149.315C215.955 151.828 216.189 154.563 215.55 157.009L215.486 157.25C215.17 158.484 214.685 159.592 213.936 160.625C212.837 162.14 211.208 163.259 209.331 163.498C207.243 163.765 205.355 163.277 203.696 161.968C201.876 160.531 201.215 158.485 200.937 156.262C200.632 153.82 200.751 151.311 200.748 148.852L200.748 137.37L200.746 125.519C200.747 123.229 200.638 120.858 200.852 118.577C200.996 117.033 201.377 115.109 202.39 113.901C203.911 112.086 206.274 111.223 208.512 110.646C212.888 109.518 217.55 108.862 222 108.018L246.875 103.275L320.963 89.1565L376.354 78.548L411.799 72.4075C424.307 70.2212 436.838 67.4863 449.452 66.0512C451.423 67.2516 452.624 68.6266 453.433 70.8129C453.796 71.7545 454.068 72.6335 454.158 73.6432C454.61 78.6969 454.177 84.1453 454.137 89.2344L454.161 117.876C454.205 120.526 454.535 123.602 454.138 126.201C453.903 128.652 453.043 130.505 451.064 132.073C450.032 132.892 448.631 133.397 447.375 133.766C444.532 134.602 441.535 134.72 438.662 135.455L391.408 147.453L299.778 172.154L259.25 183.012L235.705 189.375L223.042 192.847C220.95 193.393 218.269 194.286 216.112 194.214C215.495 201.247 215.942 208.454 215.953 215.511L215.954 253.902L215.94 377.872L215.936 406.656C215.933 414.562 216.067 422.386 215.091 430.25C214.841 432.263 214.761 434.408 214.27 436.374C212.849 442.815 211.236 448.885 208.614 454.969C202.044 470.209 190.353 482.636 176.5 491.532C154.709 505.525 128.854 509.711 103.39 509.697C94.2716 509.692 84.9299 509.296 75.997 507.309C60.5282 503.869 45.3563 498.651 32.638 488.914C27.3485 484.864 22.6216 480.276 19.0182 474.616C15.6875 469.385 12.6231 462.471 12.3834 456.191L12.3713 456.186C11.676 451.94 11.9092 447.201 12.4027 442.951C13.1489 434.012 17.0825 425.052 21.7103 417.5C24.2752 413.314 26.8045 409.324 30.0194 405.577C51.6233 380.394 84.409 366.267 117.177 363.734C119.921 363.179 122.893 363.369 125.687 363.089C127.948 362.861 130.379 363.027 132.656 363.031C136.737 363.039 141.393 362.916 145.385 363.726C146.098 363.762 146.795 363.903 147.5 364.008C149.122 364.249 150.749 364.679 152.281 365.272L152.75 365.458L153.117 365.125L153.083 363.651L153.3 98.5903C153.204 98.1967 153.346 97.4431 153.367 97.0151ZM324.377 282.058C314.156 283.967 303.095 288.259 297.014 297.249C296.415 298.134 295.255 300.064 295.468 301.174C295.69 302.334 296.768 303.392 297.776 303.935C299.933 305.097 302.736 305.022 305.107 305.027C306.935 305.03 308.787 305.077 310.612 304.948C315.885 303.923 320.87 302.106 325.701 299.778C330.17 297.625 335 294.733 337.819 290.509C338.696 289.194 339.182 287.786 339.7 286.305L338.496 285.203C335.101 281.907 329.553 281.813 325.125 281.995L324.377 282.058ZM500.136 19.2685C499.431 20.2397 499.352 20.8087 499.559 22.037C499.644 22.5417 499.556 22.3206 499.921 22.75L499.921 23.0986C499.929 23.943 499.966 24.5782 500.22 25.3912C500.893 27.5412 500.552 30.5089 500.606 32.7785C500.632 33.8462 500.901 34.9063 500.909 35.9327L500.693 43.7619L500.674 66.3378L500.672 196.612L500.67 236.415L500.658 247.882C500.644 250.553 500.523 253.352 500.821 256C501.061 258.134 500.715 260.356 500.772 262.5L500.891 287.426L500.959 350.112L500.617 356.216L500.383 363.424C500.178 366.15 499.683 368.872 500.187 371.59C500.298 372.184 500.185 372.86 500.127 373.459L500.27 373.804C500.748 372.361 500.666 370.41 500.803 368.875L501.936 346.656L501.962 310.801L501.933 261.649L501.59 250.875L501.586 123.54L501.598 55.1943L501.587 35.5706C501.571 33.0989 501.856 30.0978 501.43 27.6865L500.136 19.2685ZM214.27 436.374C214.761 434.408 214.841 432.263 215.091 430.25C216.067 422.386 215.933 414.562 215.936 406.656L215.94 377.872L215.954 253.902L215.953 215.511C215.942 208.454 215.495 201.247 216.112 194.214L215.295 194.375C214.753 195.49 214.995 197.004 214.917 198.238C214.88 198.821 214.666 199.314 214.62 199.875C214.329 203.398 214.396 207.604 214.719 211.125C215.099 215.263 214.899 219.616 214.893 223.779L214.82 247.099L214.702 328.33L214.702 396.416L214.715 416.834C214.718 419.157 215.11 421.696 214.875 423.969L214.609 424.25C214.419 427.663 213.736 431.251 214.244 434.634C214.334 435.235 214.31 435.772 214.27 436.374ZM153.3 98.5903L153.083 363.651C153.618 362.193 153.37 360.068 153.369 358.5C153.561 358.872 153.475 359.698 153.489 360.125C153.544 361.833 153.551 363.554 153.822 365.244C154.49 364.423 153.63 136.044 154.035 115.777L153.888 99.125L153.714 99.375L153.623 99.75L153.3 98.5903ZM453.77 305.839C454.266 303.904 454.145 301.855 454.12 299.875L454.039 292.07L454.061 269.879L454.114 202.907L454.147 169.25C454.091 166.736 453.984 164.192 453.472 161.727L453.087 162L452.875 161.234L452.519 161.269C452.097 163.692 452.428 166.642 452.46 169.125L452.75 169.5C452.762 171.637 452.608 173.748 452.75 175.875C452.784 176.39 452.697 176.668 452.477 177.125C452.543 178.035 453.051 179.25 452.427 180L452.242 273.202L452.237 288.226C452.238 289.401 452.526 291.224 452.317 292.272C452.089 293.411 452.37 294.88 452.383 296.066C452.428 300.057 452.643 304.01 452.273 307.986C453.052 306.618 453.363 305.638 453.642 304.082L453.77 305.839ZM167.391 374.3L167.419 374.292C167.86 373.464 168.042 372.691 168.239 371.778L168.203 371.57C167.912 369.721 168.041 367.745 168.035 365.876L168.036 356.133L168.044 323.279L168.064 177.479L168.057 129.786L167.995 105.383C167.968 104.816 168.023 104.837 167.625 104.377C167.524 104.717 167.47 104.763 167.553 105.107C167.832 106.273 167.593 107.587 167.465 108.75C167.266 110.55 167.443 112.589 167.44 114.409L167.392 149.142L167.434 301.409L167.418 347.412C167.416 354.819 167.848 362.452 167.396 369.833C167.33 370.904 167.128 371.668 166.636 372.618C166.412 373.05 166.429 373.412 166.319 373.875L166.062 374.617L166.312 375.128L167.055 374.105L167.391 374.3ZM453.433 70.8129L453.211 71.4095C452.94 71.1137 452.859 70.951 452.706 70.5912L452.467 70.75L452.585 71.9988L452.899 72.125L452.875 72.8146L452.615 72.875L452.746 73.2456C453.371 75.1771 453.208 77.6271 453.236 79.6338C453.593 82.618 453.171 85.7879 453.141 88.8009L453.125 107.707C453.126 108.978 452.754 112.814 453.377 113.75C453.377 114.419 453.249 114.932 453.627 115.5C453.633 116.605 453.514 116.949 454.161 117.876L454.137 89.2344C454.177 84.1453 454.61 78.6969 454.158 73.6432C454.068 72.6335 453.796 71.7545 453.433 70.8129ZM352.636 294.095L352.666 294.081C354.361 291.115 355.323 287.274 355.895 283.93C356.069 282.907 355.991 281.812 356.217 280.81C356.631 278.975 356.507 276.92 356.422 275.037C356.241 271.003 355.753 267.146 354.979 263.183C354.332 264.332 354.377 264.843 354.377 266.125L354.627 266.5C355.325 267.62 354.433 269.209 355.127 270.25C355.127 270.781 355.062 270.777 355.377 271.25C355.386 273.332 355.49 275.437 355.234 277.5C355.073 278.802 355.266 279.767 354.785 281.035C354.427 281.976 354.506 283.075 354.365 284.059C354.189 285.287 353.9 286.103 353.527 287.25C353.138 288.448 353.23 289.348 352.621 290.565C352.46 290.886 352.43 291.076 352.378 291.422C352.283 292.054 352.09 292.079 351.785 292.58L351.549 293.25L350.877 295.125L351.423 295.423C351.734 295.033 351.854 295.017 351.875 294.499C352.124 294.331 352.332 294.126 352.636 294.095ZM438.727 83.0378C439.198 83.9047 439.034 85.0272 439.037 85.9896L439.05 91.2753L439.072 116.152C439.389 115.436 439.342 114.645 439.369 113.875C439.617 115.318 439.358 116.783 439.652 118.228C439.744 118.677 439.81 119.061 439.807 119.523L439.799 119.984L440.021 119.75L440.078 95.4833C440.077 91.528 440.525 86.8426 439.875 82.9541L438.727 83.0378ZM454.138 126.201C454.535 123.602 454.205 120.526 454.161 117.876C453.514 116.949 453.633 116.605 453.627 115.5C453.249 114.932 453.377 114.419 453.377 113.75C452.754 112.814 453.126 108.978 453.125 107.707L453.141 88.8009C453.171 85.7879 453.593 82.618 453.236 79.6338C453.064 80.9887 452.991 82.3169 452.947 83.682C452.924 84.3757 453.037 85.2707 452.658 85.875L452.714 86.3359C452.77 86.8302 452.654 87.0315 452.582 87.5C452.244 89.6812 452.509 92.3062 452.496 94.538L452.503 111.296C452.52 112.879 452.928 115.161 452.658 116.625L452.88 117C453.114 117.574 452.999 118.925 453.03 119.575L453.258 127.089C453.447 126.584 453.619 126.101 453.886 125.63L454.138 126.201ZM282.864 422.687L283.093 422.307L283.375 422.532L283.619 422.125C283.738 421.784 283.599 404.956 283.479 404.607L283.375 404.377L283.448 404.188C283.229 403.172 283.264 402.163 283.246 401.128C282.125 406.448 282.207 412.132 282.371 417.55C282.421 419.177 282.291 421.161 282.864 422.687ZM117.177 363.734L125.987 364.09L133.487 364.066C134.913 364.063 136.504 363.922 137.875 364.35L138.25 364.12L145.385 363.726C141.393 362.916 136.737 363.039 132.656 363.031C130.379 363.027 127.948 362.861 125.687 363.089C122.893 363.369 119.921 363.179 117.177 363.734ZM498.107 384.726C498.588 383.554 498.749 382.202 498.998 380.957L500.27 373.804L500.127 373.459L500.123 371.375L499.625 370.877C499.173 371.557 499.579 372.07 499.127 372.75C499.127 373.476 499.276 374.4 498.877 375L498.839 376.862L498.608 375.897L497.127 383.625C497.036 384.074 497.083 384.186 496.877 384.625L497.375 385.373L497.632 384.624L497.96 384.713L498.107 384.726ZM12.4027 442.951C11.9092 447.201 11.676 451.94 12.3713 456.186L12.3834 456.191L12.6127 455.82L12.875 456.046L13.0099 455.625C13.2113 454.568 13.0441 453.145 13.0574 452.063C13.0875 449.615 13.31 446.926 13.0445 444.5C12.983 443.938 12.7013 443.421 12.4027 442.951ZM153.367 97.0151C153.346 97.4431 153.204 98.1967 153.3 98.5903L153.623 99.75L153.714 99.375L153.888 99.125L154.035 115.777C154.358 114.936 154.237 113.93 154.241 113.041L154.25 108C154.74 107.267 154.505 105.809 154.505 104.889C154.503 101.968 154.27 98.9706 154.571 96.065L154.607 95.75L154.311 95.5821C154.238 95.9331 154.208 96.2331 154.196 96.5958L154.187 96.9988L153.818 97.1751L153.367 97.0151ZM324.484 194.216C323.626 197.104 323.743 201.249 324.369 204.193L324.611 203.827L324.875 204.079L325.028 203.625C325.194 202.752 325.049 201.565 325.051 200.663C325.056 198.55 325.473 196.116 324.484 194.216ZM429.888 446.412L422.83 450.001L422.986 450.113L423.126 450.562C423.923 450.708 423.879 450.697 424.566 450.261L424.875 450.329C425.255 449.919 425.567 449.744 426.094 449.557L426.375 449.463L426.549 449.125L426.875 449.3C427.074 449.054 427.197 448.885 427.498 448.76C427.71 448.672 428.077 448.6 428.25 448.45L428.524 448.125C429.017 448.125 429.055 447.964 429.423 447.661C429.968 447.617 429.993 447.54 430.426 447.25C430.291 446.878 430.139 446.71 429.888 446.412ZM439.212 174.829L439.103 175.246C439.256 175.457 439.482 175.631 439.563 175.879C439.755 176.468 439.591 177.867 439.599 178.528L439.617 188.453L440.032 188.125C440.051 183.757 440.472 178.929 439.891 174.625L439.212 174.829ZM199.363 432.959L198.092 438.419C198.516 438.392 198.798 438.316 199.188 438.506C199.507 437.764 199.558 437.043 199.638 436.25C200.156 435.643 199.967 434.626 200.214 433.875L200.396 433.411L199.363 432.959ZM198.092 438.419L197.277 441.303C197.532 441.769 197.7 442.182 197.808 442.707L197.875 443.078C198.14 442.342 198.365 441.635 198.51 440.865L198.643 440.25C198.952 439.635 199.05 439.193 199.188 438.506C198.798 438.316 198.516 438.392 198.092 438.419ZM495.172 394.34L495.266 394.026L494.875 393.581L495.058 393.197C495.302 392.638 495.242 392.867 495.226 392.25L495.862 391.25L495.689 391.039C495.458 390.72 495.429 390.509 495.375 390.131L495.248 390.511C495.12 390.884 495.009 391.065 494.784 391.408C494.454 391.912 494.47 392.331 494.411 392.912C494.37 393.318 494.23 393.412 494.071 393.75L493.877 394.375C494.193 394.848 493.998 394.673 494.43 394.93L494.588 394.729C494.852 394.42 494.748 394.526 495.172 394.34ZM419.501 467.675L420.72 467.162L420.625 466.546L421.125 466.224L421.501 466.327L422.123 466.125L422.123 465.625C421.193 465.587 420.981 465.665 420.25 466.172L419.723 466.342C419.336 466.466 418.711 466.587 418.509 466.938L418.721 467.085L419.501 467.675Z"/>
	<path d="M419.501 467.675L418.721 467.085L418.509 466.938C418.711 466.587 419.336 466.466 419.723 466.342L420.25 466.172C420.981 465.665 421.193 465.587 422.123 465.625L422.123 466.125L421.501 466.327L421.125 466.224L420.625 466.546L420.72 467.162L419.501 467.675Z"/>
	<path d="M495.172 394.34C494.748 394.526 494.852 394.42 494.588 394.729L494.43 394.93C493.998 394.673 494.193 394.848 493.877 394.375L494.071 393.75C494.23 393.412 494.37 393.318 494.411 392.912C494.47 392.331 494.454 391.912 494.784 391.408C495.009 391.065 495.12 390.884 495.248 390.511L495.375 390.131C495.429 390.509 495.458 390.72 495.689 391.039L495.862 391.25L495.226 392.25C495.242 392.867 495.302 392.638 495.058 393.197L494.875 393.581L495.266 394.026L495.172 394.34Z"/>
	<defs>
		<linearGradient id="gradient_0" gradientUnits="userSpaceOnUse" x1="198.76405" y1="439.70154" x2="198.07217" y2="439.50101">
			<stop offset="0" stop-color="#010001" stop-opacity="0.94509804"/>
			<stop offset="1" stop-color="#010000" stop-opacity="0.98823529"/>
		</linearGradient>
	</defs>
	<path fill="url(#gradient_0)" d="M198.092 438.419C198.516 438.392 198.798 438.316 199.188 438.506C199.05 439.193 198.952 439.635 198.643 440.25L198.51 440.865C198.365 441.635 198.14 442.342 197.875 443.078L197.808 442.707C197.7 442.182 197.532 441.769 197.277 441.303L198.092 438.419Z"/>
	<path d="M199.363 432.959L200.396 433.411L200.214 433.875C199.967 434.626 200.156 435.643 199.638 436.25C199.558 437.043 199.507 437.764 199.188 438.506C198.798 438.316 198.516 438.392 198.092 438.419L199.363 432.959Z"/>
	<path fill="#010000" fill-opacity="0.92941177" d="M439.212 174.829L439.891 174.625C440.472 178.929 440.051 183.757 440.032 188.125L439.617 188.453L439.599 178.528C439.591 177.867 439.755 176.468 439.563 175.879C439.482 175.631 439.256 175.457 439.103 175.246L439.212 174.829Z"/>
	<path d="M429.888 446.412C430.139 446.71 430.291 446.878 430.426 447.25C429.993 447.54 429.968 447.617 429.423 447.661C429.055 447.964 429.017 448.125 428.524 448.125L428.25 448.45C428.077 448.6 427.71 448.672 427.498 448.76C427.197 448.885 427.074 449.054 426.875 449.3L426.549 449.125L426.375 449.463L426.094 449.557C425.567 449.744 425.255 449.919 424.875 450.329L424.566 450.261C423.879 450.697 423.923 450.708 423.126 450.562L422.986 450.113L422.83 450.001L429.888 446.412Z"/>
	<path fill="#010000" fill-opacity="0.93725491" d="M324.484 194.216C325.473 196.116 325.056 198.55 325.051 200.663C325.049 201.565 325.194 202.752 325.028 203.625L324.875 204.079L324.611 203.827L324.369 204.193C323.743 201.249 323.626 197.104 324.484 194.216Z"/>
	<path d="M153.367 97.0151L153.818 97.1751L154.187 96.9988L154.196 96.5958C154.208 96.2331 154.238 95.9331 154.311 95.5821L154.607 95.75L154.571 96.065C154.27 98.9706 154.503 101.968 154.505 104.889C154.505 105.809 154.74 107.267 154.25 108L154.241 113.041C154.237 113.93 154.358 114.936 154.035 115.777L153.888 99.125L153.714 99.375L153.623 99.75L153.3 98.5903C153.204 98.1967 153.346 97.4431 153.367 97.0151Z"/>
	<path fill="#010000" fill-opacity="0.93725491" d="M12.4027 442.951C12.7013 443.421 12.983 443.938 13.0445 444.5C13.31 446.926 13.0875 449.615 13.0574 452.063C13.0441 453.145 13.2113 454.568 13.0099 455.625L12.875 456.046L12.6127 455.82L12.3834 456.191L12.3713 456.186C11.676 451.94 11.9092 447.201 12.4027 442.951Z"/>
	<path d="M498.107 384.726L497.96 384.713L497.632 384.624L497.375 385.373L496.877 384.625C497.083 384.186 497.036 384.074 497.127 383.625L498.608 375.897L498.839 376.862L498.877 375C499.276 374.4 499.127 373.476 499.127 372.75C499.579 372.07 499.173 371.557 499.625 370.877L500.123 371.375L500.127 373.459L500.27 373.804L498.998 380.957C498.749 382.202 498.588 383.554 498.107 384.726Z"/>
	<path d="M117.177 363.734C119.921 363.179 122.893 363.369 125.687 363.089C127.948 362.861 130.379 363.027 132.656 363.031C136.737 363.039 141.393 362.916 145.385 363.726L138.25 364.12L137.875 364.35C136.504 363.922 134.913 364.063 133.487 364.066L125.987 364.09L117.177 363.734Z"/>
	<path d="M282.864 422.687C282.291 421.161 282.421 419.177 282.371 417.55C282.207 412.132 282.125 406.448 283.246 401.128C283.264 402.163 283.229 403.172 283.448 404.188L283.375 404.377L283.479 404.607C283.599 404.956 283.738 421.784 283.619 422.125L283.375 422.532L283.093 422.307L282.864 422.687Z"/>
	<path fill="#010000" fill-opacity="0.93725491" d="M454.138 126.201L453.886 125.63C453.619 126.101 453.447 126.584 453.258 127.089L453.03 119.575C452.999 118.925 453.114 117.574 452.88 117L452.658 116.625C452.928 115.161 452.52 112.879 452.503 111.296L452.496 94.538C452.509 92.3062 452.244 89.6812 452.582 87.5C452.654 87.0315 452.77 86.8302 452.714 86.3359L452.658 85.875C453.037 85.2707 452.924 84.3757 452.947 83.682C452.991 82.3169 453.064 80.9887 453.236 79.6338C453.593 82.618 453.171 85.7879 453.141 88.8009L453.125 107.707C453.126 108.978 452.754 112.814 453.377 113.75C453.377 114.419 453.249 114.932 453.627 115.5C453.633 116.605 453.514 116.949 454.161 117.876C454.205 120.526 454.535 123.602 454.138 126.201Z"/>
	<path fill="#010000" fill-opacity="0.93725491" d="M438.727 83.0378L439.875 82.9541C440.525 86.8426 440.077 91.528 440.078 95.4833L440.021 119.75L439.799 119.984L439.807 119.523C439.81 119.061 439.744 118.677 439.652 118.228C439.358 116.783 439.617 115.318 439.369 113.875C439.342 114.645 439.389 115.436 439.072 116.152L439.05 91.2753L439.037 85.9896C439.034 85.0272 439.198 83.9047 438.727 83.0378Z"/>
	<path d="M352.636 294.095C352.332 294.126 352.124 294.331 351.875 294.499C351.854 295.017 351.734 295.033 351.423 295.423L350.877 295.125L351.549 293.25L351.785 292.58C352.09 292.079 352.283 292.054 352.378 291.422C352.43 291.076 352.46 290.886 352.621 290.565C353.23 289.348 353.138 288.448 353.527 287.25C353.9 286.103 354.189 285.287 354.365 284.059C354.506 283.075 354.427 281.976 354.785 281.035C355.266 279.767 355.073 278.802 355.234 277.5C355.49 275.437 355.386 273.332 355.377 271.25C355.062 270.777 355.127 270.781 355.127 270.25C354.433 269.209 355.325 267.62 354.627 266.5L354.377 266.125C354.377 264.843 354.332 264.332 354.979 263.183C355.753 267.146 356.241 271.003 356.422 275.037C356.507 276.92 356.631 278.975 356.217 280.81C355.991 281.812 356.069 282.907 355.895 283.93C355.323 287.274 354.361 291.115 352.666 294.081L352.636 294.095Z"/>
	<path fill="#010000" fill-opacity="0.92941177" d="M453.433 70.8129C453.796 71.7545 454.068 72.6335 454.158 73.6432C454.61 78.6969 454.177 84.1453 454.137 89.2344L454.161 117.876C453.514 116.949 453.633 116.605 453.627 115.5C453.249 114.932 453.377 114.419 453.377 113.75C452.754 112.814 453.126 108.978 453.125 107.707L453.141 88.8009C453.171 85.7879 453.593 82.618 453.236 79.6338C453.208 77.6271 453.371 75.1771 452.746 73.2456L452.615 72.875L452.875 72.8146L452.899 72.125L452.585 71.9988L452.467 70.75L452.706 70.5912C452.859 70.951 452.94 71.1137 453.211 71.4095L453.433 70.8129Z"/>
	<path d="M167.391 374.3L167.055 374.105L166.312 375.128L166.062 374.617L166.319 373.875C166.429 373.412 166.412 373.05 166.636 372.618C167.128 371.668 167.33 370.904 167.396 369.833C167.848 362.452 167.416 354.819 167.418 347.412L167.434 301.409L167.392 149.142L167.44 114.409C167.443 112.589 167.266 110.55 167.465 108.75C167.593 107.587 167.832 106.273 167.553 105.107C167.47 104.763 167.524 104.717 167.625 104.377C168.023 104.837 167.968 104.816 167.995 105.383L168.057 129.786L168.064 177.479L168.044 323.279L168.036 356.133L168.035 365.876C168.041 367.745 167.912 369.721 168.203 371.57L168.239 371.778C168.042 372.691 167.86 373.464 167.419 374.292L167.391 374.3Z"/>
	<path d="M453.77 305.839L453.642 304.082C453.363 305.638 453.052 306.618 452.273 307.986C452.643 304.01 452.428 300.057 452.383 296.066C452.37 294.88 452.089 293.411 452.317 292.272C452.526 291.224 452.238 289.401 452.237 288.226L452.242 273.202L452.427 180C453.051 179.25 452.543 178.035 452.477 177.125C452.697 176.668 452.784 176.39 452.75 175.875C452.608 173.748 452.762 171.637 452.75 169.5L452.46 169.125C452.428 166.642 452.097 163.692 452.519 161.269L452.875 161.234L453.087 162L453.472 161.727C453.984 164.192 454.091 166.736 454.147 169.25L454.114 202.907L454.061 269.879L454.039 292.07L454.12 299.875C454.145 301.855 454.266 303.904 453.77 305.839Z"/>
	<path fill="#010000" fill-opacity="0.9137255" d="M153.3 98.5903L153.623 99.75L153.714 99.375L153.888 99.125L154.035 115.777C153.63 136.044 154.49 364.423 153.822 365.244C153.551 363.554 153.544 361.833 153.489 360.125C153.475 359.698 153.561 358.872 153.369 358.5C153.37 360.068 153.618 362.193 153.083 363.651L153.3 98.5903Z"/>
	<path d="M214.27 436.374C214.31 435.772 214.334 435.235 214.244 434.634C213.736 431.251 214.419 427.663 214.609 424.25L214.875 423.969C215.11 421.696 214.718 419.157 214.715 416.834L214.702 396.416L214.702 328.33L214.82 247.099L214.893 223.779C214.899 219.616 215.099 215.263 214.719 211.125C214.396 207.604 214.329 203.398 214.62 199.875C214.666 199.314 214.88 198.821 214.917 198.238C214.995 197.004 214.753 195.49 215.295 194.375L216.112 194.214C215.495 201.247 215.942 208.454 215.953 215.511L215.954 253.902L215.94 377.872L215.936 406.656C215.933 414.562 216.067 422.386 215.091 430.25C214.841 432.263 214.761 434.408 214.27 436.374Z"/>
	<path d="M500.136 19.2685L501.43 27.6865C501.856 30.0978 501.571 33.0989 501.587 35.5706L501.598 55.1943L501.586 123.54L501.59 250.875L501.933 261.649L501.962 310.801L501.936 346.656L500.803 368.875C500.666 370.41 500.748 372.361 500.27 373.804L500.127 373.459C500.185 372.86 500.298 372.184 500.187 371.59C499.683 368.872 500.178 366.15 500.383 363.424L500.617 356.216L500.959 350.112L500.891 287.426L500.772 262.5C500.715 260.356 501.061 258.134 500.821 256C500.523 253.352 500.644 250.553 500.658 247.882L500.67 236.415L500.672 196.612L500.674 66.3378L500.693 43.7619L500.909 35.9327C500.901 34.9063 500.632 33.8462 500.606 32.7785C500.552 30.5089 500.893 27.5412 500.22 25.3912C499.966 24.5782 499.929 23.943 499.921 23.0986L499.921 22.75C499.556 22.3206 499.644 22.5417 499.559 22.037C499.352 20.8087 499.431 20.2397 500.136 19.2685Z"/>
</svg>
