<?xml version="1.0" encoding="utf-8" ?>
<svg xmlns="http://www.w3.org/2000/svg" xmlns:xlink="http://www.w3.org/1999/xlink" width="512" height="512">
	<path d="M20.4005 207.362C22.0686 198.932 24.4272 190.689 27.0072 182.5C35.1726 156.582 47.7944 131.945 64.125 110.229C70.6768 101.516 77.8963 93.5419 85.4831 85.7298C94.8702 76.0641 105.525 66.6075 116.748 59.1014L124.761 53.538C131.201 49.2998 137.868 45.3191 144.701 41.7423C182.088 22.1695 223.496 13.25 265.614 14.8016C270.857 14.9947 276.169 15.7864 281.392 16.3216C289.511 17.1537 297.478 17.9291 305.5 19.5253C354.443 29.2638 399.242 55.404 432.919 92.0658C440.454 100.269 447.761 109.1 453.935 118.383C460.36 128.043 466.386 137.805 471.569 148.205C476.308 157.714 480.231 167.741 483.629 177.796C488.303 191.626 491.942 205.905 493.989 220.375L495.898 238.274C496.468 244.886 496.415 251.341 496.455 257.968C496.471 260.621 496.844 263.84 496.327 266.438L496.277 266.683L495.483 276.65L489.874 310.59C488.975 312.9 488.663 315.551 487.968 317.948L482.143 335.731C478.937 344.246 475.594 352.861 471.702 361.088C457.475 391.158 436.215 418.612 410.469 439.723C380.377 464.396 344.754 481.041 306.761 489.237C303.465 489.948 300.204 490.865 296.875 491.425C282.684 493.813 268.497 494.671 254.125 494.544C246.207 494.473 238.433 494.256 230.544 493.44C181.396 488.36 133.554 468.057 96.5 435.268C85.472 425.51 75.6226 414.791 66.4511 403.287C57.4265 391.968 49.6597 379.378 43.0367 366.527C26.7659 334.957 17.0771 299.945 15.5232 264.426C14.9805 252.022 15.7534 239.555 17.1313 227.235L20.4005 207.362ZM377.86 311.729C377.727 310.895 378.365 308.946 378.536 308.019L380.235 297.889L382.106 282.234L383.272 265.375C383.433 263.495 383.311 261.517 383.339 259.625L383.116 244.125C382.256 224.195 379.431 204.792 374.588 185.445C372.052 175.313 369.374 164.966 365.048 155.424C364.247 153.657 363.063 150.86 361.25 149.967L361.003 149.841C358.788 148.778 356.016 148.616 353.625 148.24C348.997 147.51 343.729 146.831 339.521 144.674C337.873 143.83 336.26 142.472 335.643 140.662C335.079 139.006 335.522 136.613 336.374 135.119C337.437 133.254 339.329 131.878 341.395 131.37C344.151 130.691 346.997 131.115 349.771 131.406C350.828 131.517 351.718 131.528 352.75 131.841L353.016 131.5C352.485 129.406 351.562 127.478 350.718 125.5L346.247 115.594C338.821 99.8818 329.491 84.8379 318.668 71.2426C309.172 59.3142 298.155 48.0622 284.997 40.1749C272.568 32.7249 258.168 28.6736 243.827 32.375C223.254 37.6849 206.519 54.9041 193.804 71.0951C187.12 79.6069 180.899 88.5627 175.45 97.9257C169.253 108.575 163.522 119.424 159.332 131.033C159.732 131.278 161.512 130.892 162.06 130.827C167.749 130.149 174.771 130.284 176.386 137.096C176.835 138.993 176.581 141.093 175.535 142.744C174.052 145.088 171.046 146.331 168.441 146.862C162.113 148.153 156.212 146.982 150.509 150.845C149.079 151.813 147.853 153.621 147.084 155.162C145.889 157.556 145.221 160.298 144.343 162.82C141.284 171.603 138.581 180.41 136.476 189.473C135.921 191.861 135.199 194.212 134.782 196.632C133.48 204.188 131.766 211.678 130.868 219.311C129.694 229.299 129.445 239.454 128.901 249.492C128.553 255.899 127.82 262.858 128.635 269.249C130.644 284.988 131.464 300.716 134.915 316.26C135.78 320.159 136.485 323.558 138.499 327.084C139.719 324.683 140.875 322.217 142.339 319.952C154.342 301.369 174.754 292.733 193.636 283.027L205.794 276.571C208.474 275.13 211.202 273.523 214.102 272.574C216.372 271.831 218.452 271.659 220.625 272.807C224.883 275.059 228.614 278.283 232.734 280.785C243.368 287.242 256.293 289.188 268.261 285.685C271.803 284.649 275.003 283.11 278.237 281.361C284.313 278.075 290.425 270.263 298.048 272.479C301.359 273.442 304.343 275.324 307.299 277.055L317.438 282.739C336.569 292.824 359.25 300.596 370.176 320.848L373.618 327.25C375.553 322.178 376.683 317.014 377.86 311.729ZM294.914 288.47C281.667 298.485 264.797 304.77 248.04 302.36C239.542 301.137 231.652 297.855 224.349 293.432L219.362 290.276C218.779 289.924 217.985 289.288 217.359 289.073C217.126 288.993 216.774 289.117 216.561 289.201C209.714 291.885 203.054 295.456 196.502 298.785L176.469 309.182C173.225 310.983 169.961 312.987 166.985 315.203C164.255 317.236 161.534 319.452 159.299 322.035C153.61 328.611 150.851 336.858 149.641 345.33L149.205 348.449C148.876 349.979 148.922 351.71 148.842 353.278C148.759 354.93 148.543 356.577 148.56 358.231L206.625 372.246C215.954 373.298 225.273 374.833 234.649 375.419C240.874 375.809 247.295 375.488 253.545 375.48L272.979 375.42L282.615 374.603L307.063 372.062C319.647 370.128 331.972 367.33 344.25 363.989C350.716 362.23 357.247 360.49 363.555 358.221C362.921 344.238 361.079 329.083 350.117 319.073C343.107 312.671 334.877 308.398 326.494 304.088L294.914 288.47ZM395.276 297.093C394.586 302.599 393.598 307.842 392.262 313.228C391.122 317.821 389.684 322.521 388.853 327.167L381.814 355.941C385.089 355.418 388.38 354.425 391.612 353.648C408.009 349.71 424.199 344.412 439.324 336.904C443.96 334.603 448.212 331.865 452.441 328.892C461.861 322.269 471.547 313.735 475.309 302.536L480.247 277.727L481.675 259.688C482.1 255.947 481.721 251.751 481.508 248L481.187 240C480.695 233.72 479.668 227.435 478.515 221.25C477.432 215.434 476.492 209.534 474.302 204C472.69 199.925 470.064 196.184 467.329 192.791C463.844 188.469 459.563 185.18 455.084 181.964C445.829 175.32 435.389 170.221 424.75 166.208C415.752 162.815 406.796 159.754 397.5 157.254L381.032 153.45L390.131 184.418C392.339 193.464 393.901 202.555 395.311 211.75C396.57 219.964 397.614 228.377 398.031 236.68L398.128 256.677C398.116 270.201 397.58 283.741 395.276 297.093ZM35.2953 213.733L32.7527 225.101C32.211 231.173 30.9556 237.145 30.6017 243.25L30.4811 255.547C30.4757 259.034 30.3173 262.613 30.54 266.09L32.3243 282.25C33.4136 290.488 34.8837 299.441 38.7069 306.891C42.4718 314.228 48.3709 320.753 54.9512 325.69C57.3457 327.486 60.0217 329.06 62.5539 330.66C77.5329 340.126 94.1857 346.295 111.094 351.388L130.171 356.628L126.772 344.625L120.54 320.5C114.615 294.396 113.014 267.672 114.262 241C114.532 235.207 114.41 229.445 115.229 223.682L115.929 216.702L117.204 207.817L122.429 182.907C123.823 176.174 125.902 169.684 127.84 163.097C128.672 160.268 129.788 157.431 130.244 154.51C125.61 155.223 120.998 155.932 116.433 157.019C105.543 159.612 94.7897 163.33 84.4766 167.645C71.5793 173.041 58.8264 179.39 48.7109 189.214C46.8914 190.98 45.0126 192.76 43.5141 194.812C41.1756 198.014 39.2496 201.637 37.8849 205.363C37.1326 207.417 36.6396 209.54 35.9897 211.625C35.8249 212.154 35.6091 213.328 35.2953 213.733ZM159.157 377.829L160.299 381.75C161.599 385.7 163.503 389.966 165.295 393.728C173.325 410.581 183.654 426.25 195.575 440.592C205.868 452.974 217.915 465.226 232.46 472.521C245.009 478.814 258.357 480.349 271.808 475.877C292.887 468.867 307.833 450.95 321.53 434.448C326.831 427.397 331.868 420.057 336.183 412.355C342.378 401.3 347.64 389.602 353.1 378.176C343.078 381.405 332.461 383.559 322.095 385.362C310.857 387.317 299.505 389 288.12 389.811L264.457 390.541C246.97 390.912 229.767 390.416 212.376 388.407C203.835 387.42 195.435 385.675 187 384.058L164.75 379.103C162.905 378.626 160.968 378.386 159.157 377.829ZM47.5622 339.373C48.149 341.597 49.0785 343.41 49.9769 345.5L55.8348 358.092C74.1227 395.251 104.418 427.281 140.175 448.138C157.116 458.019 174.651 465.028 193.373 470.678C198.189 472.131 203.338 473.938 208.33 474.492C206.764 472.85 205.048 471.925 203.3 470.554L195.942 464.203C191.872 460.476 188.222 456.34 184.659 452.133C179.45 445.981 174.469 439.403 170.122 432.609C163.235 421.845 156.701 410.551 151.456 398.885L142.831 378.696L141.311 375.226C141.219 375.021 140.979 374.295 140.828 374.146C140.378 373.701 114.609 367.953 111.935 367.322C104.119 365.475 96.4615 362.88 88.875 360.281C80.5207 357.419 72.124 353.895 64.357 349.665L53.93 343.528C51.8293 342.168 49.8866 340.353 47.5622 339.373ZM463.827 339.375C461.738 340.397 459.957 342.196 458.066 343.545C455.418 345.433 452.549 347.228 449.741 348.875C437.999 355.763 424.96 360.252 412 364.219L397.75 368.002L376.432 372.71L372.46 373.463C372.236 373.5 371.411 373.552 371.226 373.662C371.132 373.718 370.746 374.624 370.679 374.76L368.33 380.088L361.326 396.445C360.023 399.473 358.874 402.514 357.409 405.478C347.554 425.411 335.17 444.608 319.417 460.411C317.98 461.853 316.32 463.155 314.813 464.537L310.476 468.709C308.219 470.701 305.536 472.341 303.804 474.841L335.375 464.984C347.708 460.521 360.282 455.163 371.625 448.539C392.4 436.405 410.327 420.654 425.978 402.458C433.034 394.255 439.509 385.612 445.436 376.565C448.718 371.555 452.064 366.439 454.845 361.124C458.464 354.208 461.861 347.312 463.971 339.758L463.827 339.375ZM206.519 35.625C202.98 36.5952 199.24 37.193 195.756 38.3155C181.972 42.757 168.547 47.5124 155.469 53.7994L138.436 62.9645L133.435 65.9822C128.55 68.9192 123.872 72.3282 119.3 75.7261C100.907 89.3945 84.7327 106.191 71.8141 125.125C65.8028 133.936 60.7885 143.439 55.9031 152.903C53.1887 158.161 50.1184 163.441 47.7959 168.875L47.875 169.424L48.625 169.244C61.5579 159.659 77.0143 152.924 92.2721 147.982C107.253 143.129 122.929 140.819 138.156 136.951C138.739 136.803 140.338 136.31 140.756 135.891C142.084 134.56 142.478 130.904 143.125 129.094L145.995 122.038C150.379 111.99 155.236 102.121 160.717 92.625L165.239 84.7951C173.392 72.1365 181.699 59.5588 192.391 48.8528C194.939 46.3009 197.537 43.8222 200.316 41.5206L203.997 38.4526C205.088 37.5968 206.526 36.8403 207.399 35.75C207.015 35.4614 206.974 35.5701 206.519 35.625ZM302.594 34.3988L307.269 38.313C308.905 39.5959 310.66 40.7187 312.212 42.1095C325.827 54.3083 337.247 68.718 346.858 84.2332L350.607 90.9392C353.936 96.7135 357.111 102.575 359.904 108.625L370.154 131.932C370.668 133.014 371.121 134.856 371.96 135.681C373.256 136.956 381.011 137.815 383.3 138.406L404.546 144.163C411.711 146.079 418.95 147.809 425.947 150.283C436.332 153.954 447.195 158.368 456.341 164.565C458.78 166.218 461.014 168.149 463.25 170.06L463.875 169.971C463.94 168.617 463.146 167.34 462.551 166.167L459.499 160.125L454.822 150.387C445.138 131.973 433.47 115.031 419.362 99.7262C394.07 72.2901 361.011 53.3685 326 41.2599L311.386 36.6715L302.594 34.3988ZM489.874 310.59L495.483 276.65L495.123 276.5L494.75 276.127C494.001 276.876 494.691 277.652 494.127 278.5C494.127 279.266 494.292 280.375 493.877 281L493.873 284.625L493.625 284.377C493.305 284.858 493.345 284.936 493.294 285.501C493.221 286.3 493.011 286.978 492.877 287.75C492.843 287.951 492.864 288.174 492.875 288.377L492.627 288.75L492.544 289.501C492.364 291.347 492.156 293.279 491.643 295.06C491.361 296.04 491.498 297.12 491.325 298.125C490.956 300.27 490.354 302.988 489.627 305C489.342 305.791 489.574 306.742 489.243 307.568C489.043 308.069 489.108 308.596 489.125 309.127L488.877 309.5L489.25 309.873L489.556 309.5L489.742 309.626L489.874 310.59ZM388.853 327.167C389.684 322.521 391.122 317.821 392.262 313.228C393.598 307.842 394.586 302.599 395.276 297.093C395.217 296.466 395.198 295.852 394.999 295.251L394.625 295.127C394.255 295.684 394.497 295.944 394.127 296.5C394.126 297.166 394.253 297.684 393.877 298.25L393.873 300.125L393.625 299.877C393.21 300.511 393.224 302.81 393.02 303.789C392.922 304.256 392.801 304.578 392.631 305.012C392.282 305.903 392.363 306.951 392.125 307.877L389.122 320.738C388.833 321.871 387.602 324.907 388.001 325.938L388.375 326.606L388.653 325.805L388.853 327.167ZM117.204 207.817L117.595 208.983L117.75 208.625L118.125 208.781L118.174 207.75C118.676 207.354 119.028 203.249 119.258 202.375C119.431 201.718 119.517 201.019 119.709 200.375C119.948 199.577 120.049 198.802 120.247 198C120.521 196.89 120.975 195.435 121.074 194.32C121.107 193.949 121.145 193.685 121.239 193.313L121.667 191.267C121.899 190.509 122.03 189.766 122.219 189L123.235 184.125C123.093 183.582 122.803 183.311 122.429 182.907L117.204 207.817ZM480.247 277.727L475.309 302.536C475.669 303.066 475.747 303.647 475.875 304.262L476.395 302.447C476.544 301.982 476.623 301.504 476.763 301.046C477.026 300.191 477.15 299.331 477.401 298.478C477.515 298.092 477.621 297.815 477.615 297.401L477.593 297.125C478.137 296.499 478.068 295.501 478.317 294.706C478.52 294.059 478.561 293.563 478.563 292.891L478.562 292.625L478.875 292.4L479.2 289.75C479.68 289.253 479.633 288.172 479.64 287.518L479.641 287.25C480.226 286.541 480.021 285.33 480.271 284.429C480.546 283.432 480.805 282.062 480.463 281.055C480.292 280.551 480.297 280.735 480.297 280.234L480.247 277.727ZM20.4005 207.362L17.1313 227.235C17.3149 227.335 17.1967 227.256 17.4215 227.578L17.625 227.873L17.9972 227.688L18.1225 227.25L18.2296 226.486C18.4502 225.51 18.785 224.387 18.6692 223.369L18.625 223.14C19.6812 221.397 18.9405 218.36 19.7646 216.508C20.4643 214.934 20.4063 212.522 20.8034 210.801C20.9837 210.02 21.1268 209.296 21.2245 208.5C20.9799 208.066 20.7182 207.743 20.4005 207.362ZM377.86 311.729L378.273 312.157C378.206 312.637 378.199 312.51 378.212 312.89C378.227 313.351 378.324 314.084 378.123 314.5C378.099 314.549 377.778 314.837 377.765 314.875C377.445 315.831 377.937 316.201 377.286 317.25L377.562 317.876L377.694 317.375C377.942 316.624 377.986 315.876 378.194 315.125C378.421 314.302 378.447 313.41 378.68 312.625C378.981 311.61 379.078 310.634 379.331 309.612C379.535 308.788 379.61 308.102 379.654 307.25C380.251 306.373 380.128 304.797 380.388 303.742C380.611 302.834 380.598 301.93 380.613 301C380.112 300.269 380.267 298.809 380.235 297.889L378.536 308.019C378.365 308.946 377.727 310.895 377.86 311.729ZM32.7527 225.101L35.2953 213.733L34.831 213.797L34.625 214.25C34.5108 213.746 34.4681 213.272 34.4375 212.758C34.1811 213.281 34.0446 213.817 33.8825 214.375C33.9528 214.56 34.0564 214.731 34.1364 214.911C34.366 215.431 34.2297 216.133 34.1875 216.688L33.8725 216.5C33.8725 216.02 33.9818 215.984 33.625 215.627C33.3797 216.739 33.1834 217.96 32.7418 219.008C32.2729 220.121 32.3462 221.68 32.375 222.877L32.1275 223.25L32.375 223.623L32.6275 223.5L32.7527 225.101ZM115.929 216.702L115.229 223.682L115.585 225.249C115.786 224.946 115.696 225.052 115.938 224.797L116.106 224.625C116.091 224.075 116 223.467 116.252 222.967C116.758 221.963 116.695 219.918 116.594 218.813L116.563 218.5C116.515 217.772 116.268 217.335 115.929 216.702ZM477.336 344.625C476.959 345.187 476.708 345.598 476.504 346.25L475.877 348.375L476.363 348.675L476.575 348.375L476.939 347.803L476.875 347.519L477.059 347.161C477.303 346.656 477.239 346.867 477.276 346.325L477.801 345.5L477.357 344.676L477.336 344.625Z"/>
	<path d="M477.336 344.625L477.357 344.676L477.801 345.5L477.276 346.325C477.239 346.867 477.303 346.656 477.059 347.161L476.875 347.519L476.939 347.803L476.575 348.375L476.363 348.675L475.877 348.375L476.504 346.25C476.708 345.598 476.959 345.187 477.336 344.625Z"/>
	<path d="M115.929 216.702C116.268 217.335 116.515 217.772 116.563 218.5L116.594 218.813C116.695 219.918 116.758 221.963 116.252 222.967C116 223.467 116.091 224.075 116.106 224.625L115.938 224.797C115.696 225.052 115.786 224.946 115.585 225.249L115.229 223.682L115.929 216.702Z"/>
	<path d="M32.7527 225.101L32.6275 223.5L32.375 223.623L32.1275 223.25L32.375 222.877C32.3462 221.68 32.2729 220.121 32.7418 219.008C33.1834 217.96 33.3797 216.739 33.625 215.627C33.9818 215.984 33.8725 216.02 33.8725 216.5L34.1875 216.688C34.2297 216.133 34.366 215.431 34.1364 214.911C34.0564 214.731 33.9528 214.56 33.8825 214.375C34.0446 213.817 34.1811 213.281 34.4375 212.758C34.4681 213.272 34.5108 213.746 34.625 214.25L34.831 213.797L35.2953 213.733L32.7527 225.101Z"/>
	<path d="M377.86 311.729C377.727 310.895 378.365 308.946 378.536 308.019L380.235 297.889C380.267 298.809 380.112 300.269 380.613 301C380.598 301.93 380.611 302.834 380.388 303.742C380.128 304.797 380.251 306.373 379.654 307.25C379.61 308.102 379.535 308.788 379.331 309.612C379.078 310.634 378.981 311.61 378.68 312.625C378.447 313.41 378.421 314.302 378.194 315.125C377.986 315.876 377.942 316.624 377.694 317.375L377.562 317.876L377.286 317.25C377.937 316.201 377.445 315.831 377.765 314.875C377.778 314.837 378.099 314.549 378.123 314.5C378.324 314.084 378.227 313.351 378.212 312.89C378.199 312.51 378.206 312.637 378.273 312.157L377.86 311.729Z"/>
	<path d="M20.4005 207.362C20.7182 207.743 20.9799 208.066 21.2245 208.5C21.1268 209.296 20.9837 210.02 20.8034 210.801C20.4063 212.522 20.4643 214.934 19.7646 216.508C18.9405 218.36 19.6812 221.397 18.625 223.14L18.6692 223.369C18.785 224.387 18.4502 225.51 18.2296 226.486L18.1225 227.25L17.9972 227.688L17.625 227.873L17.4215 227.578C17.1967 227.256 17.3149 227.335 17.1313 227.235L20.4005 207.362Z"/>
	<path fill="#010001" fill-opacity="0.95686275" d="M480.247 277.727L480.297 280.234C480.297 280.735 480.292 280.551 480.463 281.055C480.805 282.062 480.546 283.432 480.271 284.429C480.021 285.33 480.226 286.541 479.641 287.25L479.64 287.518C479.633 288.172 479.68 289.253 479.2 289.75L478.875 292.4L478.562 292.625L478.563 292.891C478.561 293.563 478.52 294.059 478.317 294.706C478.068 295.501 478.137 296.499 477.593 297.125L477.615 297.401C477.621 297.815 477.515 298.092 477.401 298.478C477.15 299.331 477.026 300.191 476.763 301.046C476.623 301.504 476.544 301.982 476.395 302.447L475.875 304.262C475.747 303.647 475.669 303.066 475.309 302.536L480.247 277.727Z"/>
	<path d="M117.204 207.817L122.429 182.907C122.803 183.311 123.093 183.582 123.235 184.125L122.219 189C122.03 189.766 121.899 190.509 121.667 191.267L121.239 193.313C121.145 193.685 121.107 193.949 121.074 194.32C120.975 195.435 120.521 196.89 120.247 198C120.049 198.802 119.948 199.577 119.709 200.375C119.517 201.019 119.431 201.718 119.258 202.375C119.028 203.249 118.676 207.354 118.174 207.75L118.125 208.781L117.75 208.625L117.595 208.983L117.204 207.817Z"/>
	<path d="M388.853 327.167L388.653 325.805L388.375 326.606L388.001 325.938C387.602 324.907 388.833 321.871 389.122 320.738L392.125 307.877C392.363 306.951 392.282 305.903 392.631 305.012C392.801 304.578 392.922 304.256 393.02 303.789C393.224 302.81 393.21 300.511 393.625 299.877L393.873 300.125L393.877 298.25C394.253 297.684 394.126 297.166 394.127 296.5C394.497 295.944 394.255 295.684 394.625 295.127L394.999 295.251C395.198 295.852 395.217 296.466 395.276 297.093C394.586 302.599 393.598 307.842 392.262 313.228C391.122 317.821 389.684 322.521 388.853 327.167Z"/>
	<path fill="#010001" fill-opacity="0.95686275" d="M489.874 310.59L489.742 309.626L489.556 309.5L489.25 309.873L488.877 309.5L489.125 309.127C489.108 308.596 489.043 308.069 489.243 307.568C489.574 306.742 489.342 305.791 489.627 305C490.354 302.988 490.956 300.27 491.325 298.125C491.498 297.12 491.361 296.04 491.643 295.06C492.156 293.279 492.364 291.347 492.544 289.501L492.627 288.75L492.875 288.377C492.864 288.174 492.843 287.951 492.877 287.75C493.011 286.978 493.221 286.3 493.294 285.501C493.345 284.936 493.305 284.858 493.625 284.377L493.873 284.625L493.877 281C494.292 280.375 494.127 279.266 494.127 278.5C494.691 277.652 494.001 276.876 494.75 276.127L495.123 276.5L495.483 276.65L489.874 310.59Z"/>
	<path d="M246.95 108.244C252.324 107.249 258.949 106.993 264.375 107.786L267.375 108.224C283.349 110.023 297.666 119.067 307.522 131.5C313.765 139.374 317.894 149.573 319.02 159.555C319.4 162.92 319.283 166.325 319.646 169.665C319.81 171.173 319.544 172.754 319.505 174.272C319.363 179.744 319.259 185.634 318.311 191.019L319.929 193.969C320.632 194.983 321.193 195.971 321.771 197.053C323.351 200.013 322.922 204.694 321.973 207.785C321.581 209.06 321.073 210.361 320.414 211.521L320.384 211.529C318.857 215.652 316.174 219.342 314.36 223.353L309.443 235.555C306.673 242.037 303.018 248.71 298.299 253.973C296.54 255.935 294.63 257.92 292.379 259.32C290.971 260.196 288.339 261.312 286.632 260.869C285.803 260.653 284.968 260.533 284.184 260.16C282.85 259.527 281.697 258.071 281.279 256.665L281.199 256.375C280.627 254.403 280.451 252.197 281.317 250.282L281.448 250C282.96 246.595 286.841 244.071 288.978 240.923C292.287 236.047 294.822 231.004 297.197 225.625C300.062 219.135 302.703 212.251 306.768 206.399C304.812 204.392 303.535 202.399 302.804 199.704C302.028 197.035 302.701 193.339 303.235 190.643C304.154 182.27 304.982 174.178 304.384 165.734C303.496 153.183 297.615 141.732 288.066 133.572C281.424 127.896 272.233 124.684 263.675 123.513C261.614 123.231 259.424 122.889 257.344 123.055L248.487 123.546C242.723 124.134 237.026 125.771 231.835 128.341C217.912 135.233 208.613 149.298 207.151 164.692C206.531 171.219 206.945 177.913 207.896 184.391L209.717 195.415C209.899 196.726 210.275 198.828 209.786 200.086L209.66 200.375C208.971 201.996 207.394 203.026 206.808 204.467C206.314 205.684 206.496 206.597 206.925 207.792C208.149 211.207 210.412 214.352 212.006 217.625C215.492 224.781 217.767 232.484 222.054 239.234C223.137 240.939 224.296 242.613 225.61 244.15C227.532 246.399 230.097 248.401 231.239 251.195L231.375 251.539C231.99 252.988 232.167 254.52 231.96 256.091C231.769 257.543 230.46 259.3 229.251 260.065C227.477 261.188 225.017 261.425 222.981 260.895L222.5 260.759C219.412 259.951 217.1 258.396 214.927 256.07C212.513 253.487 210.427 250.367 208.661 247.31C205.024 241.015 202.632 234.187 199.41 227.704C197.641 224.145 195.072 221.038 193.362 217.462C192.792 216.269 191.918 214.55 192.016 213.211L192.065 212.75C191.014 211.302 190.603 209.827 190.18 208.125C189.477 205.293 189.573 200.971 190.357 198.191C190.832 196.507 191.311 194.602 192.67 193.384C192.776 193.289 193.456 192.763 193.505 192.625C193.808 191.78 193.414 189.476 193.334 188.573C192.884 183.456 192.159 178.485 192.028 173.333C191.997 172.116 191.746 170.731 191.934 169.531C192.202 167.821 191.902 166.035 192.148 164.311C192.518 161.708 192.698 159.129 193.204 156.539C195.077 146.932 199.061 138.217 205.122 130.523C215.126 117.825 231.085 110.137 246.95 108.244ZM319.929 193.969C319.719 194.311 319.557 194.624 319.416 195L319.568 195.327C320.072 196.454 320.304 197.64 320.897 198.734C321.182 199.259 321.165 199.632 321.176 200.213C321.183 200.628 321.165 200.403 321.298 200.855C321.758 202.419 321.463 205.174 320.787 206.631C320.421 207.421 320.504 208.454 320.125 209.2C319.981 209.483 319.746 209.714 319.608 210L319.376 211.066C319.291 211.489 319.337 211.324 319.077 211.75L319.306 212.39C319.668 212 319.76 211.99 319.875 211.446L320.164 211.361L320.384 211.529L320.414 211.521C321.073 210.361 321.581 209.06 321.973 207.785C322.922 204.694 323.351 200.013 321.771 197.053C321.193 195.971 320.632 194.983 319.929 193.969ZM246.95 108.244L249.368 108.332C255.194 108.611 261.566 109.049 267.375 108.224L264.375 107.786C258.949 106.993 252.324 107.249 246.95 108.244ZM302.804 199.704L303.094 199.312C303.364 199.415 303.205 199.397 303.57 199.25C303.654 197.766 303.918 194.929 303.353 193.641C303.2 193.293 303.201 193.474 303.232 193.102C303.299 192.285 303.254 191.463 303.235 190.643C302.701 193.339 302.028 197.035 302.804 199.704Z"/>
	<path fill="#010001" fill-opacity="0.95686275" d="M302.804 199.704C302.028 197.035 302.701 193.339 303.235 190.643C303.254 191.463 303.299 192.285 303.232 193.102C303.201 193.474 303.2 193.293 303.353 193.641C303.918 194.929 303.654 197.766 303.57 199.25C303.205 199.397 303.364 199.415 303.094 199.312L302.804 199.704Z"/>
	<path d="M246.95 108.244C252.324 107.249 258.949 106.993 264.375 107.786L267.375 108.224C261.566 109.049 255.194 108.611 249.368 108.332L246.95 108.244Z"/>
	<path d="M319.929 193.969C320.632 194.983 321.193 195.971 321.771 197.053C323.351 200.013 322.922 204.694 321.973 207.785C321.581 209.06 321.073 210.361 320.414 211.521L320.384 211.529L320.164 211.361L319.875 211.446C319.76 211.99 319.668 212 319.306 212.39L319.077 211.75C319.337 211.324 319.291 211.489 319.376 211.066L319.608 210C319.746 209.714 319.981 209.483 320.125 209.2C320.504 208.454 320.421 207.421 320.787 206.631C321.463 205.174 321.758 202.419 321.298 200.855C321.165 200.403 321.183 200.628 321.176 200.213C321.165 199.632 321.182 199.259 320.897 198.734C320.304 197.64 320.072 196.454 319.568 195.327L319.416 195C319.557 194.624 319.719 194.311 319.929 193.969Z"/>
</svg>
