<?xml version="1.0" encoding="utf-8" ?>
<svg xmlns="http://www.w3.org/2000/svg" xmlns:xlink="http://www.w3.org/1999/xlink" width="512" height="512">
	<path d="M194.131 419.246C198.501 418.143 203.97 418.005 208.337 419.254C215.534 420.47 222.085 425.202 226.264 431.089C227.289 432.533 228.149 433.927 228.875 435.538C229.677 437.319 231.021 440.042 230.993 442.023C232.026 446.936 232.265 451.601 231.437 456.581C231.199 458.015 230.854 459.988 230.123 461.252C229.901 462.335 229.347 463.378 228.877 464.375C226.912 468.545 223.697 472.261 219.952 474.944C212.13 480.546 202.858 482.217 193.449 480.66C186.948 479.584 180.214 475.284 176.402 469.893C173.582 465.905 171.313 461.644 170.411 456.785C168.752 447.854 169.675 438.992 175.001 431.376C179.405 425.078 186.534 420.511 194.131 419.246ZM200.005 433.564C197.195 434.118 194.554 434.622 192.125 436.204C189.882 437.665 188.249 439.43 186.731 441.625L186.537 441.902C184.399 445.062 183.869 450.065 184.68 453.722L184.875 454.51L184.958 454.851C185.818 458.11 188.384 461.437 191.292 463.153L192 463.532L192.359 463.722C195.402 465.3 198.174 465.471 201.431 466.083C206.108 465.413 209.775 464.312 212.927 460.625C215.079 458.109 215.999 455.491 216.599 452.301C217.381 448.141 216.095 443.338 213.747 439.875L212.625 438.394L212.436 438.147C210.736 435.969 207.035 434.342 204.375 433.903C202.93 433.664 201.468 433.381 200.005 433.564ZM230.123 461.252C230.854 459.988 231.199 458.015 231.437 456.581C232.265 451.601 232.026 446.936 230.993 442.023C230.847 442.255 230.429 442.76 230.377 443C230.216 443.758 230.38 444.97 230.381 445.767C230.385 449.502 230.89 454.066 229.752 457.636C229.397 458.747 229.426 459.931 228.983 461L229.381 461.625L229.769 461.058L230.123 461.252ZM194.131 419.246C195.096 419.225 196.059 419.066 196.875 419.664C198.499 419.593 200.145 419.477 201.77 419.515C203.169 419.548 204.614 419.81 205.982 419.426C206.718 419.22 207.571 419.268 208.337 419.254C203.97 418.005 198.501 418.143 194.131 419.246Z"/>
	<path d="M194.131 419.246C198.501 418.143 203.97 418.005 208.337 419.254C207.571 419.268 206.718 419.22 205.982 419.426C204.614 419.81 203.169 419.548 201.77 419.515C200.145 419.477 198.499 419.593 196.875 419.664C196.059 419.066 195.096 419.225 194.131 419.246Z"/>
	<path d="M230.123 461.252L229.769 461.058L229.381 461.625L228.983 461C229.426 459.931 229.397 458.747 229.752 457.636C230.89 454.066 230.385 449.502 230.381 445.767C230.38 444.97 230.216 443.758 230.377 443C230.429 442.76 230.847 442.255 230.993 442.023C232.026 446.936 232.265 451.601 231.437 456.581C231.199 458.015 230.854 459.988 230.123 461.252Z"/>
	<path d="M367.497 480.68C366.639 480.947 365.76 480.953 364.875 481.045C359.849 481.568 353.847 480.707 349.096 479.012C341.752 476.391 335.707 471.283 332.357 464.175C328.578 456.158 328.536 446.965 331.555 438.7C334.273 431.257 340.372 424.748 347.549 421.43C354.854 418.051 363.559 417.031 371.219 419.839C379.097 422.727 386.004 428.884 389.502 436.553L389.625 436.827L391.217 441.001C391.816 443.359 392.109 445.586 392.297 448.004C392.619 452.154 391.903 457.399 390.185 461.252L390.127 461.288C388.052 468.401 381.874 474.416 375.53 477.875C373.728 478.857 371.808 479.467 369.91 480.224C369.107 480.419 368.325 480.629 367.497 480.68ZM360.256 433.56C356.653 434.315 354.221 435.111 351.11 437.078C348.171 438.936 345.557 442.677 344.769 446.065C344.234 448.36 344.219 451.765 344.918 454.001C346.327 458.507 348.287 461.632 352.532 463.983C355.162 465.439 358.329 466.046 361.303 466.232C366.446 465.443 370.645 464.209 373.825 459.767C375.539 457.372 376.19 454.834 376.87 452.033C377.772 448.321 376.145 443.117 374.134 439.976C373.183 438.491 372.113 437.378 370.718 436.313L370.463 436.114C368.97 434.992 367.038 434.408 365.25 433.968L364.963 433.891C363.471 433.5 361.783 433.435 360.256 433.56ZM391.217 441.001C390.915 441.238 390.644 441.474 390.377 441.75L390.377 443.125L390.75 443.372C391.045 444.245 390.627 445.25 391.127 446C391.127 446.669 390.999 447.182 391.377 447.75C391.397 448.69 391.356 449.235 391.127 450.125C390.846 451.222 391.182 452.45 390.877 453.625L390.847 455.379L390.556 455.001L389.11 460.785C389.039 461.109 389.065 461.307 389.133 461.625C389.58 461.484 389.58 461.381 389.865 461.031L390.127 461.288L390.185 461.252C391.903 457.399 392.619 452.154 392.297 448.004C392.109 445.586 391.816 443.359 391.217 441.001ZM367.497 480.68C368.325 480.629 369.107 480.419 369.91 480.224C369.526 479.704 369.474 479.443 368.797 479.352C367.788 479.216 366.479 479.558 365.443 479.659L365.377 480.125C366.183 480.469 366.807 480.09 367.497 480.68Z"/>
	<path d="M367.497 480.68C366.807 480.09 366.183 480.469 365.377 480.125L365.443 479.659C366.479 479.558 367.788 479.216 368.797 479.352C369.474 479.443 369.526 479.704 369.91 480.224C369.107 480.419 368.325 480.629 367.497 480.68Z"/>
	<path d="M391.217 441.001C391.816 443.359 392.109 445.586 392.297 448.004C392.619 452.154 391.903 457.399 390.185 461.252L390.127 461.288L389.865 461.031C389.58 461.381 389.58 461.484 389.133 461.625C389.065 461.307 389.039 461.109 389.11 460.785L390.556 455.001L390.847 455.379L390.877 453.625C391.182 452.45 390.846 451.222 391.127 450.125C391.356 449.235 391.397 448.69 391.377 447.75C390.999 447.182 391.127 446.669 391.127 446C390.627 445.25 391.045 444.245 390.75 443.372L390.377 443.125L390.377 441.75C390.644 441.474 390.915 441.238 391.217 441.001Z"/>
	<path d="M20.0313 33.7146C22.0628 30.7621 24.0981 29.5219 27.4153 28.3405C28.718 27.8765 29.8341 28.0598 31.1636 28.1574C36.6494 28.5602 41.6869 30.7145 46.8772 32.3476C62.371 37.2228 78.1859 42.4702 92.7698 49.684C99.2041 52.8666 105.861 56.5213 111.358 61.1847C120.844 69.2321 126.867 80.4264 130.743 92.0754L133.374 100.858C133.844 102.632 134.058 104.413 134.855 106.063L374.396 106.043L443.702 106.03L464.454 106.028C468.184 106.027 472.142 105.757 475.838 106.207C477.718 106.435 480.004 106.148 481.792 106.754C483.338 106.937 484.914 107.183 486.386 107.704C488.647 108.504 491.338 110.01 492.363 112.274L492.515 112.625C493.574 115.016 493.406 118.63 492.66 121.138L492.545 121.5L428.535 282.75C424.88 292.918 418.503 303.634 408.404 308.376C405.008 309.971 401.524 310.976 397.808 311.485C392.068 312.271 386.076 312.141 380.281 312.514L349.375 314.709L300.582 318.336L247.75 322.063L234 323.489L218.769 324.939L201.064 327.324C197.557 327.748 193.892 327.668 190.362 327.663C188.153 327.659 185.742 326.991 183.689 328.019L173.875 333.953C169.348 336.871 165.211 340.417 162.106 344.842C158.699 349.696 157.606 356.907 158.705 362.667L158.799 363.125C159.426 366.431 160.844 369.413 162.766 372.166L163.002 372.5C164.333 374.409 166.042 376.175 167.978 377.477C172.688 380.646 178.344 382.151 183.96 382.565C190.19 383.024 196.597 382.74 202.848 382.723L234.415 382.669L333.971 382.666L382.364 382.724L394.412 382.749C396.402 382.755 398.799 383.032 400.722 382.592C402.261 382.239 403.98 381.372 404.811 379.977C405.775 378.357 406.54 375.533 405.903 373.693C405.502 372.535 404.304 371.616 403.209 371.171L402.875 371.039C400.707 370.132 398.467 369.718 396.125 369.569C390.168 369.192 383.981 369.521 377.998 369.521L342.429 369.521L231.953 369.521L208.619 369.52L201.577 369.517C200.032 369.509 198.382 369.617 196.886 369.176L196.5 369.053C194.511 368.45 193.268 367.705 192.12 365.93C191.12 364.384 190.73 362.396 191.184 360.603L191.278 360.25L191.384 359.838C191.836 358.157 193.098 356.601 194.658 355.778C195.694 355.231 196.95 354.898 198.117 354.834C206.611 354.364 215.292 354.715 223.81 354.712L272.044 354.699L357.462 354.696L383.014 354.703L395.432 354.72C398.992 354.74 402.97 354.5 406.377 355.687C411.094 357.329 415.711 360.856 417.913 365.419L419.488 368.574L419.625 368.912C420.007 369.824 420.228 370.729 420.426 371.697C421.677 377.806 420.173 384.006 416.672 389.125C414.059 392.945 409.186 396.497 404.581 397.275L404.125 397.347C399.996 398.072 395.395 397.699 391.194 397.701L369.356 397.705L288.913 397.702L210.918 397.7L190.435 397.699C185.939 397.698 181.033 398.046 176.61 397.239L171.579 396.166C161.121 393.198 153.236 386.206 148.066 376.754C143.109 367.691 142.049 355.861 144.998 346C148.144 335.478 156.078 327.33 164.879 321.217C166.905 319.809 168.836 318.383 171.01 317.204L168.556 311L163.848 295.807C160.346 283.361 157.875 270.531 155.254 257.875L145.316 210.28L136.625 172.479L130.203 144.25L119.994 107.89C117.562 98.3812 114.223 87.585 108.347 79.5931C101.424 70.1765 91.1662 64.8427 80.1739 61.5988C77.3313 60.7599 74.3827 60.2685 71.4987 59.5949L43.053 53.217C36.7486 51.8256 29.0798 51.2597 23.4984 47.819C21.5111 46.5939 19.8668 44.6407 19.3614 42.3346C18.2279 39.3415 18.8828 36.5399 20.0313 33.7146ZM177.997 286.755C178.331 290.28 179.066 293.661 179.888 297.097C180.76 300.738 181.717 304.215 183.634 307.477C184.206 308.451 184.853 309.65 185.682 310.425C185.932 310.658 186.203 310.801 186.5 310.961L186.754 311.102C187.08 311.269 187.4 311.357 187.75 311.459L187.999 311.533C191.214 312.464 195.356 312.182 198.679 311.989L221.625 309.615L315.657 302.625L371.25 298.513L383.125 297.777C387.246 297.462 391.174 297.678 395.314 297.096C400.035 295.825 403.834 294.309 407.539 290.959C408.325 290.248 409.841 288.578 409.995 287.496L409.997 287.25C409.554 286.952 409.779 286.982 409.417 287.029C407.574 287.269 405.395 286.975 403.508 286.965L388.885 286.92L338.223 286.924L237.669 286.667L196.309 286.681L177.997 286.755ZM400.146 160.778L460.48 160.969C461.192 159.889 461.537 158.467 461.976 157.25L464.272 151.167L473.183 128.62C473.99 126.518 474.376 124.222 475.274 122.167L475.462 121.75L475.25 121.314L469.563 120.986L427.218 120.926L412.428 120.94C409.794 120.948 407.027 120.801 404.415 121.054C403.766 121.117 403.593 121.192 403.089 121.572C402.567 123.133 402.582 124.749 402.477 126.375L401.957 131.991L399.483 156C399.341 157.404 398.627 159.286 399.094 160.625L400.146 160.778ZM396.622 175.983L392.455 217.356L438.676 217.613L441.546 209.31C442.573 206.228 443.946 203.211 445.125 200.177L450.296 186.674C451.651 183.299 453.434 179.544 454.281 176.021L396.622 175.983ZM185.345 161.066L193.304 161.062C194.91 161.066 196.64 161.202 198.226 160.974L195.203 120.983L139.861 121.097L149.59 161.042L185.345 161.066ZM342.593 161.058L354.342 161.044L373.751 160.73L380.126 160.76C381.038 160.776 382.384 160.974 383.25 160.796C383.614 160.721 383.692 160.646 383.969 160.474L388.142 120.808L335.76 121.065L335.72 160.788C337.222 160.788 341.404 160.38 342.593 161.058ZM218.596 161.065L233.791 161.066L260.421 161.026L260.712 121.031L209.8 121.008L212.342 148.734C212.581 151.021 212.46 153.389 212.902 155.651L213.607 161.049L218.596 161.065ZM275.747 175.999L275.685 217.56L320.926 217.499C320.474 209.348 320.7 200.908 320.861 192.739L321.054 180.128C321.043 179.056 321.265 177.124 320.856 176.17L275.747 175.999ZM153.652 176.125L153.183 176.625L159.875 207.447C160.641 210.8 160.945 214.282 162.155 217.498L203.393 217.625L203.974 217.242C204.016 208.929 202.448 200.498 201.569 192.25L200.017 176.022L153.652 176.125ZM381.272 182.232L381.943 176.096L336.091 175.8C336 177.28 335.69 178.716 335.625 180.192L335.526 204.901C335.533 208.95 335.935 213.304 335.616 217.314L377.2 217.585L381.272 182.232ZM214.77 175.99L217.757 207.547C218.033 210.77 218.879 214.301 218.713 217.497L260.963 217.53L260.934 217.248L260.746 176.066L214.77 175.99ZM275.487 129.185L275.572 148.93L275.634 157.793C275.663 158.69 275.531 159.977 275.971 160.75L320.496 161.116L320.801 161.14L320.768 128.844C320.762 127.707 320.702 126.534 320.79 125.4C320.894 124.057 321.316 122.398 320.625 121.151C317.596 120.508 313.665 120.942 310.526 120.939L288.636 120.937L279.011 121.022C277.976 121.047 276.533 120.873 275.569 121.158L275.487 129.185ZM275.735 232.357L275.675 271.862L320.795 271.833L320.823 252.797C320.838 249.854 320.543 246.535 321.011 243.664C321.183 242.609 321.058 241.365 321.053 240.293C321.046 238.552 321.121 236.77 320.905 235.043L320.699 232.409L275.735 232.357ZM220.373 232.298L224.233 271.792L260.752 271.768L260.595 232.391L220.373 232.298ZM199.65 232.146L199.331 232.166L164.692 232.296L167.177 243.921L171.09 261.113C171.836 264.431 172.284 268.208 173.478 271.375L174.188 271.527C185.814 271.734 197.635 271.162 209.22 271.947L209.503 271.938L205.52 232.259C204.082 231.679 201.225 231.956 199.65 232.146ZM371.196 266.363L372.241 257.699L375.102 232.276L335.501 232.361L335.657 272.097C339.716 271.557 343.865 271.607 347.954 271.621L362.89 271.74C365.438 271.77 368.039 272.002 370.578 271.801L371.196 266.363ZM422.36 232.137L389.545 232.276C389.433 234.601 389.034 236.838 388.835 239.152L387.936 250.5L386.533 265.262C386.409 267.408 386.013 269.576 386.044 271.723L395.109 271.596L416.875 271.934C417.454 271.316 417.604 271.09 417.804 270.25C418.591 266.952 420.102 263.717 421.328 260.558L427.261 245.375L430.891 236.166C431.319 235.014 432.153 233.482 431.875 232.287C431.284 232.157 430.823 232.167 430.235 232.125C427.662 231.942 424.931 231.819 422.36 232.137ZM134.855 106.063C135.015 106.406 135.145 106.695 135.375 106.998C136.382 107.111 137.36 107.251 138.375 107.184L473.485 107.073L481.792 106.754C480.004 106.148 477.718 106.435 475.838 106.207C472.142 105.757 468.184 106.027 464.454 106.028L443.702 106.03L374.396 106.043L134.855 106.063ZM400.146 160.778C400.774 161.304 401.136 161.451 401.962 161.488L416.246 161.49L442.349 161.531L453.107 161.571C454.345 161.584 456.191 161.847 457.375 161.603L457.875 161.373C458.799 161.11 459.687 161.668 460.48 160.969L400.146 160.778ZM275.971 160.75C275.531 159.977 275.663 158.69 275.634 157.793L275.572 148.93L275.487 129.185C275.172 131.942 275.56 134.781 275.099 137.5L274.875 121.72C274.558 122.421 274.648 123.375 274.623 124.135L274.566 130.568C274.481 139.748 274.097 149.15 274.625 158.31L274.894 158.125L275.125 160.592L275.971 160.75ZM417.456 119.876L410.178 119.894C408.831 119.897 407.311 119.743 406.001 120.022L406.125 120.228L460.625 120.274L468.875 120.215L468.875 119.927C466.019 119.892 463.096 119.999 460.256 119.816C459.458 119.764 458.688 119.911 457.875 119.813C457.339 119.749 457.138 119.817 456.625 119.877L449.375 119.756C445.561 119.56 441.655 119.947 437.875 119.756L437.006 119.816L436.244 119.816C435.723 119.814 435.212 119.832 434.692 119.783C433.864 119.705 433.026 119.843 432.193 119.806L419.363 119.875L419.006 119.816L417.456 119.876ZM354.342 161.044L354.32 161.368L359.25 161.373L359.625 161.608L375.211 161.47C377.905 161.464 381.365 161.956 383.95 161.224L383.969 160.474C383.692 160.646 383.614 160.721 383.25 160.796C382.384 160.974 381.038 160.776 380.126 160.76L373.751 160.73L354.342 161.044ZM154.706 119.876L146.125 119.919L146.125 120.228L185.938 120.268L191.375 120.199L191.499 120.033C188.689 119.546 185.338 119.895 182.463 119.879C179.009 119.86 175.434 119.525 171.994 119.816C168.734 120.091 165.002 119.912 161.75 119.697C161.272 119.665 160.528 119.804 160.006 119.816L159.661 119.849C158.474 119.946 155.668 119.389 154.706 119.876ZM225.944 119.876L215.125 119.919L215.125 120.228L245.875 120.26L255.375 120.228L255.499 120.022C251.915 119.329 247.696 120.06 244.006 119.816C243.186 119.761 242.33 119.854 241.494 119.816L225.944 119.876ZM349.456 119.875L341.125 119.919L341.001 120.177L372.625 120.274L379.499 120.193L379.499 120.001C377.133 119.512 374.013 119.879 371.565 119.88L360.245 119.748C357.559 119.742 354.773 119.889 352.125 119.756L351.244 119.816C350.81 119.836 349.835 119.714 349.456 119.875ZM218.596 161.065C219.56 161.354 220.371 161.409 221.375 161.419C219.243 161.743 216.486 161.82 214.336 161.625L214.081 161.937C216.065 162.286 218.348 162.105 220.365 162.109L228.742 162.125C228.029 161.941 227.294 161.959 226.562 161.938L227.188 161.562L227.625 161.75L234.625 161.75L234.5 161.602L228.808 161.392C230.124 161.382 232.704 161.678 233.791 161.066L218.596 161.065ZM294.706 119.875L281.625 119.919L281.625 120.228L305.125 120.26L316.375 120.228L316.499 120.022C315.227 119.741 313.707 119.889 312.4 119.888L304.625 119.756L303.994 119.816C301.525 119.944 298.66 120.005 296.217 119.774C295.715 119.727 295.204 119.815 294.706 119.875ZM185.345 161.066C186.491 161.445 187.559 161.41 188.75 161.411L183.395 161.625C185.15 162.028 187.416 161.759 189.229 161.754C189.496 161.754 190.405 161.655 190.625 161.75C190.787 161.82 190.838 162.054 191 162.123C191.713 162.424 193.325 162.139 194.125 162.095C195.415 162.024 196.715 162.119 197.999 161.965C198.157 161.576 198.238 161.403 198.226 160.974C196.64 161.202 194.91 161.066 193.304 161.062L185.345 161.066ZM342.593 161.058C343.463 161.338 344.153 161.406 345.066 161.375C344.656 161.528 344.286 161.618 343.853 161.688L345.126 161.812L345.125 162.136L350.5 162.136C350.883 162.133 351.82 162.233 352.125 162.102C352.184 162.077 352.453 161.763 352.5 161.75C353 161.615 354.076 161.75 354.625 161.75C354.306 161.516 354.076 161.475 353.699 161.378L354.32 161.368L354.342 161.044L342.593 161.058ZM19.3614 42.3346L19.5652 42.208L19.875 42.6225L20.125 42.3775C20.1206 42.8881 20.1243 43.1715 20.375 43.6225C20.7369 43.232 20.6005 43.0136 20.5951 42.5L20.4304 42.2386C19.5766 40.8245 19.9893 37.4583 20.3725 35.875C20.6164 34.8674 20.5836 34.6031 20.0313 33.7146C18.8828 36.5399 18.2279 39.3415 19.3614 42.3346ZM372.241 257.699L371.196 266.363L371.625 267.623L372.123 267.125L372.115 266.125C373.268 264.553 372.236 261.903 372.287 260.211L372.241 257.699ZM381.943 176.096L381.272 182.232L381.688 183.641L381.812 182.812L382 183L382.125 183.444C382.107 182.153 382.608 180.712 382.681 179.334C382.724 178.519 382.408 177.579 382.533 176.849C382.608 176.417 382.572 176.22 382.464 175.799C382.144 175.915 382.325 175.831 381.943 176.096Z"/>
	<path d="M381.943 176.096C382.325 175.831 382.144 175.915 382.464 175.799C382.572 176.22 382.608 176.417 382.533 176.849C382.408 177.579 382.724 178.519 382.681 179.334C382.608 180.712 382.107 182.153 382.125 183.444L382 183L381.812 182.812L381.688 183.641L381.272 182.232L381.943 176.096Z"/>
	<path d="M372.241 257.699L372.287 260.211C372.236 261.903 373.268 264.553 372.115 266.125L372.123 267.125L371.625 267.623L371.196 266.363L372.241 257.699Z"/>
	<path d="M19.3614 42.3346C18.2279 39.3415 18.8828 36.5399 20.0313 33.7146C20.5836 34.6031 20.6164 34.8674 20.3725 35.875C19.9893 37.4583 19.5766 40.8245 20.4304 42.2386L20.5951 42.5C20.6005 43.0136 20.7369 43.232 20.375 43.6225C20.1243 43.1715 20.1206 42.8881 20.125 42.3775L19.875 42.6225L19.5652 42.208L19.3614 42.3346Z"/>
	<path d="M342.593 161.058L354.342 161.044L354.32 161.368L353.699 161.378C354.076 161.475 354.306 161.516 354.625 161.75C354.076 161.75 353 161.615 352.5 161.75C352.453 161.763 352.184 162.077 352.125 162.102C351.82 162.233 350.883 162.133 350.5 162.136L345.125 162.136L345.126 161.812L343.853 161.688C344.286 161.618 344.656 161.528 345.066 161.375C344.153 161.406 343.463 161.338 342.593 161.058Z"/>
	<path d="M185.345 161.066L193.304 161.062C194.91 161.066 196.64 161.202 198.226 160.974C198.238 161.403 198.157 161.576 197.999 161.965C196.715 162.119 195.415 162.024 194.125 162.095C193.325 162.139 191.713 162.424 191 162.123C190.838 162.054 190.787 161.82 190.625 161.75C190.405 161.655 189.496 161.754 189.229 161.754C187.416 161.759 185.15 162.028 183.395 161.625L188.75 161.411C187.559 161.41 186.491 161.445 185.345 161.066Z"/>
	<path d="M294.706 119.875C295.204 119.815 295.715 119.727 296.217 119.774C298.66 120.005 301.525 119.944 303.994 119.816L304.625 119.756L312.4 119.888C313.707 119.889 315.227 119.741 316.499 120.022L316.375 120.228L305.125 120.26L281.625 120.228L281.625 119.919L294.706 119.875Z"/>
	<path d="M218.596 161.065L233.791 161.066C232.704 161.678 230.124 161.382 228.808 161.392L234.5 161.602L234.625 161.75L227.625 161.75L227.188 161.562L226.562 161.938C227.294 161.959 228.029 161.941 228.742 162.125L220.365 162.109C218.348 162.105 216.065 162.286 214.081 161.937L214.336 161.625C216.486 161.82 219.243 161.743 221.375 161.419C220.371 161.409 219.56 161.354 218.596 161.065Z"/>
	<path d="M349.456 119.875C349.835 119.714 350.81 119.836 351.244 119.816L352.125 119.756C354.773 119.889 357.559 119.742 360.245 119.748L371.565 119.88C374.013 119.879 377.133 119.512 379.499 120.001L379.499 120.193L372.625 120.274L341.001 120.177L341.125 119.919L349.456 119.875Z"/>
	<path d="M225.944 119.876L241.494 119.816C242.33 119.854 243.186 119.761 244.006 119.816C247.696 120.06 251.915 119.329 255.499 120.022L255.375 120.228L245.875 120.26L215.125 120.228L215.125 119.919L225.944 119.876Z"/>
	<path d="M154.706 119.876C155.668 119.389 158.474 119.946 159.661 119.849L160.006 119.816C160.528 119.804 161.272 119.665 161.75 119.697C165.002 119.912 168.734 120.091 171.994 119.816C175.434 119.525 179.009 119.86 182.463 119.879C185.338 119.895 188.689 119.546 191.499 120.033L191.375 120.199L185.938 120.268L146.125 120.228L146.125 119.919L154.706 119.876Z"/>
	<path d="M354.342 161.044L373.751 160.73L380.126 160.76C381.038 160.776 382.384 160.974 383.25 160.796C383.614 160.721 383.692 160.646 383.969 160.474L383.95 161.224C381.365 161.956 377.905 161.464 375.211 161.47L359.625 161.608L359.25 161.373L354.32 161.368L354.342 161.044Z"/>
	<path d="M417.456 119.876L419.006 119.816L419.363 119.875L432.193 119.806C433.026 119.843 433.864 119.705 434.692 119.783C435.212 119.832 435.723 119.814 436.244 119.816L437.006 119.816L437.875 119.756C441.655 119.947 445.561 119.56 449.375 119.756L456.625 119.877C457.138 119.817 457.339 119.749 457.875 119.813C458.688 119.911 459.458 119.764 460.256 119.816C463.096 119.999 466.019 119.892 468.875 119.927L468.875 120.215L460.625 120.274L406.125 120.228L406.001 120.022C407.311 119.743 408.831 119.897 410.178 119.894L417.456 119.876Z"/>
	<path d="M275.971 160.75L275.125 160.592L274.894 158.125L274.625 158.31C274.097 149.15 274.481 139.748 274.566 130.568L274.623 124.135C274.648 123.375 274.558 122.421 274.875 121.72L275.099 137.5C275.56 134.781 275.172 131.942 275.487 129.185L275.572 148.93L275.634 157.793C275.663 158.69 275.531 159.977 275.971 160.75Z"/>
	<path d="M400.146 160.778L460.48 160.969C459.687 161.668 458.799 161.11 457.875 161.373L457.375 161.603C456.191 161.847 454.345 161.584 453.107 161.571L442.349 161.531L416.246 161.49L401.962 161.488C401.136 161.451 400.774 161.304 400.146 160.778Z"/>
	<path d="M134.855 106.063L374.396 106.043L443.702 106.03L464.454 106.028C468.184 106.027 472.142 105.757 475.838 106.207C477.718 106.435 480.004 106.148 481.792 106.754L473.485 107.073L138.375 107.184C137.36 107.251 136.382 107.111 135.375 106.998C135.145 106.695 135.015 106.406 134.855 106.063Z"/>
</svg>
