<?xml version="1.0" encoding="utf-8" ?>
<svg xmlns="http://www.w3.org/2000/svg" xmlns:xlink="http://www.w3.org/1999/xlink" width="512" height="512">
	<path d="M509.118 205.564C507.041 231.974 495.788 257.015 481.709 279.125C477.979 284.982 473.725 290.62 469.496 296.125C460.731 307.535 451.116 318.048 441.11 328.368L436.399 333.475L421.739 347.45L401.853 366.199L395.431 371.417L375.375 388.004L346.349 411.935L325.803 427.375L293.475 451.803L274.775 465.888L265.832 472.337C263.15 474.094 260.717 475.972 257.521 476.701L257.125 476.788C255.327 477.197 253.088 476.73 251.421 475.969L251.162 475.847C249.701 475.182 248.494 474.222 247.199 473.292L238.946 466.875L212.735 446.625L130.75 383.501C128.121 381.479 125.839 379.152 123.354 376.977L105.587 361.378L91.0833 348.665L75.0616 332.681C44.8928 302.331 16.0601 266.866 6.17843 224.25C4.78896 218.258 3.31152 212.247 2.56969 206.125C1.86719 200.327 2.0813 194.099 2.1732 188.265C2.24992 183.396 2.31358 178.512 2.83819 173.667C5.3275 150.677 13.2869 127.595 25.125 107.764C29.7659 99.9896 35.2164 92.7037 40.9769 85.7293C44.1659 81.8683 47.7385 78.2971 51.3394 74.8229C69.4534 57.3462 92.4764 44.3157 116.945 38.2799C123.89 36.5668 131.025 35.4506 138.125 34.6315L143.47 34.2499C145.796 33.9903 148.168 34.065 150.506 33.9894C152.218 33.934 154.054 33.6984 155.75 33.8939L175.125 35.5274C201.939 39.8289 225.884 53.1857 244.854 72.4064C248.857 76.4617 252.797 80.5705 256.094 85.2351L256.296 85.2372L259.56 80.7809L260.396 79.6639C264.441 74.5715 269.313 69.8901 274.193 65.6182C291.123 50.7958 311.302 41.101 333.318 36.5838C339.422 35.3314 345.47 34.9764 351.619 34.2474C353.921 33.9745 356.274 34.0764 358.591 34.0474C359.683 34.0337 360.813 33.8108 361.89 33.9649C364.202 34.2959 366.722 34.0703 369.075 34.2009L381.419 35.4892C397.891 37.6889 414.375 43.6332 428.855 51.7406L440.658 59.0261C444.858 61.6075 448.786 64.9824 452.563 68.1254C474.808 86.6345 491.59 110.812 501.2 138.089C503.12 143.539 504.935 149.107 506.209 154.75L509.259 175.213C509.607 177.119 509.555 179.073 509.707 181C510.344 189.057 510.278 197.557 509.118 205.564ZM487.314 232.234L488.344 228.951L489.167 226.263L492.106 214.347L493.174 208.5C493.328 207.495 493.318 206.268 493.692 205.33L494.576 190.5C494.982 185.239 494.243 179.419 493.6 174.197C489.836 143.621 475.505 114.531 455.417 91.3942C451.118 86.4437 446.309 82.1396 441.23 78.0198C421.208 61.7802 395.76 51.1123 369.903 49.4856C337.431 47.4428 306.498 57.4761 282.132 79.2369C277.566 83.3152 273.496 87.8032 269.688 92.5925C266.83 96.1876 264.158 100.518 260.625 103.479C259.297 104.592 257.425 105.579 255.642 105.404C254.507 105.292 253.033 104.561 252.135 103.863C249.576 101.874 247.278 98.7256 245.177 96.2446C241.096 91.4244 237.08 86.4455 232.576 82.0127C227.567 77.084 221.794 72.2507 215.976 68.318C200.336 57.7464 183.114 51.8578 164.408 49.6766C162.398 49.4422 160.388 49.5342 158.375 49.4104C127.66 47.5228 95.8259 58.2232 71.8786 77.4207C48.3292 96.2991 32.3395 121.425 23.7266 150.229C21.5056 157.657 19.5299 165.525 18.6994 173.25C17.7331 182.238 16.954 191.384 17.6676 200.432C18.2819 208.221 19.9157 215.723 21.9273 223.25C28.6878 248.547 42.4938 271.839 58.9855 292.006C70.9556 306.644 84.0182 320.096 97.7092 333.125L108.015 342.572L120.69 354.505C122.422 356.134 124.088 357.929 125.898 359.456L132.729 364.776L152.32 380.473L181.791 404.204L197.645 417.07L255.795 460.153C264.933 454.5 273.282 447.583 281.81 441.06L315.75 415.258L346.246 392.118L375 368.269L415.383 332.65C436.251 312.954 455.656 291.791 470.72 267.25C477.59 256.057 482.685 244.483 487.314 232.234ZM509.259 175.213C509.169 176.278 509.378 178.996 508.877 179.75L508.875 199.771C508.875 200.11 508.978 200.862 508.875 201.127C508.779 201.375 508.487 201.508 508.377 201.75C508.168 202.216 508.36 204.328 508.627 204.75L509.118 205.564C510.278 197.557 510.344 189.057 509.707 181C509.555 179.073 509.607 177.119 509.259 175.213ZM493.692 205.33C493.318 206.268 493.328 207.495 493.174 208.5L492.106 214.347L489.167 226.263L489.568 226.348L489.832 226.077C490.05 226.302 489.934 226.204 490.177 226.375L491.169 222.875C491.305 222.48 491.507 222.166 491.539 221.742C491.566 221.376 491.524 221.097 491.692 220.754C491.986 220.157 491.979 219.504 492.167 218.875C492.438 217.972 492.469 216.953 492.78 216.098C493.025 215.422 493.171 214.86 493.238 214.125L493.272 213.589C493.474 212.761 493.582 212.112 493.634 211.25L493.92 210.835C494.072 209.461 494.359 208.382 493.712 207.125C493.801 206.454 493.83 206.005 493.692 205.33ZM2.5367 185.625L2.68876 194.208C2.67664 195.554 2.23907 197.87 2.55236 199.102C2.5945 199.267 2.76745 199.367 2.875 199.5C3.20058 197.824 3.05141 195.988 3.05255 194.284L3.04624 185.875L2.5367 185.625ZM488.344 228.951L487.314 232.234L487.498 232.564C487.766 233.187 487.678 233.328 487.435 233.924C487.192 234.518 487.117 234.737 487.25 235.375L487.478 235.107C487.759 234.675 487.912 233.845 488.08 233.343C488.501 232.079 489.467 230.24 489.312 228.938C488.905 229.069 489.073 229.065 488.645 229.003L488.344 228.951Z"/>
	<path fill="#010001" fill-opacity="0.96470588" d="M488.344 228.951L488.645 229.003C489.073 229.065 488.905 229.069 489.312 228.938C489.467 230.24 488.501 232.079 488.08 233.343C487.912 233.845 487.759 234.675 487.478 235.107L487.25 235.375C487.117 234.737 487.192 234.518 487.435 233.924C487.678 233.328 487.766 233.187 487.498 232.564L487.314 232.234L488.344 228.951Z"/>
	<path fill="#010001" fill-opacity="0.95686275" d="M2.5367 185.625L3.04624 185.875L3.05255 194.284C3.05141 195.988 3.20058 197.824 2.875 199.5C2.76745 199.367 2.5945 199.267 2.55236 199.102C2.23907 197.87 2.67664 195.554 2.68876 194.208L2.5367 185.625Z"/>
	<path fill="#010001" fill-opacity="0.95686275" d="M493.692 205.33C493.83 206.005 493.801 206.454 493.712 207.125C494.359 208.382 494.072 209.461 493.92 210.835L493.634 211.25C493.582 212.112 493.474 212.761 493.272 213.589L493.238 214.125C493.171 214.86 493.025 215.422 492.78 216.098C492.469 216.953 492.438 217.972 492.167 218.875C491.979 219.504 491.986 220.157 491.692 220.754C491.524 221.097 491.566 221.376 491.539 221.742C491.507 222.166 491.305 222.48 491.169 222.875L490.177 226.375C489.934 226.204 490.05 226.302 489.832 226.077L489.568 226.348L489.167 226.263L492.106 214.347L493.174 208.5C493.328 207.495 493.318 206.268 493.692 205.33Z"/>
	<path fill="#010001" fill-opacity="0.97647059" d="M509.259 175.213C509.607 177.119 509.555 179.073 509.707 181C510.344 189.057 510.278 197.557 509.118 205.564L508.627 204.75C508.36 204.328 508.168 202.216 508.377 201.75C508.487 201.508 508.779 201.375 508.875 201.127C508.978 200.862 508.875 200.11 508.875 199.771L508.877 179.75C509.378 178.996 509.169 176.278 509.259 175.213Z"/>
	<path d="M186.536 307.765C186.877 307.162 187.241 306.631 187.741 306.145C188.81 305.107 190.205 304.494 191.553 303.905C196.734 304.606 200.632 306.601 205.418 308.558L212.563 311.12C231.883 318.022 253.486 320.32 273.776 317.077C282.949 315.611 291.995 313.403 300.802 310.446L308.717 307.604C311.893 306.319 315.062 304.667 318.513 304.29C321.048 304.013 323.689 304.715 325.313 306.807C326.589 308.449 326.865 310.032 326.538 312.068C325.484 318.618 310.07 337.702 305.138 342.837C302.092 346.008 298.45 349.122 294.863 351.69C284.527 359.088 273.684 363.798 260.993 365.344C258.978 365.589 256.921 365.518 254.895 365.507C240.085 365.432 226.612 359.206 215.211 350.039C205.977 342.616 198.476 333.385 191.755 323.707C189.745 320.813 186.888 317.138 186.357 313.575C185.572 311.581 185.774 309.718 186.536 307.765ZM212.94 326.826C215.914 329.764 218.814 332.927 221.962 335.671C230.352 342.986 242.198 349.479 253.511 349.859L254.518 349.956C256.988 350.272 259.612 349.838 262.042 349.408C271.955 347.654 280.866 343.293 288.734 337.063L290.395 335.723C293.539 332.992 296.083 330.179 298.672 326.915C288.864 329.904 278.967 332.385 268.75 333.476C250.266 335.451 230.458 332.949 212.94 326.826ZM186.357 313.575L186.673 313.392L187.03 313.335C187.148 312.956 187.159 312.741 187.1 312.346C186.926 311.183 186.932 310.396 187.157 309.247C187.274 308.644 186.855 308.274 186.536 307.765C185.774 309.718 185.572 311.581 186.357 313.575Z"/>
	<path fill="#010001" fill-opacity="0.96470588" d="M186.357 313.575C185.572 311.581 185.774 309.718 186.536 307.765C186.855 308.274 187.274 308.644 187.157 309.247C186.932 310.396 186.926 311.183 187.1 312.346C187.159 312.741 187.148 312.956 187.03 313.335L186.673 313.392L186.357 313.575Z"/>
	<path d="M316.592 156.751C322.395 157.594 327.738 159.9 332.657 163.06C334.587 164.3 336.325 165.742 338.312 166.925L343.5 162.967C348.219 159.824 353.254 157.487 358.875 156.508C361.027 156.133 363.086 156.084 365.242 155.896C367.142 155.731 369.047 155.946 370.936 156.147C379.185 157.028 386.675 160.429 392.998 165.762C400.088 171.743 405.223 181.114 405.861 190.437C406.093 193.834 406.264 198.592 405.087 201.823C404.94 203.029 404.091 207.478 403.102 208.292L403.034 208.564C402.671 209.776 401.98 210.994 401.426 212.131C399.722 215.626 397.64 218.927 395.168 221.931C390.322 227.819 384.814 232.726 379.241 237.875L356.705 258.199L349.325 264.846C347.11 266.893 344.77 269.179 342.127 270.674L341.875 270.813C340.571 271.548 338.877 272.329 337.378 271.896L337 271.779C336.199 271.562 335.465 271.381 334.712 271.015C331.775 269.588 329.589 267.289 327.132 265.205L309.847 249.805L294.958 236.569L289.384 231.719C287.455 229.876 285.666 227.868 283.945 225.83C278.661 219.572 274.123 212.946 271.495 205.125C268.464 196.105 268.828 186.51 273.113 177.954C277.926 168.343 286.014 161.233 296.236 157.907L301.373 156.74C305.366 155.949 309.708 155.773 313.75 156.299C314.686 156.421 315.693 156.461 316.592 156.751ZM306.869 171.566C303.623 172.161 300.856 172.88 297.875 174.304C292.937 176.664 288.646 181.165 286.835 186.377C284.449 193.247 284.813 199.008 288.054 205.557C289.246 207.968 290.98 210.157 292.625 212.273C297.076 217.998 302.501 222.92 307.851 227.785L329.992 247.539C332.358 249.718 335.282 251.491 337.312 253.985L361.828 232.908L371.912 223.593C379.744 216.36 389.467 207.496 390.241 196.125C390.642 190.227 389.12 184.303 385.001 179.889C380.365 174.922 373.927 172.022 367.125 171.74C362.226 171.537 357.119 173.01 352.86 175.338C347.887 178.056 342.651 186.407 336.375 184.599C334.794 184.143 333.328 183.042 331.997 182.1C328.388 179.547 325.145 176.447 321.25 174.316C318.647 172.891 316.079 172.18 313.182 171.649C311.339 171.311 308.74 171.373 306.869 171.566ZM301.373 156.74C302.588 156.743 303.725 157.001 304.858 157.042L311.147 157.103C312.96 157.106 314.764 156.779 316.592 156.751C315.693 156.461 314.686 156.421 313.75 156.299C309.708 155.773 305.366 155.949 301.373 156.74ZM405.087 201.823C404.691 202.173 404.494 202.471 404.249 202.938L403.377 203.375L403.358 203.615C403.23 204.412 402.722 205.103 402.5 205.875C402.19 206.958 402.125 207.678 401.618 208.726C401.374 209.229 401.371 209.946 401.307 210.5L401.503 210.513C401.732 210.284 401.903 210.091 401.875 209.735L401.777 209.375L401.93 209.062L402.141 209.23L402.258 208.751L402.868 208.108L403.102 208.292C404.091 207.478 404.94 203.029 405.087 201.823Z"/>
	<defs>
		<linearGradient id="gradient_0" gradientUnits="userSpaceOnUse" x1="403.24103" y1="207.40007" x2="402.46341" y2="205.7534">
			<stop offset="0" stop-color="black" stop-opacity="0.92941177"/>
			<stop offset="1" stop-color="black" stop-opacity="0.96470588"/>
		</linearGradient>
	</defs>
	<path fill="url(#gradient_0)" d="M405.087 201.823C404.94 203.029 404.091 207.478 403.102 208.292L402.868 208.108L402.258 208.751L402.141 209.23L401.93 209.062L401.777 209.375L401.875 209.735C401.903 210.091 401.732 210.284 401.503 210.513L401.307 210.5C401.371 209.946 401.374 209.229 401.618 208.726C402.125 207.678 402.19 206.958 402.5 205.875C402.722 205.103 403.23 204.412 403.358 203.615L403.377 203.375L404.249 202.938C404.494 202.471 404.691 202.173 405.087 201.823Z"/>
	<path d="M301.373 156.74C305.366 155.949 309.708 155.773 313.75 156.299C314.686 156.421 315.693 156.461 316.592 156.751C314.764 156.779 312.96 157.106 311.147 157.103L304.858 157.042C303.725 157.001 302.588 156.743 301.373 156.74Z"/>
	<path d="M211.596 156.755C213.706 157.057 215.812 157.573 217.798 158.355C227.742 162.273 235.475 170.277 239.597 180.063C243.376 189.036 242.734 200.279 239.065 209.142C237.052 214.003 234.081 218.706 230.704 222.742C226.796 227.412 222.514 231.735 218.131 235.959L209.494 243.694L189.084 261.857C186.453 264.127 183.867 266.544 181.085 268.625C179.885 269.522 178.558 270.52 177.154 271.054C175.109 271.832 173.495 271.92 171.479 271.007L171.151 270.854L170.165 270.402C167.345 268.917 165.016 266.678 162.613 264.63L146.261 249.75C136.084 240.438 124.618 231.803 116.237 220.75C111.911 215.045 108.994 209.001 106.893 202.196C104.248 193.632 105.535 184.534 109.783 176.75C114.651 167.829 124.274 160.365 134.067 157.653C136.469 156.987 138.926 156.576 141.377 156.149C142.861 155.891 144.627 155.494 146.125 155.512C154.242 155.613 162.356 159.034 169.248 163.067C171.081 164.14 172.663 165.524 174.508 166.595C177.767 163.635 181.613 161.481 185.619 159.69C188.921 158.213 192.386 157.432 195.915 156.738C200.69 155.868 206.895 155.418 211.596 156.755ZM143.101 171.553C135.84 173.039 129.228 175.769 125.045 182.324C122.229 186.736 120.902 192.514 121.859 197.666C122.713 202.267 124.555 206.148 127.3 209.928C133.651 218.674 142.298 226.075 150.417 233.151L165.671 246.439L171.566 251.426C172.391 252.132 173.291 253.194 174.199 253.753L174.488 253.881L198.213 233.31L211.147 221.075C218.687 213.499 226 206.031 226.64 194.694C226.959 189.058 224.477 183.26 220.739 179.125C219.141 177.356 217.088 175.631 215 174.492L214.554 174.245C212.435 173.083 210.237 172.406 207.883 171.921C200.542 170.408 192.796 173.192 186.562 176.908C182.013 179.619 179.199 183.556 173.879 185.197C170.901 184.21 169.063 182.491 166.661 180.56C163.699 178.178 160.319 175.542 156.859 173.957C152.402 171.915 147.938 171.437 143.101 171.553ZM195.915 156.738C196.852 156.784 197.622 156.776 198.5 157.067L206.386 157.156C207.989 157.295 209.916 156.777 211.596 156.755C206.895 155.418 200.69 155.868 195.915 156.738Z"/>
	<path d="M195.915 156.738C200.69 155.868 206.895 155.418 211.596 156.755C209.916 156.777 207.989 157.295 206.386 157.156L198.5 157.067C197.622 156.776 196.852 156.784 195.915 156.738Z"/>
	<path d="M35.3191 166.504C36.9736 157.639 39.0146 148.295 42.8611 140.099C44.1014 137.456 45.4818 134.818 47.4426 132.625C48.7694 131.141 50.1558 130.021 52 129.247L52.3672 129.09C54.227 128.363 56.8143 129.059 58.5309 129.908C60.3567 130.812 61.2552 132.332 61.8264 134.226C62.1172 135.19 62.0559 136.133 62.0583 137.125L62.0706 137.489C62.0814 138.679 61.4614 139.774 60.9431 140.814C59.5574 143.593 57.7918 146.166 56.5078 149C54.1775 154.143 52.0991 160.128 50.9028 165.644C48.6608 175.98 47.6855 186.733 48.6981 197.309C50.8153 219.422 60.7525 240.012 73.0732 258.141C81.4843 270.518 91.0909 282.163 101.485 292.936L109.871 301.07L138.208 327.859L155.588 342.458L175.224 359.203L179.161 362.717L209.706 385.875L255.713 420.98C259.29 418.787 262.696 415.811 266.125 413.346L294.474 392.605C327.526 367.844 359.621 342.051 389.604 313.605C402.865 301.024 415.905 288.108 427.375 273.827C441.549 256.178 455.058 235.543 460.479 213.259C464.074 198.482 464.928 184.242 462.092 169.231C460.727 162.007 458.38 154.497 455.151 147.888C453.751 145.023 451.665 142.31 450.671 139.276C450.107 137.554 450.043 136.13 450.461 134.375L450.562 133.944C450.953 132.383 452.011 130.699 453.452 129.907L454.5 129.456L454.828 129.32C456.736 128.59 458.941 128.959 460.73 129.817C465.883 132.285 468.771 138.835 470.558 143.959C473.03 151.049 475.226 157.872 476.708 165.25C477.326 168.326 477.956 171.532 478.109 174.666L478.837 185.801C478.961 186.789 478.762 187.759 478.762 188.75L478.503 197.375C478.178 204.534 476.845 211.326 475.09 218.257C469.182 241.585 456.071 262.728 441.375 281.519C435.193 289.424 428.376 296.834 421.456 304.09L409.729 316.289L393.103 331.831L360.812 359.941L345.997 371.458L316.447 394.39L290.875 414.239L276.621 425.265L269.513 430.187L261.031 436.023C259.707 436.863 258.013 438.078 256.434 438.24C255.458 438.34 254.558 437.946 253.676 437.57C250.754 436.323 247.961 434.308 245.336 432.517C235.296 425.666 225.867 417.904 216.284 410.443L189.751 389.734L162.512 368.473C157.306 364.409 151.72 360.594 146.774 356.223L121.972 334.808L92.2575 305.75C70.7576 282.787 49.9637 257.325 39.4079 227.252C37.1228 220.743 35.1631 214 34.1839 207.164C33.9562 205.574 33.5791 204.003 33.4835 202.398L33.4178 201.034C33.0649 200.048 33.107 198.326 33.0383 197.266C32.6529 191.324 32.783 185.368 33.4294 179.454L34.1949 173.208L35.3191 166.504ZM33.4294 179.454C32.783 185.368 32.6529 191.324 33.0383 197.266C33.107 198.326 33.0649 200.048 33.4178 201.034L34.0673 200.899C34.2157 200.33 34.3315 199.875 34.2711 199.28C33.8515 195.141 33.9722 190.666 34.0257 186.5C34.0455 184.954 34.675 181.954 34.2008 180.591C34.0831 180.253 33.6417 179.767 33.4294 179.454ZM34.1949 173.208L34.599 174.375L34.836 173.836L35.0991 174.185C35.1263 173.821 35.1372 173.481 35.2516 173.131C35.5688 172.162 35.3924 170.762 35.7762 169.98C36.1888 169.139 36.1463 167.71 36.2392 166.757L35.3191 166.504L34.1949 173.208ZM36.2392 166.757C36.5392 166.236 36.5509 165.58 36.6959 165C36.9461 163.999 36.9994 162.923 37.2899 161.947C37.6296 160.804 37.9596 159.448 38.099 158.259L38.1668 157.75C38.4574 156.965 38.581 156.536 38.6238 155.688L38.2862 155.815C38.2776 156.666 38.1343 156.863 37.8733 157.616C37.7306 158.029 37.8784 158.588 37.7193 158.994C37.3882 159.838 37.2388 160.053 37.1955 161.027C37.1733 161.527 36.9927 161.632 36.7051 162.029L36.6851 163.854C36.5935 164.174 36.327 164.428 36.2429 164.75C36.1036 165.284 36.2188 166.193 36.2392 166.757Z"/>
	<path fill="#010001" fill-opacity="0.96470588" d="M36.2392 166.757C36.2188 166.193 36.1036 165.284 36.2429 164.75C36.327 164.428 36.5935 164.174 36.6851 163.854L36.7051 162.029C36.9927 161.632 37.1733 161.527 37.1955 161.027C37.2388 160.053 37.3882 159.838 37.7193 158.994C37.8784 158.588 37.7306 158.029 37.8733 157.616C38.1343 156.863 38.2776 156.666 38.2862 155.815L38.6238 155.688C38.581 156.536 38.4574 156.965 38.1668 157.75L38.099 158.259C37.9596 159.448 37.6296 160.804 37.2899 161.947C36.9994 162.923 36.9461 163.999 36.6959 165C36.5509 165.58 36.5392 166.236 36.2392 166.757Z"/>
	<path fill="#010001" fill-opacity="0.95686275" d="M34.1949 173.208L35.3191 166.504L36.2392 166.757C36.1463 167.71 36.1888 169.139 35.7762 169.98C35.3924 170.762 35.5688 172.162 35.2516 173.131C35.1372 173.481 35.1263 173.821 35.0991 174.185L34.836 173.836L34.599 174.375L34.1949 173.208Z"/>
	<path fill="#010001" fill-opacity="0.97647059" d="M33.4294 179.454C33.6417 179.767 34.0831 180.253 34.2008 180.591C34.675 181.954 34.0455 184.954 34.0257 186.5C33.9722 190.666 33.8515 195.141 34.2711 199.28C34.3315 199.875 34.2157 200.33 34.0673 200.899L33.4178 201.034C33.0649 200.048 33.107 198.326 33.0383 197.266C32.6529 191.324 32.783 185.368 33.4294 179.454Z"/>
</svg>
