<?xml version="1.0" encoding="utf-8" ?>
<svg xmlns="http://www.w3.org/2000/svg" xmlns:xlink="http://www.w3.org/1999/xlink" width="512" height="512">
	<path d="M509.548 167.52C509.585 169.59 509.295 171.932 508.645 173.903C507.577 177.141 506.165 180.005 504.27 182.846C500.189 188.967 495.517 194.807 490.994 200.608L476.19 219.847L452.971 250.125L412.401 301.314L376.923 346.051L362.524 363.364L327.091 406.437L282.576 458.757C278.9 462.826 275.58 467.392 271.729 471.28C269.383 473.647 266.637 475.844 263.779 477.552C260.479 479.524 257.287 480.225 253.535 479.622C248.526 478.817 243.782 474.609 240.24 471.156C231.505 462.643 223.961 452.744 216.017 443.494L189.206 411.999L159.251 375.053L109.754 314.35L65.0359 256.82L28.8836 210.433L10.9636 187.425C7.98952 183.282 4.88208 178.855 3.17011 174.014C1.24885 168.581 1.30332 161.246 2.2453 155.609C3.68884 146.972 7.67364 138.312 11.2939 130.375C24.1414 102.208 42.5928 76.3403 65.2358 55.2057C71.8404 49.0411 78.6283 42.9647 85.9842 37.6963C91.3549 33.8497 96.3495 31.3087 103.005 30.5987C105.475 30.3352 108.092 30.4708 110.579 30.4649L123.29 30.4571L165.076 30.456L300.008 30.444L378.087 30.4467L399.652 30.4359C403.173 30.4355 407.189 30.0646 410.637 30.6549C412.249 30.9308 413.806 31.1592 415.368 31.6633C420.538 33.3313 425.969 36.5632 430.16 40.0333L436.413 45.6916C460.857 66.8283 481.938 92.8247 496.762 121.579L508.296 148.42C509.347 153.119 509.756 157.463 509.765 162.27C509.768 163.96 509.889 165.872 509.548 167.52ZM258.083 451.656L261.541 438.206L262.142 436.302L264.646 426.634L284.826 352.669L286.844 345.037L287.074 344.205L289.354 336.007L298.291 302.2L301.798 287.174L308.84 257.759L311.338 246.974L318.296 218.004L321.371 205.083L323.834 194.66L325.578 186.836L328.323 175.79L330.859 165.077L333.144 154.729L179.095 154.777L254.84 456.436C255.237 457.585 255.579 458.689 256.126 459.781L258.083 451.656ZM347.228 159.264L334.74 209.055L334.184 211.266L326.864 240.648L324.19 251.283L316.195 283.062L313.192 294.949C312.929 296.074 312.718 298.13 312.093 299.031L311.227 302.574C310.9 303.963 310.677 305.541 310.184 306.87L307.227 318.562L301.178 342.769L276.007 444.188C277.483 442.059 279.214 440.347 280.796 438.34L296.501 419.375L330.748 378.357L367.727 332.625L415.643 272.8L422.031 265.065L444.651 235.577L474.093 197.34C479.805 189.994 486.068 182.664 490.978 174.766C493.038 171.452 494.407 167.745 495.232 163.947C495.762 161.728 495.494 159.446 495.127 157.225L494.455 155.14C489.213 154.521 483.967 154.674 478.696 154.673L458.557 154.671L389.423 154.673L359.482 154.678L351.71 154.686C350.687 154.689 349.312 154.509 348.346 154.84L347.228 159.264ZM19.3374 154.892C18.5448 154.943 17.9632 154.969 17.2525 155.375C15.6416 158.708 16.4292 164.709 17.598 168.092C20.0953 175.321 25.9735 181.567 30.5262 187.625L43.6808 205.065L57.9789 224.319L98.8529 275.72L130.96 316.128L141.233 329.293L155.481 346.413L185.109 382.253L214.076 417.255L233.831 441.154L236.042 443.434L235.494 440.613C235.196 438.539 234.161 436.309 233.578 434.252L229.597 419.418L215.662 368.298L198.081 300.24L192.512 278.125L185.125 248.029L176.453 213L168.448 178.625C166.747 170.639 165.168 162.799 164.172 154.683L63.2034 154.676L34.02 154.68C29.2555 154.682 24.038 154.258 19.3374 154.892ZM254.959 139.773L300.418 139.745L316.772 139.739C319.764 139.756 322.873 139.623 325.837 139.994C326.185 139.803 326.962 139.964 327.375 139.988L327.692 139.625L327.044 138.25C326.004 136.026 324.422 134.075 322.99 132.089L315.952 122.335L300.414 100.71L278.351 73.9319L256.16 49.6679C252.899 52.8592 249.882 56.4134 246.814 59.7968L228.168 80.9325L217.808 93.1107C215.886 95.3465 213.765 97.439 212.001 99.8042L202.888 112.736L189.86 131.114C188.076 133.758 186.654 136.632 184.831 139.251L184.695 139.444L254.959 139.773ZM416.089 49.0842L358.129 139.695L430.125 139.733L466.037 139.741L471.642 139.505L483.195 139.504C484.502 139.509 486.67 139.823 487.877 139.389L487.729 139.104C486.695 137.097 485.97 134.958 484.985 132.924L476.616 117.066C464.186 95.5172 448.165 76.0714 429.375 59.7891C425.023 56.0185 420.819 52.3851 416.089 49.0842ZM95.4326 49.375L79.294 63.0471C68.53 72.7877 58.5942 83.708 49.856 95.2919C45.9302 100.496 42.0278 105.838 38.7074 111.455C35.5004 116.88 32.2937 122.308 29.5043 127.961C27.5763 131.869 26.0788 136.115 23.7947 139.825C31.1546 140.538 38.6677 139.803 46.0321 139.72L82.875 139.695L154.797 139.785C153.533 137.115 151.869 134.702 150.34 132.18L146.607 125.85L138.1 113.378L114.822 79.1039L96.2536 49.375C95.9691 49.3572 95.7153 49.3287 95.4326 49.375ZM274.716 45.6415L273.375 45.6758L273.02 46C273.717 47.3628 275.05 48.299 276.104 49.3856L281.306 55.1232L304.737 82.6442L316.875 96.8911C323.792 105.456 330.264 114.439 335.937 123.875C338.41 127.989 340.373 132.398 342.923 136.442L344.555 132.5C347.847 125.802 351.834 119.693 355.765 113.375C358.401 109.138 360.802 104.546 363.816 100.571L372.232 88.2234L390.276 62.023C393.806 56.7349 396.876 50.5245 401.142 45.8001L274.716 45.6415ZM152.671 45.6322L112.281 46.0668L112.016 46.5C112.543 47.7868 113.506 48.8151 114.197 50.0134C118.624 57.6874 123.931 64.9683 128.994 72.2408L141.592 90.9932L155.716 111.5L165.794 128.103C167.329 130.832 168.452 133.726 170.182 136.352L170.284 136.012C171.768 131.171 174.522 126.936 177.14 122.654C178.124 121.045 178.952 119.348 180.152 117.882C188.556 104.6 198.492 92.358 208.49 80.25L228.72 56.5709L234.048 51.0395C235.937 49.2502 237.918 47.6391 239.711 45.7481L152.671 45.6322ZM334.74 209.055L347.228 159.264C347.169 158.422 347.058 157.789 346.749 157.001L346.546 157.001L345.767 159.501L345.637 159.962L342.541 172.745C342.293 174.019 341.767 175.233 341.507 176.5C341.024 178.847 340.497 181.267 339.722 183.54L337.932 191.571C337.849 191.99 337.878 191.852 337.873 192.375L337.625 192.127C337.345 193.164 337.296 194.228 337.001 195.251C336.888 195.644 336.877 195.965 336.873 196.375L336.625 196.127C336.384 196.998 336.261 197.89 336.001 198.751C335.838 199.291 335.866 199.819 335.873 200.375L335.625 200.127C335.382 200.915 335.561 201.848 335.127 202.5C335.126 203.211 335.276 203.9 334.877 204.5L334.873 204.625L334.625 204.377C334.449 204.847 334.365 205.26 334.275 205.751L334.193 206.157C334.096 206.732 334.115 207.295 334.127 207.875L334.375 208.123L334.627 207.375L334.74 209.055ZM254.959 139.773C256.169 140.35 258.022 140.075 259.368 140.081L267.683 140.105C269.286 140.108 270.93 140.004 272.5 140.25C273.831 140.459 276.458 139.796 277.5 140.505L311.705 140.504C315.577 140.477 319.604 140.747 323.451 140.558C324.241 140.52 325.123 140.328 325.837 139.994C322.873 139.623 319.764 139.756 316.772 139.739L300.418 139.745L254.959 139.773ZM315.503 280.812C315.818 281.505 315.934 282.025 316.097 282.767L316.195 283.062L324.19 251.283L324.11 250.876C324.031 250.4 324.048 250.092 324.123 249.625L323.873 249.375C323.873 248.869 323.998 248.751 323.625 248.377C323.371 249.183 322.78 250.956 322.761 251.749L322.749 252.001L322.573 252.001C322.394 252.992 322.258 253.938 321.877 254.875C321.346 256.183 321.405 257.593 320.877 258.875C320.052 260.882 319.818 263.277 319.303 265.375L317.579 271.5C317.31 272.661 317.37 273.7 316.837 274.797C316.267 275.97 316.344 277.462 315.835 278.719C315.57 279.372 315.537 280.057 315.477 280.753L315.503 280.812ZM326.864 240.648L334.184 211.266L334.114 210.797C334.054 210.378 334.05 210.046 334.123 209.625L333.873 209.375C333.873 208.824 334.029 208.532 333.625 208.127C333.397 209.012 333.331 209.953 332.993 210.797C332.811 211.253 332.859 211.641 332.873 212.125L332.625 211.877L332.558 212.259C332.137 214.513 331.212 216.729 330.922 219.033C330.831 219.751 330.97 218.991 330.627 219.75L330.47 220.539L329.229 225.625C329.009 226.467 328.855 227.252 328.873 228.125L328.625 227.877L328.551 228.275C328.312 229.501 327.793 230.659 327.55 231.875C327.293 233.162 327.15 234.308 326.719 235.563C326.374 236.568 326.084 238.064 326.125 239.127L325.877 239.375L326.439 239.999L326.627 239.375L326.864 240.648ZM301.178 342.769L307.227 318.562L306.999 317.001L306.933 316.712C306.857 316.338 306.864 316.004 306.873 315.625L306.588 315.501C306.407 316.52 306.24 317.469 305.882 318.443C305.357 319.869 305.348 321.419 304.786 322.875C304.414 323.839 304.347 324.841 304.109 325.836C303.935 326.56 303.613 327.21 303.474 327.951C303.282 328.979 303.203 330.066 302.745 331.017C302.198 332.152 302.34 333.512 301.785 334.688C301.317 335.679 301.353 336.924 301.049 338L300.942 338.416C300.749 339.131 300.93 338.508 300.689 339.112C300.336 339.999 300.503 340.958 300.127 341.875L300.251 342.499C300.529 342.591 300.888 342.762 301.178 342.769ZM508.296 148.42L508.104 149.875L507.968 149.001L507.625 148.877C507.247 149.446 507.396 149.957 507.414 150.625L507.75 150.873C507.886 151.276 507.888 151.462 507.875 151.877L507.433 152.125L507.75 152.373C508.084 152.739 508.017 152.941 508.127 153.375L508.258 153.785C508.602 154.933 508.442 156.582 508.465 157.809L508.36 169.188L508.627 168.875L508.751 169.487L508.931 169.487C508.982 168.591 508.861 166.947 509.378 166.25L509.548 167.52C509.889 165.872 509.768 163.96 509.765 162.27C509.756 157.463 509.347 153.119 508.296 148.42ZM315.503 280.812L314.607 283.399C314.409 284.018 314.432 284.638 314.269 285.25C314.104 285.867 313.651 286.324 313.552 286.974C313.395 288 313.377 288.98 313.127 290L313.069 290.251L312.597 291.668C312.417 292.19 312.333 292.686 312.239 293.228C312.402 293.897 312.35 294.355 312.932 294.763L313.192 294.949L316.195 283.062L316.097 282.767C315.934 282.025 315.818 281.505 315.503 280.812ZM298.291 302.2C298.731 302.747 298.733 303.231 298.791 303.901L298.814 304.182C299.126 303.66 298.931 303.237 299.143 302.75C299.528 301.864 299.274 302.95 299.472 301.876L299.987 299.601L300.665 296.25C301.076 295.749 301.658 293.048 301.631 292.337L301.607 292.001L301.875 291.877L302.309 289.597C302.509 288.918 302.575 288.467 302.595 287.75C302.342 287.492 302.106 287.357 301.798 287.174L298.291 302.2ZM321.371 205.083L318.296 218.004C318.492 218.343 318.625 218.612 318.667 219.007C318.74 219.714 318.783 219.795 318.328 220.336L318.625 220.813C319.144 219.801 319.13 218.714 319.442 217.641L320.591 212.875L320.773 212.044L321.402 209.495C321.519 209.068 321.61 208.739 321.621 208.288L321.614 207.934C322.101 207.22 322.08 206.397 322.312 205.585C322.441 205.136 322.527 205 322.571 204.496C322.614 204 322.575 204.087 322.685 203.674L322.749 203.474L322.625 203.278C321.659 203.943 322.531 204.463 322 205.356L321.371 205.083ZM330.859 165.077L328.323 175.79C328.629 176.291 328.692 176.573 328.676 177.146C328.662 177.641 328.625 177.664 328.875 178.123C328.991 177.833 329.034 177.622 329.049 177.309C329.073 176.802 329.026 176.39 329.29 175.94C329.947 174.823 329.942 173.288 330.279 172.039L332.237 164C332.464 163.259 332.543 162.548 332.726 161.799C332.836 161.353 332.86 161.61 332.625 161.127C332.007 161.821 332.18 162.217 332.178 163.125L331.656 163.625L331.761 165.125L331.25 165.57L330.859 165.077ZM261.541 438.206L258.083 451.656L258.938 451.624L259.062 452.244L259.664 450.001L261.121 443.875C261.289 443.333 261.456 442.909 261.529 442.342L261.622 441.75C262.005 440.933 262.171 440.19 262.419 439.312L261.875 439.285L261.541 438.206ZM311.338 246.974L308.84 257.759C309.319 258.548 308.97 259.33 309.375 260.123L309.704 258.375C310.162 257.092 310.193 255.436 310.685 254.25C311.033 253.411 310.757 254.674 310.952 253.544C311.114 252.598 311.735 251.253 311.641 250.345L311.592 250.125C312.126 249.705 312.116 248.283 312.365 247.606L312.464 247.375C312.015 247.337 312.157 247.384 311.678 247.158L311.338 246.974ZM325.578 186.836L323.834 194.66C324.05 195.393 324.125 196.145 324.375 196.873L326.158 189.459C326.526 187.992 327.098 186.245 327.167 184.751L326.814 184.751C326.734 185.808 326.64 185.748 326.209 186.625C326.079 186.89 326.137 188.017 326.125 188.339C325.998 187.789 325.823 187.344 325.578 186.836ZM289.354 336.007L287.074 344.205C287.346 344.204 287.826 344.518 288.125 344.605C288.73 342.231 289.865 339.546 290.122 337.141L290.159 336.751C290.414 335.805 290.702 335.611 290.499 334.536L290.125 334.533L290.123 336L289.808 336.169L289.354 336.007ZM264.646 426.634L262.142 436.302L262.231 436.293L262.624 436.481L262.875 436L263.062 436.445C263.471 435.975 263.556 435.098 263.747 434.5C264.16 433.209 264.383 431.815 264.728 430.5C264.865 429.979 265.112 429.541 265.149 428.993L265.147 428.751C265.652 428.07 265.588 427.43 265.562 426.625L265.125 426.579C265.192 427.188 265.206 427.69 265.125 428.298L264.63 428.125C264.685 427.616 264.674 427.145 264.646 426.634ZM284.826 352.669C285.042 353.365 285.017 354.282 285.375 354.848L286.125 351.976L287.305 347.604C287.477 347.082 287.67 346.564 287.603 346C287.534 345.424 287.258 345.372 286.844 345.037L284.826 352.669ZM495.127 157.225C495.494 159.446 495.762 161.728 495.232 163.947C495.467 164.43 495.65 164.804 495.697 165.346C495.741 165.867 495.633 165.637 495.926 165.999C496.028 165.316 496.209 164.565 496.151 163.875L496.115 163.651L496.375 163.578C496.944 161.394 496.784 158.688 495.875 156.627L495.514 156.992L495.127 157.225ZM310.184 306.87C310.677 305.541 310.9 303.963 311.227 302.574L310.999 301.001L310.749 299.751L310.575 299.751C310.417 300.555 310.27 301.345 310.016 302.125L309.661 303.2L309.127 306L308.877 307.125L309.375 307.623L309.564 307.355C309.858 306.968 309.727 307.1 310.184 306.87ZM312.093 299.031C312.718 298.13 312.929 296.074 313.192 294.949L312.932 294.763C312.35 294.355 312.402 293.897 312.239 293.228L311.733 294.99L310.877 299.125L311.189 299.5L311.375 299.922L311.672 299.108L312.093 299.031Z"/>
	<path d="M312.093 299.031L311.672 299.108L311.375 299.922L311.189 299.5L310.877 299.125L311.733 294.99L312.239 293.228C312.402 293.897 312.35 294.355 312.932 294.763L313.192 294.949C312.929 296.074 312.718 298.13 312.093 299.031Z"/>
	<path d="M310.184 306.87C309.727 307.1 309.858 306.968 309.564 307.355L309.375 307.623L308.877 307.125L309.127 306L309.661 303.2L310.016 302.125C310.27 301.345 310.417 300.555 310.575 299.751L310.749 299.751L310.999 301.001L311.227 302.574C310.9 303.963 310.677 305.541 310.184 306.87Z"/>
	<path fill="#010001" fill-opacity="0.95686275" d="M495.127 157.225L495.514 156.992L495.875 156.627C496.784 158.688 496.944 161.394 496.375 163.578L496.115 163.651L496.151 163.875C496.209 164.565 496.028 165.316 495.926 165.999C495.633 165.637 495.741 165.867 495.697 165.346C495.65 164.804 495.467 164.43 495.232 163.947C495.762 161.728 495.494 159.446 495.127 157.225Z"/>
	<path d="M284.826 352.669L286.844 345.037C287.258 345.372 287.534 345.424 287.603 346C287.67 346.564 287.477 347.082 287.305 347.604L286.125 351.976L285.375 354.848C285.017 354.282 285.042 353.365 284.826 352.669Z"/>
	<path fill="#010001" fill-opacity="0.95686275" d="M264.646 426.634C264.674 427.145 264.685 427.616 264.63 428.125L265.125 428.298C265.206 427.69 265.192 427.188 265.125 426.579L265.562 426.625C265.588 427.43 265.652 428.07 265.147 428.751L265.149 428.993C265.112 429.541 264.865 429.979 264.728 430.5C264.383 431.815 264.16 433.209 263.747 434.5C263.556 435.098 263.471 435.975 263.062 436.445L262.875 436L262.624 436.481L262.231 436.293L262.142 436.302L264.646 426.634Z"/>
	<path d="M289.354 336.007L289.808 336.169L290.123 336L290.125 334.533L290.499 334.536C290.702 335.611 290.414 335.805 290.159 336.751L290.122 337.141C289.865 339.546 288.73 342.231 288.125 344.605C287.826 344.518 287.346 344.204 287.074 344.205L289.354 336.007Z"/>
	<path d="M325.578 186.836C325.823 187.344 325.998 187.789 326.125 188.339C326.137 188.017 326.079 186.89 326.209 186.625C326.64 185.748 326.734 185.808 326.814 184.751L327.167 184.751C327.098 186.245 326.526 187.992 326.158 189.459L324.375 196.873C324.125 196.145 324.05 195.393 323.834 194.66L325.578 186.836Z"/>
	<path fill="#010001" fill-opacity="0.95686275" d="M311.338 246.974L311.678 247.158C312.157 247.384 312.015 247.337 312.464 247.375L312.365 247.606C312.116 248.283 312.126 249.705 311.592 250.125L311.641 250.345C311.735 251.253 311.114 252.598 310.952 253.544C310.757 254.674 311.033 253.411 310.685 254.25C310.193 255.436 310.162 257.092 309.704 258.375L309.375 260.123C308.97 259.33 309.319 258.548 308.84 257.759L311.338 246.974Z"/>
	<path d="M261.541 438.206L261.875 439.285L262.419 439.312C262.171 440.19 262.005 440.933 261.622 441.75L261.529 442.342C261.456 442.909 261.289 443.333 261.121 443.875L259.664 450.001L259.062 452.244L258.938 451.624L258.083 451.656L261.541 438.206Z"/>
	<path d="M330.859 165.077L331.25 165.57L331.761 165.125L331.656 163.625L332.178 163.125C332.18 162.217 332.007 161.821 332.625 161.127C332.86 161.61 332.836 161.353 332.726 161.799C332.543 162.548 332.464 163.259 332.237 164L330.279 172.039C329.942 173.288 329.947 174.823 329.29 175.94C329.026 176.39 329.073 176.802 329.049 177.309C329.034 177.622 328.991 177.833 328.875 178.123C328.625 177.664 328.662 177.641 328.676 177.146C328.692 176.573 328.629 176.291 328.323 175.79L330.859 165.077Z"/>
	<path d="M321.371 205.083L322 205.356C322.531 204.463 321.659 203.943 322.625 203.278L322.749 203.474L322.685 203.674C322.575 204.087 322.614 204 322.571 204.496C322.527 205 322.441 205.136 322.312 205.585C322.08 206.397 322.101 207.22 321.614 207.934L321.621 208.288C321.61 208.739 321.519 209.068 321.402 209.495L320.773 212.044L320.591 212.875L319.442 217.641C319.13 218.714 319.144 219.801 318.625 220.813L318.328 220.336C318.783 219.795 318.74 219.714 318.667 219.007C318.625 218.612 318.492 218.343 318.296 218.004L321.371 205.083Z"/>
	<path fill="#010001" fill-opacity="0.95686275" d="M298.291 302.2L301.798 287.174C302.106 287.357 302.342 287.492 302.595 287.75C302.575 288.467 302.509 288.918 302.309 289.597L301.875 291.877L301.607 292.001L301.631 292.337C301.658 293.048 301.076 295.749 300.665 296.25L299.987 299.601L299.472 301.876C299.274 302.95 299.528 301.864 299.143 302.75C298.931 303.237 299.126 303.66 298.814 304.182L298.791 303.901C298.733 303.231 298.731 302.747 298.291 302.2Z"/>
	<defs>
		<linearGradient id="gradient_0" gradientUnits="userSpaceOnUse" x1="314.18994" y1="287.9841" x2="313.48715" y2="287.80981">
			<stop offset="0" stop-color="black" stop-opacity="0.94509804"/>
			<stop offset="1" stop-color="black" stop-opacity="0.97647059"/>
		</linearGradient>
	</defs>
	<path fill="url(#gradient_0)" d="M315.503 280.812C315.818 281.505 315.934 282.025 316.097 282.767L316.195 283.062L313.192 294.949L312.932 294.763C312.35 294.355 312.402 293.897 312.239 293.228C312.333 292.686 312.417 292.19 312.597 291.668L313.069 290.251L313.127 290C313.377 288.98 313.395 288 313.552 286.974C313.651 286.324 314.104 285.867 314.269 285.25C314.432 284.638 314.409 284.018 314.607 283.399L315.503 280.812Z"/>
	<path d="M508.296 148.42C509.347 153.119 509.756 157.463 509.765 162.27C509.768 163.96 509.889 165.872 509.548 167.52L509.378 166.25C508.861 166.947 508.982 168.591 508.931 169.487L508.751 169.487L508.627 168.875L508.36 169.188L508.465 157.809C508.442 156.582 508.602 154.933 508.258 153.785L508.127 153.375C508.017 152.941 508.084 152.739 507.75 152.373L507.433 152.125L507.875 151.877C507.888 151.462 507.886 151.276 507.75 150.873L507.414 150.625C507.396 149.957 507.247 149.446 507.625 148.877L507.968 149.001L508.104 149.875L508.296 148.42Z"/>
	<path d="M301.178 342.769C300.888 342.762 300.529 342.591 300.251 342.499L300.127 341.875C300.503 340.958 300.336 339.999 300.689 339.112C300.93 338.508 300.749 339.131 300.942 338.416L301.049 338C301.353 336.924 301.317 335.679 301.785 334.688C302.34 333.512 302.198 332.152 302.745 331.017C303.203 330.066 303.282 328.979 303.474 327.951C303.613 327.21 303.935 326.56 304.109 325.836C304.347 324.841 304.414 323.839 304.786 322.875C305.348 321.419 305.357 319.869 305.882 318.443C306.24 317.469 306.407 316.52 306.588 315.501L306.873 315.625C306.864 316.004 306.857 316.338 306.933 316.712L306.999 317.001L307.227 318.562L301.178 342.769Z"/>
	<path d="M326.864 240.648L326.627 239.375L326.439 239.999L325.877 239.375L326.125 239.127C326.084 238.064 326.374 236.568 326.719 235.563C327.15 234.308 327.293 233.162 327.55 231.875C327.793 230.659 328.312 229.501 328.551 228.275L328.625 227.877L328.873 228.125C328.855 227.252 329.009 226.467 329.229 225.625L330.47 220.539L330.627 219.75C330.97 218.991 330.831 219.751 330.922 219.033C331.212 216.729 332.137 214.513 332.558 212.259L332.625 211.877L332.873 212.125C332.859 211.641 332.811 211.253 332.993 210.797C333.331 209.953 333.397 209.012 333.625 208.127C334.029 208.532 333.873 208.824 333.873 209.375L334.123 209.625C334.05 210.046 334.054 210.378 334.114 210.797L334.184 211.266L326.864 240.648Z"/>
	<path d="M315.503 280.812L315.477 280.753C315.537 280.057 315.57 279.372 315.835 278.719C316.344 277.462 316.267 275.97 316.837 274.797C317.37 273.7 317.31 272.661 317.579 271.5L319.303 265.375C319.818 263.277 320.052 260.882 320.877 258.875C321.405 257.593 321.346 256.183 321.877 254.875C322.258 253.938 322.394 252.992 322.573 252.001L322.749 252.001L322.761 251.749C322.78 250.956 323.371 249.183 323.625 248.377C323.998 248.751 323.873 248.869 323.873 249.375L324.123 249.625C324.048 250.092 324.031 250.4 324.11 250.876L324.19 251.283L316.195 283.062L316.097 282.767C315.934 282.025 315.818 281.505 315.503 280.812Z"/>
	<path d="M254.959 139.773L300.418 139.745L316.772 139.739C319.764 139.756 322.873 139.623 325.837 139.994C325.123 140.328 324.241 140.52 323.451 140.558C319.604 140.747 315.577 140.477 311.705 140.504L277.5 140.505C276.458 139.796 273.831 140.459 272.5 140.25C270.93 140.004 269.286 140.108 267.683 140.105L259.368 140.081C258.022 140.075 256.169 140.35 254.959 139.773Z"/>
	<path d="M334.74 209.055L334.627 207.375L334.375 208.123L334.127 207.875C334.115 207.295 334.096 206.732 334.193 206.157L334.275 205.751C334.365 205.26 334.449 204.847 334.625 204.377L334.873 204.625L334.877 204.5C335.276 203.9 335.126 203.211 335.127 202.5C335.561 201.848 335.382 200.915 335.625 200.127L335.873 200.375C335.866 199.819 335.838 199.291 336.001 198.751C336.261 197.89 336.384 196.998 336.625 196.127L336.873 196.375C336.877 195.965 336.888 195.644 337.001 195.251C337.296 194.228 337.345 193.164 337.625 192.127L337.873 192.375C337.878 191.852 337.849 191.99 337.932 191.571L339.722 183.54C340.497 181.267 341.024 178.847 341.507 176.5C341.767 175.233 342.293 174.019 342.541 172.745L345.637 159.962L345.767 159.501L346.546 157.001L346.749 157.001C347.058 157.789 347.169 158.422 347.228 159.264L334.74 209.055Z"/>
	<path d="M61.0769 170.014C64.2844 170.015 67.4292 171.346 70.0287 173.157L70.3356 173.375C72.9242 175.19 74.9486 177.472 77.1367 179.727C78.728 181.366 80.4586 182.972 81.8252 184.803L83.7302 187.375C84.9591 189.275 85.8481 191.579 85.3351 193.839L85.2368 194.25C85.1103 194.801 84.999 195.355 84.7688 195.875C83.7136 198.261 81.741 199.708 79.3893 200.64C78.2063 200.843 77.0903 200.602 75.988 200.156C74.716 199.643 73.5255 198.85 72.4803 197.969C70.2727 196.107 68.4119 193.715 66.375 191.667C63.5776 188.854 60.4601 186.259 57.875 183.253C56.9629 182.193 56.1169 180.96 55.6155 179.649C54.8122 177.548 54.8959 175.49 55.9462 173.496C57.0359 171.428 58.9889 170.642 61.0769 170.014Z"/>
	<path d="M82.4466 212.125C83.6019 211.782 85.3485 212.167 86.5 212.516C88.0411 212.982 89.9028 213.905 91.1544 214.945C95.3883 218.462 98.6929 223.3 102.176 227.542C104.795 230.733 107.951 233.838 109.809 237.544C110.75 239.421 111.406 242.78 110.658 244.774C109.743 247.213 108.121 248.315 105.855 249.335C104.479 249.599 103.303 249.552 101.937 249.228C100.214 248.82 98.5366 248.046 97.2262 246.839C93.2153 243.145 90.2607 237.905 86.8987 233.603C84.2655 230.234 80.8898 227.004 78.7756 223.294C77.6823 221.375 76.9454 218.808 77.6034 216.631C78.2849 214.377 80.4984 213.126 82.4466 212.125Z"/>
</svg>
