<?xml version="1.0" encoding="utf-8" ?>
<svg xmlns="http://www.w3.org/2000/svg" xmlns:xlink="http://www.w3.org/1999/xlink" width="512" height="512">
	<path d="M248.475 46.6035C265.829 46.4766 275.857 47.9006 293.203 50.9352L355.356 59.5604L405.75 62.7283C410.399 63.0654 415.091 63.6991 419.75 63.7742L446.362 63.8049C467.319 63.7797 483.066 65.2853 494.637 86.6073C495.531 88.2532 496.575 90.039 497.12 91.8238L497.587 93.195C498.14 94.5451 498.603 95.977 498.894 97.4122L499.382 99.6111C500.376 104.613 500.09 109.767 500.092 114.845L500.096 340.058C500.095 347.7 500.95 355.553 499.101 363.027C495.857 376.134 487.695 387.562 474.867 392.868C464.069 397.334 452.552 396.764 441.125 397.606L353 403.94C344.14 404.226 336.337 404.16 328.813 409.336C317.252 417.289 306.055 435.11 303.551 449.312C302.021 457.984 302.138 468.395 289.975 463.462C284.526 461.252 280.091 457.645 275.5 454.067C267.707 447.621 260.986 439.852 255.331 431.488L244.687 413.29C240.008 404.466 240.799 404.704 231.421 404.716L213.671 404.617C212.014 404.531 210.42 404.082 208.753 404.03L163.39 403.899C160.782 403.801 158.213 403.249 155.594 403.116L65.4979 397.613C58.1518 397.015 50.3525 396.86 43.1787 395.089C26.7296 391.028 13.3231 375.044 11.9231 358.224C11.4765 352.859 11.7643 347.279 11.7619 341.89L11.7635 120.14C11.7654 115.47 11.5254 110.662 12.0591 106.022C14.3387 86.2056 24.6808 68.9319 45.4202 64.8805C51.7013 63.6535 57.7939 63.7894 64.1514 63.7848L91.9271 63.7661L151.125 59.9672C156.348 59.614 161.565 58.697 166.75 58.0048L235.375 47.9938L248.475 46.6035ZM39.9805 83.1173C28.6218 90.9042 26.9813 101.608 26.9772 114.827L26.9932 352.3C27.0389 356.244 27.6786 359.34 28.6383 363.079L30.9975 367.767C39.7327 382.068 51.1845 381.35 65.6689 382.127L174.093 389.168L197.43 389.306C199.652 389.337 201.825 389.746 204.031 389.801L232.929 389.942C251.357 390.029 253.923 399.145 262.055 413.875L268.21 423.898C271.739 429.093 275.931 433.397 280.296 437.866L288.507 446.096L288.957 444.375C293.341 428.295 300.996 414.602 313.175 403.122C326.358 390.695 334.519 390.17 351.607 388.97L451.269 381.668C480.779 379.459 484.957 367.649 484.973 341.555L484.911 111.743C483.695 82.0019 470.301 78.997 445.126 78.9889L422.566 78.9462L371.052 75.9569L302.941 67.9816C286.578 65.5777 270.472 61.2138 253.82 61.2833C241.319 61.3356 228.824 64.8563 216.528 66.7881L152.875 74.9406L92.3238 78.9477L66.8794 79.0001C56.9869 79.0084 49.5 79.4226 40.3184 82.9877L39.9805 83.1173ZM28.6383 363.079C27.6786 359.34 27.0389 356.244 26.9932 352.3L26.9772 114.827C26.9813 101.608 28.6218 90.9042 39.9805 83.1173C38.1083 83.0715 35.9764 85.29 35.2025 86L33.6386 87.5673C31.705 89.4761 30.9684 91.839 29.375 93.8922L28.8216 94.875C28.9846 97.4381 26.7586 99.9498 26.8305 102.558L26.5986 102.821C25.9852 103.685 26.2093 104.53 26.1887 105.5L25.7983 106.001C25.0521 112.836 25.3786 119.89 25.3776 126.76L25.3797 321.934C25.3795 328.454 24.2652 356.436 27.125 360.142L27.365 361.592C27.8457 362.064 28.0909 362.599 28.6383 363.079Z"/>
	<path d="M28.6383 363.079C28.0909 362.599 27.8457 362.064 27.365 361.592L27.125 360.142C24.2652 356.436 25.3795 328.454 25.3797 321.934L25.3776 126.76C25.3786 119.89 25.0521 112.836 25.7983 106.001L26.1887 105.5C26.2093 104.53 25.9852 103.685 26.5986 102.821L26.8305 102.558C26.7586 99.9498 28.9846 97.4381 28.8216 94.875L29.375 93.8922C30.9684 91.839 31.705 89.4761 33.6386 87.5673L35.2025 86C35.9764 85.29 38.1083 83.0715 39.9805 83.1173C28.6218 90.9042 26.9813 101.608 26.9772 114.827L26.9932 352.3C27.0389 356.244 27.6786 359.34 28.6383 363.079Z"/>
	<path d="M465.081 355.203C460.149 358.908 452.295 358.671 446.45 359.076L409.544 362.083L367.639 363.358L335.375 364.698C333.661 364.866 331.978 365.208 330.25 365.249L306.196 365.391C300.15 365.662 295.289 366.008 288.999 366.013L219.5 365.998C216.647 365.943 213.869 365.336 210.968 365.3L181.445 365.239C179.353 365.188 177.328 364.81 175.253 364.621L148.386 363.971C145.457 363.866 142.555 363.369 139.625 363.293L122.875 363.064C121.265 362.99 119.713 362.666 118.12 362.569L67.0938 359.226C57.7675 358.574 44.1091 359.414 43.9762 346.625L43.9707 118.749C43.9665 112.71 42.4952 103.589 51.3458 103.256L460.607 103.35C462.724 103.455 464.655 103.569 466.153 105.231C467.023 106.549 467.366 107.541 467.584 109.091L467.734 109.916C468.118 111.739 468.05 113.6 468.061 115.455L468.067 339.509C468.077 344.924 469.49 351.157 465.081 355.203ZM196.95 192.191L70.5934 336.875C68.4108 339.408 66.7822 342.368 64.995 344.46C70.3284 344.83 75.6733 344.645 81.0139 344.767L133.625 345.609C135.576 345.669 137.509 345.998 139.471 346.042L156 346.103C157.687 346.152 159.346 346.484 161.033 346.534L182.875 346.628L209.249 347.506L253.797 348.105C255.6 348.137 257.375 348.477 259.179 348.517L303.407 349.106C305.242 349.133 307.048 349.451 308.88 349.503L333.58 349.684C335.661 349.777 338.266 350.254 340.311 349.777L448.038 344.468C445.095 340.542 441.692 336.907 438.439 333.233L317.051 193.826C316.55 193.274 316.027 192.535 315.379 192.165L315.197 192.297C312.173 194.426 308.307 195.858 305 197.546L287 206.558C262.139 218.746 254.015 220.313 227.958 207.815L209.081 198.467C205.073 196.415 200.759 194.572 196.95 192.191ZM86.6103 118.255L220.108 186.952C228.051 191.007 236.05 195.488 244.339 198.794C258.248 204.342 268.716 198.373 281.329 192.15L371.421 146.364L417.564 122.583C420.198 121.227 422.76 119.757 425.382 118.411L86.6103 118.255ZM58.9577 121.764L59.0435 325.407C62.7666 322.547 65.6201 319.106 68.6918 315.587L117.314 259.341L182.817 185.25L58.9577 121.764ZM452.614 122.144L329.296 184.893L395.833 260.75L452.924 325.962C452.404 320.253 452.778 314.223 452.777 308.483L452.783 126.699C452.781 125.241 452.916 123.58 452.614 122.144ZM466.153 105.231C466.119 106.408 466.104 107.25 466.377 108.375L466.627 109.875C466.609 110.568 466.682 111.242 466.377 111.875L466.421 112.312C466.563 113.946 466.376 115.724 466.376 117.381L466.42 331.395C466.447 337.68 467.758 343.684 466.864 349.981L466.251 351.749C466.371 352.354 465.137 352.893 465.189 353.75L465.081 355.203C469.49 351.157 468.077 344.924 468.067 339.509L468.061 115.455C468.05 113.6 468.118 111.739 467.734 109.916L467.584 109.091C467.366 107.541 467.023 106.549 466.153 105.231Z"/>
	<defs>
		<linearGradient id="gradient_0" gradientUnits="userSpaceOnUse" x1="467.43002" y1="182.3755" x2="466.5845" y2="182.37315">
			<stop offset="0" stop-color="black" stop-opacity="0.9137255"/>
			<stop offset="1" stop-color="black" stop-opacity="0.94901961"/>
		</linearGradient>
	</defs>
	<path fill="url(#gradient_0)" d="M466.153 105.231C467.023 106.549 467.366 107.541 467.584 109.091L467.734 109.916C468.118 111.739 468.05 113.6 468.061 115.455L468.067 339.509C468.077 344.924 469.49 351.157 465.081 355.203L465.189 353.75C465.137 352.893 466.371 352.354 466.251 351.749L466.864 349.981C467.758 343.684 466.447 337.68 466.42 331.395L466.376 117.381C466.376 115.724 466.563 113.946 466.421 112.312L466.377 111.875C466.682 111.242 466.609 110.568 466.627 109.875L466.377 108.375C466.104 107.25 466.119 106.408 466.153 105.231ZM467.246 256.125L467.353 303.628L467.327 268.573C467.332 266.448 468.103 257.484 467.246 256.125Z"/>
	<path d="M467.246 256.125C468.103 257.484 467.332 266.448 467.327 268.573L467.353 303.628L467.246 256.125Z"/>
</svg>
