<?xml version="1.0" encoding="utf-8" ?>
<svg xmlns="http://www.w3.org/2000/svg" xmlns:xlink="http://www.w3.org/1999/xlink" width="512" height="512">
	<path d="M246.368 13.0357L254.144 12.7928C262.554 12.7567 271.222 13.0904 279.586 13.947C332.462 19.3622 383.545 42.2562 421.625 79.5211C431.952 89.6272 441.345 100.258 450.125 111.721C454.24 117.093 458.304 122.549 461.937 128.264C471.349 143.076 478.863 159.271 484.493 175.875C492.662 199.965 497.807 225.009 498.061 250.527C498.267 271.216 495.9 291.784 491.02 311.875C490.092 315.695 489.265 319.622 488.096 323.378C476.274 361.375 456.391 395.537 428.525 424.033C395.544 457.759 353.715 480.567 307.92 491.395C299.246 493.446 290.608 494.85 281.753 495.833C276.927 496.369 271.953 496.896 267.095 496.937C254.104 497.047 241.366 496.955 228.443 495.442C184.739 490.325 142.926 473.125 108.219 446.175C101.307 440.808 94.4841 435.09 88.2613 428.931C81.4197 422.16 74.7184 415.03 68.6759 407.526C43.6169 376.406 25.7532 338.651 18.2141 299.376L15.5859 283.298C15.3352 281.343 15.3249 279.348 15.1336 277.385C14.8557 274.533 14.4766 271.803 14.4648 268.925L14.4639 268.66C13.9987 265.468 14.0331 261.893 14.0246 258.663L14.2419 244.533C14.3498 241.809 14.2193 238.879 14.7339 236.208L17.1508 215.783L19.338 203.972L24.1025 185.528C28.8369 169.722 35.4251 154.508 43.3013 140.029L51.8296 125.659C52.8187 124.148 53.6417 122.567 54.7434 121.125L80.457 89.0251C114.776 53.1824 160.31 26.8617 209.25 17.5367L223.774 15.0563C226.489 14.649 229.35 14.163 232.095 14.1129L246.368 13.0357ZM182.53 41.1189L178.705 42.6531L175.062 43.9954L170.847 45.6138C162.579 49.1595 154.494 52.8204 146.584 57.125C141.133 60.0913 135.854 63.4876 130.701 66.94C118.17 75.3345 106.15 84.8994 95.5692 95.6953C83.7343 107.77 73.0666 121.556 64.146 135.897C58.7708 144.539 54.0299 153.52 49.8234 162.789C48.859 164.915 47.7557 167.02 46.8953 169.188C37.4375 193.019 31.2352 217.873 29.6509 243.504C29.389 247.741 29.4919 252.025 29.503 256.269C29.5164 261.415 29.1924 266.78 29.9342 271.871L32.2481 290.716C33.3506 298.153 35.1279 305.602 37.0597 312.863C40.3815 325.349 45.0702 337.597 50.5112 349.305C54.2292 357.305 58.2348 365.378 62.8465 372.912C69.567 383.89 77.3973 394.409 85.9086 404.06L95.7332 414.253L106.952 424.838C108.471 426.194 109.917 427.736 111.535 428.969L120.909 436.272C128.072 441.579 135.599 446.556 143.325 451.004C169.089 465.835 198.309 476.332 227.873 480.086C237.44 481.301 246.938 481.675 256.575 481.688C265.603 481.701 274.667 481.494 283.621 480.226C294.237 478.722 304.619 476.822 314.96 473.908C352.894 463.219 388.297 442.3 416.072 414.363C422.779 407.617 429.275 400.693 434.98 393.062C445.546 378.93 454.889 364.329 462.229 348.238L467.255 336.532C468.14 334.302 468.825 331.995 469.786 329.792C469.924 328.389 470.829 326.554 471.312 325.203L476.306 307.964L477.336 303.348L479.135 294.307L481.237 280.674C481.006 278.892 481.672 276.197 481.849 274.34L482.437 264.604C482.762 247.219 481.893 230.089 478.475 213C467.68 159.016 437.855 111.164 394.941 76.8116C388.668 71.7896 381.895 67.4096 375.214 62.9592C366.574 57.2035 356.947 52.4528 347.525 48.125C323.683 37.1736 297.412 30.2398 271.196 28.5682C255.72 27.5813 239.707 28.6518 224.394 31.036C214.916 32.5118 205.528 34.6118 196.25 37.014C191.753 38.1783 187.279 40.1954 182.752 41.0775L182.53 41.1189ZM14.7339 236.208C14.2193 238.879 14.3498 241.809 14.2419 244.533L14.0246 258.663C14.0331 261.893 13.9987 265.468 14.4639 268.66C14.7665 268.18 14.9177 267.743 14.9822 267.183C15.4513 263.111 15.0581 258.535 15.0551 254.424L15.0561 246.808C15.0618 245.215 15.1588 243.562 14.8902 241.989C14.5554 240.028 14.8737 238.182 14.7339 236.208ZM232.095 14.1129C232.895 14.3779 233.663 14.2775 234.478 14.4259L234.765 14.4891L235.535 14.6538C236.974 15.0312 238.144 14.6825 239.565 14.5891C242.621 14.3882 245.946 14.1732 249 14.3027L249.077 14.0452L246.5 14C246.406 13.6341 246.436 13.8078 246.396 13.3708L246.368 13.0357L232.095 14.1129ZM19.338 203.972L17.1508 215.783L17.2356 215.764L17.5695 215.969L17.9375 215.624L18.0625 216.376L18.6354 213.482C19.1439 211.532 19.1482 209.332 19.7586 207.431C20.068 206.468 20.1609 205.395 20.4166 204.399L19.338 203.972ZM481.237 280.674L479.135 294.307L479.542 294.517L479.725 294.452L479.938 293.812L480 294.625C480.382 293.891 480.592 293.043 480.606 292.213C480.629 290.82 481.249 289.499 481.153 288.007L481.125 287.655L481.423 287.335C481.561 286.296 481.941 284.533 481.403 283.598L481.226 283.375C481.382 282.487 481.283 281.57 481.237 280.674ZM476.306 307.964C476.453 308.233 476.555 308.389 476.641 308.701C476.86 309.497 476.517 309.95 476.102 310.58C476.11 311.195 476.049 311.578 476.375 312.123L476.594 311.25L476.802 310.625C477.05 309.695 478.601 304.195 478.25 303.546L477.336 303.348L476.306 307.964ZM178.705 42.6531L182.53 41.1189L182.67 40.518C183.189 40.2016 182.936 40.335 183.501 40.3301L184.373 40.125L183.817 39.813L183.75 39.5418L183.336 39.6834C183.063 39.7738 182.776 39.8131 182.498 39.8857L181.926 40.1433C181.215 40.4679 180.51 40.6365 179.75 40.8005L179.437 41.0965L178.75 41.3101L177.513 41.8077C177.891 42.1916 178.228 42.4049 178.705 42.6531ZM471.312 325.203C470.829 326.554 469.924 328.389 469.786 329.792L469.837 329.876L470.085 330.09L470.273 331.222C471.116 329.87 471.82 327.581 472.123 326C471.921 325.43 471.81 325.495 471.312 325.203ZM170.847 45.6138L175.062 43.9954C173.794 43.3933 173.09 43.1139 171.744 43.8157L171.49 44.0075C170.94 44.379 170.157 44.5753 169.534 44.8025C169.958 45.279 170.115 45.2156 170.638 45.457L170.847 45.6138Z"/>
	<path d="M170.847 45.6138L170.638 45.457C170.115 45.2156 169.958 45.279 169.534 44.8025C170.157 44.5753 170.94 44.379 171.49 44.0075L171.744 43.8157C173.09 43.1139 173.794 43.3933 175.062 43.9954L170.847 45.6138Z"/>
	<defs>
		<linearGradient id="gradient_0" gradientUnits="userSpaceOnUse" x1="470.88763" y1="329.40436" x2="470.2002" y2="329.13062">
			<stop offset="0" stop-color="#010001" stop-opacity="0.95686275"/>
			<stop offset="1" stop-color="#000100"/>
		</linearGradient>
	</defs>
	<path fill="url(#gradient_0)" d="M471.312 325.203C471.81 325.495 471.921 325.43 472.123 326C471.82 327.581 471.116 329.87 470.273 331.222L470.085 330.09L469.837 329.876L469.786 329.792C469.924 328.389 470.829 326.554 471.312 325.203Z"/>
	<path d="M178.705 42.6531C178.228 42.4049 177.891 42.1916 177.513 41.8077L178.75 41.3101L179.437 41.0965L179.75 40.8005C180.51 40.6365 181.215 40.4679 181.926 40.1433L182.498 39.8857C182.776 39.8131 183.063 39.7738 183.336 39.6834L183.75 39.5418L183.817 39.813L184.373 40.125L183.501 40.3301C182.936 40.335 183.189 40.2016 182.67 40.518L182.53 41.1189L178.705 42.6531Z"/>
	<path d="M476.306 307.964L477.336 303.348L478.25 303.546C478.601 304.195 477.05 309.695 476.802 310.625L476.594 311.25L476.375 312.123C476.049 311.578 476.11 311.195 476.102 310.58C476.517 309.95 476.86 309.497 476.641 308.701C476.555 308.389 476.453 308.233 476.306 307.964Z"/>
	<path fill="#010001" fill-opacity="0.96078432" d="M481.237 280.674C481.283 281.57 481.382 282.487 481.226 283.375L481.403 283.598C481.941 284.533 481.561 286.296 481.423 287.335L481.125 287.655L481.153 288.007C481.249 289.499 480.629 290.82 480.606 292.213C480.592 293.043 480.382 293.891 480 294.625L479.938 293.812L479.725 294.452L479.542 294.517L479.135 294.307L481.237 280.674Z"/>
	<path fill="#010001" fill-opacity="0.96078432" d="M19.338 203.972L20.4166 204.399C20.1609 205.395 20.068 206.468 19.7586 207.431C19.1482 209.332 19.1439 211.532 18.6354 213.482L18.0625 216.376L17.9375 215.624L17.5695 215.969L17.2356 215.764L17.1508 215.783L19.338 203.972Z"/>
	<path d="M232.095 14.1129L246.368 13.0357L246.396 13.3708C246.436 13.8078 246.406 13.6341 246.5 14L249.077 14.0452L249 14.3027C245.946 14.1732 242.621 14.3882 239.565 14.5891C238.144 14.6825 236.974 15.0312 235.535 14.6538L234.765 14.4891L234.478 14.4259C233.663 14.2775 232.895 14.3779 232.095 14.1129Z"/>
	<path fill="#010001" fill-opacity="0.93725491" d="M14.7339 236.208C14.8737 238.182 14.5554 240.028 14.8902 241.989C15.1588 243.562 15.0618 245.215 15.0561 246.808L15.0551 254.424C15.0581 258.535 15.4513 263.111 14.9822 267.183C14.9177 267.743 14.7665 268.18 14.4639 268.66C13.9987 265.468 14.0331 261.893 14.0246 258.663L14.2419 244.533C14.3498 241.809 14.2193 238.879 14.7339 236.208Z"/>
	<path d="M238.668 42.7344C240.728 42.2892 242.969 42.4369 245.072 42.3279C252.913 41.9215 260.957 41.789 268.804 42.2338C270.755 42.3444 272.95 42.2923 274.856 42.7307C317.981 46.8605 359.269 64.3652 392.415 92.2639C402.927 101.111 412.336 110.936 421.064 121.524C427.362 129.162 433.047 137.475 438.067 145.998C442.13 152.896 445.992 159.68 449.33 166.975C451.359 171.409 453.032 176.023 454.723 180.593C466.287 211.849 470.085 245.382 466.865 278.518C466.497 282.302 466.163 286.445 465.259 290.134L463.206 300.556C462.674 303.292 462.216 306.67 461.161 309.222C459.211 317.11 456.488 324.648 453.498 332.185C440.82 364.147 419.573 394.015 393.365 416.321C385.289 423.194 376.804 429.77 367.846 435.456C340.536 452.787 309.867 463.582 277.699 466.803C270.738 467.501 263.901 467.627 256.913 467.706C254.935 467.729 252.74 468.035 250.798 467.857L238.693 467.334C228.248 466.467 217.595 464.571 207.407 462.119C152.768 448.967 104.372 413.267 75.1811 365.283C55.5691 333.044 44.6585 296.866 43.7222 259.113L43.4996 249.65C43.6146 243.44 44.2718 237.18 44.9164 231C45.6745 223.731 46.5791 216.364 48.3201 209.252L50.4392 200.189C52.6551 191.24 55.7839 182.597 59.3315 174.102C67.4623 154.633 78.741 136.134 92.3138 119.964C110.575 98.2088 132.721 80.298 157.718 66.8275C166.834 61.9153 176.462 57.4445 186.25 54.0333C203.297 48.092 220.693 44.2881 238.668 42.7344ZM443.239 314.687L445.359 307.732L449.24 291.557L450.205 286.62C451.095 280.398 452.112 274.158 452.47 267.875C453.976 241.473 450.529 214.908 441.493 190C430.187 158.834 411.167 130.434 386.663 108.092C371.808 94.5468 354.303 83.3558 336.172 74.7525C301.964 58.5208 262.901 53.7007 225.659 59.5869C214.389 61.3682 202.97 64.0888 192.25 68.02C179.999 72.5124 168.005 78.0093 156.827 84.776C121.641 106.076 93.2056 137.71 76.4367 175.32C69.0016 191.996 63.3192 209.954 60.9432 228.106L59.5495 242.177L59.4178 248C57.906 273.215 61.9415 298.233 70.9755 321.823C87.4854 364.935 118.831 403.248 158.986 426.33C164.287 429.376 169.704 432.334 175.303 434.805C189.191 440.934 203.42 445.82 218.305 448.904C246.383 454.721 276.185 453.819 303.875 446.49C309.611 444.972 315.5 443.347 321.034 441.186C332.79 436.595 344.398 431.37 355.244 424.877C390.676 403.664 419.659 370.917 436.191 333.078L443.239 314.687ZM238.668 42.7344L247.422 43.111C249.032 43.3044 250.824 43.1186 252.454 43.1167C257.069 43.1115 261.993 42.8049 266.578 43.1719C267.822 43.2715 269.213 42.9839 270.474 42.9135C271.91 42.8333 273.439 42.9233 274.856 42.7307C272.95 42.2923 270.755 42.3444 268.804 42.2338C260.957 41.789 252.913 41.9215 245.072 42.3279C242.969 42.4369 240.728 42.2892 238.668 42.7344ZM462.478 298.176C462.859 298.926 462.886 299.345 463.057 300.147L463.206 300.556L465.259 290.134C465.18 289.302 465.048 288.573 464.815 287.77L464.501 287.501L464.009 290.251L463.944 290.571C463.895 290.802 463.798 291.02 463.751 291.251C463.712 291.445 463.779 291.594 463.816 291.78C463.894 292.166 463.875 292.487 463.849 292.875L463.625 292.377C463.361 293.181 463.321 294.039 463.146 294.867C462.923 295.918 462.46 297.117 462.478 298.176ZM461.161 309.222C462.216 306.67 462.674 303.292 463.206 300.556L463.057 300.147C462.886 299.345 462.859 298.926 462.478 298.176C462.224 299.063 461.902 299.84 461.58 300.694C461.228 301.624 461.428 302.846 461.127 303.875L461.101 304.664C461.079 305.229 461.09 304.561 460.877 305.375L460.825 306.256L460.532 306.001L460.17 308.071C460.097 308.437 460.178 308.655 460.289 308.998L460.729 309.027L461.161 309.222ZM48.3201 209.252C48.4913 209.517 48.5646 209.592 48.6461 209.942C48.8409 210.778 48.7165 211.444 48.2676 212.125L48.5625 213.151L50.7621 203.375L50.9641 202.75C51.2228 201.462 51.1246 201.235 50.4392 200.189L48.3201 209.252ZM445.359 307.732L443.239 314.687C443.556 315.146 443.438 314.938 443.693 315.477L443.875 315.873C444.11 315.516 444.346 315.237 444.455 314.818L444.908 313.201L446.439 308.316C446.575 307.669 446.746 307.186 446.375 306.627C446.263 306.981 446.149 307.295 445.997 307.635L445.359 307.732ZM449.24 291.557L449.544 292.5L449.724 292.456L449.938 291.812L450.062 292.741C450.453 291.58 450.645 290.386 450.866 289.184C450.321 288.183 450.238 287.744 450.205 286.62L449.24 291.557Z"/>
	<path d="M449.24 291.557L450.205 286.62C450.238 287.744 450.321 288.183 450.866 289.184C450.645 290.386 450.453 291.58 450.062 292.741L449.938 291.812L449.724 292.456L449.544 292.5L449.24 291.557Z"/>
	<path fill="#010001" fill-opacity="0.97647059" d="M445.359 307.732L445.997 307.635C446.149 307.295 446.263 306.981 446.375 306.627C446.746 307.186 446.575 307.669 446.439 308.316L444.908 313.201L444.455 314.818C444.346 315.237 444.11 315.516 443.875 315.873L443.693 315.477C443.438 314.938 443.556 315.146 443.239 314.687L445.359 307.732Z"/>
	<path d="M48.3201 209.252L50.4392 200.189C51.1246 201.235 51.2228 201.462 50.9641 202.75L50.7621 203.375L48.5625 213.151L48.2676 212.125C48.7165 211.444 48.8409 210.778 48.6461 209.942C48.5646 209.592 48.4913 209.517 48.3201 209.252Z"/>
	<defs>
		<linearGradient id="gradient_1" gradientUnits="userSpaceOnUse" x1="462.20352" y1="301.96411" x2="461.53717" y2="301.83319">
			<stop offset="0" stop-color="black" stop-opacity="0.94509804"/>
			<stop offset="1" stop-color="black" stop-opacity="0.97647059"/>
		</linearGradient>
	</defs>
	<path fill="url(#gradient_1)" d="M461.161 309.222L460.729 309.027L460.289 308.998C460.178 308.655 460.097 308.437 460.17 308.071L460.532 306.001L460.825 306.256L460.877 305.375C461.09 304.561 461.079 305.229 461.101 304.664L461.127 303.875C461.428 302.846 461.228 301.624 461.58 300.694C461.902 299.84 462.224 299.063 462.478 298.176C462.859 298.926 462.886 299.345 463.057 300.147L463.206 300.556C462.674 303.292 462.216 306.67 461.161 309.222Z"/>
	<path fill="#010001" fill-opacity="0.96078432" d="M462.478 298.176C462.46 297.117 462.923 295.918 463.146 294.867C463.321 294.039 463.361 293.181 463.625 292.377L463.849 292.875C463.875 292.487 463.894 292.166 463.816 291.78C463.779 291.594 463.712 291.445 463.751 291.251C463.798 291.02 463.895 290.802 463.944 290.571L464.009 290.251L464.501 287.501L464.815 287.77C465.048 288.573 465.18 289.302 465.259 290.134L463.206 300.556L463.057 300.147C462.886 299.345 462.859 298.926 462.478 298.176Z"/>
	<path fill="#010001" fill-opacity="0.93725491" d="M238.668 42.7344C240.728 42.2892 242.969 42.4369 245.072 42.3279C252.913 41.9215 260.957 41.789 268.804 42.2338C270.755 42.3444 272.95 42.2923 274.856 42.7307C273.439 42.9233 271.91 42.8333 270.474 42.9135C269.213 42.9839 267.822 43.2715 266.578 43.1719C261.993 42.8049 257.069 43.1115 252.454 43.1167C250.824 43.1186 249.032 43.3044 247.422 43.111L238.668 42.7344Z"/>
	<path d="M89.2044 247.601C91.4826 247.121 114.707 247.213 116.174 247.855L116.5 248.008L118.125 248.793C119.588 249.664 121.143 251.477 121.54 253.176C121.997 255.131 121.658 257.759 120.512 259.413C119.095 261.457 116.741 262.613 114.333 263.016L111.732 263.364C106.776 263.916 101.476 263.46 96.5 263.324L89.8125 263.286C88.2992 263.275 86.8084 263.356 85.3514 262.869C83.0291 262.092 81.5911 260.515 80.5382 258.375C79.6169 256.503 79.352 254.619 80.112 252.647C80.7819 250.909 82.2139 249.676 83.9053 248.981L84.2935 248.826C85.3196 248.412 86.2943 248.079 87.3878 247.889L89.2044 247.601Z"/>
	<path d="M398.342 247.353C401.341 246.91 404.905 247.468 407.969 247.462L418.435 247.412C420.611 247.366 422.834 247.169 425.006 247.328C426.369 247.428 427.675 247.618 428.875 248.314C430.611 249.32 431.746 251.043 432.241 252.959C432.78 255.046 432.275 257.586 431.091 259.365C429.545 261.689 427.119 262.719 424.457 263.17C421.318 263.41 418.117 263.212 414.966 263.29L403.605 263.517C401.802 263.513 399.927 263.611 398.147 263.327L397.75 263.257C396.613 263.066 395.535 262.773 394.5 262.245C392.616 261.285 391.008 259.6 390.329 257.58C389.657 255.58 389.911 253.345 390.94 251.506C391.94 249.719 394.2 248.115 396.182 247.625L398.342 247.353Z"/>
	<path d="M248.729 82.9409C249.18 82.0354 249.66 81.0443 250.376 80.3168C251.509 79.166 252.998 78.4975 254.5 77.9902L254.777 77.8881C256.146 77.4112 258.273 77.9172 259.544 78.5637C261.302 79.4583 262.6 81.121 263.169 83.0002L263.53 84.5L263.614 84.8722C264.034 86.8752 263.839 89.216 263.854 91.2595L263.908 103.643C263.925 107.351 264.395 111.269 263.953 114.945C263.828 115.989 263.411 117.182 262.838 118.065C261.676 119.856 259.523 121.169 257.41 121.452C255.164 121.753 252.35 121.226 250.589 119.75C249.331 118.696 248.507 116.545 248.352 114.947C247.871 113.331 247.997 111.66 247.99 109.992L247.979 102.5C247.979 97.2512 247.737 91.8591 248.035 86.6248C248.105 85.3882 248.433 84.1414 248.729 82.9409ZM248.729 82.9409C248.433 84.1414 248.105 85.3882 248.035 86.6248C247.737 91.8591 247.979 97.2512 247.979 102.5L247.99 109.992C247.997 111.66 247.871 113.331 248.352 114.947L248.604 114.536L248.832 114.805L249.018 114.5L249.048 91.9624L249.062 87.0109C249.063 86.3879 249.174 85.5492 248.976 84.9712C248.716 84.2116 248.707 83.7529 248.729 82.9409Z"/>
	<path fill="#010001" fill-opacity="0.93725491" d="M248.729 82.9409C248.707 83.7529 248.716 84.2116 248.976 84.9712C249.174 85.5492 249.063 86.3879 249.062 87.0109L249.048 91.9624L249.018 114.5L248.832 114.805L248.604 114.536L248.352 114.947C247.871 113.331 247.997 111.66 247.99 109.992L247.979 102.5C247.979 97.2512 247.737 91.8591 248.035 86.6248C248.105 85.3882 248.433 84.1414 248.729 82.9409Z"/>
	<path d="M255.573 387.785C256.212 387.755 256.837 387.833 257.467 387.938C259.262 388.237 260.932 389.353 261.955 390.845C262.937 392.277 263.493 393.903 263.692 395.625C264.214 400.146 263.765 405.208 263.779 409.784L263.878 419.371C263.897 421.326 264.055 423.384 263.641 425.305L263.541 425.75C263.38 426.516 263.212 427.168 262.862 427.876C261.529 430.575 259.284 431.744 256.577 432.658C255.611 432.568 254.547 432.474 253.625 432.17C251.435 431.449 250.026 429.658 249.157 427.612C248.427 425.892 247.984 423.913 247.817 422.055C247.441 417.886 247.944 413.648 247.994 409.506C248.046 405.212 247.739 400.794 248.036 396.519C248.112 395.415 248.464 394.206 248.918 393.2C250.219 390.315 252.756 388.872 255.573 387.785Z"/>
	<path d="M255.352 126.497C256.896 126.392 258.065 126.411 259.304 127.442C261.723 129.455 262.409 133.044 262.875 136.009C263.261 138.47 263.29 140.904 263.483 143.375C264.01 150.108 263.888 156.874 263.891 163.626L263.844 205.333C263.659 216.026 262.853 226.99 263.671 237.673C265.505 238.225 267.241 238.811 268.932 239.723C273.022 241.93 277.094 247.085 278.459 251.479C279.875 256.04 280.745 262.184 278.418 266.572L278.283 266.817L279.782 268.625C281.932 271.02 284.439 273.285 286.918 275.341C288.11 276.33 289.48 277.548 290.912 278.177C291.983 278.647 293.491 278.898 294.651 278.949C296.577 279.032 298.58 279.371 300.29 280.298C303.439 282.005 306.084 284.834 307.106 288.342C307.459 289.555 307.947 290.823 308.043 292.087C308.09 292.71 307.791 295.806 307.986 296.107C308.223 296.474 309.364 297.138 309.749 297.427L315.125 301.489L332 314.275L358.101 334.059L371.424 344.082C374.069 346.01 376.926 347.918 379.375 350.084C380.282 350.886 381.317 352.08 381.532 353.313C381.981 355.892 381.666 358.115 380.079 360.263C379.14 361.534 377.578 362.5 376 362.697C373.682 362.985 371.651 362.392 369.611 361.3C366.999 359.902 364.686 358.143 362.277 356.442L346.278 344.375L300.125 309.46C298.51 308.241 296.605 307.272 294.653 306.723C292.125 306.012 289.741 305.847 287.518 304.26C284.631 302.199 282.903 297.495 281.607 294.309C280.746 292.728 280.222 291.036 279.273 289.468C276.89 290.17 274.766 291.588 272.353 292.252C270.168 292.853 267.918 293.35 265.643 292.836L265.375 292.772L264.125 292.475C260.696 291.396 256.688 286.319 255.193 283.199L255.064 282.919C253.954 283.102 252.755 283.276 251.625 283.233C246.835 283.052 242.491 279.207 239.342 275.932L203.896 307.534L174.039 334.416C170.658 337.381 167.207 341.7 163.065 343.595C162.109 344.033 161.215 344.218 160.225 343.77C159.238 343.324 158.611 342.405 158.28 341.404L158.193 341.125C156.883 337.061 163.116 333.072 165.818 330.676L191.503 307.601L217.052 284.937L229.549 273.558L233.365 270.484C233.586 270.312 234.545 269.699 234.649 269.498C234.652 269.492 234.379 268.69 234.362 268.639C232.342 262.568 232.051 257.113 234.198 251C234.802 249.28 235.619 247.653 236.51 246.063C239.174 241.311 243.222 239.315 248.237 237.874L248.443 168.623L248.452 148.847C248.458 145.473 248.184 141.733 248.677 138.407C249.09 135.624 249.613 132.436 251.367 130.142C252.587 128.547 253.52 127.427 255.352 126.497ZM255.187 251.786C252.781 252.296 250.503 253.794 249.177 255.886C248.012 257.726 248.015 259.441 248.535 261.486C249.105 263.728 250.677 265.24 252.641 266.411C253.707 267.046 255.053 267.35 256.25 267.651L256.829 267.483C259.891 266.342 262.859 264.254 264.176 261.182C264.413 260.63 264.48 260.214 264.501 259.625L264.517 259.307C264.563 257.734 263.799 256.575 262.826 255.424L262.634 255.187C261.44 253.738 258.513 251.808 256.555 251.655C256.308 251.635 256.13 251.682 255.875 251.711L255.468 251.749L255.187 251.786Z"/>
</svg>
