<?xml version="1.0" encoding="utf-8" ?>
<svg xmlns="http://www.w3.org/2000/svg" xmlns:xlink="http://www.w3.org/1999/xlink" width="512" height="512">
	<path d="M105.385 135.871L110.741 119.625C115.509 108.586 122.27 96.3245 134.125 91.754C140.612 89.2531 148.015 89.1474 154.875 88.503L173.125 86.4915L185.125 84.5252L207.492 80.937L225.772 77.878L271.227 68.0743L301.5 61.5068L321.336 57.2687L354.273 50.0872C359.125 48.9675 363.883 47.0855 368.838 46.4286C370.66 46.1871 372.46 46.1374 374.162 46.9271L374.474 47.0772L374.745 47.1996C375.836 47.7325 376.807 49.2412 377.184 50.3608L377.306 50.7392C377.883 52.4462 378.279 54.2036 377.847 56.0078C377.791 56.2406 377.732 56.4022 377.647 56.625C376.523 59.5665 373.568 61.0818 370.746 62.0318C368.652 62.7368 366.416 63.0415 364.265 63.5285L348.625 66.7804L304.125 76.1069L243.475 88.7283L213.015 95.0879L197.451 98.2299L177.375 100.984L167.346 102.422C159.355 103.24 151.116 103.378 143.223 104.875C141.666 105.17 139.764 105.746 138.413 106.584C129.568 112.071 125.44 122.835 122.204 132.262C120.033 138.575 118.563 145.244 117.29 151.793C116.875 153.928 116.764 156.213 116.253 158.306L115.5 164.287C115.391 165.262 115.459 166.254 115.244 167.208C114.944 168.539 115.094 170.126 115.085 171.492L115.05 180.982L402.866 180.449L402.907 180.17C403.264 177.828 403.614 174.506 405.705 173.036C406.679 172.352 407.779 171.937 408.962 171.803C411.366 171.532 413.948 171.7 416.368 171.717L428.183 171.743L438.625 171.676C440.963 171.627 443.693 171.097 445.97 171.625C447.445 171.967 448.366 172.729 449.101 174.052C450.124 175.896 450.617 178.616 450.813 180.706L462.733 180.71C464.815 180.733 466.974 180.649 469.033 180.965C470.829 181.241 472.657 181.142 474.469 181.505C480.719 182.757 487.058 186.503 490.882 191.648C493.243 194.825 494.76 197.752 495.827 201.554C496.216 202.94 496.187 204.329 496.294 205.75C496.618 210.038 496.418 214.422 496.411 218.725L496.411 240.564L496.432 338.01L496.435 406.193L496.456 427.029C496.471 430.923 496.7 434.964 496.422 438.845C496.154 442.6 494.516 446.381 492.629 449.591C488.66 456.347 481.463 460.187 474.07 462.009C469.05 463.246 463.34 463.228 458.18 463.243L442.22 463.26L399.091 463.269L216.884 463.259L92.3524 463.278L58.7676 463.268C51.8366 463.264 44.3152 463.852 37.5 462.578L37.0308 462.495C30.3824 461.28 24.2986 456.523 20.5821 451.011C18.383 447.749 17.0506 444.276 15.9394 440.538C15.382 438.663 15.3077 436.66 15.1977 434.717L15.0649 423.373L15.0613 404.138L15.0615 337.568L15.0592 253.53L15.0605 226.216C15.0608 221.72 14.8397 217.105 15.0922 212.625C15.4307 206.619 15.9075 199.875 18.8811 194.52C22.5431 187.925 27.9874 184.504 35.125 182.502C41.9834 180.579 49.2492 180.642 56.3171 180.678C58.5227 180.689 61.088 180.953 63.25 180.682C63.9223 180.598 64.3766 180.411 64.7234 179.815C66.2159 177.251 65.2182 175.086 68.75 174.039C69.2099 173.902 69.6502 173.867 70.125 173.827L70.5522 173.788L99.2525 174.069L100.041 174.065C100.576 172.743 100.48 171.394 100.493 169.994C100.57 161.985 101.846 154.154 103.085 146.261L105.385 135.871ZM34.2962 198.931C29.6894 203.471 30.1617 210.238 30.1192 216.184L30.3453 349.963L30.1732 404.435L30.5156 436.243C30.6586 438.85 32.2521 442.64 34.2236 444.385L36.5485 446.013C38.3824 447.186 40.3722 447.193 42.3871 447.737C43.0985 447.731 43.8599 447.942 44.5822 447.987L52.218 448.262L114.25 448.258L345.931 448.26L423.972 448.264L466.133 448.138C470.873 447.957 475.169 446.647 478.375 442.971C480.296 440.767 481.562 438.172 481.781 435.25C482.135 430.505 481.844 425.562 481.833 420.799L481.778 392.577L481.774 305.271L482.023 239.321L482.021 221.166C482.021 217.799 482.223 214.265 481.91 210.915C481.504 206.573 480.65 201.414 476.875 198.639C474.05 196.561 470.023 195.854 466.601 195.759L432.912 195.699L368.854 195.7L172.921 195.703L81.6345 195.701L56.1239 195.698C52.0915 195.698 47.4179 195.249 43.4769 195.925C39.9174 196.535 37.4492 197.065 34.2962 198.931ZM42.3871 447.737C40.3722 447.193 38.3824 447.186 36.5485 446.013L34.2236 444.385C32.2521 442.64 30.6586 438.85 30.5156 436.243L30.1732 404.435L30.3453 349.963L30.1192 216.184C30.1617 210.238 29.6894 203.471 34.2962 198.931L34.0804 198.723C33.7697 198.438 33.9065 198.533 33.5228 198.376L33.3717 198.541C33.0612 198.853 33.2385 198.679 32.849 198.922C32.291 199.271 32.1325 199.861 31.9212 200.453L31.7841 200.53L31.5918 200.375L30.5295 202C29.9513 202.893 30.1789 204.026 29.8488 204.926C28.9778 207.299 28.9385 210.29 28.6183 212.835L28.6875 213.438L28.6322 213.732C28.2675 215.782 28.4838 218.24 28.4557 220.334L28.4027 236.978L28.484 260.546C28.5022 264.743 28.2437 269.152 28.6875 273.312C28.8869 275.181 28.5645 277.056 28.6338 278.923L29.1282 301.952L29.1404 368.48L28.8301 403.289C28.8314 407.486 28.4005 411.844 28.6887 416C28.8643 418.532 28.4676 421.076 28.75 423.625C29.1061 426.84 28.5876 430.194 29.0696 433.392C29.2982 434.909 29.5161 436.738 29.2757 438.25C29.5798 438.81 29.6265 438.903 29.7267 439.5L29.9707 440.053C30.1488 440.434 30.2764 440.72 30.3096 441.144L30.75 441.125C30.5806 442.565 32.2759 443.713 32.625 445.123L32.997 445.157C33.2355 445.199 33.2844 445.253 33.4918 445.375L33.6875 445.874L34.4152 446.125L34.625 446.873L35 446.763L35.1983 446.861C35.6921 447.1 36.0669 447.277 36.6262 447.312L36.75 447.636C38.0694 448.149 38.8118 448.288 40.2079 447.78C40.6293 447.627 41.0363 447.723 41.4722 447.763C41.791 447.792 42.0704 447.78 42.3871 447.737ZM116.253 158.306C116.764 156.213 116.875 153.928 117.29 151.793C118.563 145.244 120.033 138.575 122.204 132.262C121.868 131.814 121.536 131.401 121.326 130.875C120.958 131.915 120.488 132.731 120.321 133.841C120.173 134.832 119.578 135.656 119.453 136.678C119.317 137.794 118.805 138.799 118.515 139.875C118.259 140.823 118.253 141.747 117.78 142.63C117.191 143.728 117.793 145.248 117.127 146.25L117.124 146.49C117.112 147.104 117.036 147.294 116.877 147.875L116.824 149.506L116.523 149.251C116.339 150.12 116.582 151.317 116.127 152C116.126 152.619 116.23 152.969 115.877 153.5C115.877 154.228 115.726 155.148 116.127 155.75L116.253 158.306ZM105.385 135.871L103.085 146.261C103.269 146.294 103.431 146.502 103.571 146.626L103.832 146.33L104.101 146.423L104.229 145.75C104.488 145.029 104.485 144.387 104.73 143.673C105.1 142.594 105.576 140.688 105.619 139.565L105.625 139.199C106.053 138.53 106.181 137.405 106.373 136.625C105.87 136.338 106.028 136.467 105.637 136.11L105.385 135.871ZM99.2525 174.069C99.0568 174.257 98.9207 174.541 98.6655 174.634C98.0479 174.86 96.1968 174.62 95.4728 174.621L84.6178 174.653C82.4746 174.662 80.1959 174.516 78.0869 174.904C78.8778 175.317 98.1033 175.338 99.9425 174.904C100.01 174.598 100.049 174.382 100.041 174.065L99.2525 174.069Z"/>
	<path d="M99.2525 174.069L100.041 174.065C100.049 174.382 100.01 174.598 99.9425 174.904C98.1033 175.338 78.8778 175.317 78.0869 174.904C80.1959 174.516 82.4746 174.662 84.6178 174.653L95.4728 174.621C96.1968 174.62 98.0479 174.86 98.6655 174.634C98.9207 174.541 99.0568 174.257 99.2525 174.069Z"/>
	<path d="M105.385 135.871L105.637 136.11C106.028 136.467 105.87 136.338 106.373 136.625C106.181 137.405 106.053 138.53 105.625 139.199L105.619 139.565C105.576 140.688 105.1 142.594 104.73 143.673C104.485 144.387 104.488 145.029 104.229 145.75L104.101 146.423L103.832 146.33L103.571 146.626C103.431 146.502 103.269 146.294 103.085 146.261L105.385 135.871Z"/>
	<path d="M116.253 158.306L116.127 155.75C115.726 155.148 115.877 154.228 115.877 153.5C116.23 152.969 116.126 152.619 116.127 152C116.582 151.317 116.339 150.12 116.523 149.251L116.824 149.506L116.877 147.875C117.036 147.294 117.112 147.104 117.124 146.49L117.127 146.25C117.793 145.248 117.191 143.728 117.78 142.63C118.253 141.747 118.259 140.823 118.515 139.875C118.805 138.799 119.317 137.794 119.453 136.678C119.578 135.656 120.173 134.832 120.321 133.841C120.488 132.731 120.958 131.915 121.326 130.875C121.536 131.401 121.868 131.814 122.204 132.262C120.033 138.575 118.563 145.244 117.29 151.793C116.875 153.928 116.764 156.213 116.253 158.306Z"/>
	<path d="M42.3871 447.737C42.0704 447.78 41.791 447.792 41.4722 447.763C41.0363 447.723 40.6293 447.627 40.2079 447.78C38.8118 448.288 38.0694 448.149 36.75 447.636L36.6262 447.312C36.0669 447.277 35.6921 447.1 35.1983 446.861L35 446.763L34.625 446.873L34.4152 446.125L33.6875 445.874L33.4918 445.375C33.2844 445.253 33.2355 445.199 32.997 445.157L32.625 445.123C32.2759 443.713 30.5806 442.565 30.75 441.125L30.3096 441.144C30.2764 440.72 30.1488 440.434 29.9707 440.053L29.7267 439.5C29.6265 438.903 29.5798 438.81 29.2757 438.25C29.5161 436.738 29.2982 434.909 29.0696 433.392C28.5876 430.194 29.1061 426.84 28.75 423.625C28.4676 421.076 28.8643 418.532 28.6887 416C28.4005 411.844 28.8314 407.486 28.8301 403.289L29.1404 368.48L29.1282 301.952L28.6338 278.923C28.5645 277.056 28.8869 275.181 28.6875 273.312C28.2437 269.152 28.5022 264.743 28.484 260.546L28.4027 236.978L28.4557 220.334C28.4838 218.24 28.2675 215.782 28.6322 213.732L28.6875 213.438L28.6183 212.835C28.9385 210.29 28.9778 207.299 29.8488 204.926C30.1789 204.026 29.9513 202.893 30.5295 202L31.5918 200.375L31.7841 200.53L31.9212 200.453C32.1325 199.861 32.291 199.271 32.849 198.922C33.2385 198.679 33.0612 198.853 33.3717 198.541L33.5228 198.376C33.9065 198.533 33.7697 198.438 34.0804 198.723L34.2962 198.931C29.6894 203.471 30.1617 210.238 30.1192 216.184L30.3453 349.963L30.1732 404.435L30.5156 436.243C30.6586 438.85 32.2521 442.64 34.2236 444.385L36.5485 446.013C38.3824 447.186 40.3722 447.193 42.3871 447.737Z"/>
	<path d="M269.399 365.295C268.487 367.674 266.593 369.426 264.503 370.78C260.926 373.098 256.642 374.235 252.398 373.291C248.496 372.422 245.23 370.266 243.169 366.792C241.2 363.472 240.345 358.982 241.381 355.216L241.513 354.75C241.824 353.603 242.212 352.552 242.775 351.5C244.853 347.62 248.037 345.896 252 344.52C253.772 343.905 255.67 343.862 257.522 344.17C261.54 344.837 264.563 345.859 267.285 349.046C268.723 350.729 269.521 352.649 270.248 354.716C270.643 357.709 271.255 362.328 269.627 365.049L269.399 365.295ZM270.248 354.716L269.377 355.5C269.394 357.572 269.617 359.859 269.134 361.875L268.48 364.125L268.241 365.25L268.647 365.647L269.115 365.03L269.399 365.295L269.627 365.049C271.255 362.328 270.643 357.709 270.248 354.716Z"/>
	<path d="M270.248 354.716C270.643 357.709 271.255 362.328 269.627 365.049L269.399 365.295L269.115 365.03L268.647 365.647L268.241 365.25L268.48 364.125L269.134 361.875C269.617 359.859 269.394 357.572 269.377 355.5L270.248 354.716Z"/>
	<path d="M291.073 270.628C296.062 270.113 301.36 270.429 306.37 270.562C308.557 270.62 311.781 270.44 313.847 271.148C314.631 271.417 315.06 271.936 315.428 272.661C316.151 274.084 316.385 276.175 315.786 277.68C315.278 278.958 314.572 279.94 313.281 280.471L313.017 280.574C312.455 280.8 311.947 280.95 311.334 280.968C308.971 281.038 306.56 280.745 304.183 280.719L286.469 280.694L220.125 280.688L199.39 280.667C198.003 280.509 197.014 280.091 196.18 278.945C195.214 277.616 195.061 275.906 195.39 274.339L195.466 274C195.668 273.038 196.017 272.33 196.696 271.611C197.225 271.051 198.318 270.842 199.045 270.777C202.247 270.492 205.684 270.738 208.909 270.742L226.698 270.697L291.073 270.628Z"/>
	<path d="M200.154 226.055C203.104 225.597 206.408 226.05 209.436 226.054L231.82 226.051L305.678 226.061C308.334 226.025 312.82 225.406 315.141 226.633C316.023 227.099 316.848 228.168 317.123 229.125C317.589 230.753 317.668 232.371 316.785 233.875C315.909 235.366 314.727 236.045 313.08 236.405C311.747 236.696 310.21 236.548 308.844 236.546L300.71 236.525L263.295 236.285L217.72 236.531L199.75 236.478C198.692 236.425 197.457 236.019 196.598 235.398C195.566 234.653 194.985 233.69 194.814 232.439C194.613 230.97 194.647 229.663 195.625 228.465C196.703 227.143 198.465 226.23 200.154 226.055ZM200.154 226.055C200.608 226.224 201.028 226.39 201.499 226.501L201.501 226.907C202.387 227.028 203.229 227.149 204.125 227.127L219.2 227.211L286.661 227.127L306.753 227.055C309.046 227.027 311.701 227.323 313.939 226.926L313.586 226.587L300.241 226.61C297.304 226.602 294.165 226.796 291.251 226.449C292.749 226.223 294.392 226.353 295.907 226.349L304.958 226.332C305.579 226.332 305.36 226.464 305.678 226.061L231.82 226.051L209.436 226.054C206.408 226.05 203.104 225.597 200.154 226.055Z"/>
	<path d="M200.154 226.055C203.104 225.597 206.408 226.05 209.436 226.054L231.82 226.051L305.678 226.061C305.36 226.464 305.579 226.332 304.958 226.332L295.907 226.349C294.392 226.353 292.749 226.223 291.251 226.449C294.165 226.796 297.304 226.602 300.241 226.61L313.586 226.587L313.939 226.926C311.701 227.323 309.046 227.027 306.753 227.055L286.661 227.127L219.2 227.211L204.125 227.127C203.229 227.149 202.387 227.028 201.501 226.907L201.499 226.501C201.028 226.39 200.608 226.224 200.154 226.055Z"/>
	<path d="M51.3414 318.729C52.4762 314.544 54.3036 310.597 56.283 306.75C63.4704 292.781 74.7343 281.353 88.3356 273.545C99.2766 267.265 112.705 263.347 125.335 262.775C127.48 262.678 129.613 262.889 131.75 263.005C138.61 263.376 145.298 264.17 151.956 265.959C165.308 269.546 178.27 276.816 187.976 286.715C192.81 291.645 197.101 297.655 200.535 303.633C206.999 314.888 209.627 327.807 210.077 340.625C210.358 348.664 209.79 357.043 207.617 364.838C207.231 366.22 206.891 367.957 206.244 369.221L206.108 369.54C205.515 372.438 204.191 375.426 202.993 378.125C200.534 383.664 197.564 388.814 193.934 393.681C181.173 410.793 162.643 421.508 141.528 424.346C119.875 427.257 98.2037 422.908 80.6621 409.475C62.7485 395.758 50.9183 376.233 47.9135 353.816C47.4183 351.271 47.4502 348.71 47.3852 346.126C47.275 341.738 47.1158 336.531 48.2221 332.268L48.2809 331.957C48.3265 329.292 49.0889 326.564 49.7597 324.003C50.2219 322.238 50.5728 320.392 51.3414 318.729ZM125.491 277.888C122.358 278.267 119.149 278.497 116.058 279.125C100.707 282.242 86.3679 290.499 76.6439 302.92C67.5148 314.58 62.5804 329.422 62.493 344.16C62.4786 346.582 62.3883 349.055 62.7021 351.461C64.7013 366.791 71.9742 380.376 83.0411 391.105C84.898 392.906 86.8323 394.82 88.8952 396.375C99.12 404.085 110.707 409.27 123.537 410.436C126.537 410.709 129.79 410.452 132.813 410.425C150.059 409.721 167.097 400.743 178.615 388.177C182.94 383.458 186.086 378.502 189.059 372.87C190.893 369.395 192.181 365.26 193.167 361.464C196.483 348.706 196.064 335.661 192.077 323.104C188.546 311.981 182.118 302.156 173.454 294.363C171.152 292.293 168.639 290.137 166 288.516C155.772 282.233 145.23 278.714 133.234 277.951C130.712 277.791 128 277.516 125.491 277.888ZM48.2221 332.268C47.1158 336.531 47.275 341.738 47.3852 346.126C47.4502 348.71 47.4183 351.271 47.9135 353.816L48.0973 352.526C48.4043 352.602 48.2264 352.604 48.609 352.375L48.5255 341.195C48.5252 339.411 48.9772 337.001 48.5091 335.294C48.3789 334.82 48.2801 334.687 48.2903 334.168L48.2221 332.268ZM51.3414 318.729C50.5728 320.392 50.2219 322.238 49.7597 324.003C49.0889 326.564 48.3265 329.292 48.2809 331.957C48.3897 332.083 48.5375 332.704 48.5901 332.875L48.9375 331.812L49.0625 332.7L49.2185 332.125L51.2061 322.875C51.3025 322.549 51.4181 322.291 51.4676 321.95C51.5421 321.436 51.5862 321.039 51.7992 320.554C52.0203 320.051 52.2624 319.567 52.3944 319.028C52.5474 318.404 52.7207 317.929 52.375 317.377C52.1534 317.786 52.1962 318.162 52.1713 318.625L51.3414 318.729ZM206.108 369.54L206.244 369.221L206.102 368.96C205.931 368.61 205.902 368.379 205.875 368L205.625 369.25L205.572 368.97C205.512 368.674 205.435 368.409 205.338 368.125L204.743 369.398C204.471 369.915 204.434 370.465 204.35 371.034C204.28 371.502 204.319 371.308 204.135 371.825C204.336 372.069 204.445 372.219 204.725 372.375L205.163 371.007C205.296 370.631 205.246 370.768 205.265 370.251L205.675 369.607L206.108 369.54Z"/>
	<path d="M206.108 369.54L205.675 369.607L205.265 370.251C205.246 370.768 205.296 370.631 205.163 371.007L204.725 372.375C204.445 372.219 204.336 372.069 204.135 371.825C204.319 371.308 204.28 371.502 204.35 371.034C204.434 370.465 204.471 369.915 204.743 369.398L205.338 368.125C205.435 368.409 205.512 368.674 205.572 368.97L205.625 369.25L205.875 368C205.902 368.379 205.931 368.61 206.102 368.96L206.244 369.221L206.108 369.54Z"/>
	<path d="M51.3414 318.729L52.1713 318.625C52.1962 318.162 52.1534 317.786 52.375 317.377C52.7207 317.929 52.5474 318.404 52.3944 319.028C52.2624 319.567 52.0203 320.051 51.7992 320.554C51.5862 321.039 51.5421 321.436 51.4676 321.95C51.4181 322.291 51.3025 322.549 51.2061 322.875L49.2185 332.125L49.0625 332.7L48.9375 331.812L48.5901 332.875C48.5375 332.704 48.3897 332.083 48.2809 331.957C48.3265 329.292 49.0889 326.564 49.7597 324.003C50.2219 322.238 50.5728 320.392 51.3414 318.729Z"/>
	<path d="M48.2221 332.268L48.2903 334.168C48.2801 334.687 48.3789 334.82 48.5091 335.294C48.9772 337.001 48.5252 339.411 48.5255 341.195L48.609 352.375C48.2264 352.604 48.4043 352.602 48.0973 352.526L47.9135 353.816C47.4183 351.271 47.4502 348.71 47.3852 346.126C47.275 341.738 47.1158 336.531 48.2221 332.268Z"/>
	<path d="M119.648 300.246L120.635 300.066C124.131 299.434 127.322 299.464 130.875 299.487C133.501 299.504 136.546 299.431 139.068 300.253C139.862 300.162 141.175 300.638 141.954 300.857C146.341 302.089 150.355 304.159 154.147 306.66C162.666 312.277 170.72 322.922 172.731 333.046C174.485 341.877 173.974 352.373 170.641 360.789C169.272 364.247 167.536 367.084 165.479 370.151C159.418 379.193 149.13 385.554 138.5 387.483C127.413 389.494 114.093 388.1 104.658 381.534C95.4464 375.124 87.391 364.857 85.4617 353.565C85.1143 351.531 84.6759 349.302 84.5248 347.254C83.7607 336.899 86.7795 325.69 92.9547 317.308C99.2783 308.725 108.963 301.908 119.648 300.246ZM111.058 320.445C108.692 322.182 106.447 324.423 104.875 326.915C104.073 328.186 103.385 329.575 102.714 330.918C102.612 331.124 102.316 331.896 102.139 332.016C101.739 332.993 101.294 333.987 101.044 335.015C100.462 337.413 99.8258 340.127 99.6719 342.575C99.3026 348.445 100.955 354.986 104.011 360C107.984 366.518 114.409 370.954 121.78 372.648C129.857 374.504 138.844 372.672 145.832 368.26C151.88 364.442 156.182 358.504 157.732 351.509C159.716 342.563 157.959 334.023 152.967 326.371C149.073 320.402 142.119 316.296 135.223 314.952C126.993 313.348 117.866 315.763 111.058 320.445ZM102.139 332.016C102.316 331.896 102.612 331.124 102.714 330.918C103.385 329.575 104.073 328.186 104.875 326.915C106.447 324.423 108.692 322.182 111.058 320.445C110.908 319.883 111.012 319.844 110.501 319.501C109.956 319.777 109.794 320.008 109.419 320.473C109.158 320.797 108.832 320.938 108.468 321.125C108.269 321.618 108.369 321.573 107.888 321.856C107.37 322.162 107.377 322.363 107.001 322.751C106.622 323.143 105.991 323.799 105.522 324.001L105.332 324.318C105.081 324.699 104.942 324.8 104.551 325.001L104.424 325.345C104.273 325.723 104.134 325.942 103.88 326.25L103.846 326.598L103.555 326.501L103.451 326.711C103.241 327.125 103.089 327.445 102.759 327.777C102.401 328.137 102.431 328.439 102.217 328.875C101.948 329.423 101.684 329.778 101.471 330.366L100.881 331.75L101.375 332.478L101.669 332.081L102.139 332.016ZM119.648 300.246C121.034 300.24 122.304 300.608 123.646 300.626L134.726 300.607C136.193 300.567 137.59 300.281 139.068 300.253C136.546 299.431 133.501 299.504 130.875 299.487C127.322 299.464 124.131 299.434 120.635 300.066L119.648 300.246Z"/>
	<path d="M119.648 300.246L120.635 300.066C124.131 299.434 127.322 299.464 130.875 299.487C133.501 299.504 136.546 299.431 139.068 300.253C137.59 300.281 136.193 300.567 134.726 300.607L123.646 300.626C122.304 300.608 121.034 300.24 119.648 300.246Z"/>
	<path d="M102.139 332.016L101.669 332.081L101.375 332.478L100.881 331.75L101.471 330.366C101.684 329.778 101.948 329.423 102.217 328.875C102.431 328.439 102.401 328.137 102.759 327.777C103.089 327.445 103.241 327.125 103.451 326.711L103.555 326.501L103.846 326.598L103.88 326.25C104.134 325.942 104.273 325.723 104.424 325.345L104.551 325.001C104.942 324.8 105.081 324.699 105.332 324.318L105.522 324.001C105.991 323.799 106.622 323.143 107.001 322.751C107.377 322.363 107.37 322.162 107.888 321.856C108.369 321.573 108.269 321.618 108.468 321.125C108.832 320.938 109.158 320.797 109.419 320.473C109.794 320.008 109.956 319.777 110.501 319.501C111.012 319.844 110.908 319.883 111.058 320.445C108.692 322.182 106.447 324.423 104.875 326.915C104.073 328.186 103.385 329.575 102.714 330.918C102.612 331.124 102.316 331.896 102.139 332.016Z"/>
	<path d="M374.115 263.22C379.266 262.103 385.667 262.628 390.904 263.101L396.214 263.686C404.827 265.087 413.434 267.736 421.139 271.875C425.368 274.146 429.293 276.947 433.218 279.695C436.036 281.667 438.626 284.231 441.034 286.682C452.578 298.435 460.485 313.352 463.25 329.62C466.919 351.204 462.435 372.645 449.706 390.548C436.989 408.435 417.155 421.145 395.375 424.448C374.445 427.622 352.648 423.33 335.621 410.364C317.818 396.807 304.946 377.36 301.931 354.934C301.467 351.487 301.459 348.181 301.467 344.71C301.472 342.622 301.353 340.388 301.694 338.328C302.479 333.59 302.762 328.867 303.889 324.146C308.28 305.754 319.153 288.767 334.458 277.612C345.945 269.238 359.963 264.299 374.115 263.22ZM379.657 277.893C373.769 278.558 367.94 279.25 362.25 281.001C351.12 284.425 339.557 291.051 332.239 300.276C329.713 303.461 327.251 306.681 325.317 310.273C320.473 319.275 317.732 329.492 316.8 339.643C316.448 343.474 316.249 347.361 316.705 351.191C317.638 359.036 319.499 366.472 323.056 373.578C327.825 383.104 335.4 390.902 343.725 397.396C346.491 399.554 349.687 401.244 352.808 402.816C361.026 406.954 369.718 409.654 378.93 410.356C381.456 410.549 384.03 410.463 386.563 410.438C390.65 410.349 394.573 409.529 398.512 408.515C410.556 405.416 421.53 399.218 430.184 390.219C443.235 376.644 449.907 359.522 449.426 340.724C449.008 324.394 440.625 307.184 428.89 296.03C416.53 284.282 398.795 277.273 381.71 277.774L379.657 277.893ZM374.115 263.22C375.293 263.447 376.589 263.313 377.79 263.353C378.197 263.367 378.283 263.537 378.625 263.598C380.299 263.897 382.528 263.52 384.293 263.562C385.28 263.586 386.451 263.752 387.41 263.516C388.564 263.232 389.712 263.435 390.904 263.101C385.667 262.628 379.266 262.103 374.115 263.22Z"/>
	<path d="M374.115 263.22C379.266 262.103 385.667 262.628 390.904 263.101C389.712 263.435 388.564 263.232 387.41 263.516C386.451 263.752 385.28 263.586 384.293 263.562C382.528 263.52 380.299 263.897 378.625 263.598C378.283 263.537 378.197 263.367 377.79 263.353C376.589 263.313 375.293 263.447 374.115 263.22Z"/>
	<path d="M425.122 358.294C423.248 365.975 416.719 374.441 410.555 379.227C401.932 385.921 389.369 389.785 378.458 388.337C370.541 387.286 364.007 385.301 357.393 380.629C347.377 373.555 340.508 362.954 338.569 350.849C336.637 338.791 339.938 326.132 347.192 316.373C353.876 307.381 364.452 301.422 375.451 299.765C387.81 297.904 399.957 300.865 410.038 308.177C414.057 311.092 417.615 315.079 420.399 319.181C427.067 329.007 428.843 341.707 426.627 353.265C426.205 354.974 425.852 356.683 425.122 358.294ZM383.371 314.367C377.212 314.721 371.984 316.057 366.534 318.974C361.317 321.768 356.675 327.923 355.045 333.557C353.58 338.616 352.986 343.639 353.821 348.875C354.125 350.783 354.64 352.46 355.153 354.307C356.885 360.551 363.221 367.095 368.775 370.119C373.118 372.483 378.049 373.344 382.944 373.304C389.987 373.162 398.288 370.078 403.202 364.86C408.275 359.473 410.933 353.879 412.084 346.599C412.611 343.269 412.292 339.187 411.265 336C408.462 327.298 403.867 321.5 395.787 317.088C394.06 316.145 391.913 315.502 390 315.059C387.71 314.529 385.694 314.518 383.371 314.367ZM425.122 358.294C425.852 356.683 426.205 354.974 426.627 353.265L425.501 352.751C425.068 353.609 424.948 354.312 424.657 355.211C424.374 356.085 424.49 357.037 424.137 357.875L424.247 358.5L424.444 358.522L424.866 358.104L425.122 358.294Z"/>
	<defs>
		<linearGradient id="gradient_0" gradientUnits="userSpaceOnUse" x1="424.02802" y1="356.79504" x2="425.42288" y2="356.10565">
			<stop offset="0" stop-color="black" stop-opacity="0.93333334"/>
			<stop offset="1" stop-color="black" stop-opacity="0.96470588"/>
		</linearGradient>
	</defs>
	<path fill="url(#gradient_0)" d="M425.122 358.294L424.866 358.104L424.444 358.522L424.247 358.5L424.137 357.875C424.49 357.037 424.374 356.085 424.657 355.211C424.948 354.312 425.068 353.609 425.501 352.751L426.627 353.265C426.205 354.974 425.852 356.683 425.122 358.294Z"/>
</svg>
