<?xml version="1.0" encoding="utf-8" ?>
<svg xmlns="http://www.w3.org/2000/svg" xmlns:xlink="http://www.w3.org/1999/xlink" width="512" height="512">
	<path d="M23.5699 175.304C28.3555 161.296 34.7062 148.006 41.9133 135.111C65.5645 92.7972 102.669 56.9306 146.25 35.4725C179.817 18.945 217.597 9.78383 255 9.49129C259.814 9.45363 264.728 9.34812 269.534 9.63869C291.696 10.9787 313.927 15.398 334.93 22.6134C386.538 40.3429 431.741 75.7011 461.709 121.261C466.965 129.252 471.965 137.386 476.159 145.996C482.106 158.21 487.289 170.284 491.461 183.229C492.355 186.001 493.684 189.241 493.989 192.116C497.805 204.866 500.115 218.49 501.346 231.728C501.745 236.023 501.755 240.45 502.355 244.717C502.61 246.528 502.506 248.489 502.523 250.317L502.283 261.5L502.155 268.256C501.604 277.604 500.476 287.006 498.982 296.25C498.781 297.494 498.799 299.449 498.246 300.523L496.391 310.307C493.956 319.222 491.794 328.125 488.753 336.875C480.328 361.117 467.743 384.599 451.994 404.875C444.372 414.688 436.074 424.232 427.121 432.859L421.191 438.132C397.008 459.948 369.067 476.837 338.386 487.845C326.653 492.054 314.557 495.18 302.351 497.663C293.816 499.4 285.068 500.443 276.405 501.309C273.847 501.565 271.242 501.441 268.698 501.786L268.306 501.842C266.313 502.116 264.215 501.932 262.202 502.003C254.339 502.278 246.76 502.173 238.906 501.576C189.528 497.822 142.112 479.245 103.187 448.669C97.2614 444.014 91.8434 439.035 86.3994 433.845C76.6406 424.539 67.4924 414.72 59.3065 403.983C33.8391 370.577 16.9001 329.649 11.8628 287.932C11.4143 286.06 11.3814 284.06 11.2491 282.143L11.2089 281.532C10.7237 280.159 10.853 278.246 10.6329 276.773C10.3959 275.187 10.4258 273.57 10.3232 271.971L10.0352 257.582L10.2744 243.701C10.3756 241.525 10.3799 239.316 10.7278 237.164L12.1975 222.3C12.6087 219.428 12.8549 216.085 13.682 213.336C13.7947 211.027 14.5731 208.355 15.0487 206.083C16.8655 197.4 19.1149 188.884 21.8504 180.445L23.5699 175.304ZM31.227 203.079L28.2475 218.286L25.7743 239.588C24.9711 244.676 26.1468 250.093 25.4166 255.13C25.2512 256.271 25.5232 257.659 25.53 258.84L26.0876 274.25C28.2965 308.435 39.4688 342.769 56.8354 372.212C61.0916 379.428 65.6376 386.562 70.7083 393.241C80.0478 405.543 90.5611 417.24 102.086 427.542C136.448 458.26 180.709 479.274 226.5 485.297C287.288 493.293 348.752 475.438 397.118 438.103C431.598 411.486 458.283 375.644 473.151 334.631L480.196 312C480.964 309.075 481.306 305.804 482.309 302.985L483.694 295.637C493.117 244.376 483.08 189.734 457.772 144.357C449.84 130.134 440.534 116.925 429.859 104.642L423.906 97.6348C400.315 72.4935 370.522 52.9405 338.48 40.3847C329.279 36.7794 319.878 34.0742 310.383 31.4026C303.689 29.5192 296.505 28.4309 289.639 27.3625C240.65 19.7388 189.436 28.9628 146.179 53.2229C101.361 78.3583 64.3342 117.689 43.9026 165.043C40.6531 172.574 37.5624 180.508 35.2531 188.375L31.227 203.079ZM493.989 192.116C493.273 193.098 493.347 193.539 493.377 194.75L493.625 195.122L493.877 195C493.877 195.678 493.812 195.9 494.127 196.5L494.251 196.999L494.328 197.32C494.447 197.913 494.341 197.325 494.288 197.999C494.229 198.748 494.501 199.879 494.937 200.46C495.433 201.121 495.341 202.675 495.55 203.498L495.749 203.499L495.877 203.625C495.877 204.31 495.84 204.4 496.127 205C496.601 205.99 496.154 207.387 496.625 208.373L496.873 208C496.874 208.593 496.967 208.74 496.627 209.25L496.867 209.578C497.867 211.077 496.913 212.95 497.47 214.375C497.634 214.797 497.857 214.777 497.872 215.281C497.884 215.695 497.983 215.762 498.127 216.125C498.974 218.243 498.046 220.775 499.07 223.083C499.625 224.334 499.323 226.88 499.43 228.348C499.552 230.023 500.126 231.202 500.292 232.827C500.632 236.164 500.129 239.587 500.922 242.907C501.779 246.493 501.495 250.54 501.487 254.211C501.477 259.148 501.701 264.742 500.702 269.588C500.138 272.329 500.736 275.256 500.178 278L499.877 279.625L499.875 280.377L499.627 280.75C499.627 281.345 499.536 281.488 499.877 282L499.873 283.625L499.625 283.377C499.338 284.702 499.482 286.035 499.182 287.37C499.056 287.93 499.05 288.315 498.877 288.875L498.873 291.375L498.625 291.127C498.232 292.546 498.219 294.071 497.931 295.523C497.735 296.513 497.776 297.863 498.127 298.75C498.305 299.197 498.236 300.035 498.246 300.523C498.799 299.449 498.781 297.494 498.982 296.25C500.476 287.006 501.604 277.604 502.155 268.256L502.283 261.5L502.523 250.317C502.506 248.489 502.61 246.528 502.355 244.717C501.755 240.45 501.745 236.023 501.346 231.728C500.115 218.49 497.805 204.866 493.989 192.116ZM11.2089 281.532C11.3551 280.91 11.2622 280.235 11.3151 279.596C11.5354 276.933 12.0389 273.772 11.3148 271.107L11.1364 272.407L11.1225 242.75C10.5065 241.823 10.8207 238.451 10.7278 237.164C10.3799 239.316 10.3756 241.525 10.2744 243.701L10.0352 257.582L10.3232 271.971C10.4258 273.57 10.3959 275.187 10.6329 276.773C10.853 278.246 10.7237 280.159 11.2089 281.532ZM28.2475 218.286L31.227 203.079L30.7135 200.346C30.4036 200.596 30.5409 200.414 30.4623 200.942C30.317 201.92 29.9355 202.845 29.6888 203.8C29.446 204.74 29.4362 205.702 29.2302 206.646C28.7726 208.744 28.0833 210.958 28.125 213.127L27.8775 213.5C27.8775 214.228 27.7264 215.148 28.1275 215.75L28.2475 218.286ZM496.391 310.307L498.246 300.523L498.109 300.196C497.833 299.417 497.931 298.537 497.661 297.688L497.177 300.687C496.985 301.507 497.005 302.38 496.873 303.216L496.688 302.104L496.075 305.087C495.967 305.488 495.856 305.614 495.552 305.875C495.463 307.384 495.489 308.931 495.127 310.375L495.127 311.125L495.452 311.155C496.064 310.346 496.115 309.899 496.125 308.896C496.537 309.485 496.244 309.674 496.391 310.307ZM13.682 213.336C12.8549 216.085 12.6087 219.428 12.1975 222.3L12.5883 223.499L12.875 222.75L13.0913 223.37C13.1294 222.552 13.4067 221.892 13.5136 221.095L14.8658 212.625L14.4412 212.588C14.2575 213.013 14.1202 213.315 14.121 213.788L14.1088 215.172L13.7178 215.125C13.8053 214.451 13.8332 214.013 13.682 213.336ZM482.309 302.985C482.627 303.468 482.707 303.736 482.702 304.302C482.698 304.711 482.677 304.817 482.834 305.209C483.471 303.386 483.907 301.138 484.129 299.215C484.148 299.052 484.292 298.262 484.241 298.125C484.163 297.915 483.867 297.836 483.791 297.625C483.64 297.205 483.718 296.119 483.694 295.637L482.309 302.985ZM23.5699 175.304L21.8504 180.445C22.1644 181.039 22.108 181.719 22.1275 182.375L22.3988 182.402C23.1394 180.267 24.418 177.482 24.6225 175.25L24.2796 175.026C24.1845 175.514 24.2375 175.635 23.875 176L23.5699 175.304ZM11.2491 282.143C11.3814 284.06 11.4143 286.06 11.8628 287.932L12.0632 287.376C12.3559 287.375 12.1906 287.399 12.5482 287.25C12.7339 285.703 12.5752 284.287 12.3949 282.75C11.8013 282.181 12.3494 281.506 11.6327 280.721L11.2491 282.143ZM489.332 330.875C488.837 332.144 488.487 333.353 488.124 334.656C488.053 334.911 488.049 335.134 488.046 335.396L488.391 335.145L488.625 335.471C488.809 335.072 488.867 334.783 488.99 334.375L489.183 333.933L489.195 333.125L489.505 332.75L489.99 331.875L489.562 331.626L489.332 330.875Z"/>
	<path d="M489.332 330.875L489.562 331.626L489.99 331.875L489.505 332.75L489.195 333.125L489.183 333.933L488.99 334.375C488.867 334.783 488.809 335.072 488.625 335.471L488.391 335.145L488.046 335.396C488.049 335.134 488.053 334.911 488.124 334.656C488.487 333.353 488.837 332.144 489.332 330.875Z"/>
	<path fill="#000001" fill-opacity="0.95686275" d="M11.2491 282.143L11.6327 280.721C12.3494 281.506 11.8013 282.181 12.3949 282.75C12.5752 284.287 12.7339 285.703 12.5482 287.25C12.1906 287.399 12.3559 287.375 12.0632 287.376L11.8628 287.932C11.4143 286.06 11.3814 284.06 11.2491 282.143Z"/>
	<path d="M23.5699 175.304L23.875 176C24.2375 175.635 24.1845 175.514 24.2796 175.026L24.6225 175.25C24.418 177.482 23.1394 180.267 22.3988 182.402L22.1275 182.375C22.108 181.719 22.1644 181.039 21.8504 180.445L23.5699 175.304Z"/>
	<path fill="#000001" fill-opacity="0.96470588" d="M482.309 302.985L483.694 295.637C483.718 296.119 483.64 297.205 483.791 297.625C483.867 297.836 484.163 297.915 484.241 298.125C484.292 298.262 484.148 299.052 484.129 299.215C483.907 301.138 483.471 303.386 482.834 305.209C482.677 304.817 482.698 304.711 482.702 304.302C482.707 303.736 482.627 303.468 482.309 302.985Z"/>
	<path fill="#000001" fill-opacity="0.96470588" d="M13.682 213.336C13.8332 214.013 13.8053 214.451 13.7178 215.125L14.1088 215.172L14.121 213.788C14.1202 213.315 14.2575 213.013 14.4412 212.588L14.8658 212.625L13.5136 221.095C13.4067 221.892 13.1294 222.552 13.0913 223.37L12.875 222.75L12.5883 223.499L12.1975 222.3C12.6087 219.428 12.8549 216.085 13.682 213.336Z"/>
	<defs>
		<linearGradient id="gradient_0" gradientUnits="userSpaceOnUse" x1="496.05756" y1="307.26431" x2="495.50055" y2="307.23837">
			<stop offset="0" stop-color="black" stop-opacity="0.95294118"/>
			<stop offset="1" stop-color="black" stop-opacity="0.98431373"/>
		</linearGradient>
	</defs>
	<path fill="url(#gradient_0)" d="M496.391 310.307C496.244 309.674 496.537 309.485 496.125 308.896C496.115 309.899 496.064 310.346 495.452 311.155L495.127 311.125L495.127 310.375C495.489 308.931 495.463 307.384 495.552 305.875C495.856 305.614 495.967 305.488 496.075 305.087L496.688 302.104L496.873 303.216C497.005 302.38 496.985 301.507 497.177 300.687L497.661 297.688C497.931 298.537 497.833 299.417 498.109 300.196L498.246 300.523L496.391 310.307Z"/>
	<path fill="#000001" fill-opacity="0.96470588" d="M28.2475 218.286L28.1275 215.75C27.7264 215.148 27.8775 214.228 27.8775 213.5L28.125 213.127C28.0833 210.958 28.7726 208.744 29.2302 206.646C29.4362 205.702 29.446 204.74 29.6888 203.8C29.9355 202.845 30.317 201.92 30.4623 200.942C30.5409 200.414 30.4036 200.596 30.7135 200.346L31.227 203.079L28.2475 218.286Z"/>
	<path fill="#000001" fill-opacity="0.95686275" d="M11.2089 281.532C10.7237 280.159 10.853 278.246 10.6329 276.773C10.3959 275.187 10.4258 273.57 10.3232 271.971L10.0352 257.582L10.2744 243.701C10.3756 241.525 10.3799 239.316 10.7278 237.164C10.8207 238.451 10.5065 241.823 11.1225 242.75L11.1364 272.407L11.3148 271.107C12.0389 273.772 11.5354 276.933 11.3151 279.596C11.2622 280.235 11.3551 280.91 11.2089 281.532Z"/>
	<path d="M493.989 192.116C497.805 204.866 500.115 218.49 501.346 231.728C501.745 236.023 501.755 240.45 502.355 244.717C502.61 246.528 502.506 248.489 502.523 250.317L502.283 261.5L502.155 268.256C501.604 277.604 500.476 287.006 498.982 296.25C498.781 297.494 498.799 299.449 498.246 300.523C498.236 300.035 498.305 299.197 498.127 298.75C497.776 297.863 497.735 296.513 497.931 295.523C498.219 294.071 498.232 292.546 498.625 291.127L498.873 291.375L498.877 288.875C499.05 288.315 499.056 287.93 499.182 287.37C499.482 286.035 499.338 284.702 499.625 283.377L499.873 283.625L499.877 282C499.536 281.488 499.627 281.345 499.627 280.75L499.875 280.377L499.877 279.625L500.178 278C500.736 275.256 500.138 272.329 500.702 269.588C501.701 264.742 501.477 259.148 501.487 254.211C501.495 250.54 501.779 246.493 500.922 242.907C500.129 239.587 500.632 236.164 500.292 232.827C500.126 231.202 499.552 230.023 499.43 228.348C499.323 226.88 499.625 224.334 499.07 223.083C498.046 220.775 498.974 218.243 498.127 216.125C497.983 215.762 497.884 215.695 497.872 215.281C497.857 214.777 497.634 214.797 497.47 214.375C496.913 212.95 497.867 211.077 496.867 209.578L496.627 209.25C496.967 208.74 496.874 208.593 496.873 208L496.625 208.373C496.154 207.387 496.601 205.99 496.127 205C495.84 204.4 495.877 204.31 495.877 203.625L495.749 203.499L495.55 203.498C495.341 202.675 495.433 201.121 494.937 200.46C494.501 199.879 494.229 198.748 494.288 197.999C494.341 197.325 494.447 197.913 494.328 197.32L494.251 196.999L494.127 196.5C493.812 195.9 493.877 195.678 493.877 195L493.625 195.122L493.377 194.75C493.347 193.539 493.273 193.098 493.989 192.116Z"/>
	<path d="M44.6634 207.647L49.9527 188.038C57.0389 166.053 68.0865 144.416 81.9576 125.941C101.56 99.8328 126.889 78.2679 155.88 63.2141C171.992 54.8475 189.572 48.6456 207.242 44.5527C214.553 42.8591 221.991 41.5851 229.438 40.6492C232.359 40.2821 235.351 40.2144 238.25 39.7765L247.387 39.1879C249.733 38.8546 252.197 38.9954 254.568 39.0005L267.147 39.3504L274.875 39.799C297.397 42.2269 319.683 47.2905 340.56 56.2594C359.139 64.2415 376.381 74.377 392.058 87.1713C396.825 91.0614 402.14 94.793 404.479 100.665C404.258 102.132 403.948 103.312 403.21 104.611C402.103 106.561 400.01 108.867 397.743 109.425C396.209 109.802 394.848 109.289 393.536 108.521L393.125 108.278C391.437 107.299 389.996 105.871 388.498 104.625L379.274 96.9175C369.869 89.5679 359.376 82.9511 348.786 77.4559C324.33 64.7639 297.488 56.5818 269.937 54.6421C266.179 54.3775 262.336 54.5082 258.567 54.5033L246.797 54.571C236.524 55.0596 226.214 56.3551 216.125 58.3529C207.576 60.0457 199.221 62.5256 190.923 65.1505L189.499 65.6671C181.885 68.1729 174.463 71.4948 167.25 74.9772C132.034 91.9803 101.892 119.636 82.3764 153.553L77.6252 161.933C73.0778 170.955 68.9952 180.29 65.7421 189.859L60.859 205.914C60.8559 205.924 60.8461 205.93 60.8396 205.939L59.0215 213.75C58.693 215.303 58.5961 216.868 58.0785 218.379C57.7812 221.029 57.1179 223.618 56.768 226.261C55.5406 235.534 54.4704 244.916 54.4226 254.277C54.41 256.754 54.2236 259.417 54.6211 261.863C54.8822 263.469 54.8496 265.192 54.9585 266.821L55.7961 276.057C57.263 288.436 59.6111 300.637 63.2819 312.564C79.2964 364.594 116.506 409.379 164.976 434.323C201.402 453.068 242.53 460.492 283.124 454.571C293.614 453.041 303.969 451.074 314.085 447.794C320.402 445.745 326.907 443.651 333 441.009C369.112 425.346 399.436 400.662 421.93 368.375C426.397 361.964 430.842 355.152 434.375 348.179L449.103 311.98L450.259 307.793L451.317 304.029L453.379 295.035C454.853 286.248 456.359 277.545 456.955 268.634C459.312 233.388 452.385 196.797 435.834 165.478L428.492 152.724L422.486 143.631C420.838 141.116 419.155 138.862 418.479 135.865C418.053 133.978 418.164 131.852 419.271 130.204C420.497 128.38 422.213 127.384 424.375 127.07C426.478 126.764 428.731 127.428 430.401 128.73C431.883 129.886 432.955 131.582 434.039 133.092L441.464 144.571C455.997 168.157 465.667 194.594 469.839 221.99L471.832 238.693C472.026 240.71 471.927 242.823 472.227 244.813C472.669 247.741 472.495 250.86 472.5 253.821L472.488 265C472.375 268.976 471.874 273.16 471.476 277.125C467.12 320.548 449.357 361.115 421.136 394.339C413.07 403.835 404.132 413.052 394.506 420.985C382.544 430.845 369.823 439.625 356.15 446.962C325.366 463.479 289.821 472.083 254.917 471.958C247.067 471.93 239.058 471.252 231.25 470.431C222.362 469.496 213.381 467.687 204.711 465.538C158.314 454.035 116.928 426.976 86.9805 389.795C69.074 367.562 55.0506 340.815 47.5287 313.25C44.5133 302.199 42.5152 291.039 41.1361 279.682C40.272 272.566 39.9401 265.504 39.8152 258.341C39.7908 256.942 39.4627 255.447 39.6206 254.07L42.1908 220.929L43.3139 214.3L44.6634 207.647ZM58.0785 218.379C58.5961 216.868 58.693 215.303 59.0215 213.75L60.8396 205.939L60.4672 205.857L60.3125 205.759L60.1875 206.938L59.8725 206.75L59.7218 205.846L59.5356 205.875C59.352 207.013 59.2165 208.122 58.7652 209.187C58.3284 210.218 58.6884 211.656 58.1275 212.5C58.1261 213.119 58.2301 213.469 57.8775 214L57.8297 215.637L57.3779 215.875C57.3766 216.563 57.515 217.167 57.1275 217.75C57.1261 218.369 57.2301 218.719 56.8775 219.25L57.125 219.623C57.4482 219.19 57.6023 218.939 57.6882 218.403L58.0785 218.379ZM453.379 295.035L451.317 304.029C451.662 304.628 451.714 305.326 451.826 305.998L451.988 305.875L452.123 304.75C452.434 304.077 452.336 304.661 452.432 304.096L453.729 298.375C454.002 297.524 454.005 296.709 454.235 295.875C454.492 294.943 454.605 294.223 454.677 293.251L454.375 293.127C454.206 293.507 454.165 293.668 454.183 294.092C454.201 294.527 454.155 294.799 454.046 295.216L453.379 295.035ZM43.3139 214.3L42.1908 220.929L42.5595 221.875L43 221.625C43.4192 221.292 43.0231 221.011 43.1275 220.625C43.1433 220.567 43.4676 220.317 43.4936 220.25C43.7154 219.674 43.5897 218.76 43.7702 218.125C44.0356 217.19 44.0957 216.128 44.2283 215.162L43.3139 214.3ZM43.3139 214.3L44.2283 215.162C44.7966 213.378 45.0212 211.51 45.356 209.674L44.9387 209.25C45.0349 208.661 44.83 208.209 44.6634 207.647L43.3139 214.3ZM450.259 307.793L449.103 311.98L449.248 312.069L449.623 311.91L449.847 312.952C450.231 312.062 450.393 311.138 450.731 310.25C450.976 309.605 451.067 309.192 451.123 308.5C450.834 308.229 450.578 308.021 450.259 307.793ZM189.499 65.6671L190.923 65.1505L190.779 64.6777L191.024 64.3077L191.875 64.2937L192.124 63.9302L192 63.5178C191.481 63.6565 190.78 63.738 190.368 64.0645C189.732 64.5693 188.91 64.3251 188.351 64.9419C188.709 65.4015 188.459 65.2484 188.868 65.3292C189.264 65.4074 189.125 65.3753 189.499 65.6671ZM47.3269 199.375L47.0944 200.888L46.8399 200.586C46.7123 201.169 46.6717 201.627 46.6762 202.224C46.682 202.984 46.4299 203.086 46.1939 203.75C46.0654 204.112 46.1238 204.736 46.125 205.127L45.8314 205.516L45.875 206L46.1844 205.955C46.5906 204.609 46.8099 203.215 47.1773 201.86C47.3984 201.045 47.7258 200.388 47.6187 199.523L47.3269 199.375Z"/>
	<path d="M47.3269 199.375L47.6187 199.523C47.7258 200.388 47.3984 201.045 47.1773 201.86C46.8099 203.215 46.5906 204.609 46.1844 205.955L45.875 206L45.8314 205.516L46.125 205.127C46.1238 204.736 46.0654 204.112 46.1939 203.75C46.4299 203.086 46.682 202.984 46.6762 202.224C46.6717 201.627 46.7123 201.169 46.8399 200.586L47.0944 200.888L47.3269 199.375Z"/>
	<path d="M189.499 65.6671C189.125 65.3753 189.264 65.4074 188.868 65.3292C188.459 65.2484 188.709 65.4015 188.351 64.9419C188.91 64.3251 189.732 64.5693 190.368 64.0645C190.78 63.738 191.481 63.6565 192 63.5178L192.124 63.9302L191.875 64.2937L191.024 64.3077L190.779 64.6777L190.923 65.1505L189.499 65.6671Z"/>
	<defs>
		<linearGradient id="gradient_1" gradientUnits="userSpaceOnUse" x1="450.53439" y1="310.61392" x2="449.69601" y2="310.23911">
			<stop offset="0" stop-color="#010001" stop-opacity="0.94901961"/>
			<stop offset="1" stop-color="#010100"/>
		</linearGradient>
	</defs>
	<path fill="url(#gradient_1)" d="M450.259 307.793C450.578 308.021 450.834 308.229 451.123 308.5C451.067 309.192 450.976 309.605 450.731 310.25C450.393 311.138 450.231 312.062 449.847 312.952L449.623 311.91L449.248 312.069L449.103 311.98L450.259 307.793Z"/>
	<path d="M43.3139 214.3L44.6634 207.647C44.83 208.209 45.0349 208.661 44.9387 209.25L45.356 209.674C45.0212 211.51 44.7966 213.378 44.2283 215.162L43.3139 214.3Z"/>
	<path fill="#000001" fill-opacity="0.96470588" d="M43.3139 214.3L44.2283 215.162C44.0957 216.128 44.0356 217.19 43.7702 218.125C43.5897 218.76 43.7154 219.674 43.4936 220.25C43.4676 220.317 43.1433 220.567 43.1275 220.625C43.0231 221.011 43.4192 221.292 43 221.625L42.5595 221.875L42.1908 220.929L43.3139 214.3Z"/>
	<path fill="#000001" fill-opacity="0.96470588" d="M453.379 295.035L454.046 295.216C454.155 294.799 454.201 294.527 454.183 294.092C454.165 293.668 454.206 293.507 454.375 293.127L454.677 293.251C454.605 294.223 454.492 294.943 454.235 295.875C454.005 296.709 454.002 297.524 453.729 298.375L452.432 304.096C452.336 304.661 452.434 304.077 452.123 304.75L451.988 305.875L451.826 305.998C451.714 305.326 451.662 304.628 451.317 304.029L453.379 295.035Z"/>
	<path fill="#000001" fill-opacity="0.96470588" d="M58.0785 218.379L57.6882 218.403C57.6023 218.939 57.4482 219.19 57.125 219.623L56.8775 219.25C57.2301 218.719 57.1261 218.369 57.1275 217.75C57.515 217.167 57.3766 216.563 57.3779 215.875L57.8297 215.637L57.8775 214C58.2301 213.469 58.1261 213.119 58.1275 212.5C58.6884 211.656 58.3284 210.218 58.7652 209.187C59.2165 208.122 59.352 207.013 59.5356 205.875L59.7218 205.846L59.8725 206.75L60.1875 206.938L60.3125 205.759L60.4672 205.857L60.8396 205.939L59.0215 213.75C58.693 215.303 58.5961 216.868 58.0785 218.379Z"/>
	<path d="M146.806 151.208C147.942 148.425 150.94 146.2 153.625 145.042C155.749 144.126 157.971 143.779 160.265 143.711C160.591 143.701 160.875 143.66 161.195 143.61C161.764 143.522 162.248 143.592 162.815 143.662C166.89 144.158 170.699 144.729 174.647 145.922C182.743 148.37 190.385 152.484 197.673 156.703C211.392 164.646 224.059 174.035 236.158 184.252L247.937 194.241C250.729 196.688 253.371 199.313 256.418 201.45C262.374 195.411 269.188 189.856 275.763 184.511C284.955 177.038 294.339 169.98 304.209 163.424C315.615 155.849 327.874 148.601 341.228 145.118C344.65 144.225 347.801 143.425 351.375 143.396C353.381 143.379 355.113 143.505 357 144.183L357.451 144.339C361.41 145.74 364.11 148.962 365.855 152.681C366.845 154.79 367.063 157.36 367.371 159.645C367.574 161.152 367.57 162.963 367.185 164.432C366.878 165.602 366.979 166.98 366.811 168.193C366.483 170.56 365.748 172.745 365.082 175.025C364.64 176.54 364.213 178.381 363.362 179.72L360.482 186.243L360.385 186.286C357.946 191.97 354.536 197.327 351.133 202.471C346.115 210.055 340.578 217.403 334.697 224.345L317.905 243.1C314.383 247.04 310.607 250.755 307.281 254.873L307.492 255.028C309.102 256.26 310.451 257.945 311.802 259.451L319.494 268.229L336.221 287.007C343.209 295.436 349.58 304.493 355.007 314C360.384 323.417 365.576 333.338 366.989 344.25C367.173 345.67 367.092 347.084 367.336 348.5C367.456 349.2 367.389 349.516 367.192 350.181C366.881 351.23 367.031 352.514 366.829 353.625C366.015 358.079 363.626 362.379 359.625 364.669C357.845 365.687 356.148 366.25 354.125 366.517L353.714 366.576C349.166 367.175 344.088 366.297 339.718 365.066C329.528 362.195 320.176 357.063 311.188 351.577C305.898 348.349 300.371 344.895 295.503 341.062L255.758 308.542L244.977 318.205L227.868 332.766C212.657 344.711 180.732 366.85 161.25 366.633C156.579 366.581 152.524 365.533 149.221 362.076C147.271 360.036 145.441 356.412 145.355 353.582C145.123 352.028 144.762 349.967 144.924 348.414C145.049 347.219 144.964 346.014 145.092 344.814C145.414 341.785 146.072 338.919 146.845 335.981C151.313 321.779 159.161 308.917 168.028 297.055C179.302 281.972 192.137 268.516 204.85 254.682L204.821 254.417C204.372 254.048 203.964 253.7 203.589 253.251C198.95 247.692 193.487 242.77 188.674 237.345L167.901 211.923C159.744 201.027 151.859 189.123 147.176 176.275C145.967 172.957 144.577 169.002 144.477 165.458L144.472 165.105L144.393 164.666C143.866 160.444 144.199 154.732 146.806 151.208ZM160.03 158.625L159.527 160.064C158.52 163 159.723 166.146 160.299 169.058C160.649 170.83 161.445 172.361 162.094 174.022C164.049 179.026 166.886 183.53 169.74 188.05C179.459 203.447 191.609 217.554 203.836 231.002L213.788 242.038C216.032 244.473 218.658 246.838 220.499 249.594C222.007 251.852 223.237 253.69 222.185 256.5L222.062 256.838C220.768 260.257 217.394 263.477 214.915 266.078L207.021 274.402L196.796 286.124C189.123 294.99 181.846 304.076 175.282 313.803C171.674 319.149 168.117 324.7 165.365 330.539C162.882 335.807 161.129 341.072 159.866 346.753C159.577 348.054 159.432 350.381 160.125 351.512C161.667 351.648 163.199 351.074 164.699 350.739C172.621 348.969 179.935 345.407 187 341.478L202.802 331.951C207.243 329.023 211.904 325.986 215.976 322.563L239.806 302.554C243.364 299.554 246.803 295.777 250.819 293.435C252.949 292.192 255.255 291.441 257.741 291.722C259.32 291.9 261.159 292.92 262.436 293.822C265.137 295.729 267.583 298.427 270.024 300.673L279.461 309.01C284.381 313.399 289.735 317.498 294.987 321.487C307.868 331.271 321.025 339.862 335.706 346.741C339.014 348.291 342.389 349.79 345.873 350.902C347.511 351.424 349.139 351.973 350.875 351.969L351.638 351.875C353.495 347.142 350.941 340.826 349.05 336.45C339.518 314.389 324.061 295.883 308.241 278.098C302.834 272.02 296.472 266.185 291.878 259.483C290.368 257.279 289.307 254.673 290.329 252.028C292.454 246.524 298.34 241.959 302.211 237.57C319.852 217.567 339.276 198.63 349.342 173.403C350.767 169.833 353.54 164.332 352.125 160.513C351.134 159.394 350.398 159.115 348.907 159.079C347.078 159.035 344.959 159.809 343.211 160.362C335.419 162.826 327.854 166.737 320.817 170.875L312.147 176.23C309.117 177.931 306.227 180.286 303.392 182.304C294.629 188.541 286 195.074 277.963 202.235L269.344 209.875C266.925 212.069 264.612 214.39 261.821 216.121C259.233 217.725 256.49 219.096 253.384 218.214C251.715 217.74 250.104 216.741 248.743 215.692C245.218 212.974 242.139 209.466 238.838 206.454L226.226 195.709L211.441 184.081C203.783 178.451 195.895 173.042 187.46 168.625L175.494 162.976C172.339 161.514 163.299 157.563 160.03 158.625ZM145.355 353.582C145.734 353.563 145.791 353.47 146.1 353.25C146.131 351.717 145.81 349.828 146.025 348.378C146.229 347.007 145.997 345.589 146.258 344.234C146.436 343.315 146.372 341.921 146.754 341.116C147.113 340.359 147.057 339.396 147.318 338.592C147.494 338.052 147.644 337.583 147.591 337C147.54 336.424 147.242 336.335 146.845 335.981C146.072 338.919 145.414 341.785 145.092 344.814C144.964 346.014 145.049 347.219 144.924 348.414C144.762 349.967 145.123 352.028 145.355 353.582ZM144.472 165.105L144.623 163.75L144.751 163.999C145.576 163.081 144.798 161.056 145.236 159.822C145.381 159.414 145.439 159.195 145.472 158.75C145.602 157.017 146.354 155.6 146.544 153.956L146.578 153.625L146.942 153.324C147.164 152.467 147.08 152.042 146.806 151.208C144.199 154.732 143.866 160.444 144.393 164.666L144.472 165.105ZM360.385 186.286L360.482 186.243L363.362 179.72L362.845 179.583C363.319 178.821 363.37 178.176 363.873 177.375L363.695 177.219C363.398 176.926 363.499 177.014 363.317 176.528L362.678 177.77C362.203 178.763 361.617 180.215 361.322 181.264C361.106 182.033 360.566 182.483 360.392 183.269C360.262 183.86 360.1 183.989 359.78 184.467C359.36 185.093 359.195 186.03 358.877 186.75L359.417 187.174L359.958 186.25C360.282 186.21 360.142 186.182 360.385 186.286Z"/>
	<path fill="#000001" fill-opacity="0.96470588" d="M360.385 186.286C360.142 186.182 360.282 186.21 359.958 186.25L359.417 187.174L358.877 186.75C359.195 186.03 359.36 185.093 359.78 184.467C360.1 183.989 360.262 183.86 360.392 183.269C360.566 182.483 361.106 182.033 361.322 181.264C361.617 180.215 362.203 178.763 362.678 177.77L363.317 176.528C363.499 177.014 363.398 176.926 363.695 177.219L363.873 177.375C363.37 178.176 363.319 178.821 362.845 179.583L363.362 179.72L360.482 186.243L360.385 186.286Z"/>
	<path fill="#000001" fill-opacity="0.96470588" d="M144.472 165.105L144.393 164.666C143.866 160.444 144.199 154.732 146.806 151.208C147.08 152.042 147.164 152.467 146.942 153.324L146.578 153.625L146.544 153.956C146.354 155.6 145.602 157.017 145.472 158.75C145.439 159.195 145.381 159.414 145.236 159.822C144.798 161.056 145.576 163.081 144.751 163.999L144.623 163.75L144.472 165.105Z"/>
	<path fill="#000001" fill-opacity="0.96470588" d="M145.355 353.582C145.123 352.028 144.762 349.967 144.924 348.414C145.049 347.219 144.964 346.014 145.092 344.814C145.414 341.785 146.072 338.919 146.845 335.981C147.242 336.335 147.54 336.424 147.591 337C147.644 337.583 147.494 338.052 147.318 338.592C147.057 339.396 147.113 340.359 146.754 341.116C146.372 341.921 146.436 343.315 146.258 344.234C145.997 345.589 146.229 347.007 146.025 348.378C145.81 349.828 146.131 351.717 146.1 353.25C145.791 353.47 145.734 353.563 145.355 353.582Z"/>
</svg>
