<?xml version="1.0" encoding="utf-8" ?>
<svg xmlns="http://www.w3.org/2000/svg" xmlns:xlink="http://www.w3.org/1999/xlink" width="512" height="511">
	<path d="M253.759 179.797L253.7 180.045C252.459 184.974 249.242 189.684 246.648 194.015C244.052 198.35 241.455 203.651 240.486 208.625C240.089 210.667 239.791 212.545 240.171 214.625L240.234 214.986C241.011 219.115 243.599 221.32 246.609 223.917C253.219 219.557 258.607 213.367 264.177 207.776L284.124 187.851L355.74 116.22L377.462 94.4928C381.221 90.7031 384.844 86.5849 388.805 83.0251L388.655 82.5772C387.566 79.2807 387.425 76.0905 387.471 72.6602C387.543 67.3708 388.185 62.0286 390.587 57.2412C390.922 56.5735 391.34 56.0056 391.723 55.375C394.195 51.302 398.018 47.5141 402.513 45.6703L402.65 45.4171C399.987 41.4746 396.403 37.2374 397.398 32.0957C397.769 30.1807 398.862 28.6028 400.5 27.5409C402.425 26.2927 404.987 25.7742 407.218 26.3563C409.321 26.9049 410.826 28.7895 411.848 30.62C412.807 32.3392 413.603 34.3439 414.238 36.206C414.56 37.1513 415.215 38.6199 415.97 39.252C418.195 38.2278 421.264 36.9768 422.491 34.75C422.635 32.557 421.677 31.4822 420.403 29.8377C418 26.7346 414.982 23.7776 416.195 19.4424C416.574 18.0902 417.198 16.9634 418.29 16.0575C419.357 15.1727 420.767 14.6675 422.125 14.4635L422.411 14.4188C424.571 14.1274 426.766 15.3274 428.375 16.6764C432.03 19.7414 434.086 23.96 436.193 28.1137L443.759 23.8865C446.223 22.3782 448.53 20.6171 450.841 18.8854C453.827 16.6485 456.503 13.987 459.396 11.6282C465.499 6.65352 471.849 4.02589 479.75 3.69638C487.197 3.38583 494.978 5.07004 500.625 10.2728C506.562 15.7428 510.276 24.2378 510.494 32.3019C510.572 35.1859 510.159 38.0014 509.296 40.75L509.165 41.1799C507.155 47.5909 502.392 52.881 496.5 55.9976L491.122 59.0728C488.585 60.6388 486.721 63.5223 485.277 66.0652C481.198 73.2453 478.927 81.2102 475.369 88.6381C473.292 92.9763 470.88 96.9135 467.388 100.262C460.544 106.824 450.818 111.258 441.5 112.725C437.377 113.375 433.052 113.604 429.179 115.285C426.017 116.657 423.222 119.278 420.7 121.576C409.627 131.663 400.153 143.606 389.688 154.327L328.811 218.158L295.773 252.505L272.234 277.108L257.159 293.049C259.445 295.062 261.346 297.462 263.625 299.467C267.101 302.524 272.793 304.754 277.426 304.534C286.263 304.114 295.39 298.586 302.147 293.225C309.25 287.59 314.821 281.32 324.75 282.669L325.105 282.713C328.6 283.172 331.326 284.84 333.423 287.625C333.669 287.951 333.843 288.27 334.039 288.625L334.251 288.997C337.421 294.687 336.993 302.938 335.792 309.144C335.328 311.077 334.987 313.46 334.137 315.226C333.139 318.723 331.396 322.178 329.649 325.36C320.855 341.385 305.521 353.149 290.186 362.514L279.125 368.811L270.875 373.725C264.316 377.477 257.686 382.526 254.154 389.35C250.106 397.172 249.86 406.67 248.428 415.197C244.783 436.9 237.803 458.514 224.625 476.422C220.91 481.471 216.533 486.075 211.981 490.374C202.768 499.075 189.821 505.5 177.425 507.985C169.218 509.631 160.52 509.886 152.17 509.598C147.524 509.438 142.739 509.158 138.15 508.394C125.891 506.352 114.136 502.029 103.006 496.584C81.5811 486.104 62.2898 471.355 46.0301 453.93L34.5336 441.179C15.9104 418.612 0.863501 391.249 2.04345 361.189C2.22687 356.517 3.14918 351.788 4.29107 347.263C13.1719 312.069 46.8192 289.552 79.75 279.512C87.1551 277.254 95.0053 275.763 102.635 274.487C112.858 272.777 123.818 271.432 133.249 266.866C137.472 264.822 141.359 261.778 144.704 258.52C148.749 254.581 151.916 249.343 154.417 244.334C159.52 234.115 162.651 223.066 166.875 212.485C172.78 197.698 181.794 183.21 193.582 172.402C201.227 165.392 210.094 159.854 220.043 156.836C223.96 155.647 228.254 154.734 232.375 154.966C234.348 155.077 236.162 155.184 238.125 155.504L239.934 155.921C244.177 157.17 247.278 159.246 250.212 162.537C252.04 164.981 253.434 167.852 253.99 170.875C254.18 171.908 254.195 172.974 254.355 174.016C254.587 175.513 254.208 178.392 253.759 179.797ZM235.178 402.332L238.436 387.78C240.79 381.462 243.61 376.189 248.514 371.407C258.494 361.674 272.065 356.229 283.625 348.714C294.191 341.844 304.744 333.741 312.61 323.807C316.458 318.946 319.588 313.793 321.104 307.74C321.731 305.234 322.237 302.387 321.914 299.798L321.687 297.671L305.375 309.267C294.784 316.228 281.315 321.062 268.564 318.317C259.903 316.452 251.745 310.993 246.802 303.601C241.479 308.469 237.166 314.283 231.25 318.531C229.476 319.805 227.562 320.735 225.606 321.679C220.605 324.092 215.186 323.693 209.963 322.509C202.434 320.802 194.975 313.943 191.053 307.497C188.333 303.026 186.864 298.223 186.798 292.988C186.781 291.623 186.724 290.168 187.041 288.832C187.767 285.766 188.89 283.003 190.875 280.522C193.676 277.02 197.178 273.959 200.461 270.917L207.011 264.407L224.728 246.746L235.07 236.462L234.855 236.265C231.17 232.789 228.171 227.553 226.707 222.739C226.209 221.099 225.987 219.314 225.67 217.627C225.001 214.078 225.254 209.244 225.908 205.727C227.292 198.277 230.006 191.97 233.621 185.359C235.192 182.487 237.015 179.816 238.074 176.68C238.527 175.336 238.862 173.287 237.914 172.075C236.855 170.722 234.898 170.168 233.25 170.012C231.886 169.883 230.595 169.964 229.25 170.2C212.918 173.062 201.139 184.525 191.836 197.568C184.565 207.762 180.354 219.319 176.307 231.041C173.929 237.929 171.46 245.067 168.202 251.588C165.13 257.737 161.234 263.722 156.389 268.623C150.627 274.451 142.954 279.16 135.341 282.108C126.786 285.422 117.684 287.187 108.678 288.774C101.05 290.118 93.3729 291.337 85.875 293.314C69.2422 297.7 52.3323 305.793 39.6747 317.602C35.4799 321.516 31.9352 325.836 28.6405 330.525C19.0878 344.12 15.5654 361.321 18.4093 377.625C19.4982 383.867 21.6137 389.777 23.9882 395.625C29.9053 410.197 39.1435 423.946 49.5236 435.725L61.5676 448.113C68.8346 455.312 76.5876 462.375 85 468.221C110.208 485.741 139.352 499.219 170.733 493.555C180.774 491.743 191.298 487.259 199.398 481.008C205.249 476.493 210.636 470.35 214.825 464.279C224.375 450.437 229.889 434.41 232.819 417.936L235.178 402.332ZM395.842 97.875C392.897 100.547 390.377 103.546 387.612 106.387L369.059 125.314L361.019 133.126L315.988 177.982L301.153 192.277L220.593 272.505L209.567 283.375C208.04 284.828 206.246 285.997 204.762 287.5C203.521 288.757 202.081 291.024 201.95 292.845L202.018 294.125L202.048 294.556C202.157 295.889 202.631 296.844 203.14 298.045C204.33 300.851 206.648 302.857 208.914 304.771C211.12 306.634 214.022 307.631 216.685 308.649C219.45 307.709 221.263 306.637 223.414 304.647L240.999 286.938L265.22 262.203L300.67 225.375L335.603 188.453L385.125 136.795L401.98 119.165L407.494 113.49C408.57 112.44 409.816 111.48 410.789 110.34L409.702 109.117C408.611 107.845 407.167 106.751 405.923 105.627C402.854 102.856 399.816 100.233 396.503 97.7511L395.842 97.875ZM480.661 19.3681C477.395 19.6109 474.563 20.4163 471.688 22.0086C468.576 23.7328 465.966 26.1264 463.238 28.375C460.691 30.4729 458.059 32.3859 455.243 34.1098L442.193 41.4616L417.098 55.8094C415.53 56.6937 413.858 57.6381 412.217 58.3637L408.5 59.9943C407.027 60.6026 404.992 61.1894 403.875 62.379C403.287 63.0057 402.936 63.898 402.759 64.7263C402.29 66.9147 402.483 69.505 402.461 71.7437C402.434 74.4279 402.217 77.2995 402.506 79.9672L402.758 81.375L402.833 81.7691C402.96 82.3827 403.17 82.9126 403.557 83.411C404.569 84.7136 406.112 85.7407 407.342 86.8371L417.542 95.9855C418.493 96.8749 419.531 97.641 420.419 98.5994L423.118 101.567C426.585 100.087 430.174 99.1441 433.898 98.5686C439.093 97.7659 444.573 97.564 449.369 95.133C458.73 90.3874 461.917 81.5831 465.762 72.5065C468.635 65.7254 471.667 58.3701 476.277 52.5717C478.35 49.9639 480.81 47.6378 483.602 45.8174C486.382 44.0047 489.247 42.7149 491.819 40.5497L492.053 40.363C493.621 39.0532 494.631 35.4658 494.74 33.5C494.947 29.7281 493.953 26.4954 491.363 23.7152C488.662 20.8152 485.137 19.4673 481.217 19.3768L480.661 19.3681ZM250.212 162.537C250.086 163.048 249.759 163.758 250.001 164.249L250.189 164.501C250.564 165.018 250.212 164.486 250.501 165.249L251.127 166.25C251.127 166.883 251.069 166.946 251.377 167.5L251.751 168.499L251.947 168.843C252.187 169.323 252.159 169.607 252.127 170.125L252.377 170.5L252.442 172.625L252.75 172.873C253.249 173.42 253.274 174.77 253.125 175.459C253.044 175.831 252.736 176.111 252.647 176.5C252.352 177.785 252.533 179.173 252.244 180.5L252.139 181.25L252.5 181.586C252.995 181.131 253.174 180.41 253.333 179.75L253.378 179.389C253.432 178.978 253.533 178.64 253.666 178.25L253.759 179.797C254.208 178.392 254.587 175.513 254.355 174.016C254.195 172.974 254.18 171.908 253.99 170.875C253.434 167.852 252.04 164.981 250.212 162.537ZM238.436 387.78L235.178 402.332L235.995 402.066C236.772 401.678 237.095 397.841 237.34 396.781C237.8 394.787 238.061 392.586 238.76 390.677L239.302 388.875L238.436 387.78ZM334.137 315.226C334.987 313.46 335.328 311.077 335.792 309.144C334.863 309.545 334.27 309.832 333.851 310.826C333.295 312.142 333.3 313.96 333.179 315.375L333.879 315.092L334.137 315.226Z"/>
	<defs>
		<linearGradient id="gradient_0" gradientUnits="userSpaceOnUse" x1="333.77649" y1="314.49411" x2="333.71274" y2="311.50079">
			<stop offset="0" stop-color="black" stop-opacity="0.94117647"/>
			<stop offset="1" stop-color="black" stop-opacity="0.97647059"/>
		</linearGradient>
	</defs>
	<path fill="url(#gradient_0)" d="M334.137 315.226L333.879 315.092L333.179 315.375C333.3 313.96 333.295 312.142 333.851 310.826C334.27 309.832 334.863 309.545 335.792 309.144C335.328 311.077 334.987 313.46 334.137 315.226Z"/>
	<path fill="#010000" fill-opacity="0.96862745" d="M238.436 387.78L239.302 388.875L238.76 390.677C238.061 392.586 237.8 394.787 237.34 396.781C237.095 397.841 236.772 401.678 235.995 402.066L235.178 402.332L238.436 387.78Z"/>
	<path d="M250.212 162.537C252.04 164.981 253.434 167.852 253.99 170.875C254.18 171.908 254.195 172.974 254.355 174.016C254.587 175.513 254.208 178.392 253.759 179.797L253.666 178.25C253.533 178.64 253.432 178.978 253.378 179.389L253.333 179.75C253.174 180.41 252.995 181.131 252.5 181.586L252.139 181.25L252.244 180.5C252.533 179.173 252.352 177.785 252.647 176.5C252.736 176.111 253.044 175.831 253.125 175.459C253.274 174.77 253.249 173.42 252.75 172.873L252.442 172.625L252.377 170.5L252.127 170.125C252.159 169.607 252.187 169.323 251.947 168.843L251.751 168.499L251.377 167.5C251.069 166.946 251.127 166.883 251.127 166.25L250.501 165.249C250.212 164.486 250.564 165.018 250.189 164.501L250.001 164.249C249.759 163.758 250.086 163.048 250.212 162.537Z"/>
	<path d="M126.565 335.405C128.794 329.702 133.585 324.421 139.255 321.991C144.74 319.64 151.881 319.43 157.407 321.756C164.125 324.584 169.264 330.112 174.385 335.125L187.216 347.654C194.755 355.175 206.181 364.194 206.226 375.871C206.233 377.889 206.163 379.782 205.395 381.678L204.639 383.746C202.11 389.548 197.814 394.528 191.837 396.899C185.919 399.246 180.043 399.756 174.109 397.136C163.861 392.611 156.689 382.835 148.96 375.136C141.209 367.415 130.452 359.691 126.496 349.11C125.861 347.414 125.485 346.022 125.42 344.203L125.35 344.113C125.204 340.956 125.288 338.354 126.565 335.405ZM148.215 335.301C145.597 335.857 143.193 336.739 141.636 339.062C140.82 340.281 140.41 341.709 140.17 343.144C140.572 344.299 140.972 345.3 141.625 346.345L141.806 346.641C143.816 349.849 146.858 352.292 149.565 354.875L163.09 367.722L171.424 375.821C172.902 377.294 174.323 378.981 175.937 380.298C177.365 381.463 179.286 382.904 181.126 383.285C181.696 383.404 182.256 383.446 182.835 383.38C185.795 382.473 188.276 380.912 189.756 378.125L190.974 375.384C189.406 372.634 187.72 369.835 185.633 367.438C181.251 362.403 176.027 358.38 171.191 353.816C166.463 349.354 162.522 344.3 157.499 340.097C155.372 338.317 152.774 336.386 150.057 335.645L148.215 335.301ZM187.216 347.654C187.06 348.068 186.951 348.439 186.877 348.875C187.272 349.473 187.462 349.801 188.127 350.125L188.251 350.499L188.477 350.662C188.875 350.961 189.12 351.249 189.439 351.632C190.263 352.621 189.228 351.433 190.127 352.25L191.127 353.25L192.127 354.25C192.522 354.609 192.657 354.936 193.127 355.25L193.501 355.999C194.009 356.063 193.758 356.097 194.25 355.875C194.383 356.658 194.378 356.625 195 357.123L195.377 357.18C195.466 357.585 195.394 357.657 195.735 357.912C196.084 358.174 196.177 358.414 196.392 358.772C196.816 359.479 197.533 359.933 198 360.623L198.627 360.875L198.707 361.335C198.832 361.712 199.028 362.073 199.377 362.25L199.625 363.123L200.001 363.249C200.765 364.186 201.845 366.063 202.206 367.164C202.34 367.574 202.491 368.055 202.877 368.25C202.951 369.029 203.181 369.037 203.377 369.625C203.561 370.176 203.3 370.375 203.694 370.898C203.959 371.249 204.03 371.461 204.125 371.877L203.951 372.25L204.25 372.623C204.967 373.883 204.891 376.136 204.738 377.5C204.568 379.01 204.299 380.299 204.038 381.75C204.004 381.942 204.055 382.299 204.077 382.498L204.408 382.691C204.785 382.15 204.969 382.053 205.002 381.375L205.181 381.278L205.395 381.678C206.163 379.782 206.233 377.889 206.226 375.871C206.181 364.194 194.755 355.175 187.216 347.654ZM126.565 335.405C125.288 338.354 125.204 340.956 125.35 344.113L125.42 344.203L126.105 344.366L126.293 346.723C126.411 346.613 126.574 346.538 126.647 346.394C126.834 346.028 126.575 344.514 126.543 344.09C126.417 342.449 126.212 339.826 126.728 338.25L126.988 337.75C127.278 336.738 127.111 336.233 126.565 335.405Z"/>
	<path fill="#010000" fill-opacity="0.96862745" d="M126.565 335.405C127.111 336.233 127.278 336.738 126.988 337.75L126.728 338.25C126.212 339.826 126.417 342.449 126.543 344.09C126.575 344.514 126.834 346.028 126.647 346.394C126.574 346.538 126.411 346.613 126.293 346.723L126.105 344.366L125.42 344.203L125.35 344.113C125.204 340.956 125.288 338.354 126.565 335.405Z"/>
	<path d="M187.216 347.654C194.755 355.175 206.181 364.194 206.226 375.871C206.233 377.889 206.163 379.782 205.395 381.678L205.181 381.278L205.002 381.375C204.969 382.053 204.785 382.15 204.408 382.691L204.077 382.498C204.055 382.299 204.004 381.942 204.038 381.75C204.299 380.299 204.568 379.01 204.738 377.5C204.891 376.136 204.967 373.883 204.25 372.623L203.951 372.25L204.125 371.877C204.03 371.461 203.959 371.249 203.694 370.898C203.3 370.375 203.561 370.176 203.377 369.625C203.181 369.037 202.951 369.029 202.877 368.25C202.491 368.055 202.34 367.574 202.206 367.164C201.845 366.063 200.765 364.186 200.001 363.249L199.625 363.123L199.377 362.25C199.028 362.073 198.832 361.712 198.707 361.335L198.627 360.875L198 360.623C197.533 359.933 196.816 359.479 196.392 358.772C196.177 358.414 196.084 358.174 195.735 357.912C195.394 357.657 195.466 357.585 195.377 357.18L195 357.123C194.378 356.625 194.383 356.658 194.25 355.875C193.758 356.097 194.009 356.063 193.501 355.999L193.127 355.25C192.657 354.936 192.522 354.609 192.127 354.25L191.127 353.25L190.127 352.25C189.228 351.433 190.263 352.621 189.439 351.632C189.12 351.249 188.875 350.961 188.477 350.662L188.251 350.499L188.127 350.125C187.462 349.801 187.272 349.473 186.877 348.875C186.951 348.439 187.06 348.068 187.216 347.654Z"/>
	<path d="M94.1316 346.561C96.0593 346.354 98.2137 346.28 100.118 346.677C103.429 347.368 106.423 348.271 109.355 350.031L109.75 350.272C115.532 353.718 120.407 359.605 125.22 364.274L145.627 383.949C149.644 387.876 154.042 391.411 157.791 395.61C160.198 398.306 162.18 401.251 163.854 404.452C166.286 409.103 166.189 415.686 164.633 420.627L164.513 421C164.057 422.484 163.444 423.829 162.602 425.137C158.69 431.214 153.02 434.221 146.114 435.696C144.027 436.138 141.57 435.745 139.516 435.258C133.346 433.795 127.838 429.686 123.011 425.754C115.553 419.68 109.223 412.043 102.45 405.236L87.029 390.23C83.6609 386.874 80.1557 383.639 77.6932 379.527C74.6827 374.499 74.134 368.653 75.4963 363C76.1021 360.487 77.2563 357.968 78.6562 355.79C82.1441 350.364 88.1039 347.833 94.1316 346.561ZM96.1444 361.022C93.3739 362.263 91.1577 363.377 89.9937 366.375C89.8149 366.835 89.3447 367.936 89.3566 368.402C89.3735 369.07 90.032 370.562 90.3146 371.193C90.9691 372.654 91.9665 374.018 93.0503 375.194C94.4383 376.7 96.1158 377.927 97.5742 379.371L113.458 395.016L125.815 407.463C127.895 409.555 129.94 411.771 132.159 413.713C135.226 416.397 138.676 419.547 142.524 421.026C143.063 421.233 143.551 421.275 144.125 421.267C145.439 420.867 146.485 420.17 147.659 419.486C149.106 418.643 150.065 416.748 150.446 415.133C150.966 412.931 149.938 410.552 148.736 408.761C147.264 406.567 145.282 404.695 143.415 402.84L134.514 394.355L119.652 380.349L108.223 369.136C106.397 367.335 104.625 365.363 102.666 363.711C101.231 362.501 99.677 361.495 97.8176 361.092C97.2325 360.965 96.7363 360.978 96.1444 361.022Z"/>
</svg>
