<?xml version="1.0" encoding="utf-8" ?>
<svg xmlns="http://www.w3.org/2000/svg" xmlns:xlink="http://www.w3.org/1999/xlink" width="512" height="512">
	<path d="M250.53 15.0395C257.366 14.9893 264.097 14.8144 270.921 15.625C300.305 19.115 330.265 33.7655 351.301 54.5135C360.513 63.5991 367.847 74.2766 374.031 85.5927C376.315 89.7736 378.44 93.8436 380.252 98.25C382.665 104.115 385.119 109.89 386.828 116.023C387.928 119.969 388.799 124.008 389.441 128.054L390.473 135.25L390.617 136.188C397.97 138.04 402.81 142.031 407.461 147.864C410.901 152.18 412.156 157.572 413.167 162.86C414.335 168.977 414.035 175.586 414.053 181.791C414.094 196.136 415.104 211.68 406.616 224.097C403.943 228.006 399.832 231.406 395.625 233.525C392.739 234.979 389.982 235.791 386.81 236.346C381.604 237.257 374.503 235.974 370 233.271C366.878 231.397 364.666 229.549 362.189 226.872L360.642 238.823C359.663 247.9 358.629 257.366 356.481 266.25C353.036 280.495 346.269 294.337 336.969 305.692C339.285 306.859 341.696 308.029 343.793 309.564C351.209 314.995 356.062 322.916 360.963 330.5C363.591 334.566 366.411 338.663 370.234 341.715C375.898 346.236 382.497 348.827 388.88 352.098L409.135 362.935C421.769 369.755 434.503 377.996 445.366 387.397C457.887 398.233 468.975 411.498 477.749 425.531C481.72 431.881 485.831 438.72 488.16 445.875C488.82 447.902 488.924 449.634 489.165 451.71C489.552 455.047 487.731 458.208 485.668 460.683C481.988 465.097 477.525 468.28 472.592 471.13C464.304 475.92 455.165 478.996 445.926 481.375C436.283 483.858 426.526 485.601 416.656 486.887C412.754 487.395 408.863 488.097 404.929 488.392L361.998 491.951L347.559 493.137L335.25 493.238L325.729 493.666L295.954 493.696L226.638 493.701L184.063 493.678L172.818 493.245C141.1 492.692 108.891 491.308 77.7667 484.752C60.6097 481.137 42.6043 475.562 29.2191 463.786C26.1151 461.055 22.6813 456.798 22.4634 452.492C22.3194 449.648 22.9414 447.084 23.9595 444.444C25.4465 440.588 27.9885 436.861 30.1851 433.374C36.7811 422.902 44.2091 412.949 52.6473 403.878C70.2885 384.913 91.7541 369.38 114.875 357.768C128.824 350.762 143.701 344.384 156.229 334.954C159.076 332.811 161.845 330.266 163.789 327.25C166.886 322.444 168.532 316.868 172.028 312.275C175.85 307.254 181.049 303.876 186.519 300.909C186.225 299.843 185.272 298.745 184.71 297.762L181.169 291.175L176.723 281.784C176.009 280.248 175.35 278.506 174.423 277.093C173.596 275.833 172.315 274.828 171.027 274.071C167.748 272.142 164.472 270.393 161.41 268.111C152.477 261.457 145.387 251.319 142.576 240.5L141.32 235.039C138.856 235.663 136.4 236.464 133.875 236.774L133.419 236.834C130.505 237.194 127.489 236.786 124.622 236.247C117.128 234.837 109.201 228.935 105.059 222.625C100.272 215.33 98.7086 206.416 98.3796 197.833L98.2073 174.751C98.3061 172.286 98.2589 169.646 98.7426 167.225L98.737 167.164C99.5933 154.117 105.311 141.6 118.625 137.671C119.007 137.559 122.01 137.006 122.156 136.813C122.159 136.809 122.241 136.138 122.251 136.05L122.615 131.344C122.977 127.886 123.754 124.428 124.591 121.057C129.868 99.803 140.69 79.5788 154.926 63.0096C157.712 59.7671 160.515 56.5407 163.607 53.5839C182.285 35.7222 204.925 22.475 230.454 17.4893L239.375 16.0212C240.803 15.8324 242.148 15.5533 243.598 15.5855L250.53 15.0395ZM131.301 365.625C119.737 372.667 107.349 378.219 96.0459 385.695C88.881 390.435 82.3859 396.133 76.0934 401.952C65.0057 412.205 54.2904 423.424 46.013 436.126C43.0265 440.709 40.1497 445.436 38.1653 450.562C40.3817 452.785 42.6108 455.036 45.1973 456.833C54.9075 463.58 67.3342 467.252 78.75 469.793C90.7121 472.455 102.857 474.193 115.067 475.242L138.75 476.597C150.909 477.281 163.128 478.697 175.307 478.715L419.299 471.431C433.272 468.822 447.814 466.286 460.792 460.234C463.777 458.842 466.861 457.254 469.488 455.257C471.228 453.934 472.769 452.345 474.662 451.242C470.818 444.303 467.629 437.232 463.288 430.533C451.369 412.141 434.737 396.368 416.375 384.502C405.902 377.734 394.517 371.889 383.354 366.339C377.597 372.824 370.705 377.57 363.489 382.266C339.916 397.607 312.701 407.044 284.701 409.732C282.889 409.906 281.089 410.305 279.273 410.418L267.952 411.173C264.983 411.255 262.018 410.98 259.049 410.964L240.964 410.589C222.18 409.263 203.106 404.718 185.625 397.764C175.513 393.742 165.582 388.83 156.373 383.019C148.209 377.868 140.671 372.09 133.019 366.232C132.246 365.64 132.29 365.531 131.301 365.625ZM343.096 258.011L343.573 255.899L346.23 242.995L345.908 243.232C337.114 249.64 322.256 249.898 311.926 248.216C308.763 247.701 305.569 247.163 302.5 246.216C292.173 243.029 283.005 236.373 276.685 227.609C272.184 221.368 269.759 214.768 267.251 207.596C264.988 207.436 262.613 207.362 260.425 206.722C258.968 211.196 257.766 215.829 255.981 220.184C251.802 230.385 244.067 238.311 234.25 243.236C220.118 250.327 203.189 251.985 188.125 246.873L181.099 243.962C184.005 252.594 185.531 261.585 188.398 270.214C195.516 291.639 210.873 312.277 231.369 322.403C239.14 326.242 247.107 328.487 255.67 329.592C258.791 329.995 262.065 330.352 265.216 330.238C272.8 329.964 280.5 328.076 287.645 325.606L293.755 323.05C297.258 321.633 300.646 319.475 303.769 317.375C318.803 307.265 330.26 292.155 337.188 275.478L343.096 258.011ZM359.103 169.611C359.374 167.454 359.291 165.174 359.292 163C359.293 160.012 359.322 156.997 359.083 154.017L358.541 146.089C357.6 132.526 354.584 115.203 344.269 105.365C339.402 100.723 332.985 98.2819 326.273 98.46C323.777 98.5262 321.367 99.5102 319.148 100.586C313.088 103.526 308.451 108.073 302.755 111.439L293.25 117.227C281.632 123.747 269.773 128.166 256.5 129.765C253.066 130.178 249.507 130.572 246.044 130.391C241.823 130.172 237.442 130.006 233.295 129.15C229.127 128.289 225.071 127.572 220.974 126.374C217.66 125.404 214.434 124.182 211.214 122.945C207.211 121.407 202.109 118.805 197.75 119.771C194.369 120.52 192.157 121.67 190.193 124.66C189.126 126.284 188.686 127.935 188.237 129.803C186.407 137.419 188.455 144.348 189.819 151.83C190.503 155.579 189.889 158.995 187.672 162.086C185.842 164.638 183.377 166.334 181.18 168.505C178.677 170.977 176.466 173.839 174.52 176.758C180.555 175.059 186.934 174.489 193.175 174.038C203.721 173.277 213.767 173.375 224.25 174.952C234.314 176.465 244.575 177.769 253.61 182.866C256.065 184.251 258.353 186.214 260.161 188.375C260.578 188.873 261.332 190.25 261.803 190.562C262.024 190.708 263 190.836 263.312 190.909C264.444 191.177 265.524 191.54 266.625 191.91C267.583 190.884 268.046 189.753 268.845 188.646C269.823 187.29 271.148 186.042 272.435 184.981C277.612 180.712 283.929 178.514 290.375 176.994C299.298 174.89 308.367 174.048 317.52 173.742C322.614 173.571 328.16 173.357 333.214 173.954C342.166 175.012 351.069 174.531 359.083 179.445L359.103 169.611ZM193.162 315.625C188.252 316.92 184.984 319.28 182.41 323.691C179.821 328.129 178.062 333.025 175.259 337.342C168.627 347.554 156.69 351.751 147.082 358.357C152.63 361.77 157.85 365.888 163.291 369.501C167.914 372.571 172.829 375.194 177.75 377.747C205.257 392.02 236.937 397.768 267.735 396.511C279.256 396.041 290.753 394.739 301.992 392.048C311.684 389.727 321.244 386.856 330.446 382.998C337.639 379.983 344.404 376.366 351.182 372.534L369.288 359.01L368.896 358.805C367.417 358.014 366.016 356.923 364.638 355.963C357.569 351.038 351.849 344.954 347.323 337.625C345.005 333.871 342.896 329.592 339.661 326.517C337.045 324.03 334.099 322.774 330.787 321.564C328.553 324.733 326.198 327.726 324.125 331.027C321.114 335.822 318.587 340.754 315.243 345.375C304.997 359.532 289.432 370.116 272.119 373.154C254.776 376.196 236.622 371.836 222.328 361.692C210.863 353.556 201.67 341.173 197.463 327.75C196.366 324.25 196.019 320.256 194.592 316.933C194.41 316.51 194.308 315.893 193.877 315.706C193.484 315.536 193.636 315.585 193.162 315.625ZM218.699 65.4119C217.764 65.9445 216.724 66.2344 215.741 66.6636C211.461 68.3274 207.612 70.5639 203.695 72.9317C186.85 83.1158 175.017 97.9577 167.104 115.846C159.375 133.32 156.712 152.418 154.375 171.209L152.699 190.75C152.497 196.259 152.06 202.273 152.677 207.746L153.749 219.909C154.884 229.224 156.971 238.706 161.572 246.953C163.603 250.594 165.877 253.7 169.134 256.347L170.605 257.498L167.201 245.65L161.176 213.269C159.819 205.556 157.971 197.844 157.545 189.997C157.387 187.082 157.688 184.479 158.062 181.61C158.814 175.85 161.929 169.756 165.125 164.966C167.273 161.746 169.846 158.742 172.314 155.767C172.681 155.324 174.509 153.409 174.537 152.914C174.571 152.294 174.136 151.154 174.015 150.5C173.685 148.729 173.471 146.98 173.397 145.181L173.374 145.16C173.087 141.973 173.043 138.8 173.06 135.601C173.071 133.399 173.075 130.707 173.684 128.588C174.153 123.544 176.231 117.669 179.214 113.524C182.18 109.402 186.868 106.107 191.917 105.25C196.445 104.323 200.347 104.394 204.878 105.237C207.366 104.712 219.172 110.017 222.335 111.152C225.461 112.274 228.605 113.29 231.849 114.018C241.151 116.103 250.635 116.357 260 114.504C272.928 111.946 285.308 104.898 296.053 97.5111C301.105 94.0374 305.939 90.2786 311.415 87.4614C314.784 85.7277 318.317 84.6368 321.875 83.3832L321.776 82.997C314.594 77.5828 307.711 71.8802 299.618 67.8378C289.815 62.9414 279.399 60.5817 268.572 59.4596C256.348 58.1928 244.536 58.5339 232.518 61.2523C227.803 62.3189 223.27 63.872 218.699 65.4119ZM149.392 119.916L149.548 119.117C154.335 105.549 161.166 93.0594 170.303 81.9127C184.889 64.1186 206.025 51.5608 228.373 46.4605C233.72 45.2403 239.168 44.6232 244.618 44.101L260.032 43.7207C262.178 43.7361 264.431 43.6194 266.549 43.9854C267.082 44.0774 267.615 44.092 268.154 44.1075C284.691 45.7706 301.33 50.2982 315.581 59.0519C321.379 62.6135 326.933 66.9382 331.254 72.2334C332.827 74.1607 334.211 76.173 335.407 78.3538L338.167 83.992C338.387 84.4337 338.793 85.5516 339.109 85.862C339.253 86.003 340.08 86.2554 340.308 86.3469L344.376 87.8749C346.376 88.6917 348.399 89.8679 350.193 91.0738C361.745 98.8374 367.361 112.379 370.307 125.5C370.786 127.634 371.66 129.734 372.109 131.848C372.34 132.935 373.06 133.681 373.875 134.387L374.3 134.292C374.983 132.22 374.053 128.58 373.584 126.465C371.355 116.406 367.959 106.874 363.327 97.6697C355.857 82.8276 345.772 69.3771 332.903 58.767C320.03 48.1526 305.118 40.611 289.346 35.3752C279.292 32.0377 268.241 30.0693 257.638 29.9849C252.176 29.9415 246.56 30.592 241.18 31.4635C228.776 33.4728 216.634 37.0245 205.401 42.7485C198.652 46.1874 192.056 50.048 185.977 54.578C170.445 66.1517 157.292 82.0338 148.953 99.5C146.844 103.918 144.643 108.585 143.124 113.244C141.63 117.825 140.153 122.639 139.14 127.344C138.466 130.477 138.406 134.015 137.29 137C138.006 137.958 140.675 138.682 141.815 139.422L143.588 140.549C144.767 139.131 144.998 136.573 145.395 134.803L148.29 123.409C148.601 122.364 148.879 120.837 149.392 119.916ZM174.809 191.736C174.141 191.87 173.515 191.935 172.969 192.375C173.352 202.144 174.913 211.916 178.647 220.981C180.881 226.06 184.73 229.947 189.729 232.299C196.759 235.606 205.341 235.833 212.903 234.722C215.583 234.329 218.529 233.835 221.064 232.87C231.536 228.884 239.468 221.477 244.141 211.312L246.364 204.776L247.905 196.496C244.192 194.874 240.712 193.193 236.789 192.075C227.04 189.296 216.447 188.537 206.359 188.503L196.616 188.519C189.29 188.81 181.92 189.997 174.809 191.736ZM320.622 188.099C313.674 188.643 306.88 189.29 299.999 190.414C295.468 191.155 290.757 191.925 286.375 193.329C284.309 193.991 282.427 194.96 280.45 195.826C281.046 200.544 281.887 204.765 283.184 209.317C285.474 217.359 292.52 225.118 299.75 229.067C304.209 231.502 308.452 232.752 313.346 233.916C316.308 234.442 319.022 234.464 322 234.624C328.799 234.992 337.096 233.358 342.272 228.737L342.778 228.263L342.997 228.065C347.887 223.516 349.437 215.644 350.571 209.41C351.435 204.66 352.15 199.846 352.268 195.012L352.298 192.467C350.166 191.7 348.049 190.855 345.862 190.247C339.832 188.57 332.843 188.004 326.604 187.97C324.674 187.959 322.565 187.804 320.655 188.083L320.622 188.099ZM126.426 151.04C121.528 152.616 118.026 154.26 115.556 159.028C114.376 161.305 113.695 164.29 113.376 166.842C112.727 172.027 112.982 176.973 113.029 182.181C113.108 191.069 112.679 200.657 115.285 209.237C116.183 212.193 117.76 214.931 119.635 217.375C121.594 219.93 124.415 220.943 127.472 221.427C129.616 221.757 135.46 222.067 137.171 220.682C138.374 219.708 138.344 218.309 138.595 216.911C138.822 215.65 138.522 214.427 138.478 213.158L138.067 202.7L137.805 189.375C137.745 187.992 138.007 186.52 138.022 185.115C138.123 175.364 139.153 165.583 140.162 155.877C137.065 153.524 134.251 151.922 130.409 151.176C129.083 150.918 127.767 150.993 126.426 151.04ZM376.794 219.315C377.87 220.237 378.831 220.945 380.263 221.194C383.878 221.821 388.055 220.939 390.993 218.688C397.821 213.459 398.085 203.248 399.07 195.458L399.205 194.317C399.469 190.957 399.298 187.472 399.3 184.098C399.303 177.075 399.629 169.751 398.077 162.862C397.509 160.342 396.303 157.33 394.549 155.391C389.581 149.896 380.978 150.168 374.183 149.88L373.72 150.25C373.395 156.293 374.183 162.523 374.222 168.605L374.205 199.164C374.206 204.705 373.543 211.194 374.825 216.566C375.103 217.733 375.973 218.498 376.794 219.315ZM213.138 328.218C213.648 329.568 214.091 330.921 214.898 332.125C216.693 334.805 218.383 337.567 220.494 340.017C227.845 348.547 239.228 355.846 250.332 358.15C260.66 360.292 270.812 359.695 280.472 355.192C282.55 354.224 284.546 352.838 286.456 351.571L299.833 341.422C301.241 340.066 302.776 338.711 303.928 337.125C304.645 336.137 305.44 335.212 305.886 334.065L305.5 333.641C303.736 334.261 302.5 335.388 300.902 336.282C297.604 338.13 294.072 339.772 290.5 341.011C273.891 346.776 254.877 346.292 238.175 341.35C234.616 340.297 231.053 339.076 227.706 337.447C222.346 334.839 217.988 331.563 213.138 328.218ZM376.794 219.315C375.973 218.498 375.103 217.733 374.825 216.566C373.543 211.194 374.206 204.705 374.205 199.164L374.222 168.605C374.183 162.523 373.395 156.293 373.72 150.25L374.183 149.88C373.766 149.582 373.743 149.64 373.25 149.746C372.991 149.801 372.731 149.813 372.615 150.072C372.255 150.878 372.438 152.643 372.434 153.541C372.422 156.53 372.353 159.573 372.583 162.554C372.762 164.878 373.108 167.071 373.143 169.445L373.146 211.01C373.143 212.711 373.43 214.409 373.438 216.125L373.645 216.375L373.904 216.26L373.919 216.551C373.985 217.574 374.063 218.362 374.875 219.077L375.149 219.305C375.414 219.537 375.565 219.734 375.75 220.028C376.225 219.822 376.175 219.692 376.537 219.429L376.794 219.315ZM178.647 220.981C174.913 211.916 173.352 202.144 172.969 192.375C173.515 191.935 174.141 191.87 174.809 191.736L172.875 191.723L172.625 191.421C171.812 192.257 171.923 193.217 171.929 194.368C171.932 195.035 172.042 195.58 172.194 196.224C172.815 198.862 171.928 201.709 172.885 204.25C173.563 206.047 172.942 208.307 173.768 209.947C174.505 211.411 174.3 213.075 175.048 214.645C175.247 215.061 175.251 215.311 175.314 215.75L175.455 216.375L175.75 216.56C176.098 216.9 176.09 217.612 176.26 218.074C176.414 218.491 176.394 218.796 176.375 219.232L176.884 219.375C177.139 220.139 177.295 221.227 177.989 221.625L178.215 222.155L178.284 221.767C178.397 221.222 178.319 221.425 178.647 220.981ZM98.7426 167.225C98.2589 169.646 98.3061 172.286 98.2073 174.751L98.3796 197.833C98.5653 197.616 98.7593 197.417 98.875 197.148C99.3148 196.125 99.3235 173.304 98.8917 171.465C98.7576 170.894 98.7246 170.474 98.7558 169.884L98.7426 167.225ZM359.083 154.017C359.322 156.997 359.293 160.012 359.292 163C359.291 165.174 359.374 167.454 359.103 169.611L359.409 169.638L359.709 175.431C359.737 176.729 359.543 178.111 359.875 179.373C360.022 179.047 360.046 179.038 360.117 178.625C360.284 177.654 360.019 176.297 360.017 175.288L360.049 157.023C360.048 156.106 360.331 153.673 360.042 153C359.962 152.813 359.764 152.703 359.625 152.554L359.409 154.125L359.083 154.017ZM244.618 44.101C246.246 44.6263 247.817 44.0633 249.393 44.375C251.392 44.7702 253.49 44.5242 255.556 44.5204L265.375 44.6225L265.554 44.486C266.296 44.0751 267.306 44.4679 268.154 44.1075C267.615 44.092 267.082 44.0774 266.549 43.9854C264.431 43.6194 262.178 43.7361 260.032 43.7207L244.618 44.101ZM173.684 128.588C173.075 130.707 173.071 133.399 173.06 135.601C173.043 138.8 173.087 141.973 173.374 145.16L173.397 145.181L173.614 144.81L173.875 145.041C174.293 143.572 174.31 132.707 173.93 131.087C173.739 130.273 173.771 129.422 173.684 128.588ZM191.917 105.25L194.803 105.47C198.136 105.963 201.559 105.404 204.878 105.237C200.347 104.394 196.445 104.323 191.917 105.25ZM246.364 204.776L244.141 211.312L244.53 211.218L244.874 211.062L245.312 211.152C245.885 210.058 246.403 208.821 246.675 207.615L247.7 203.625L247.375 203.214C246.988 203.884 247.489 204.202 246.942 204.875L246.364 204.776ZM243.598 15.5855C244.449 15.9395 245.258 15.7233 246.125 15.8725C247.093 16.039 248.252 16.2739 249.25 16.2622C250.781 16.2443 252.308 15.9566 253.875 16.1023C254.408 16.1518 254.14 16.2194 254.622 15.875C253.202 15.8022 251.469 15.7845 250.12 15.3642L250.53 15.0395L243.598 15.5855ZM215.741 66.6636C216.724 66.2344 217.764 65.9445 218.699 65.4119L218.275 65C218.599 64.7897 218.825 64.6892 219.182 64.5625L218.873 64.375L218.625 64.1302L218.25 64.4731C217.666 64.5751 217.136 64.6663 216.579 64.875L216.375 65.3725L216 65.2552L215.769 65.3419L214.99 65.6021L214.443 65.875C214.862 66.1903 215.273 66.4261 215.741 66.6636ZM343.573 255.899L343.096 258.011C343.392 258.016 343.845 258.261 344.125 258.373L344.228 257.875C344.479 256.994 344.668 256.239 344.574 255.298L343.573 255.899ZM23.3011 448.625C23.0886 449.727 22.9858 453.248 23.5204 454.125C23.6818 453.067 23.8235 449.654 23.4157 448.734L23.3011 448.625ZM149.548 119.117L149.392 119.916L149.875 122.028L150.134 120.75L150.375 120.444C150.63 119.969 150.812 119.116 150.625 118.627C150.142 119.211 150.482 119.769 150.062 120.162L150.107 119.631L149.548 119.117Z"/>
	<defs>
		<linearGradient id="gradient_0" gradientUnits="userSpaceOnUse" x1="150.11958" y1="120.66278" x2="149.44952" y2="120.45109">
			<stop offset="0" stop-color="#010001" stop-opacity="0.96078432"/>
			<stop offset="1" stop-color="#000100"/>
		</linearGradient>
	</defs>
	<path fill="url(#gradient_0)" d="M149.548 119.117L150.107 119.631L150.062 120.162C150.482 119.769 150.142 119.211 150.625 118.627C150.812 119.116 150.63 119.969 150.375 120.444L150.134 120.75L149.875 122.028L149.392 119.916L149.548 119.117Z"/>
	<path fill="#010001" fill-opacity="0.96078432" d="M23.3011 448.625L23.4157 448.734C23.8235 449.654 23.6818 453.067 23.5204 454.125C22.9858 453.248 23.0886 449.727 23.3011 448.625Z"/>
	<defs>
		<linearGradient id="gradient_1" gradientUnits="userSpaceOnUse" x1="344.30099" y1="256.6506" x2="343.57751" y2="256.58905">
			<stop offset="0" stop-color="#010001" stop-opacity="0.95294118"/>
			<stop offset="1" stop-color="#000100"/>
		</linearGradient>
	</defs>
	<path fill="url(#gradient_1)" d="M343.573 255.899L344.574 255.298C344.668 256.239 344.479 256.994 344.228 257.875L344.125 258.373C343.845 258.261 343.392 258.016 343.096 258.011L343.573 255.899Z"/>
	<path d="M215.741 66.6636C215.273 66.4261 214.862 66.1903 214.443 65.875L214.99 65.6021L215.769 65.3419L216 65.2552L216.375 65.3725L216.579 64.875C217.136 64.6663 217.666 64.5751 218.25 64.4731L218.625 64.1302L218.873 64.375L219.182 64.5625C218.825 64.6892 218.599 64.7897 218.275 65L218.699 65.4119C217.764 65.9445 216.724 66.2344 215.741 66.6636Z"/>
	<path fill="#010001" fill-opacity="0.96078432" d="M243.598 15.5855L250.53 15.0395L250.12 15.3642C251.469 15.7845 253.202 15.8022 254.622 15.875C254.14 16.2194 254.408 16.1518 253.875 16.1023C252.308 15.9566 250.781 16.2443 249.25 16.2622C248.252 16.2739 247.093 16.039 246.125 15.8725C245.258 15.7233 244.449 15.9395 243.598 15.5855Z"/>
	<path fill="#010001" fill-opacity="0.96078432" d="M246.364 204.776L246.942 204.875C247.489 204.202 246.988 203.884 247.375 203.214L247.7 203.625L246.675 207.615C246.403 208.821 245.885 210.058 245.312 211.152L244.874 211.062L244.53 211.218L244.141 211.312L246.364 204.776Z"/>
	<path d="M191.917 105.25C196.445 104.323 200.347 104.394 204.878 105.237C201.559 105.404 198.136 105.963 194.803 105.47L191.917 105.25Z"/>
	<path fill="#010001" fill-opacity="0.90980393" d="M173.684 128.588C173.771 129.422 173.739 130.273 173.93 131.087C174.31 132.707 174.293 143.572 173.875 145.041L173.614 144.81L173.397 145.181L173.374 145.16C173.087 141.973 173.043 138.8 173.06 135.601C173.071 133.399 173.075 130.707 173.684 128.588Z"/>
	<path d="M244.618 44.101L260.032 43.7207C262.178 43.7361 264.431 43.6194 266.549 43.9854C267.082 44.0774 267.615 44.092 268.154 44.1075C267.306 44.4679 266.296 44.0751 265.554 44.486L265.375 44.6225L255.556 44.5204C253.49 44.5242 251.392 44.7702 249.393 44.375C247.817 44.0633 246.246 44.6263 244.618 44.101Z"/>
	<path fill="#010001" fill-opacity="0.93725491" d="M359.083 154.017L359.409 154.125L359.625 152.554C359.764 152.703 359.962 152.813 360.042 153C360.331 153.673 360.048 156.106 360.049 157.023L360.017 175.288C360.019 176.297 360.284 177.654 360.117 178.625C360.046 179.038 360.022 179.047 359.875 179.373C359.543 178.111 359.737 176.729 359.709 175.431L359.409 169.638L359.103 169.611C359.374 167.454 359.291 165.174 359.292 163C359.293 160.012 359.322 156.997 359.083 154.017Z"/>
	<path fill="#010001" fill-opacity="0.93725491" d="M98.7426 167.225L98.7558 169.884C98.7246 170.474 98.7576 170.894 98.8917 171.465C99.3235 173.304 99.3148 196.125 98.875 197.148C98.7593 197.417 98.5653 197.616 98.3796 197.833L98.2073 174.751C98.3061 172.286 98.2589 169.646 98.7426 167.225Z"/>
	<path d="M178.647 220.981C178.319 221.425 178.397 221.222 178.284 221.767L178.215 222.155L177.989 221.625C177.295 221.227 177.139 220.139 176.884 219.375L176.375 219.232C176.394 218.796 176.414 218.491 176.26 218.074C176.09 217.612 176.098 216.9 175.75 216.56L175.455 216.375L175.314 215.75C175.251 215.311 175.247 215.061 175.048 214.645C174.3 213.075 174.505 211.411 173.768 209.947C172.942 208.307 173.563 206.047 172.885 204.25C171.928 201.709 172.815 198.862 172.194 196.224C172.042 195.58 171.932 195.035 171.929 194.368C171.923 193.217 171.812 192.257 172.625 191.421L172.875 191.723L174.809 191.736C174.141 191.87 173.515 191.935 172.969 192.375C173.352 202.144 174.913 211.916 178.647 220.981Z"/>
	<path d="M376.794 219.315L376.537 219.429C376.175 219.692 376.225 219.822 375.75 220.028C375.565 219.734 375.414 219.537 375.149 219.305L374.875 219.077C374.063 218.362 373.985 217.574 373.919 216.551L373.904 216.26L373.645 216.375L373.438 216.125C373.43 214.409 373.143 212.711 373.146 211.01L373.143 169.445C373.108 167.071 372.762 164.878 372.583 162.554C372.353 159.573 372.422 156.53 372.434 153.541C372.438 152.643 372.255 150.878 372.615 150.072C372.731 149.813 372.991 149.801 373.25 149.746C373.743 149.64 373.766 149.582 374.183 149.88L373.72 150.25C373.395 156.293 374.183 162.523 374.222 168.605L374.205 199.164C374.206 204.705 373.543 211.194 374.825 216.566C375.103 217.733 375.973 218.498 376.794 219.315Z"/>
</svg>
