<?xml version="1.0" encoding="utf-8" ?>
<svg xmlns="http://www.w3.org/2000/svg" xmlns:xlink="http://www.w3.org/1999/xlink" width="213" height="309">
	<path transform="scale(1.31611 1.31611)" d="M152.135 219.027L151.945 219.505C151.219 221.04 149.332 221.543 147.868 222.054C146.96 221.755 146.004 221.469 145.213 220.92C142.178 218.813 139.36 216.083 136.53 213.706L122.916 202.445L99.6659 182.898L88.0769 172.876C87.3785 173.534 86.5977 173.929 85.875 174.529L80.3801 179.134L64.5379 192.492L57.7699 198.07C56.8098 198.854 55.48 199.641 54.6894 200.57C53.4876 201.983 51.6963 203.08 50.25 204.243L44.6861 208.936L35.5191 216.696C33.8842 218.079 32.2621 219.611 30.5025 220.827C29.7878 221.32 28.7923 221.779 27.9124 221.827C26.7596 221.891 25.2705 221.237 24.4362 220.458C23.5344 219.615 23.3257 218.168 23.2883 217L23.2554 181.007L23.2435 106.858L23.2458 44.0772L23.2458 16.3642C23.3035 15.1007 23.3846 14.5094 24.2954 13.5609C25.1849 12.6346 26.3256 12.2483 27.5871 12.225L53.3632 12.2764L106.94 12.2714L135.168 12.2774C139.582 12.2697 144.356 11.8872 148.733 12.2563C149.703 12.3381 151.023 12.8893 151.702 13.5994C152.857 14.8086 152.896 17.0087 152.839 18.5526L152.743 37.4167L152.769 70.875L152.773 166.49L152.743 199.417C152.75 205.175 153.072 211.127 152.753 216.862C152.72 217.46 152.552 218.567 152.135 219.027ZM32.7606 64.2865L32.7901 103.468L32.817 163.541L32.7016 188.352C32.655 193.81 32.3787 199.3 32.761 204.75C32.8258 205.674 32.8168 206.013 33.4945 206.662C35.3236 204.612 37.6478 202.987 39.745 201.218L53.1207 190.046L69.1552 176.547L84.7719 163.42C85.4909 162.872 86.3514 162.346 87.2495 162.172L87.375 162.148C88.78 161.88 90.1386 162.601 91.2821 163.35C92.7008 164.28 94.042 165.577 95.3643 166.651L105.121 174.814L133.089 198.077L138.162 202.358C139.638 203.686 141.097 205.422 142.843 206.375C142.942 206.244 143.16 206.019 143.22 205.875C143.324 205.625 143.233 204.7 143.236 204.387L143.272 200.037L143.227 168.579L143.23 21.9893L32.8105 21.8349L32.7606 64.2865ZM152.135 219.027C152.552 218.567 152.72 217.46 152.753 216.862C153.072 211.127 152.75 205.175 152.743 199.417L152.773 166.49L152.769 70.875L152.743 37.4167L152.839 18.5526L152.375 17.3775C151.76 18.2544 152.11 18.6602 151.812 19.536C151.76 19.69 151.531 19.8473 151.488 20C151.337 20.5432 151.489 21.5627 151.49 22.1646L151.491 28.244L151.516 58.1649L151.488 143.898L151.442 194.55L151.435 209.817C151.45 212.279 152.113 216.913 151.127 219.125L151.451 219.459L151.676 219.08L152.135 219.027ZM33.4945 206.662C32.8168 206.013 32.8258 205.674 32.761 204.75C32.3787 199.3 32.655 193.81 32.7016 188.352L32.817 163.541L32.7901 103.468L32.7606 64.2865L32.7401 64.1948C32.1858 61.635 32.4169 58.6418 32.3878 56.0227C32.1084 56.3003 32.153 56.3781 32.1395 56.7488L31.9935 68.0097L31.8523 178.875L31.7008 178.062C31.4302 178.687 31.5716 179.751 31.5731 180.437L31.5739 186.203L31.3402 200.198L31.3715 205.019C31.3994 205.617 31.7126 206.053 31.5899 206.668L32.1608 207.245C32.6015 207.159 33.1804 207.004 33.4945 206.662Z"/>
	<path transform="scale(1.31611 1.31611)" d="M33.4945 206.662C33.1804 207.004 32.6015 207.159 32.1608 207.245L31.5899 206.668C31.7126 206.053 31.3994 205.617 31.3715 205.019L31.3402 200.198L31.5739 186.203L31.5731 180.437C31.5716 179.751 31.4302 178.687 31.7008 178.062L31.8523 178.875L31.9935 68.0097L32.1395 56.7488C32.153 56.3781 32.1084 56.3003 32.3878 56.0227C32.4169 58.6418 32.1858 61.635 32.7401 64.1948L32.7606 64.2865L32.7901 103.468L32.817 163.541L32.7016 188.352C32.655 193.81 32.3787 199.3 32.761 204.75C32.8258 205.674 32.8168 206.013 33.4945 206.662Z"/>
	<path transform="scale(1.31611 1.31611)" d="M152.135 219.027L151.676 219.08L151.451 219.459L151.127 219.125C152.113 216.913 151.45 212.279 151.435 209.817L151.442 194.55L151.488 143.898L151.516 58.1649L151.491 28.244L151.49 22.1646C151.489 21.5627 151.337 20.5432 151.488 20C151.531 19.8473 151.76 19.69 151.812 19.536C152.11 18.6602 151.76 18.2544 152.375 17.3775L152.839 18.5526L152.743 37.4167L152.769 70.875L152.773 166.49L152.743 199.417C152.75 205.175 153.072 211.127 152.753 216.862C152.72 217.46 152.552 218.567 152.135 219.027Z"/>
</svg>
