<?xml version="1.0" encoding="utf-8" ?>
<svg xmlns="http://www.w3.org/2000/svg" xmlns:xlink="http://www.w3.org/1999/xlink" width="619" height="619">
	<path transform="scale(1.21016 1.21016)" d="M239.98 121.89C245.241 121.066 251.091 121.4 256.375 121.917C257.337 122.011 258.397 121.946 259.323 122.231C269.957 123.151 280.338 127.434 288.857 133.806C291.789 135.999 294.368 138.826 297.519 140.689C300.794 142.626 304.323 143.984 307.757 145.6C313.533 148.319 318.838 152.341 322.93 157.243C324.432 159.042 325.74 161.093 326.841 163.16L329.775 169.835C331.519 174.592 331.588 179.548 332.337 184.475C332.573 186.024 332.495 187.679 332.507 189.244C332.521 191.132 332.619 193.088 332.259 194.946C331.94 196.591 332.041 198.411 331.826 200.091C331.065 206.043 330.178 211.903 328.803 217.748C328.467 219.177 327.959 220.562 327.375 221.908C327.109 222.521 325.992 224.434 326.068 225.028C326.126 225.486 326.514 226.223 326.683 226.677L328.247 230.967C328.947 235.098 328.936 241.065 327.201 244.957L327.136 245.025L326.864 246.055C326.196 248.336 324.996 250.523 323.935 252.642L318.649 263.241C316.618 267.547 315.256 272.11 313.125 276.389C305.918 290.861 294.242 303.341 279.985 311.065C269.9 316.528 260.101 318.417 248.76 316.865C246.038 316.493 243.381 316.06 240.75 315.227C223.054 309.624 208.088 293.618 199.625 277.476L192.308 261.696C190.113 256.925 187.446 252.196 185.763 247.224C183.763 241.313 183.406 234.251 185.265 228.27L185.392 227.937C185.551 227.128 186.277 225.237 186.202 224.504C186.152 224.012 185.611 223.07 185.414 222.564L183.398 217.364C181.118 210.915 179.544 204.502 178.874 197.694L178.861 197.691C178.397 195.815 178.482 193.938 178.487 192.019C178.49 190.629 178.398 189.141 178.598 187.764C178.894 185.74 178.754 183.719 179.236 181.706L179.259 181.478C179.353 179.068 180.067 176.425 180.676 174.093C181.207 172.055 181.694 169.961 182.549 168.031C185.456 160.316 189.255 153.89 194.267 147.353C205.211 133.08 222.369 124.188 239.98 121.89ZM290.428 183.337C284.166 184.483 278.157 186.301 271.995 187.843C260.336 190.761 248.953 191.897 236.992 190.47C233.225 190.02 229.26 189.053 225.619 187.979C223.363 187.313 220.694 186.176 218.375 185.979C216.952 185.858 216.114 186.055 214.875 186.764L214.561 186.933C210.119 189.374 208.477 197.249 207.213 201.765C206.075 205.835 205.921 210.137 205.282 214.278C204.7 218.06 205.819 222.451 204.672 226.127C203.71 229.214 200.456 229.914 199.139 232.622C198.574 233.782 198.541 235.151 198.465 236.413C198.447 236.723 198.38 236.952 198.327 237.25C198.187 238.043 198.41 238.742 198.53 239.521C198.865 241.703 200.186 244.079 201.468 245.841C204.858 250.502 206.074 255.392 208.195 260.624C212.189 270.48 217.96 280.273 225.426 287.911C226.271 288.776 227.29 289.446 228.147 290.296C234.862 296.451 241.796 300.225 250.721 302.139C259.319 303.982 269.898 300.598 277.068 295.876C288.642 288.253 297.377 276.128 302.826 263.54C304.462 259.761 305.508 255.736 307.204 251.99C308.924 248.194 312.008 244.719 312.837 240.608C313.25 238.559 313.97 233.443 312.709 231.66C311.366 229.76 309.271 229.147 308.254 226.75C307.033 223.87 307.503 220.392 307.42 217.326C307.187 208.731 305.925 201.264 301.754 193.651C300.354 191.096 298.892 188.692 296.875 186.564L296.551 186.217C295.07 184.662 292.776 183.389 290.578 183.316L290.428 183.337ZM246.204 136.61C239.178 137.19 232.421 138.628 225.875 141.299C217.9 144.553 210.604 150.524 205.08 157.068C198.002 165.455 193.373 177.974 192.645 188.88C192.514 190.839 192.304 192.969 192.564 194.922C192.62 195.348 192.721 195.714 192.845 196.125C197.299 185.712 200.911 174.698 212.355 170.136C218.857 167.544 226.17 172.425 232.359 174.225C235.339 175.092 238.365 175.366 241.411 175.871C243.227 176.172 245.143 176.057 246.984 176.049C252.797 176.022 258.435 175.183 264.134 174.072L276.35 171.266C280.307 170.215 284.307 168.719 288.403 168.378C292.918 168.001 297.872 169.421 301.703 171.81C307.519 175.436 311.84 180.793 315.277 186.635C316.263 188.309 317.671 192.323 319.165 193.375L319.463 193C317.319 182.449 316.071 168.677 306.241 162.11C302.719 159.758 298.969 157.769 295 156.281C292.731 155.43 290.125 154.866 288.034 153.625C286.838 152.915 285.84 151.434 284.983 150.348C283.842 148.9 282.524 147.435 281.105 146.258C273.234 139.734 262.156 137.056 252.118 136.606C250.273 136.523 247.993 136.247 246.204 136.61ZM328.247 230.967L327.377 231.75C327.394 234.16 327.619 236.809 327.286 239.19C327.161 240.088 326.803 240.883 326.574 241.75C326.274 242.885 326.205 244.21 326.132 245.375L326.43 245.476L326.67 245.064L327.136 245.025L327.201 244.957C328.936 241.065 328.947 235.098 328.247 230.967ZM239.98 121.89C240.265 122.071 240.695 122.44 241 122.54C241.955 122.854 244.008 122.572 245.088 122.56L252.036 122.522C253.121 122.52 254.42 122.679 255.477 122.527L256.25 122.344C257.242 122.182 258.313 122.37 259.323 122.231C258.397 121.946 257.337 122.011 256.375 121.917C251.091 121.4 245.241 121.066 239.98 121.89ZM182.549 168.031C181.694 169.961 181.207 172.055 180.676 174.093C180.067 176.425 179.353 179.068 179.259 181.478L179.58 182.625L179.836 182.086L180.104 182.206C180.142 181.88 180.185 181.574 180.284 181.26C180.52 180.507 180.582 179.855 180.612 179.066L180.623 178.75C181.162 178.277 181.097 176.905 181.271 176.151C181.822 173.772 182.478 171.141 183.373 168.875C182.881 168.596 183.002 168.744 182.72 168.316L182.549 168.031ZM179.236 181.706C178.754 183.719 178.894 185.74 178.598 187.764C178.398 189.141 178.49 190.629 178.487 192.019C178.482 193.938 178.397 195.815 178.861 197.691L178.874 197.694L179.116 197.305L179.379 197.395C179.862 196.402 179.597 194.619 179.594 193.5L179.236 181.706ZM185.392 227.937L185.265 228.27L185.696 228.679L185.712 230L185.433 230.298C185.44 230.745 185.509 231.187 185.562 231.631L185.668 230.75C186.048 229.411 186.541 228.174 186.527 226.75L186.31 226.586C186.253 227.112 186.167 227.578 186.02 228.086L185.392 227.937Z"/>
	<path transform="scale(1.21016 1.21016)" d="M185.392 227.937L186.02 228.086C186.167 227.578 186.253 227.112 186.31 226.586L186.527 226.75C186.541 228.174 186.048 229.411 185.668 230.75L185.562 231.631C185.509 231.187 185.44 230.745 185.433 230.298L185.712 230L185.696 228.679L185.265 228.27L185.392 227.937Z"/>
	<path fill="#010001" fill-opacity="0.95294118" transform="scale(1.21016 1.21016)" d="M179.236 181.706L179.594 193.5C179.597 194.619 179.862 196.402 179.379 197.395L179.116 197.305L178.874 197.694L178.861 197.691C178.397 195.815 178.482 193.938 178.487 192.019C178.49 190.629 178.398 189.141 178.598 187.764C178.894 185.74 178.754 183.719 179.236 181.706Z"/>
	<path transform="scale(1.21016 1.21016)" d="M182.549 168.031L182.72 168.316C183.002 168.744 182.881 168.596 183.373 168.875C182.478 171.141 181.822 173.772 181.271 176.151C181.097 176.905 181.162 178.277 180.623 178.75L180.612 179.066C180.582 179.855 180.52 180.507 180.284 181.26C180.185 181.574 180.142 181.88 180.104 182.206L179.836 182.086L179.58 182.625L179.259 181.478C179.353 179.068 180.067 176.425 180.676 174.093C181.207 172.055 181.694 169.961 182.549 168.031Z"/>
	<path transform="scale(1.21016 1.21016)" d="M239.98 121.89C245.241 121.066 251.091 121.4 256.375 121.917C257.337 122.011 258.397 121.946 259.323 122.231C258.313 122.37 257.242 122.182 256.25 122.344L255.477 122.527C254.42 122.679 253.121 122.52 252.036 122.522L245.088 122.56C244.008 122.572 241.955 122.854 241 122.54C240.695 122.44 240.265 122.071 239.98 121.89Z"/>
	<path fill="#010001" fill-opacity="0.95294118" transform="scale(1.21016 1.21016)" d="M328.247 230.967C328.947 235.098 328.936 241.065 327.201 244.957L327.136 245.025L326.67 245.064L326.43 245.476L326.132 245.375C326.205 244.21 326.274 242.885 326.574 241.75C326.803 240.883 327.161 240.088 327.286 239.19C327.619 236.809 327.394 234.16 327.377 231.75L328.247 230.967Z"/>
	<path transform="scale(1.21016 1.21016)" d="M168.1 193.51C167.744 195.673 166.525 197.849 165.591 199.823C163.209 204.858 160.328 209.575 157.631 214.438C154.951 219.27 152.553 224.282 149.464 228.871C142.063 239.866 132.485 250.111 119.562 254.342C116.956 255.195 114.393 255.61 111.729 256.143C108.867 256.715 105.329 256.732 102.435 256.32C96.2036 255.434 90.9347 254.109 85.4639 250.85C71.5482 242.56 62.3891 226.927 54.4623 213.307C52.0048 209.084 49.2189 204.89 47.2399 200.421C46.1311 197.917 45.4383 195.48 44.7722 192.837C43.7788 188.896 44.2162 183.309 46.3862 179.79L50.5986 173.564C48.9246 168.238 48.9399 161.391 49.6747 155.875C52.5915 133.98 70.8609 114.965 91.7227 108.948C93.6058 108.405 95.5625 107.979 97.5 107.679L103.564 106.801C103.999 106.731 105.162 106.589 105.509 106.343C106.732 105.477 107.791 103.748 108.821 102.625L114.618 96.8221C120.256 91.2493 126.48 86.0003 132.78 81.1913C149.544 68.3956 167.766 58.9149 187.574 51.7964L199.125 47.8088C218.835 42.0359 239.304 39.2722 259.812 40.295C263.669 40.4873 267.658 40.2291 271.476 40.7424C273.887 40.7421 276.666 40.6822 279.028 41.2368C286.115 41.7935 293.228 43.1164 300.175 44.6045C331.972 51.4153 361.155 66.102 386.119 86.8537L399.202 98.7774C400.614 100.196 402.175 101.541 403.48 103.054C404.696 104.464 405.177 106.892 407.375 107.019C409.072 107.118 410.772 106.915 412.456 107.205C415.027 107.647 417.515 107.857 420.066 108.524C432.745 111.835 443.416 119.796 451.029 130.378C457.933 139.973 461.028 150.542 462.113 162.166C462.36 164.815 462.761 167.566 462.417 170.234L462.283 170.954L461.758 174.95L461.956 175.147C463.656 176.872 465.881 179.823 466.566 182.125L466.684 182.503C468.798 189.58 466.84 196.597 463.364 202.857L453.366 220.291C445.569 233.36 436.651 246.64 422.25 253.043C420.512 253.816 418.755 254.613 416.909 255.099C405.156 258.197 394.272 256.266 383.947 249.944C380.266 247.69 377.066 244.787 374.01 241.765C369.949 237.747 366.161 233.373 363.067 228.558L353.569 212.168C350.139 206.458 345.831 200.869 344.284 194.271L343.679 191.426C343.253 189.485 343.232 185.858 343.825 183.956L344.229 181.937C344.742 180.066 345.43 178.226 346.324 176.502C347.146 174.919 348.65 172.964 348.944 171.194C349.259 169.295 348.566 167.229 348.508 165.317C348.385 161.277 348.537 157.254 349.095 153.25C349.84 149.04 350.915 145.008 352.534 141.047C354.591 136.24 357.436 132.165 360.55 128.014C365.594 121.288 373.689 115.599 381.171 111.938L388.556 108.754L368.036 91.4305C364.824 88.8785 361.243 86.6141 357.778 84.4209C350.803 80.0061 343.498 75.9557 336 72.4896C299.067 55.4174 256.068 50.1968 216.25 59.0055C204.678 61.5655 193.808 65.3293 182.732 69.4275C181.94 69.8688 181.181 70.1527 180.32 70.4311L166.314 77.0573C153.842 83.6268 142.017 91.7948 131.605 101.295C128.942 103.725 125.847 106.205 123.611 109.039C125.411 109.479 127.28 109.778 129.032 110.375C140.567 114.305 149.813 123.113 156.029 133.38C160.628 140.975 163.383 148.935 164.37 157.758C164.594 159.759 164.484 161.852 164.497 163.868C164.517 166.736 164.643 169.4 163.948 172.206C163.82 172.724 163.56 172.975 163.962 173.358C166.805 176.067 168.222 178.943 169.135 182.716C169.281 183.834 169.603 185.213 169.494 186.328C169.374 187.546 169.048 188.743 168.945 189.984C168.857 191.052 168.652 192.591 168.1 193.51ZM107.405 121.847C104.796 122.21 102.046 122.387 99.4812 122.936C88.8371 125.214 78.7512 131.221 72.1786 139.944C68.9347 144.249 66.4599 149.167 65.125 154.406C64.7799 155.761 64.6056 157.157 64.3075 158.523C63.3456 162.929 63.6597 168.419 65.8044 172.41C66.8345 174.327 67.5933 177.626 66.9668 179.75C66.2429 182.204 63.363 184.234 61.244 185.432C60.5907 185.801 59.6715 186.138 59.1114 186.625C58.7004 186.982 58.4226 187.509 58.4113 188.059C58.3824 189.468 59.3995 191.597 59.9993 192.875C61.0166 195.042 62.318 197.045 63.509 199.117L68.4102 207.783C75.4998 219.733 83.9774 235.14 97.842 240.098C101.164 241.285 104.606 241.727 108.123 241.565C115.795 241.297 123.847 236.213 128.992 230.744C136.515 222.748 141.825 213.005 147.155 203.485C149.373 199.522 151.717 195.694 153.683 191.592C154.442 190.008 154.808 188.262 155.598 186.676L154.177 186.105C151.504 185.087 148.714 182.822 147.636 180.12C146.633 177.604 146.878 174.859 147.964 172.402L148.389 171.645C149.405 169.91 150.388 168.19 150.835 166.205C151.639 162.63 150.322 157.568 149.355 154.084C146.173 142.625 138.405 132.826 128 126.992C123.158 124.277 118.726 122.854 113.29 121.905C111.559 121.602 109.126 121.529 107.405 121.847ZM365.169 173.041C365.775 175.133 366.639 178.159 365.627 180.226C365.52 180.445 365.546 180.398 365.395 180.54L365.089 181.13C363.615 183.591 360.17 184.327 357.611 185.003C357.854 187.313 358.278 190.056 359.182 192.207C360.506 195.36 362.623 198.111 364.332 201.057L371.436 213.127C372.332 214.608 373.037 216.174 373.994 217.625C380.284 227.16 389.072 238.83 401.045 241.112L401.5 241.194C406.713 242.166 411.75 241.267 416.5 238.974C421.786 236.423 426.292 232.437 430.093 228.002C434.769 222.545 438.34 216.268 442.007 210.125C446.408 202.753 450.981 195.491 453.879 187.375L452.445 186.672C448.721 184.567 445.645 181.798 444.576 177.5C443.825 174.478 446.194 171.32 447.617 168.909C448.33 167.701 448.279 166.233 448.221 164.875C448.065 161.176 447.327 157.492 446.342 153.93C442.936 141.615 434.643 132.228 423.666 126.077C419.85 123.939 415.483 122.121 411.125 121.489C405.502 120.673 398.91 121.701 393.5 123.29C382.234 126.598 372.587 134.342 367.059 144.724C363.935 150.592 361.49 158.572 362.745 165.234C363.239 167.857 364.358 170.483 365.169 173.041ZM169.135 182.716C168.952 182.935 168.466 183.383 168.377 183.625C168.115 184.34 168.635 185.659 168.375 186.377C168.281 186.636 167.895 187.368 167.75 187.627L167.459 188L167.515 188.187C167.957 190.269 167.062 192.108 166.507 194C166.302 194.697 166.341 195.226 165.932 195.875L166.312 196.638C166.688 196.127 166.77 196.032 166.927 195.434L167.047 195.208C167.326 194.668 167.344 194.12 167.67 193.577L168.1 193.51C168.652 192.591 168.857 191.052 168.945 189.984C169.048 188.743 169.374 187.546 169.494 186.328C169.603 185.213 169.281 183.834 169.135 182.716ZM352.534 141.047C350.915 145.008 349.84 149.04 349.095 153.25C349.276 153.29 349.432 153.503 349.567 153.63L349.832 153.333L350.101 153.428L350.191 152.75C350.469 151.906 350.544 151.036 350.818 150.197C351.156 149.162 351.268 148.038 351.58 147L353.413 141.812L352.875 141.695L352.534 141.047ZM365.169 173.041L364.873 173.375L364.625 173.127C364.216 173.743 364.385 174.496 364.392 175.227C364.41 177.048 364.595 178.684 364.375 180.5L364.681 180.709L365.113 180.296L365.395 180.54C365.546 180.398 365.52 180.445 365.627 180.226C366.639 178.159 365.775 175.133 365.169 173.041ZM271.476 40.7424L271.214 40.9352C270.696 41.274 269.953 41.2338 269.354 41.2499C267.445 41.3013 265.381 41.032 263.501 41.3002L263.501 41.6664L272.126 41.5003C274.36 41.4783 276.823 41.5729 279.028 41.2368C276.666 40.6822 273.887 40.7421 271.476 40.7424ZM248.099 53.875L247.578 54.1853L262.812 54.1996L262.625 53.9197L248.099 53.875ZM180.32 70.4311C181.181 70.1527 181.94 69.8688 182.732 69.4275L182.561 69.2447C182.301 68.9428 182.39 69.059 182.25 68.625C181.844 68.4836 181.136 68.5382 180.75 68.7851L180.435 69.0721C179.92 69.4339 179.158 69.613 178.558 69.7918L178.377 70.375L178.875 70.2775L180.32 70.4311ZM344.229 181.937L343.825 183.956C344.506 186.346 343.73 189.144 344.301 191.549L344.586 191.25L344.609 186.873C344.62 186.016 344.781 184.924 344.468 184.125C344.23 183.52 344.256 182.952 344.237 182.307L344.229 181.937Z"/>
	<path fill="#010001" fill-opacity="0.95294118" transform="scale(1.21016 1.21016)" d="M344.229 181.937L344.237 182.307C344.256 182.952 344.23 183.52 344.468 184.125C344.781 184.924 344.62 186.016 344.609 186.873L344.586 191.25L344.301 191.549C343.73 189.144 344.506 186.346 343.825 183.956L344.229 181.937Z"/>
	<path fill="#010001" fill-opacity="0.97647059" transform="scale(1.21016 1.21016)" d="M180.32 70.4311L178.875 70.2775L178.377 70.375L178.558 69.7918C179.158 69.613 179.92 69.4339 180.435 69.0721L180.75 68.7851C181.136 68.5382 181.844 68.4836 182.25 68.625C182.39 69.059 182.301 68.9428 182.561 69.2447L182.732 69.4275C181.94 69.8688 181.181 70.1527 180.32 70.4311Z"/>
	<path fill="#010001" fill-opacity="0.95294118" transform="scale(1.21016 1.21016)" d="M248.099 53.875L262.625 53.9197L262.812 54.1996L247.578 54.1853L248.099 53.875Z"/>
	<path transform="scale(1.21016 1.21016)" d="M271.476 40.7424C273.887 40.7421 276.666 40.6822 279.028 41.2368C276.823 41.5729 274.36 41.4783 272.126 41.5003L263.501 41.6664L263.501 41.3002C265.381 41.032 267.445 41.3013 269.354 41.2499C269.953 41.2338 270.696 41.274 271.214 40.9352L271.476 40.7424Z"/>
	<path transform="scale(1.21016 1.21016)" d="M365.169 173.041C365.775 175.133 366.639 178.159 365.627 180.226C365.52 180.445 365.546 180.398 365.395 180.54L365.113 180.296L364.681 180.709L364.375 180.5C364.595 178.684 364.41 177.048 364.392 175.227C364.385 174.496 364.216 173.743 364.625 173.127L364.873 173.375L365.169 173.041Z"/>
	<path fill="#010001" fill-opacity="0.95294118" transform="scale(1.21016 1.21016)" d="M352.534 141.047L352.875 141.695L353.413 141.812L351.58 147C351.268 148.038 351.156 149.162 350.818 150.197C350.544 151.036 350.469 151.906 350.191 152.75L350.101 153.428L349.832 153.333L349.567 153.63C349.432 153.503 349.276 153.29 349.095 153.25C349.84 149.04 350.915 145.008 352.534 141.047Z"/>
	<path transform="scale(1.21016 1.21016)" d="M169.135 182.716C169.281 183.834 169.603 185.213 169.494 186.328C169.374 187.546 169.048 188.743 168.945 189.984C168.857 191.052 168.652 192.591 168.1 193.51L167.67 193.577C167.344 194.12 167.326 194.668 167.047 195.208L166.927 195.434C166.77 196.032 166.688 196.127 166.312 196.638L165.932 195.875C166.341 195.226 166.302 194.697 166.507 194C167.062 192.108 167.957 190.269 167.515 188.187L167.459 188L167.75 187.627C167.895 187.368 168.281 186.636 168.375 186.377C168.635 185.659 168.115 184.34 168.377 183.625C168.466 183.383 168.952 182.935 169.135 182.716Z"/>
	<path transform="scale(1.21016 1.21016)" d="M509.516 345.844C509.558 347.092 509.058 348.723 508.65 349.903L508.528 350.25C506.46 356.216 501.853 362.498 495.811 364.861C491.466 366.559 486.889 365.824 482.375 365.743L472 365.684L459.114 365.974L451.435 365.716C445.719 365.638 399.727 365.312 398.5 365.962C398.355 366.039 398.25 366.174 398.125 366.28C398.01 367.387 399.087 368.741 399.514 369.795C401.853 375.562 403.445 381.549 404.846 387.6C405.988 392.529 407.188 397.574 407.883 402.588C408.823 409.372 408.834 416.419 408.578 423.25C408.395 428.129 408.204 432.9 406.188 437.457C403.828 442.793 396.421 446.064 391.311 448.133C378.896 453.16 365.585 456.544 352.508 459.326L320.375 465.488C270.344 472.774 219.21 471.314 169.625 461.503C156.705 458.947 144.133 455.754 131.616 451.642C126.554 449.979 121.507 448.432 116.607 446.314C111.692 444.19 106.901 440.987 104.884 435.808C103.607 432.529 103.51 429.082 103.3 425.625C102.468 411.91 104.02 397.221 107.641 383.967C109.318 377.827 111.69 371.817 114.271 366.007L91.3044 365.973L46.3518 365.739L32.9639 365.749C29.5944 365.828 26.223 366.165 22.8322 365.901C19.4434 365.638 15.5512 365.044 12.625 363.191C7.50902 359.95 4.78414 354.779 3.5281 349C2.58178 344.646 2.35473 340.333 2.20051 335.898C2.03505 331.14 1.94473 326.019 2.60588 321.288C4.01729 311.189 7.72396 301.279 13.1725 292.674C19.33 282.95 28.5294 274.983 38.3334 269.103C45.8516 264.593 54.1149 260.948 61.9502 256.992L70.0142 252.765C71.5491 251.965 73.5716 250.824 75.2972 250.597C78.9094 250.124 82.0551 257.376 83.5269 259.961L87.125 265.842C89.0909 268.731 91.541 271.738 94.375 273.798C96.32 275.211 98.9871 276.529 101.345 277.04C103.928 277.599 106 277.846 108.625 277.486C118.195 276.177 123.977 267.029 128.556 259.5C129.496 257.954 130.19 256.244 131.278 254.796L131.506 254.5C132.628 253.01 133.819 252.319 135.451 251.507C137.241 251.66 138.813 252.029 140.492 252.671C145.301 254.51 149.814 257.318 154.39 259.669C165.364 265.308 176.183 270.75 186.5 277.56C197.853 285.055 207.814 296.427 210.698 310C211.427 313.428 212.116 316.977 213.681 320.139C215.243 323.294 217.602 326.246 219.746 329.025C224.047 334.598 228.563 339.826 233.798 344.553C236.008 346.549 238.227 348.54 240.741 350.153C247.092 354.224 254.342 356.999 261.992 355.287C274.891 352.399 284.792 340.349 292.21 330.204C294.983 326.411 297.968 322.517 299.832 318.172C301.429 314.448 302.072 310.424 303.156 306.542C304.198 302.812 305.835 299.285 307.901 296.015C318.668 278.975 338.345 270.922 355.125 261.173C359.728 258.498 364.201 255.238 369.104 253.137C370.427 252.57 371.888 251.876 373.305 251.595C374.866 251.285 377.034 251.038 378.487 251.808C379.323 252.25 380.03 253.291 380.616 254.023C382.625 256.532 384.291 259.224 386.094 261.875L388.977 265.756C391.625 269.133 394.737 272.361 398.406 274.644C402.421 277.141 407.443 278.474 412.108 277.365C419.044 275.715 424.441 269.208 427.788 263.279C429.623 260.027 431.059 256.519 433.02 253.34C433.764 252.135 434.719 250.655 436.25 250.438C438.769 250.081 447.883 255.566 450.579 256.927C459.088 261.223 467.565 265.189 475.78 270.069C478.962 271.96 482.047 274.045 484.921 276.379C489.939 280.456 494.337 284.863 497.945 290.258C499.744 292.949 501.145 295.777 502.588 298.663C504.63 302.749 506.381 306.956 507.451 311.416C508.435 315.517 508.829 319.74 509.259 323.927C510.085 328.021 510.031 332.43 510.055 336.599C510.073 339.645 510.226 342.86 509.516 345.844ZM312.794 342.683L308.846 357.381L299.902 381.158C296.56 388.563 292.88 396.013 288.732 403C283.089 412.505 276.703 421.456 269.708 430.001C266.654 433.732 263.515 437.808 259.538 440.592C258.536 441.294 257.419 441.719 256.28 442.144C255.052 441.87 253.794 441.466 252.791 440.681C250.348 438.768 248.098 436.222 245.913 434.003C225.55 413.322 212.476 385.402 203.875 357.972C201.099 349.119 198.33 340.182 196.655 331.043C196.256 328.866 196.116 326.582 195.846 324.379L177.724 331.908C168.968 335.438 159.729 339.073 151.85 344.352C144.157 349.506 137.756 356.16 132.605 363.824C127.876 370.862 124.657 378.971 122.259 387.05C120.897 391.642 119.656 396.431 118.96 401.175C118.42 404.851 118.34 408.57 117.968 412.25L117.503 421.221C117.479 422.999 117.328 424.872 117.692 426.621C117.966 427.933 118.108 428.899 118.863 430.044C119.35 430.783 120.681 431.416 121.434 431.875C126.293 434.834 131.786 436.486 137.194 438.125C152.154 442.658 167.561 445.182 182.754 448.77C184.823 449.259 186.957 449.461 189.055 449.801L200.897 451.566L228.078 454.537L241.041 454.782L260.356 455.106C265.47 455.207 270.589 455.449 275.709 455.232L293.598 453.633L334.121 447.876L357.459 442.592L373.5 438.536C377.5 437.496 381.739 436.499 385.545 434.869C388.279 433.697 390.799 432.244 393.322 430.681L394.085 425.778C394.448 423.985 394.285 421.981 394.287 420.143C394.304 408.585 392.663 396.055 389.013 385.074C387.301 379.924 385.362 374.763 382.74 369.996C375.476 356.791 364.69 346.692 351.5 339.497C347.507 337.318 343.284 335.55 339.106 333.761C331.79 330.629 324.094 328.14 317 324.527L316.625 324.793C316.459 326.899 315.84 329.082 315.375 331.141L312.794 342.683ZM69.9967 270.125C51.3406 279.888 27.7411 287.498 20.677 309.812C17.9223 318.513 16.7466 327.798 16.9264 336.921C16.9598 338.612 16.8557 340.424 17.115 342.094C17.5097 344.634 18.3269 347.218 19.2269 349.625C20.1494 350.362 20.6024 350.469 21.75 350.567C26.8532 351.002 32.0762 350.705 37.2019 350.761C38.56 350.775 39.911 351.005 41.2465 351.015L113.5 350.499L121.51 350.125C122.275 350.051 123.534 350.051 124.22 349.79C124.519 349.676 124.977 349.258 125.225 349.064C127.728 347.117 129.834 344.217 132.141 341.994C136.145 338.137 140.437 334.905 144.875 331.587C153.671 325.995 162.728 321.289 172.42 317.446C179.801 314.519 187.365 312.28 194.558 308.867C192.352 305.486 190.074 301.92 187.397 298.889C178.181 288.454 164.991 282.551 152.82 276.392L145.165 272.678C143.757 271.968 141.694 270.63 140.193 270.341L139.883 270.329L139.707 270.615C133.703 280.235 123.752 289.525 112.422 291.992C108.267 292.896 103.277 293.005 99.125 292.075C95.0501 291.163 91.713 289.7 88.1668 287.515C83.6727 284.746 79.4877 280.593 76.1676 276.525L72.5719 271.986C72.3622 271.707 71.2889 270.086 71 270.009C70.982 270.004 70.1949 270.071 70.1935 270.071L69.9967 270.125ZM362.773 274.172L361.777 274.696C358.379 275.927 355.102 277.777 351.908 279.467C341.274 285.094 329.774 292.012 322.741 302.043C321.788 303.403 320.714 304.797 320.006 306.307L318.647 308.779C324.078 310.331 329.362 313.077 334.552 315.3C348.048 321.08 361.705 327.204 373.496 336.078C377.051 338.754 380.505 341.587 383.341 345.046C384.677 346.675 385.728 348.531 386.785 350.347C389.701 350.866 393.327 350.443 396.33 350.441L418.857 350.454L468.969 350.688C475.879 350.69 482.982 351.088 489.875 350.742C490.567 350.707 491.233 350.445 491.795 350.045C494.732 347.952 494.607 340.931 495.079 337.683C495.661 333.68 495.086 329.349 494.513 325.375C493.599 319.033 492.297 313.058 489.942 307.079C488.353 303.043 486.118 298.881 483.333 295.545C480.863 292.587 477.884 290.203 474.825 287.892C464.436 280.042 452.736 275.393 440.911 270.266C437.023 278.772 428.997 285.761 420.7 289.843C413.44 293.415 405.051 293.44 397.484 290.875C386.586 287.181 379.283 278.551 371.788 270.357L362.982 274.099L362.773 274.172ZM291.324 362.759L292.559 359.18L295.83 348.338C293.15 350.967 291.111 354.148 288.452 356.85C280.496 364.937 268.898 370.363 257.46 370.248L252.502 369.937C241.207 369.237 229.757 362.471 222.436 354.068L214.658 344.58C216.464 351.533 219.419 358.098 222.079 364.746C224.526 370.863 226.75 377.091 229.54 383.066C235.419 395.657 243.17 407.216 252.01 417.903C253.497 419.701 254.714 421.784 256.27 423.497L271.041 403.522C276.425 395.47 281.092 386.8 285.085 377.982L291.324 362.759ZM509.259 323.927C509.184 324.895 509.347 327.043 508.877 327.75L508.877 344.625L508.538 344.501C508.402 345.557 508.32 345.65 508.875 346.617C509.049 345.956 509.125 345.262 509.38 344.63L509.516 345.844C510.226 342.86 510.073 339.645 510.055 336.599C510.031 332.43 510.085 328.021 509.259 323.927ZM308.846 357.381L312.794 342.683L312.407 342.563L312.062 343.312L311.873 343.375L311.71 342.597L311.472 342.625L311.428 343.008C311.298 344.008 310.959 345.028 310.62 345.976C310.272 346.952 310.235 347.853 309.786 348.832C309.336 349.814 309.488 350.955 309.044 352C308.615 353.009 307.699 355.519 308.131 356.496L308.25 356.75L308.401 356.75L308.625 356.035C308.847 356.523 308.82 356.847 308.846 357.381ZM292.559 359.18L291.324 362.759C291.56 363.265 291.657 363.71 291.777 364.249C292.315 363.539 292.633 362.568 292.928 361.732L293.05 361.375C293.347 360.621 293.515 360.061 293.622 359.25L293.264 359.18L293.151 360.125L292.87 360.118L292.559 359.18ZM307.298 357.875L307.18 358.305C307.067 358.702 306.922 359.039 306.744 359.41C306.475 359.97 306.367 360.489 306.243 361.094L305.877 362.375C306.176 362.823 305.985 362.703 306.379 362.833L306.612 362.375C306.852 361.947 306.837 361.896 306.93 361.449L307.079 361.117C307.25 360.711 307.25 360.55 307.202 360.125L307.507 359.75L307.985 358.875C307.503 358.503 307.486 358.457 307.298 357.875ZM361.777 274.696L362.773 274.172L362.542 273.754L363 273.25L363.415 273.375L364.064 273.125L364.125 272.75C363.635 272.588 363.074 272.563 362.605 272.85L362.375 273.059C361.892 273.492 361.171 273.619 360.555 273.805C360.928 274.232 361.278 274.432 361.777 274.696Z"/>
	<path transform="scale(1.21016 1.21016)" d="M361.777 274.696C361.278 274.432 360.928 274.232 360.555 273.805C361.171 273.619 361.892 273.492 362.375 273.059L362.605 272.85C363.074 272.563 363.635 272.588 364.125 272.75L364.064 273.125L363.415 273.375L363 273.25L362.542 273.754L362.773 274.172L361.777 274.696Z"/>
	<path transform="scale(1.21016 1.21016)" d="M307.298 357.875C307.486 358.457 307.503 358.503 307.985 358.875L307.507 359.75L307.202 360.125C307.25 360.55 307.25 360.711 307.079 361.117L306.93 361.449C306.837 361.896 306.852 361.947 306.612 362.375L306.379 362.833C305.985 362.703 306.176 362.823 305.877 362.375L306.243 361.094C306.367 360.489 306.475 359.97 306.744 359.41C306.922 359.039 307.067 358.702 307.18 358.305L307.298 357.875Z"/>
	<path transform="scale(1.21016 1.21016)" d="M292.559 359.18L292.87 360.118L293.151 360.125L293.264 359.18L293.622 359.25C293.515 360.061 293.347 360.621 293.05 361.375L292.928 361.732C292.633 362.568 292.315 363.539 291.777 364.249C291.657 363.71 291.56 363.265 291.324 362.759L292.559 359.18Z"/>
	<path transform="scale(1.21016 1.21016)" d="M308.846 357.381C308.82 356.847 308.847 356.523 308.625 356.035L308.401 356.75L308.25 356.75L308.131 356.496C307.699 355.519 308.615 353.009 309.044 352C309.488 350.955 309.336 349.814 309.786 348.832C310.235 347.853 310.272 346.952 310.62 345.976C310.959 345.028 311.298 344.008 311.428 343.008L311.472 342.625L311.71 342.597L311.873 343.375L312.062 343.312L312.407 342.563L312.794 342.683L308.846 357.381Z"/>
	<path fill="#010001" fill-opacity="0.97647059" transform="scale(1.21016 1.21016)" d="M509.259 323.927C510.085 328.021 510.031 332.43 510.055 336.599C510.073 339.645 510.226 342.86 509.516 345.844L509.38 344.63C509.125 345.262 509.049 345.956 508.875 346.617C508.32 345.65 508.402 345.557 508.538 344.501L508.877 344.625L508.877 327.75C509.347 327.043 509.184 324.895 509.259 323.927Z"/>
</svg>
