<?xml version="1.0" encoding="utf-8" ?>
<svg xmlns="http://www.w3.org/2000/svg" xmlns:xlink="http://www.w3.org/1999/xlink" width="512" height="512">
	<defs>
		<linearGradient id="gradient_0" gradientUnits="userSpaceOnUse" x1="29.962606" y1="132.9429" x2="29.384045" y2="132.82654">
			<stop offset="0" stop-color="#010001" stop-opacity="0.95686275"/>
			<stop offset="1" stop-color="#000101"/>
		</linearGradient>
	</defs>
	<path fill="url(#gradient_0)" d="M30.8657 126.458C31.2121 127.635 31.13 128.107 30.8225 129.25C30.7064 129.682 30.694 130.162 30.7119 130.607L29.728 134.734L29.1663 134.59C29.1007 135.131 29.2187 135.594 29.3147 136.125L29.002 136.319L28.3537 136.027L30.8657 126.458Z"/>
	<path d="M32.564 121.554C39.5216 101.784 52.0318 84.8872 67.4815 70.9309C80.0862 59.5447 94.9019 50.1337 110.231 42.875C145.896 25.9862 184.336 17.3823 223.54 14.1039L232 13.7725L247.896 13.1182L261.238 13.4913L273.748 13.6263C277.798 13.8486 281.837 13.6767 285.875 14.0235C287.117 14.1301 288.397 14.0051 289.624 14.222C297.941 14.6602 306.202 15.8284 314.431 17.0069C355.378 22.8719 397.157 35.8469 430.94 60.3289C439.098 66.2415 446.917 72.7339 453.682 80.2282C465.461 93.2788 475.212 108.764 480.448 125.619C481.158 127.904 481.997 130.072 482.466 132.435C483.292 136.598 484.369 140.652 485.003 144.875C487.129 159.015 486.795 173.105 484.93 187.235C484.27 192.234 483.651 197.703 482.21 202.543C481.931 203.878 481.693 205.671 481.098 206.887C480.796 209.39 479.936 211.713 479.26 214.125L472.544 234.75C470.606 240.48 468.109 246.11 465.731 251.669C460.129 264.766 453.865 277.843 447.004 290.344L435.302 310.429L423.527 330.948L414.45 344.467L397.687 369.222L390.26 379L376.687 396.849L363.433 414.191L353.559 427.179L347.659 433.778L322.19 462.063C315.898 468.503 309.592 474.642 302.327 479.994C300.424 481.395 298.423 483.012 296.308 484.069C294.432 485.007 292.69 486.249 290.823 487.233C285.085 490.258 278.923 492.619 272.555 493.898C269.253 494.56 265.906 494.718 262.613 495.318C260.978 495.617 259.198 495.509 257.538 495.5C253.208 495.479 248.705 495.078 244.42 494.438C232.672 492.685 221.489 488.205 211.647 481.583C194.166 469.82 180.854 453.142 167.346 437.248L124.79 383.881C111.314 365.589 98.1389 346.651 86.4505 327.163L70.6658 298.813L61.0301 281.373L53.0973 266.906C51.8704 264.379 51.0489 261.687 50.0054 259.086L43.5132 242.5L36.513 224.375C35.6052 221.955 34.4847 219.573 33.6919 217.115C29.7998 205.05 27.2548 192.245 26.1931 179.625C26.0363 177.76 25.6421 175.857 25.5491 174L25.4576 165.826C25.3943 160.17 25.4259 154.495 26.2768 148.891L28.3537 136.027L29.002 136.319L29.3147 136.125C29.2187 135.594 29.1007 135.131 29.1663 134.59L29.728 134.734L30.7119 130.607C30.694 130.162 30.7064 129.682 30.8225 129.25C31.13 128.107 31.2121 127.635 30.8657 126.458C31.2707 124.8 31.9629 123.152 32.564 121.554ZM463.3 214.5L466.812 202.053C468.562 195.183 470.47 187.811 471.078 180.734L471.923 171.384C472.149 169.554 472.006 167.554 472.004 165.707C472.001 162.599 472.08 159.525 471.633 156.442C471.086 152.677 470.777 148.877 470 145.136C465.541 123.647 455.402 104.04 440.252 88.1066C434.851 82.4257 428.594 77.1894 422.355 72.4571C416.107 67.717 409.127 63.6268 402.241 59.8824C367.232 40.843 327.046 32.4947 287.664 29.0868L281.516 28.8341L254.498 28.2306C238.27 28.2323 221.918 28.8393 205.832 31.1506L180.75 35.2813C158.21 40.0474 136.287 46.9576 115.619 57.207C94.3451 67.7571 75.3911 81.5961 61.0426 100.716C58.5496 104.038 56.4981 107.649 54.4735 111.263C48.0188 122.786 43.3201 135.613 41.4938 148.734C40.6707 154.647 40.5739 160.365 40.5515 166.316C40.532 171.461 40.5122 176.507 41.2437 181.619C45.0564 208.264 54.3361 233.498 65.7484 257.765L71.5389 270.225C80.5777 288.243 90.8437 305.648 101.549 322.712L111.931 337.667L130.578 363.909L147.671 388.067L154.094 397.211L163.547 408.715L174.563 421.997C187.928 437.852 201.253 455.276 218.118 467.591C225.962 473.319 235.306 477.521 244.875 479.24C247.623 479.733 250.364 479.921 253.129 480.188C258.335 480.69 263.868 480.038 268.952 478.899C279.929 476.441 289.325 471.651 297.949 464.449C307.692 456.314 316.079 446.553 324.295 436.93L339.448 419.162L354.625 401.357L359.059 395.223L375.973 372.057L392.25 349.649L397.523 342.5L408.287 325.375L420.606 305.863L424.539 299.616L434.049 281.301L443.386 263.449L451.316 246.256L459.402 225.925L463.3 214.5ZM28.3537 136.027L26.2768 148.891L26.595 150.625C26.7992 150.22 26.7089 150.343 26.9616 150.027C27.3277 149.569 26.9527 149.123 27.125 148.658C27.1866 148.492 27.3956 148.413 27.4667 148.25C27.7595 147.58 27.5401 146.154 27.7346 145.339L29.728 134.734L29.1663 134.59C29.1007 135.131 29.2187 135.594 29.3147 136.125L29.002 136.319L28.3537 136.027ZM466.812 202.053L463.3 214.5C463.629 215.004 463.733 215.546 463.875 216.123L464.546 214.25L466.58 207.25L467.207 204.875L467.25 204.553C467.483 203.827 467.608 203.536 467.613 202.75C467.196 202.474 467.32 202.592 467.008 202.267L466.812 202.053ZM273.748 13.6263C272.624 14.3447 271.409 14.2055 270.091 14.2269L263.007 14.1924C262.122 14.1741 260.335 14.0433 259.662 14.6098C261.6 14.8582 263.703 14.5915 265.665 14.5546L277.004 14.4748L282.383 14.5131C283.148 14.5179 284.06 14.6351 284.794 14.4284C286.259 14.0156 288.081 14.5197 289.624 14.222C288.397 14.0051 287.117 14.1301 285.875 14.0235C281.837 13.6767 277.798 13.8486 273.748 13.6263ZM481.098 206.887C481.693 205.671 481.931 203.878 482.21 202.543L482.174 202.314C482.086 201.718 482.039 201.23 482.123 200.625L481.872 200.25L481.715 199.347L481.502 199.375C481.307 200.676 481.119 201.949 480.681 203.196C480.411 203.963 480.495 204.732 480.243 205.494C480.041 206.102 480.109 206.741 480.127 207.375L480.375 207.622L480.681 206.909L481.098 206.887ZM32.564 121.554C31.9629 123.152 31.2707 124.8 30.8657 126.458C31.2121 127.635 31.13 128.107 30.8225 129.25C30.7064 129.682 30.694 130.162 30.7119 130.607L32.1755 126.028C32.4808 124.796 33.1053 122.653 33.7268 121.572L33.8562 121.375L33.625 121.127L33.3213 121.319C33.2563 121.748 33.2358 121.942 33 122.317L32.7538 122.016L32.564 121.554Z"/>
	<path fill="#010000" fill-opacity="0.96470588" d="M32.564 121.554L32.7538 122.016L33 122.317C33.2358 121.942 33.2563 121.748 33.3213 121.319L33.625 121.127L33.8562 121.375L33.7268 121.572C33.1053 122.653 32.4808 124.796 32.1755 126.028L30.7119 130.607C30.694 130.162 30.7064 129.682 30.8225 129.25C31.13 128.107 31.2121 127.635 30.8657 126.458C31.2707 124.8 31.9629 123.152 32.564 121.554Z"/>
	<path fill="#010000" fill-opacity="0.96470588" d="M481.098 206.887L480.681 206.909L480.375 207.622L480.127 207.375C480.109 206.741 480.041 206.102 480.243 205.494C480.495 204.732 480.411 203.963 480.681 203.196C481.119 201.949 481.307 200.676 481.502 199.375L481.715 199.347L481.872 200.25L482.123 200.625C482.039 201.23 482.086 201.718 482.174 202.314L482.21 202.543C481.931 203.878 481.693 205.671 481.098 206.887Z"/>
	<path d="M273.748 13.6263C277.798 13.8486 281.837 13.6767 285.875 14.0235C287.117 14.1301 288.397 14.0051 289.624 14.222C288.081 14.5197 286.259 14.0156 284.794 14.4284C284.06 14.6351 283.148 14.5179 282.383 14.5131L277.004 14.4748L265.665 14.5546C263.703 14.5915 261.6 14.8582 259.662 14.6098C260.335 14.0433 262.122 14.1741 263.007 14.1924L270.091 14.2269C271.409 14.2055 272.624 14.3447 273.748 13.6263Z"/>
	<path fill="#010000" fill-opacity="0.96470588" d="M466.812 202.053L467.008 202.267C467.32 202.592 467.196 202.474 467.613 202.75C467.608 203.536 467.483 203.827 467.25 204.553L467.207 204.875L466.58 207.25L464.546 214.25L463.875 216.123C463.733 215.546 463.629 215.004 463.3 214.5L466.812 202.053Z"/>
	<path fill="#010000" fill-opacity="0.96470588" d="M28.3537 136.027L29.002 136.319L29.3147 136.125C29.2187 135.594 29.1007 135.131 29.1663 134.59L29.728 134.734L27.7346 145.339C27.5401 146.154 27.7595 147.58 27.4667 148.25C27.3956 148.413 27.1866 148.492 27.125 148.658C26.9527 149.123 27.3277 149.569 26.9616 150.027C26.7089 150.343 26.7992 150.22 26.595 150.625L26.2768 148.891L28.3537 136.027Z"/>
	<path d="M240.344 46.5387C250.732 45.587 261.237 46.1043 271.639 46.2498L279.931 46.3969C281.186 46.4475 282.602 46.3865 283.806 46.7437L310.352 49.5427C321.556 51.17 332.704 53.5924 343.644 56.4825C351.251 58.4921 358.833 60.6596 366.231 63.3605C391.7 72.6592 416.682 87.6826 433.922 108.911C442.164 119.059 448.644 130.947 451.715 143.705C452.933 148.77 453.488 153.941 453.831 159.125C454.104 163.251 454.373 167.612 453.875 171.732C453.361 175.986 453.094 180.365 452.385 184.591L449.284 198.731C449.078 199.592 448.783 201.922 448.295 202.536L447.177 206.437C444.05 217.313 439.952 227.879 435.483 238.266C427.913 255.859 419.049 272.968 409.487 289.555L399.517 306.07L393.577 316.06C391.616 319.363 389.676 323.404 386.513 325.734C384.672 327.091 382.609 327.856 380.305 327.46C378.529 327.154 376.647 325.943 375.68 324.408C374.264 322.16 373.877 319.569 374.877 317.101C376.446 313.225 379.211 309.667 381.32 306.06L398.767 277.298C402.155 271.754 405.127 265.86 408.096 260.083C419.173 238.523 429.39 216.386 435.131 192.722L436.316 187.769L438.862 168.06C439.313 164.519 439.004 160.752 438.594 157.22C437.424 147.134 434.507 138.02 429.369 129.233C412.374 100.17 380.627 83.852 349.507 74.0692L332.273 69.3717C318.541 65.8247 304.337 63.9335 290.24 62.6369L274.328 61.0228C268.789 60.6916 263.09 60.9539 257.535 60.9556L239.715 61.0126L223.512 62.375C201.853 64.3522 180.042 68.0521 159.375 74.9941C151.214 77.7353 142.841 80.9403 135.125 84.764L118.875 93.765C115.637 95.5951 112.523 97.8521 109.523 100.052C99.9603 107.063 90.7262 115.894 84.4337 126.021C81.6731 130.464 79.0523 135.462 77.2256 140.375C76.4265 142.524 75.8514 144.849 75.1956 147.051C74.562 150.122 73.8874 153.334 73.5404 156.449C73.4031 157.681 73.5573 158.981 73.2757 160.187C73.0531 161.141 73.1769 162.271 73.1876 163.248L73.5027 170.125C73.8249 174.784 74.173 179.372 74.9979 183.981C77.8674 200.014 83.7692 215.786 90.0454 230.75L96.7326 245.568L108.905 269.559L120.7 289.597L139.056 319.875L159.207 348.82L205.988 408.464L218.512 423.287C223.363 428.993 228.541 435.354 234.679 439.7C242.853 445.488 251.351 448.39 261.393 446.587C273.039 444.495 282.674 436.323 290.125 427.548C291.516 425.91 293.066 424.344 294.292 422.578L300.43 414.596C303.544 410.546 306.664 405.845 311 403.008C312.01 402.347 313.037 401.711 314.25 401.511C316.441 401.15 318.845 401.76 320.554 403.171C322.048 404.404 322.8 406.439 322.961 408.341C323.082 409.766 322.625 411.455 321.92 412.698C319.856 416.336 316.258 419.601 313.558 422.803L301.802 437.023C294.754 445.234 285.858 453.619 275.87 458.032C269.765 460.73 263.54 461.962 256.908 462.394C254.702 462.537 252.436 462.29 250.25 462.004C238.301 460.438 228.836 454.713 219.961 446.806C211.007 438.83 203.551 429.445 196.071 420.126L179.412 399.441L161.391 377.108L153.573 367.302L142.966 352.25L129.982 333.667C113.818 309.585 98.7174 284.658 85.8982 258.625C75.2743 237.05 65.7554 214.533 61.138 190.838C59.971 184.849 58.7391 178.518 58.3882 172.419C57.5239 166.397 57.4654 159.849 58.2649 153.818C58.6692 149.537 59.6136 145.321 60.772 141.186C66.4387 122.628 78.7922 105.905 93.6293 93.5438C119.675 71.8448 151.956 59.3615 184.893 52.598L207.745 48.997L227.25 47.0149C231.507 46.7546 236.094 46.1531 240.344 46.5387ZM96.7326 245.568L90.0454 230.75C83.7692 215.786 77.8674 200.014 74.9979 183.981C74.173 179.372 73.8249 174.784 73.5027 170.125L73.1876 163.248C73.1769 162.271 73.0531 161.141 73.2757 160.187C73.5573 158.981 73.4031 157.681 73.5404 156.449C73.8874 153.334 74.562 150.122 75.1956 147.051L74.708 144.847C74.0863 145.468 73.93 148.521 73.8497 149.5L73.6121 148.759C73.3168 150.989 73.3583 153.521 72.875 155.679L72.6031 154.754L72.1861 161.25C72.0856 164.56 72.3969 167.846 72.4337 171.151C72.4568 173.226 71.9841 176.941 72.9409 178.71C73.3596 179.484 73.3238 180.662 73.307 181.529C73.2894 182.441 73.3383 184.066 73.844 184.809C74.7045 186.075 73.9234 188.182 74.825 189.672C75.2194 190.324 75.2718 191.346 75.2988 192.101C75.3205 192.708 75.4624 193.385 75.8245 193.873C76.1964 194.373 76.3141 195.527 76.2085 196.141L76.1429 196.375L76.4085 196.625L76.5171 197.069C76.6038 197.41 76.6588 197.538 76.8494 197.834C77.2125 198.398 77.164 199.159 77.2487 199.806C77.3132 200.3 77.5322 200.563 77.7545 200.996C78.3968 202.244 78.1591 203.512 78.9434 204.742C79.2629 205.244 79.2699 205.527 79.2873 206.105C79.3143 207.004 79.723 207.563 80.2347 208.25C80.2746 208.963 80.226 209.266 80.625 209.873L80.9048 209.875L80.9101 210.203C80.9467 210.689 81.0999 210.958 81.3286 211.375C81.2543 212.112 81.2878 212.193 81.625 212.857L81.9133 212.875L81.9677 213.264C82.0653 213.879 82.0086 213.593 82.1783 214.131C82.3611 214.711 82.2613 214.281 82.2708 214.836C82.2909 216.016 83.2933 216.888 83.2946 218.205L83.5826 218.512C84.0597 219.052 84.1634 219.773 84.3147 220.455L84.5246 220.646C84.8102 220.92 84.7152 220.796 84.875 221.143L84.7203 221.5L84.9536 221.945C85.2072 222.445 85.2554 222.811 85.2589 223.375L85.5565 223.698C85.9371 224.128 85.9365 224.411 86.0647 224.955C86.1613 225.365 86.336 225.704 86.5305 226.074L86.8917 226.058L86.8946 226.349C86.9442 227.04 87.3514 227.488 87.3147 228.205C88.1742 228.953 87.8789 229.861 88.5132 230.418C88.9316 230.785 89.0035 230.996 89.115 231.538C89.2247 232.071 89.3804 232.393 89.625 232.873L89.893 233L89.8317 233.318C89.7672 233.932 90.0512 234.081 90.1696 234.625C90.2165 234.84 90.1675 235.154 90.1429 235.375L90.503 235.625L90.7677 236.551C90.9443 237.169 91.4163 237.699 91.875 238.134L91.6292 238.5C91.772 238.996 91.9351 239.215 92.2347 239.625L92.1429 240.125C92.5694 240.525 92.8862 240.706 93.0615 241.277C93.3219 242.127 93.5437 242.46 94.1272 243.121L94.1777 243.467C94.3508 244.492 94.9745 244.426 95.2376 245.219C95.3471 245.549 95.4617 245.817 95.625 246.121L95.8936 245.939L96.1659 246.383L96.7326 245.568ZM240.344 46.5387C241.9 46.9827 243.596 46.9214 245.203 46.9708L253.95 47.0811L268.415 47.1466L279.375 46.7366C280.83 46.7029 282.37 46.9623 283.806 46.7437C282.602 46.3865 281.186 46.4475 279.931 46.3969L271.639 46.2498C261.237 46.1043 250.732 45.587 240.344 46.5387ZM59.4143 153.278L59.0777 153.5C59.0684 154.082 59.191 155.17 58.875 155.623C58.3734 154.949 58.3281 154.623 58.2649 153.818C57.4654 159.849 57.5239 166.397 58.3882 172.419C58.5905 172.106 58.5054 172.148 58.7512 171.999L59.039 171.834C59.4772 170.568 59.1412 168.912 59.0886 167.582L59.0102 160.942L59.4143 153.278ZM58.2649 153.818C58.3281 154.623 58.3734 154.949 58.875 155.623C59.191 155.17 59.0684 154.082 59.0777 153.5L59.4143 153.278C59.5683 152.131 59.6228 150.952 59.8927 149.826L61.1498 143.875C61.3725 143.121 61.517 142.537 61.6011 141.75C61.3352 141.538 61.0593 141.367 60.772 141.186C59.6136 145.321 58.6692 149.537 58.2649 153.818ZM447.177 206.437L448.295 202.536L447.952 202.499L448.209 201.062L447.872 201L447.779 199.922L447.539 199.875L447.506 200.145C447.359 201.283 447.141 202.396 446.684 203.452C446.302 204.339 446.189 205.377 446.012 206.328L446.288 206.171C446.596 206.043 446.886 206.333 447.177 206.437ZM436.316 187.769L435.131 192.722L435.579 192.943L435.875 194.119C436.087 193.018 436.857 191.303 436.85 190.25C436.848 190.065 436.473 189.453 436.377 189.25L436.689 188.585L436.316 187.769Z"/>
	<defs>
		<linearGradient id="gradient_1" gradientUnits="userSpaceOnUse" x1="436.58337" y1="191.08832" x2="435.61575" y2="190.7345">
			<stop offset="0" stop-color="#010001" stop-opacity="0.95294118"/>
			<stop offset="1" stop-color="#000100"/>
		</linearGradient>
	</defs>
	<path fill="url(#gradient_1)" d="M436.316 187.769L436.689 188.585L436.377 189.25C436.473 189.453 436.848 190.065 436.85 190.25C436.857 191.303 436.087 193.018 435.875 194.119L435.579 192.943L435.131 192.722L436.316 187.769Z"/>
	<path fill="#010000" fill-opacity="0.96470588" d="M447.177 206.437C446.886 206.333 446.596 206.043 446.288 206.171L446.012 206.328C446.189 205.377 446.302 204.339 446.684 203.452C447.141 202.396 447.359 201.283 447.506 200.145L447.539 199.875L447.779 199.922L447.872 201L448.209 201.062L447.952 202.499L448.295 202.536L447.177 206.437Z"/>
	<path fill="#010000" fill-opacity="0.96470588" d="M58.2649 153.818C58.6692 149.537 59.6136 145.321 60.772 141.186C61.0593 141.367 61.3352 141.538 61.6011 141.75C61.517 142.537 61.3725 143.121 61.1498 143.875L59.8927 149.826C59.6228 150.952 59.5683 152.131 59.4143 153.278L59.0777 153.5C59.0684 154.082 59.191 155.17 58.875 155.623C58.3734 154.949 58.3281 154.623 58.2649 153.818Z"/>
	<path fill="#010000" fill-opacity="0.97647059" d="M59.4143 153.278L59.0102 160.942L59.0886 167.582C59.1412 168.912 59.4772 170.568 59.039 171.834L58.7512 171.999C58.5054 172.148 58.5905 172.106 58.3882 172.419C57.5239 166.397 57.4654 159.849 58.2649 153.818C58.3281 154.623 58.3734 154.949 58.875 155.623C59.191 155.17 59.0684 154.082 59.0777 153.5L59.4143 153.278Z"/>
	<path d="M240.344 46.5387C250.732 45.587 261.237 46.1043 271.639 46.2498L279.931 46.3969C281.186 46.4475 282.602 46.3865 283.806 46.7437C282.37 46.9623 280.83 46.7029 279.375 46.7366L268.415 47.1466L253.95 47.0811L245.203 46.9708C243.596 46.9214 241.9 46.9827 240.344 46.5387Z"/>
	<path d="M96.7326 245.568L96.1659 246.383L95.8936 245.939L95.625 246.121C95.4617 245.817 95.3471 245.549 95.2376 245.219C94.9745 244.426 94.3508 244.492 94.1777 243.467L94.1272 243.121C93.5437 242.46 93.3219 242.127 93.0615 241.277C92.8862 240.706 92.5694 240.525 92.1429 240.125L92.2347 239.625C91.9351 239.215 91.772 238.996 91.6292 238.5L91.875 238.134C91.4163 237.699 90.9443 237.169 90.7677 236.551L90.503 235.625L90.1429 235.375C90.1675 235.154 90.2165 234.84 90.1696 234.625C90.0512 234.081 89.7672 233.932 89.8317 233.318L89.893 233L89.625 232.873C89.3804 232.393 89.2247 232.071 89.115 231.538C89.0035 230.996 88.9316 230.785 88.5132 230.418C87.8789 229.861 88.1742 228.953 87.3147 228.205C87.3514 227.488 86.9442 227.04 86.8946 226.349L86.8917 226.058L86.5305 226.074C86.336 225.704 86.1613 225.365 86.0647 224.955C85.9365 224.411 85.9371 224.128 85.5565 223.698L85.2589 223.375C85.2554 222.811 85.2072 222.445 84.9536 221.945L84.7203 221.5L84.875 221.143C84.7152 220.796 84.8102 220.92 84.5246 220.646L84.3147 220.455C84.1634 219.773 84.0597 219.052 83.5826 218.512L83.2946 218.205C83.2933 216.888 82.2909 216.016 82.2708 214.836C82.2613 214.281 82.3611 214.711 82.1783 214.131C82.0086 213.593 82.0653 213.879 81.9677 213.264L81.9133 212.875L81.625 212.857C81.2878 212.193 81.2543 212.112 81.3286 211.375C81.0999 210.958 80.9467 210.689 80.9101 210.203L80.9048 209.875L80.625 209.873C80.226 209.266 80.2746 208.963 80.2347 208.25C79.723 207.563 79.3143 207.004 79.2873 206.105C79.2699 205.527 79.2629 205.244 78.9434 204.742C78.1591 203.512 78.3968 202.244 77.7545 200.996C77.5322 200.563 77.3132 200.3 77.2487 199.806C77.164 199.159 77.2125 198.398 76.8494 197.834C76.6588 197.538 76.6038 197.41 76.5171 197.069L76.4085 196.625L76.1429 196.375L76.2085 196.141C76.3141 195.527 76.1964 194.373 75.8245 193.873C75.4624 193.385 75.3205 192.708 75.2988 192.101C75.2718 191.346 75.2194 190.324 74.825 189.672C73.9234 188.182 74.7045 186.075 73.844 184.809C73.3383 184.066 73.2894 182.441 73.307 181.529C73.3238 180.662 73.3596 179.484 72.9409 178.71C71.9841 176.941 72.4568 173.226 72.4337 171.151C72.3969 167.846 72.0856 164.56 72.1861 161.25L72.6031 154.754L72.875 155.679C73.3583 153.521 73.3168 150.989 73.6121 148.759L73.8497 149.5C73.93 148.521 74.0863 145.468 74.708 144.847L75.1956 147.051C74.562 150.122 73.8874 153.334 73.5404 156.449C73.4031 157.681 73.5573 158.981 73.2757 160.187C73.0531 161.141 73.1769 162.271 73.1876 163.248L73.5027 170.125C73.8249 174.784 74.173 179.372 74.9979 183.981C77.8674 200.014 83.7692 215.786 90.0454 230.75L96.7326 245.568Z"/>
	<path d="M240.474 101.75C242.819 101.235 245.356 101.407 247.75 101.132C250.359 100.833 253.197 101.033 255.841 101.031L268.131 101.262C269.705 101.365 271.541 101.349 273.068 101.747C302.507 105.354 332.322 115.794 351.244 139.875C361.895 153.429 367.139 168.854 368.125 185.967C368.289 188.814 368.669 191.773 368.366 194.625L367.966 200.92L367.024 208.228C366.805 209.989 366.686 211.855 366.271 213.575L363.382 226.378C363.004 227.809 362.752 229.449 362.142 230.789C361.872 232.304 361.278 233.795 360.791 235.25L357.665 243.948C346.714 272.617 329.84 298.488 311.364 322.83L297.885 339.487C287.943 351.295 277.941 362.96 261.659 365.068C259.524 365.345 257.274 365.256 255.125 365.19C246.144 364.911 238.263 362.475 231.081 356.932C221.282 349.369 213.661 338.964 205.879 329.415C195.959 317.243 186.732 304.403 178.365 291.117C164.265 268.724 152.686 244.936 146.704 219.04C145.85 215.343 145.087 211.437 144.606 207.676L143.717 198.873C143.379 196.414 143.478 193.878 143.482 191.4C143.489 186.921 143.611 182.617 144.241 178.171C144.993 172.601 146.287 167.3 148.091 161.976C149.045 159.719 149.853 157.369 150.931 155.171C153.977 148.958 157.934 143.2 162.427 137.95C165.208 134.7 168.287 131.91 171.521 129.125C185.484 117.099 201.859 109.707 219.63 105.302C226.475 103.605 233.437 102.304 240.474 101.75ZM348.292 223.887L351.772 208.697L353.669 190.624C353.876 189.27 353.498 187.552 353.452 186.161C353.037 173.359 347.958 161.066 340.254 150.94C324.728 130.531 298.196 120.057 273.428 116.792C268.208 116.103 263.011 115.967 257.755 115.954C239.12 115.908 220.826 119.467 203.72 126.933C196.653 130.017 189.752 133.864 183.683 138.645C172.254 147.646 164.423 158.446 160.451 172.5C159.68 175.229 158.968 177.924 158.648 180.75C158.473 182.298 158.55 183.839 158.409 185.375C158.102 188.748 157.872 192.766 158.314 196.132C158.531 197.784 158.439 199.502 158.612 201.169C159.098 205.842 160.055 210.619 161.102 215.195C162.696 222.167 165.005 229.006 167.476 235.707C172.566 249.51 178.887 262.24 186.3 274.936L197.959 293.435L203.08 300.069L216.212 317.266L228.97 333.637C232.122 337.449 235.288 341.091 239.2 344.152C242.852 347.009 246.875 348.706 251.404 349.633C252.4 349.837 253.417 349.819 254.421 349.968C256.598 350.289 259.65 350.176 261.75 349.56L263.432 349.048C267.268 347.83 271.088 345.447 274.121 342.839C280.698 337.185 286.247 329.778 291.646 322.998C306.687 304.112 321.465 284.62 332.505 263.05C335.784 256.644 338.996 250.109 341.629 243.41L348.292 223.887ZM240.474 101.75L247.968 102.143L261.165 102.094C262.376 102.092 264.975 101.788 266 102.344L266.371 102.214C268.444 101.548 270.929 102.019 273.068 101.747C271.541 101.349 269.705 101.365 268.131 101.262L255.841 101.031C253.197 101.033 250.359 100.833 247.75 101.132C245.356 101.407 242.819 101.235 240.474 101.75ZM362.142 230.789C362.752 229.449 363.004 227.809 363.382 226.378L366.271 213.575L365.999 211.751L365.625 211.627C365.365 212.019 365.351 212.078 365.251 212.501L365.182 212.766C365.036 213.499 365.301 214.112 364.877 214.75L364.846 216.132L364.501 215.751L364.455 215.993C364.312 216.715 364.081 217.382 364.125 218.127L363.877 218.5C363.875 219.028 363.939 219.031 363.627 219.5C363.728 219.753 363.928 220.011 363.818 220.269L363.542 220.001L363.022 222.501L362.919 222.984C362.766 223.685 362.46 224.319 362.337 225.026C362.097 226.402 361.5 227.604 361.356 229.024C361.324 229.337 361.248 229.585 361.129 229.875L361.289 230.498C362.117 230.906 361.294 230.562 361.945 230.703L362.142 230.789ZM148.091 161.976C146.287 167.3 144.993 172.601 144.241 178.171L144.555 179.625L145.102 179.125C145.112 178.619 145.185 178.179 145.331 177.692C145.598 176.803 145.594 176.047 145.597 175.125C146.281 174.369 146.505 171.402 146.707 170.25C147.077 169.859 147.185 168.667 147.328 168.125C147.663 166.851 148.152 165.608 148.445 164.323L148.582 163.75L148.873 163.375L148.645 163.225C148.267 162.951 148.167 162.736 148.115 162.277L148.091 161.976ZM351.772 208.697L348.292 223.887C348.578 224.385 348.717 224.695 348.692 225.269L348.663 225.75L348.864 225.894L350.667 218.657C350.892 217.958 350.943 217.311 351.134 216.625C351.617 214.887 351.978 213.17 352.225 211.375L351.714 210.75L351.772 208.697Z"/>
	<path d="M351.772 208.697L351.714 210.75L352.225 211.375C351.978 213.17 351.617 214.887 351.134 216.625C350.943 217.311 350.892 217.958 350.667 218.657L348.864 225.894L348.663 225.75L348.692 225.269C348.717 224.695 348.578 224.385 348.292 223.887L351.772 208.697Z"/>
	<path d="M148.091 161.976L148.115 162.277C148.167 162.736 148.267 162.951 148.645 163.225L148.873 163.375L148.582 163.75L148.445 164.323C148.152 165.608 147.663 166.851 147.328 168.125C147.185 168.667 147.077 169.859 146.707 170.25C146.505 171.402 146.281 174.369 145.597 175.125C145.594 176.047 145.598 176.803 145.331 177.692C145.185 178.179 145.112 178.619 145.102 179.125L144.555 179.625L144.241 178.171C144.993 172.601 146.287 167.3 148.091 161.976Z"/>
	<path fill="#010000" fill-opacity="0.96470588" d="M362.142 230.789L361.945 230.703C361.294 230.562 362.117 230.906 361.289 230.498L361.129 229.875C361.248 229.585 361.324 229.337 361.356 229.024C361.5 227.604 362.097 226.402 362.337 225.026C362.46 224.319 362.766 223.685 362.919 222.984L363.022 222.501L363.542 220.001L363.818 220.269C363.928 220.011 363.728 219.753 363.627 219.5C363.939 219.031 363.875 219.028 363.877 218.5L364.125 218.127C364.081 217.382 364.312 216.715 364.455 215.993L364.501 215.751L364.846 216.132L364.877 214.75C365.301 214.112 365.036 213.499 365.182 212.766L365.251 212.501C365.351 212.078 365.365 212.019 365.625 211.627L365.999 211.751L366.271 213.575L363.382 226.378C363.004 227.809 362.752 229.449 362.142 230.789Z"/>
	<path d="M240.474 101.75C242.819 101.235 245.356 101.407 247.75 101.132C250.359 100.833 253.197 101.033 255.841 101.031L268.131 101.262C269.705 101.365 271.541 101.349 273.068 101.747C270.929 102.019 268.444 101.548 266.371 102.214L266 102.344C264.975 101.788 262.376 102.092 261.165 102.094L247.968 102.143L240.474 101.75Z"/>
	<path d="M208.243 236.434C208.715 232.56 209.52 228.997 208.492 225.125C206.214 216.547 197.943 211.675 193.937 204.065C192.72 201.752 192.15 199.085 192.017 196.496C191.951 195.209 191.664 193.926 191.956 192.657C192.042 192.281 192.033 191.923 192.049 191.538C192.223 187.548 194.264 183.658 197.205 181.028C203.524 175.377 214.095 174.083 222.125 172.516C223.746 172.2 226.132 172.023 227.516 171.117C229.654 169.717 231.015 166.914 232.226 164.75L238.062 155.198C240.407 151.666 242.879 147.968 246.541 145.638C248.896 144.139 251.122 143.474 253.826 142.926C257.539 142.174 262.654 143.736 265.735 145.857C270.62 149.219 274.353 155.479 277.229 160.534C279.151 163.913 280.813 167.234 283.699 169.918C285.045 171.168 287.433 171.66 289.179 172.09C299.455 174.619 312.6 174.701 318.136 185.375C319.382 187.777 320.321 190.439 320.484 193.154C321.075 202.943 314.562 209.524 308.541 216.299C306.423 218.682 304.367 220.893 303.183 223.916C302.644 225.292 302.52 226.891 302.281 228.34C302.15 229.132 302.46 230.077 302.451 230.914C302.43 232.866 303.049 234.916 303.247 236.884C304.307 242.064 305.072 247.812 304.533 253.09C304.426 254.134 304.042 255.088 303.851 256.108C302.968 258.174 302.084 259.976 300.63 261.707C298.558 264.172 295.748 266.173 292.905 267.651C283.133 272.732 273.976 268.18 264.75 264.276C262.361 263.265 259.403 261.861 256.75 262.007C247.717 262.502 240.084 268.825 231.155 269.551C224.668 270.079 219.149 268.892 214.125 264.649C211.729 262.627 209.413 259.113 208.511 256.077C207.872 253.926 207.45 252.216 207.404 249.947C207.264 249.73 207.342 248.418 207.337 248.115C207.275 244.27 207.501 240.207 208.243 236.434ZM254.756 157.609C248.788 165.448 245.611 176.616 237.125 182.249C234.605 183.922 231.975 185.219 229.078 186.139C225.413 187.304 207.752 190.135 206.782 193.414C206.235 195.262 208.221 197.889 209.213 199.269C213.228 204.854 218.68 209.565 221.766 215.846C222.739 217.827 223.26 219.999 223.823 222.121C224.222 223.623 224.162 225.396 224.178 226.941C224.235 232.556 223.267 237.899 222.692 243.454C222.461 245.683 222.102 248.594 222.635 250.755C222.898 251.822 223.552 252.65 224.5 253.199C225.256 253.637 226.027 253.859 226.875 254.023L227.204 254.094C230.44 254.755 235.162 252.834 238.2 251.744L245.848 249.331C249.037 248.321 252.395 246.899 255.788 247.027C256.282 247.046 256.724 246.972 257.21 246.891L257.307 246.954C265.964 247.855 273.69 251.688 282.029 253.887C283.201 254.196 285.969 254.414 287.068 253.902C288.39 253.287 289.076 251.906 289.372 250.561C289.841 248.425 289.486 245.603 289.1 243.451C288.46 239.869 287.983 236.309 287.706 232.68C287.547 230.599 287.34 228.493 287.703 226.416C288.12 224.025 288.235 221.738 288.992 219.395C291.671 211.101 298.18 206.034 302.862 199.048C304.129 197.157 304.996 195.151 305.827 193.04C300.649 189.574 295.526 189.105 289.592 187.911C284.001 186.785 278.814 185.152 274.21 181.652C268.722 177.48 265.547 171.156 262.199 165.328C260.92 163.102 259.771 160.682 257.747 159.034L257.528 158.847C256.741 158.196 255.704 157.945 254.756 157.609ZM303.247 236.884C303.154 238.178 302.72 241.264 303.377 242.25C303.391 245.076 303.592 248.034 303.295 250.841C303.143 252.279 303.134 253.306 302.679 254.709C302.435 255.46 302.34 256.299 302.266 257.085L302.625 257.526C303.036 256.822 303.158 256.271 303.375 255.511L303.646 254.875L303.851 256.108C304.042 255.088 304.426 254.134 304.533 253.09C305.072 247.812 304.307 242.064 303.247 236.884ZM208.243 236.434C207.501 240.207 207.275 244.27 207.337 248.115C207.342 248.418 207.264 249.73 207.404 249.947L207.881 249.749C208.444 250.296 208.211 252.282 208.225 253.125L208.477 253.276C208.92 251.956 208.532 250.097 208.519 248.673L208.567 244.138C208.645 242.829 208.917 240.923 208.445 239.704C208.271 239.252 208.288 239.503 208.296 239L208.243 236.434Z"/>
	<path fill="#010000" fill-opacity="0.96470588" d="M208.243 236.434L208.296 239C208.288 239.503 208.271 239.252 208.445 239.704C208.917 240.923 208.645 242.829 208.567 244.138L208.519 248.673C208.532 250.097 208.92 251.956 208.477 253.276L208.225 253.125C208.211 252.282 208.444 250.296 207.881 249.749L207.404 249.947C207.264 249.73 207.342 248.418 207.337 248.115C207.275 244.27 207.501 240.207 208.243 236.434Z"/>
	<path fill="#010000" fill-opacity="0.96470588" d="M303.247 236.884C304.307 242.064 305.072 247.812 304.533 253.09C304.426 254.134 304.042 255.088 303.851 256.108L303.646 254.875L303.375 255.511C303.158 256.271 303.036 256.822 302.625 257.526L302.266 257.085C302.34 256.299 302.435 255.46 302.679 254.709C303.134 253.306 303.143 252.279 303.295 250.841C303.592 248.034 303.391 245.076 303.377 242.25C302.72 241.264 303.154 238.178 303.247 236.884Z"/>
</svg>
