<?xml version="1.0" encoding="utf-8" ?>
<svg xmlns="http://www.w3.org/2000/svg" xmlns:xlink="http://www.w3.org/1999/xlink" width="405" height="414">
	<path fill="#3F7FE0" d="M269.437 35.6715C271.322 35.3394 273.662 35.5886 275.597 35.5873L359.233 35.5819C364.696 35.588 370.225 35.4901 373.531 40.9462L373.698 41.2287C376.664 46.1631 375.298 52.7587 374.819 58.1698L366.234 139.786C365.409 146.307 359.508 151.513 352.728 150.437C343.426 148.961 342.683 142.685 343.544 135.306L346.706 107.338C347.063 104.049 347.372 100.579 347.993 97.3345L351.363 70.8086L253.221 166.714C255.672 169.957 258.519 172.88 260.894 176.219C270.754 190.084 280.744 210.076 283.223 227.312L284.633 236.615C285.523 245.193 285.932 257.669 284.197 266.281L281.158 280.815L275.125 298.108L269.828 309.001C268.953 310.887 267.731 312.687 266.621 314.442L260.185 323.869C245.197 344.504 223.867 359.979 199.973 368.694L190.267 371.762C189.014 372.128 187.76 372.559 186.465 372.759L171.754 375.084C164.781 375.804 157.885 375.796 150.888 375.734L134.208 373.82C68.753 363.089 20.8118 297.7 30.7979 231.889L31.6314 227.498C32.1938 223.72 33.3171 219.927 34.4078 216.271C47.0072 174.04 81.9294 139.088 124.659 127.55C128.493 126.514 132.457 125.245 136.409 124.778L142.831 123.816C156.309 122.34 169.745 122.881 182.998 125.809C198.6 129.255 212.952 135.64 226.572 143.88C230.504 146.259 234.965 148.445 238.196 151.743L333.471 58.2621L274.31 58.2628C271.685 58.2838 268.292 58.7689 265.793 58.0783L265.585 58.0195C263.326 57.4319 261.276 55.9602 260.025 53.9779L259.588 53.2789C258.106 50.7498 257.655 47.0691 258.418 44.2496L258.499 43.9673C259.936 38.8868 264.179 35.9519 269.437 35.6715ZM156.439 145.056C150.905 145.227 145.379 145.555 139.916 146.489C92.9243 154.522 55.2404 193.797 51.8126 241.935C49.793 270.297 59.9736 299.158 79.2338 320.105C94.0222 336.188 115.779 349.487 137.633 353.064L147.854 354.306C151.467 354.658 155.141 355.209 158.775 354.898C162.685 354.682 166.718 354.59 170.597 354.064C223.504 346.885 263.338 303.631 263.28 250.167C263.223 197.689 220.281 151.217 168.479 145.66L156.439 145.056Z"/>
</svg>
