<?xml version="1.0" encoding="utf-8" ?>
<svg xmlns="http://www.w3.org/2000/svg" xmlns:xlink="http://www.w3.org/1999/xlink" width="512" height="512">
	<path d="M19.4102 155.961C20.6584 150.39 21.9093 144.793 23.6181 139.341C32.8483 109.893 49.7253 82.6314 72.4804 61.7167C80.6197 54.2357 89.5022 47.6018 98.8388 41.6917C123.466 26.1027 151.713 17.883 180.625 15.6051C185.48 15.2226 190.527 15.297 195.403 15.2943C202.971 15.29 210.475 15.4163 218 16.313C224.848 17.1291 231.679 18.443 238.412 19.9289C264.237 25.6286 289.945 38.7099 310.005 55.9016C323.505 67.4716 335.279 81.262 344.83 96.244C353.411 109.705 359.827 124.735 364.298 140C366.993 149.198 369.163 158.559 370.141 168.125C370.409 170.739 371.35 174.267 370.962 176.871C371.632 180.591 371.463 184.436 371.463 188.205L371.404 199.375C370.87 209.463 369.459 219.61 367.153 229.439C366.552 231.999 366.122 234.789 365.172 237.246L365.128 237.309C364.093 242.637 361.91 248.068 359.894 253.084C356.687 261.063 353.27 268.778 349.046 276.289L339.225 292.539C339.372 292.905 339.27 292.774 339.591 293.043C344.784 297.392 349.367 303.119 353.584 308.42C355.111 310.34 356.481 312.316 358.11 314.16C359.83 313.882 361.453 312.853 363.25 312.574C366.159 312.12 369.742 313.096 372.066 314.897L372.356 315.125C374.975 317.085 377.215 319.61 379.522 321.928L390.617 333.064L426.417 368.636L461.591 403.523L476.866 418.557C481.027 422.627 485.257 426.347 488.914 430.914C495.216 438.787 497.316 447.972 496.204 457.92C495.1 467.791 490.444 477.992 482.55 484.255C473.871 491.141 462.124 495.348 450.963 494.027L446 493.223C441.706 492.231 437.433 490.265 433.977 487.499C429.365 483.808 425.268 479.237 421.094 475.061L403.003 457.284L378.991 433.896L368.929 423.591L338.23 392.592L324.745 379.114C320.392 374.768 315.872 370.198 312.602 364.955C308.804 358.865 307.481 352.35 309.089 345.322C305.5 342.714 302.673 339.681 299.503 336.624C299.115 336.251 298.096 335.057 297.881 335.077C297.609 335.103 297.434 335.391 297.21 335.548L293.585 338.177L279.792 346.805C272.778 350.888 265.369 354.25 257.875 357.326C238.645 365.22 217.56 369.887 196.74 370.478C186.157 370.778 175.776 369.856 165.293 368.559C158.786 367.754 152.342 366.301 146.009 364.633C124.767 359.04 104.697 349.541 86.9767 336.526C79.68 331.167 73.0029 324.999 66.625 318.589C62.3445 314.286 58.0589 309.825 54.3301 305.03C31.7891 276.048 18.5174 241.163 16.2999 204.5C15.9434 198.607 15.7575 192.899 15.992 187C16.0696 185.047 15.9746 183.115 16.2203 181.167C16.3494 177.594 16.4175 173.67 17.2246 170.184L17.2462 170.014C17.2772 165.48 18.5877 160.435 19.4102 155.961ZM36.2257 153.825L32.7567 171.055C32.0066 180.281 30.8953 189.345 31.0925 198.624C31.1225 200.034 31.3445 201.385 31.4191 202.776C31.7058 208.125 32.0581 213.472 32.8398 218.779C37.0704 247.498 49.1391 275.129 67.9723 297.277C84.1015 316.246 104.302 331.843 127.136 341.896C143.841 349.25 161.95 353.501 180.125 354.895C186.34 355.371 192.567 355.695 198.803 355.413C217.05 354.586 234.897 349.924 251.719 342.966C261.58 338.887 271.231 334.044 280.211 328.246C288.071 323.171 295.396 317.342 302.452 311.207C308.207 306.202 313.353 300.396 318.141 294.478C326.736 283.852 334.278 272.514 340.215 260.167C342.845 254.699 344.976 249.046 347.117 243.379L348.374 239.943L349.328 236.757L351.729 227.957L352.19 226.254L355.238 209.67C355.868 201.886 356.584 194.346 356.434 186.503C355.9 158.729 347.456 129.799 332.83 106.152C323.337 90.8046 311.871 77.4039 298.027 65.7913C293.757 62.2096 288.931 58.9957 284.265 55.9587C268.683 45.8149 251.714 38.7204 233.625 34.4345C225.884 32.6002 217.754 31.1656 209.805 30.6412C204.818 30.3122 199.907 30.4621 194.93 30.4834C167.387 30.6011 140.234 35.9389 115.851 49.1052C113.562 50.3412 111.191 51.4909 108.981 52.8607C99.1791 58.9338 89.8036 65.8983 81.4387 73.8547C59.3198 94.8935 43.1475 124.141 36.2257 153.825ZM360.434 324.95C358.449 329.447 356.724 333.928 354.144 338.147C350.783 343.641 344.792 349.458 338.725 351.875C334.96 353.375 330.97 353.827 326.953 354.049C325.676 354.12 324.401 354.324 323.125 354.259L323.03 354.75C325.339 357.725 327.651 360.686 330.228 363.438C332.105 365.443 334.2 367.203 336.19 369.089L344.006 376.895L373.284 406.163L413.892 446.513L432.486 465.015L440.393 472.772C442.243 474.418 444.175 475.678 446.403 476.757C447.516 477.265 448.572 477.676 449.75 478.018L450.19 478.148C454.414 479.361 459.884 478.749 464 477.311L464.327 477.2C468.335 475.809 471.965 473.254 474.792 470.125C478.5 466.022 481.696 459.954 481.493 454.25C481.042 441.604 469.342 432.742 461.103 424.534L447.646 411.116L360.434 324.95ZM329.683 304.767L318.192 317.08C315.486 319.795 312.598 322.764 309.464 324.959C312.674 327.893 315.367 331.543 318.67 334.326C320.474 335.845 322.602 337.066 324.708 338.11C325.957 338.468 326.957 338.554 328.25 338.513L328.609 338.505C332.448 338.362 336.72 335.494 339.215 332.729L341.327 330.06C342.606 328.531 344.371 325.199 344.232 323.152L343.996 321.875L343.918 321.522C342.677 316.284 337.14 311.413 333.299 307.961C332.149 306.927 330.965 305.609 329.683 304.767ZM365.128 237.309L365.172 237.246C366.122 234.789 366.552 231.999 367.153 229.439C369.459 219.61 370.87 209.463 371.404 199.375L371.463 188.205C371.463 184.436 371.632 180.591 370.962 176.871C370.337 178.43 370.607 180.543 370.604 182.235L370.616 192.686C370.619 193.636 370.871 195.257 370.377 196C370.377 197.162 370.702 200.135 370.127 201C370.122 202.18 370.192 203.251 369.877 204.375C369.62 205.294 370.185 206.79 369.875 207.627C369.646 208.247 369.377 208.068 369.391 208.845C369.397 209.184 369.403 209.313 369.256 209.62C368.795 210.584 369.483 211.839 368.877 212.75L368.846 215.622L368.625 215.127C368.055 216.489 368.308 218.147 367.75 219.541C367.298 220.67 367.458 222.22 367.216 223.441C366.817 225.458 366.165 227.443 365.708 229.447C365.351 231.01 365.187 232.561 364.636 234.081C364.3 235.01 364.213 236.08 364.083 237.061L365.128 237.309ZM32.7567 171.055L36.2257 153.825L36.1773 153.58C36.0658 152.997 36.0006 152.725 36.1225 152.125L35.8725 151.75L35.7209 150.846L35.5312 150.875C35.3402 152.175 35.1894 153.473 34.8784 154.75L34.8204 155.019L34.5312 154.875L34.4935 155.159C34.3481 156.202 34.0587 156.998 33.7308 157.979C33.3597 159.088 33.5636 160.359 33.2512 161.501C33.1583 161.841 33.1073 162.159 33.0012 162.501C32.7726 163.239 32.8656 164.109 32.8725 164.875L32.625 164.627C32.1152 166.099 32.747 167.726 32.1308 169.125L32.2512 169.499L32.4988 169.499L32.6275 169.125L32.7567 171.055ZM352.19 226.254L352.67 226.3L352.938 226.062L353.146 227.026L354.736 219.375L355.414 215.681C355.499 215.193 355.437 214.442 355.623 214L355.873 213.625C355.75 213.299 355.636 213.009 355.452 212.711L355.313 212.5L355.238 209.67L352.19 226.254ZM19.4102 155.961C18.5877 160.435 17.2772 165.48 17.2462 170.014L17.5945 170.984L18.1225 170.375C18.1746 169.419 18.5169 168.56 18.6134 167.625C18.6708 167.069 18.4932 166.456 18.7439 165.948C19.2173 164.99 18.8754 163.729 19.2034 162.75C19.7905 160.999 20.0236 158.863 20.247 157L19.4102 155.961ZM16.2203 181.167C16.3464 181.696 16.314 181.466 16.3534 181.975C16.4111 182.722 16.3651 183.271 16.875 183.873C17.6322 183.087 16.6981 180.568 17.2535 179.469C18.2536 177.489 17.2997 174.528 17.3186 172.489L17.2246 170.184C16.4175 173.67 16.3494 177.594 16.2203 181.167ZM351.729 227.957L349.328 236.757C349.561 237.244 349.677 237.516 349.693 238.067C349.709 238.658 349.622 238.341 349.851 238.845L351.455 233.269L352.359 230.056L351.682 229.618L351.729 227.957ZM348.374 239.943L347.117 243.379C347.376 243.355 347.621 243.302 347.875 243.25L348.062 243.686C348.941 242.527 349.418 240.448 349.615 239L349.326 238.88L349.076 239.841L348.374 239.943ZM352.19 226.254L351.729 227.957L351.682 229.618L352.359 230.056C352.562 229.012 352.796 228.03 353.146 227.026L352.938 226.062L352.67 226.3L352.19 226.254ZM309.326 347.875L309.238 355.375L309.71 355.125C309.465 352.785 309.477 350.446 309.62 348.098L309.326 347.875Z"/>
	<path fill="#010001" fill-opacity="0.96862745" d="M309.326 347.875L309.62 348.098C309.477 350.446 309.465 352.785 309.71 355.125L309.238 355.375L309.326 347.875Z"/>
	<defs>
		<linearGradient id="gradient_0" gradientUnits="userSpaceOnUse" x1="352.73917" y1="227.8009" x2="352.07257" y2="227.65903">
			<stop offset="0" stop-color="#010001" stop-opacity="0.94509804"/>
			<stop offset="1" stop-color="#000101" stop-opacity="0.98823529"/>
		</linearGradient>
	</defs>
	<path fill="url(#gradient_0)" d="M352.19 226.254L352.67 226.3L352.938 226.062L353.146 227.026C352.796 228.03 352.562 229.012 352.359 230.056L351.682 229.618L351.729 227.957L352.19 226.254Z"/>
	<path fill="#010001" fill-opacity="0.96862745" d="M348.374 239.943L349.076 239.841L349.326 238.88L349.615 239C349.418 240.448 348.941 242.527 348.062 243.686L347.875 243.25C347.621 243.302 347.376 243.355 347.117 243.379L348.374 239.943Z"/>
	<path fill="#010001" fill-opacity="0.96470588" d="M351.729 227.957L351.682 229.618L352.359 230.056L351.455 233.269L349.851 238.845C349.622 238.341 349.709 238.658 349.693 238.067C349.677 237.516 349.561 237.244 349.328 236.757L351.729 227.957Z"/>
	<path fill="#010001" fill-opacity="0.96470588" d="M16.2203 181.167C16.3494 177.594 16.4175 173.67 17.2246 170.184L17.3186 172.489C17.2997 174.528 18.2536 177.489 17.2535 179.469C16.6981 180.568 17.6322 183.087 16.875 183.873C16.3651 183.271 16.4111 182.722 16.3534 181.975C16.314 181.466 16.3464 181.696 16.2203 181.167Z"/>
	<path fill="#010001" fill-opacity="0.96470588" d="M19.4102 155.961L20.247 157C20.0236 158.863 19.7905 160.999 19.2034 162.75C18.8754 163.729 19.2173 164.99 18.7439 165.948C18.4932 166.456 18.6708 167.069 18.6134 167.625C18.5169 168.56 18.1746 169.419 18.1225 170.375L17.5945 170.984L17.2462 170.014C17.2772 165.48 18.5877 160.435 19.4102 155.961Z"/>
	<path fill="#010001" fill-opacity="0.96470588" d="M352.19 226.254L355.238 209.67L355.313 212.5L355.452 212.711C355.636 213.009 355.75 213.299 355.873 213.625L355.623 214C355.437 214.442 355.499 215.193 355.414 215.681L354.736 219.375L353.146 227.026L352.938 226.062L352.67 226.3L352.19 226.254Z"/>
	<path fill="#010001" fill-opacity="0.96470588" d="M32.7567 171.055L32.6275 169.125L32.4988 169.499L32.2512 169.499L32.1308 169.125C32.747 167.726 32.1152 166.099 32.625 164.627L32.8725 164.875C32.8656 164.109 32.7726 163.239 33.0012 162.501C33.1073 162.159 33.1583 161.841 33.2512 161.501C33.5636 160.359 33.3597 159.088 33.7308 157.979C34.0587 156.998 34.3481 156.202 34.4935 155.159L34.5312 154.875L34.8204 155.019L34.8784 154.75C35.1894 153.473 35.3402 152.175 35.5312 150.875L35.7209 150.846L35.8725 151.75L36.1225 152.125C36.0006 152.725 36.0658 152.997 36.1773 153.58L36.2257 153.825L32.7567 171.055Z"/>
	<path fill="#010001" fill-opacity="0.96470588" d="M365.128 237.309L364.083 237.061C364.213 236.08 364.3 235.01 364.636 234.081C365.187 232.561 365.351 231.01 365.708 229.447C366.165 227.443 366.817 225.458 367.216 223.441C367.458 222.22 367.298 220.67 367.75 219.541C368.308 218.147 368.055 216.489 368.625 215.127L368.846 215.622L368.877 212.75C369.483 211.839 368.795 210.584 369.256 209.62C369.403 209.313 369.397 209.184 369.391 208.845C369.377 208.068 369.646 208.247 369.875 207.627C370.185 206.79 369.62 205.294 369.877 204.375C370.192 203.251 370.122 202.18 370.127 201C370.702 200.135 370.377 197.162 370.377 196C370.871 195.257 370.619 193.636 370.616 192.686L370.604 182.235C370.607 180.543 370.337 178.43 370.962 176.871C371.632 180.591 371.463 184.436 371.463 188.205L371.404 199.375C370.87 209.463 369.459 219.61 367.153 229.439C366.552 231.999 366.122 234.789 365.172 237.246L365.128 237.309Z"/>
	<path d="M447.978 431.055C452.468 430.894 456.164 431.649 459.875 434.297C463.171 436.648 465.963 441.525 466.499 445.5C467.164 450.434 466.759 455.509 463.539 459.535C460.388 463.474 455.76 465.097 450.905 465.65C447.267 465.571 444.218 465.06 441.036 463.183C436.64 460.59 433.727 455.844 432.625 450.942C431.729 446.955 432.837 443.474 434.993 440.125C436.944 437.095 439.995 434.464 443.197 432.822C444.809 431.995 446.201 431.452 447.978 431.055ZM449.221 446.625C448.462 447.17 448.064 447.546 447.623 448.375C447.667 449.054 447.741 449.495 448.25 449.998C448.824 450.565 449.612 450.824 450.375 451C451.273 450.597 451.368 450.403 451.915 449.625C451.965 448.735 452.041 448.213 451.375 447.489C450.879 446.95 450.284 446.532 449.538 446.567L449.221 446.625Z"/>
	<path d="M181.933 50.2344C183.278 49.966 184.599 49.9886 185.958 49.8809L197.794 49.5087C202.337 49.5134 207.645 49.2117 212.094 50.2255L194.424 50.5874C191.778 50.5851 188.952 50.7676 186.335 50.4317L181.933 50.2344Z"/>
	<path d="M212.094 50.2255C218.79 50.7145 225.725 52.1223 232.218 53.8209C258.408 60.6716 283.644 75.4528 301.434 96.032C314.417 111.05 324.886 127.959 331.195 146.875C334.097 155.573 336.005 164.682 337.266 173.75C338.072 179.551 338.337 185.025 338.412 190.875C338.442 193.19 338.613 195.567 338.369 197.875L337.683 205.391C337.656 205.583 337.612 206.306 337.514 206.409C337.246 211.473 336.262 216.539 335.267 221.504C334.942 223.126 334.772 225.064 334.137 226.579C333.662 229.443 332.614 232.365 331.763 235.14C326.694 251.657 318.596 266.715 308.222 280.497C287.874 307.528 257.433 325.938 224.5 332.971C219.337 334.074 213.884 334.896 208.625 335.4C206.579 335.596 204.495 335.489 202.457 335.791L201.73 335.902C198.429 336.266 194.786 335.979 191.452 335.97C161.528 335.883 131.569 325.168 107.982 306.862C81.9514 286.66 63.7706 258.345 55.5037 226.5C53.5195 218.856 52.4678 211.014 51.6186 203.178C51.3915 201.082 51.4426 198.892 51.3764 196.781L51.3578 183.663C52.4118 158.722 60.4305 134.049 74.4926 113.375C78.3444 107.712 82.6245 102.48 87 97.2242C91.2674 92.0984 96.4296 87.467 101.456 83.1143C109.14 76.461 117.612 70.3806 126.597 65.6018C143.766 56.4693 162.69 51.9559 181.933 50.2344L186.335 50.4317C188.952 50.7676 191.778 50.5851 194.424 50.5874L212.094 50.2255ZM188.579 64.6086C172.763 65.678 156.8 69.1037 142.184 75.3055C131.699 79.7547 121.667 86.1436 112.913 93.3971C108.77 96.8298 104.483 100.527 100.953 104.588C96.0769 110.198 91.3982 115.937 87.3837 122.208C78.0123 136.849 71.6797 153.456 68.492 170.5C67.6797 174.843 66.8904 179.357 66.583 183.768C66.3309 187.386 66.483 191.104 66.4999 194.734C66.5118 197.31 66.3881 199.931 66.5642 202.5C67.0406 209.45 68.4323 216.52 70.1826 223.25C75.4392 243.462 85.4566 261.853 99.2967 277.49C103.966 282.766 109.139 287.528 114.485 292.108C118.83 295.83 123.857 299.148 128.724 302.14C145.633 312.533 165.244 319.509 185.125 320.952C190.606 321.35 196.398 321.097 201.899 320.991C211.294 319.935 220.578 318.645 229.703 316.074C250.193 310.302 269.13 298.882 284.25 283.988C287.708 280.582 291.079 277.129 294.109 273.328C298.549 267.759 302.867 261.869 306.42 255.689C317.17 236.994 323.57 215.114 323.451 193.506C323.432 190.037 323.558 186.433 323.149 182.986L321.6 173.684C320.175 165.347 318.522 157.322 315.679 149.319C309.338 131.461 298.815 115.412 285.415 102.096C281.232 97.9382 276.863 93.8072 272.125 90.2814C250.666 74.3132 224.641 64.4887 197.752 64.5095C194.889 64.5117 191.736 64.2539 188.903 64.5452L188.579 64.6086ZM334.137 226.579C334.772 225.064 334.942 223.126 335.267 221.504C336.262 216.539 337.246 211.473 337.514 206.409L336.501 206.751C336.186 207.654 336.318 209.087 335.877 209.75C335.875 210.278 335.939 210.281 335.627 210.75L335.681 210.96L335.751 211.249L335.824 211.515C335.929 212.037 335.872 212.595 335.849 213.125L335.625 212.627C335.367 213.082 335.388 213.174 335.363 213.68C335.296 215.013 334.92 216.073 334.692 217.345L333.137 226C333.509 226.364 333.48 226.429 334 226.531L334.137 226.579ZM56.4577 154.875L56.1564 156.291C56.0902 156.689 55.9937 156.833 55.7444 157.136C55.7177 157.511 55.7673 158.239 55.6424 158.566C55.5753 158.742 55.3486 158.824 55.2822 159C55.1196 159.431 55.3172 160.15 55.1401 160.566C55.115 160.625 54.6808 161.094 54.6663 161.141C54.5024 161.67 54.8706 162.578 54.7273 163.125C54.675 163.325 54.4013 163.414 54.3454 163.613C54.3152 163.72 54.5806 164.451 54.625 164.609C54.636 164.197 54.6088 163.889 54.8026 163.516C55.253 162.649 55.1199 161.275 55.4424 160.281C55.8138 159.135 56.8304 156.012 56.6282 154.969L56.4577 154.875Z"/>
	<path fill="#010001" fill-opacity="0.96470588" d="M56.4577 154.875L56.6282 154.969C56.8304 156.012 55.8138 159.135 55.4424 160.281C55.1199 161.275 55.253 162.649 54.8026 163.516C54.6088 163.889 54.636 164.197 54.625 164.609C54.5806 164.451 54.3152 163.72 54.3454 163.613C54.4013 163.414 54.675 163.325 54.7273 163.125C54.8706 162.578 54.5024 161.67 54.6663 161.141C54.6808 161.094 55.115 160.625 55.1401 160.566C55.3172 160.15 55.1196 159.431 55.2822 159C55.3486 158.824 55.5753 158.742 55.6424 158.566C55.7673 158.239 55.7177 157.511 55.7444 157.136C55.9937 156.833 56.0902 156.689 56.1564 156.291L56.4577 154.875Z"/>
	<path fill="#010001" fill-opacity="0.96470588" d="M334.137 226.579L334 226.531C333.48 226.429 333.509 226.364 333.137 226L334.692 217.345C334.92 216.073 335.296 215.013 335.363 213.68C335.388 213.174 335.367 213.082 335.625 212.627L335.849 213.125C335.872 212.595 335.929 212.037 335.824 211.515L335.751 211.249L335.681 210.96L335.627 210.75C335.939 210.281 335.875 210.278 335.877 209.75C336.318 209.087 336.186 207.654 336.501 206.751L337.514 206.409C337.246 211.473 336.262 216.539 335.267 221.504C334.942 223.126 334.772 225.064 334.137 226.579Z"/>
	<path d="M180.878 78.7273C182.859 78.1504 185.234 78.4837 187.295 78.2016C190.057 77.8238 193.004 78.0273 195.792 78.0271C198.456 78.0268 201.31 77.8169 203.95 78.1408C206.876 78.3647 210.358 78.7011 212.379 81.1146C213.61 82.584 214.224 84.1808 214.061 86.11C213.874 88.3372 212.662 90.237 210.953 91.6271C209.914 92.4715 208.453 93.0218 207.14 93.1957C204.054 93.6046 200.517 93.2576 197.377 93.2563C189.393 93.253 181.716 93.4036 173.854 94.9937C164.628 96.8596 155.649 100.494 147.431 105.034C145.634 106.026 143.968 107.258 142.159 108.22C138.686 110.067 135.065 113.102 132.043 115.625C117.067 128.132 104.709 144.841 99.101 163.69C97.5085 169.043 96.1783 174.497 95.6437 180.07C95.4802 181.775 95.2241 183.593 95.1693 185.291C95.0927 187.664 95.312 190.324 94.6399 192.613C94.0594 194.59 92.8508 196.633 91.0148 197.683C89.1137 198.77 86.7589 198.982 84.6771 198.279L83.6815 197.837L83.3447 197.685C81.6587 196.894 80.2938 195.3 79.6817 193.543C79.0369 191.693 79.3261 187.534 79.8091 185.622C79.7156 184.176 79.9921 182.553 80.2284 181.126C82.1465 164.421 87.4435 148.28 96.0886 133.831C99.4958 128.136 103.485 122.935 107.71 117.837C125.459 96.4174 153.096 81.3271 180.878 78.7273ZM180.878 78.7273C188.033 79.5917 195.601 79.0113 202.813 79.1457C203.153 78.848 203.012 78.8938 203.37 78.8048C203.845 78.687 203.41 78.8358 204 78.6017L203.127 78.375L203.95 78.1408C201.31 77.8169 198.456 78.0268 195.792 78.0271C193.004 78.0273 190.057 77.8238 187.295 78.2016C185.234 78.4837 182.859 78.1504 180.878 78.7273ZM79.8091 185.622C80.4987 187.656 80.3196 191.055 80.3101 193.25L80.5877 193C80.3481 190.38 80.9159 187.671 80.4326 185.077C80.3431 184.597 80.2947 184.2 80.3097 183.711L80.2284 181.126C79.9921 182.553 79.7156 184.176 79.8091 185.622Z"/>
	<path fill="#010001" fill-opacity="0.96470588" d="M79.8091 185.622C79.7156 184.176 79.9921 182.553 80.2284 181.126L80.3097 183.711C80.2947 184.2 80.3431 184.597 80.4326 185.077C80.9159 187.671 80.3481 190.38 80.5877 193L80.3101 193.25C80.3196 191.055 80.4987 187.656 79.8091 185.622Z"/>
	<path d="M180.878 78.7273C182.859 78.1504 185.234 78.4837 187.295 78.2016C190.057 77.8238 193.004 78.0273 195.792 78.0271C198.456 78.0268 201.31 77.8169 203.95 78.1408L203.127 78.375L204 78.6017C203.41 78.8358 203.845 78.687 203.37 78.8048C203.012 78.8938 203.153 78.848 202.813 79.1457C195.601 79.0113 188.033 79.5917 180.878 78.7273Z"/>
</svg>
