<?xml version="1.0" encoding="utf-8" ?>
<svg xmlns="http://www.w3.org/2000/svg" xmlns:xlink="http://www.w3.org/1999/xlink" width="541" height="333">
	<path d="M19.6905 37.5117L20.8577 28.8194C25.5657 27.5924 30.067 25.7315 34.9842 25.4702L58.8473 25.3788L104.168 25.3744L253.304 25.644L344.62 25.639L371.864 25.6516C377.279 25.6615 383.033 25.3384 388.4 26.0987L417.481 26.0998L474.962 26.0935L500.698 26.0799L512.144 26.0718C514.714 26.0858 517.691 26.0061 520.182 26.6768C522.553 27.0548 524.83 27.5277 527.122 28.2521C527.665 28.4237 528.504 28.5773 528.851 29.0529C530.071 30.5048 530.126 32.0231 530.44 33.8017C530.706 35.305 531.049 36.661 531.121 38.2051L531.194 52.2871L531.349 88.6084L531.428 180.352L531.425 248.436L531.211 269.159C531.209 274.156 531.53 279.378 531.118 284.349L530.032 290.751C528.847 294.967 527.429 298.688 524.91 302.305C521.239 307.577 515.613 313.789 509.686 316.462C506.555 317.874 503.16 318.515 499.802 319.115C493.509 320.239 486.952 319.34 480.62 319.089L465.497 318.941L364.585 318.932L152.908 318.926L83.6436 318.931L62.871 318.943L51.0777 318.997C45.8452 318.772 40.9858 317.159 36.6955 314.145C29.7379 309.256 24.2643 301.588 21.6691 293.521C20.85 290.974 20.3665 288.278 19.8992 285.647C18.9216 281.232 19.3218 275.861 19.3197 271.322L19.3153 252.032L19.3178 173.73L19.3238 82.6573L19.3187 54.7027C19.3214 49.0433 19.0326 43.1384 19.6905 37.5117ZM53.4248 41.8069C52.3267 41.9332 51.8422 41.7627 51.1352 42.6483C51.1616 43.4472 51.3142 44.3005 51.9075 44.8856C53.6259 46.5803 56.5238 47.7238 58.5012 49.2257L68.4175 57.303L78.535 64.905L126.665 103.214L134.385 108.924L208.957 167.907C212.175 170.479 214.994 173.371 218.061 176.097L226.508 182.903C230.998 186.514 235.369 190.159 240.39 193.032C252.86 200.166 266.518 204.334 280.954 203.458C284.687 203.232 288.498 201.991 292.053 200.881C297.498 199.18 302.835 197.438 307.804 194.579C315.662 190.06 322.648 184.289 329.695 178.648L350.525 161.906L408.34 115.448L425.628 102.067L435.261 94.7464L444.374 86.9124L466.657 69.4425L478.49 60.4283L484.568 55.5517C488.655 52.4823 493.297 49.5337 497.003 46.0291C497.723 45.3478 498.4 43.9551 498.565 42.9851C498.598 42.7888 498.598 42.5826 498.59 42.3842C497.805 41.8058 496.912 41.808 495.949 41.751C492.465 41.5449 488.905 41.6832 485.413 41.6825L467.062 41.6791L409.977 41.6738L171.48 41.6548L93.9193 41.6661L68.2454 41.6773L53.4248 41.8069ZM151.958 224.422L140.084 233.932L107.265 260.067L95.611 269.584L76.0513 285.351C69.3025 290.822 61.8753 295.764 56.9449 303.024L494.814 302.99C493.85 301.262 492.178 299.536 490.735 298.18C488.099 295.703 485.071 293.575 482.248 291.312L463.354 276.297L405.311 229.96L369.435 201.233L356.917 190.901C354.167 188.666 351.503 186.208 348.294 184.639C348.087 184.537 347.314 184.077 347.111 184.083C346.991 184.087 346.909 184.214 346.81 184.283C343.501 186.553 340.694 189.742 337.546 192.257L325.745 201.937C321.422 205.204 316.679 207.852 311.897 210.377C307.825 212.527 303.646 214.64 299.21 215.948C293.955 217.498 288.695 218.249 283.276 218.94C280.667 219.273 277.739 219.981 275.123 219.96C272.297 219.936 269.416 219.2 266.628 218.795C261.82 218.096 256.988 217.622 252.312 216.199C243.321 213.461 235.609 208.858 227.843 203.704C219.181 197.956 210.683 191.335 203.257 184.038C197.316 186.754 191.949 192.383 186.85 196.441L151.958 224.422ZM420.312 125.338L416.695 128.127L397.957 142.577L374.749 160.764C370.723 163.789 367.03 167.54 362.654 170.046C362.025 170.837 361.841 172.943 361.989 174.026C362.044 174.429 362.261 174.851 362.442 175.208C363.431 175.39 365.337 177.509 366.241 178.22L389.097 196.556L420.42 222.004L449.083 244.637L460.314 253.982L483.317 271.994L494.126 280.946C497.678 284.035 501.279 287.363 505.274 289.869C508.652 291.987 511.006 292.943 515.031 293.065C516.401 286.376 515.845 279.059 515.841 272.25L515.829 243.871L515.831 133.681L515.83 78.7942L515.813 63.5108C515.805 60.1504 516.01 56.6756 515.394 53.361C513.717 53.5591 511.82 53.9033 510.398 54.8494C506.463 57.4677 502.818 60.8595 499.068 63.7618L472.34 84.573L443.98 106.413L435.145 113.793L420.312 125.338ZM36.2633 52.9819C35.4017 59.332 35.8798 65.9963 35.8654 72.407L35.838 108.201L35.7852 227.77L35.4447 265.696C35.312 268.395 35.6709 271.372 35.156 274.01C34.916 275.239 35.2856 276.723 35.3352 277.982C35.5075 282.352 34.8256 287.852 37.5339 291.632C38.0655 292.374 38.3593 292.64 39.2278 292.898C42.3404 291.636 44.814 289.502 47.378 287.389L55.6679 280.642L89.213 253.535L121.87 227.369L135.408 216.498L164.062 193.333C171.425 187.454 179.121 181.776 186.034 175.369C186.714 174.739 188.193 173.438 188.363 172.551C185.539 168.721 181.376 166.012 177.637 163.115L164.359 152.849L127.007 123.634L67.0791 76.6426L50.1258 63.3541C45.5494 59.7387 41.1863 56.1351 36.2633 52.9819ZM19.6905 37.5117C19.0326 43.1384 19.3214 49.0433 19.3187 54.7027L19.3238 82.6573L19.3178 173.73L19.3153 252.032L19.3197 271.322C19.3218 275.861 18.9216 281.232 19.8992 285.647C20.106 285.073 20.6928 284.583 20.7587 284.144C21.0276 282.353 20.6673 280.01 20.6183 278.169L20.5657 268.119L20.5689 221.606L20.5753 52.9534L20.6195 41.46C20.6321 40.6159 20.9571 38.4755 20.7029 37.7629C20.6428 37.5943 20.4612 37.4988 20.3403 37.3668L20.0194 37.3668L19.9573 38.5538L19.6905 37.5117ZM528.851 29.0529C528.464 29.6773 528.397 30.035 528.455 30.7649L528.983 31.4414L528.909 31.6884C528.805 32.0641 528.829 32.1457 528.952 32.5128C529.116 32.9995 528.976 33.4408 529.149 33.913C529.554 35.0111 528.975 36.2526 529.512 37.3668C529.978 38.3344 529.76 39.7394 529.791 40.7978C529.803 41.1842 530.04 41.4088 530.055 41.7743L530.089 52.1938L530.32 94.298L530.318 246.334L530.055 277.208C530.043 279.515 530.181 281.933 529.972 284.227C529.852 285.545 529.437 286.715 529.378 288.066C529.36 288.464 529.227 289.021 529.48 289.332C529.841 289.777 529.904 290.211 530.032 290.751L531.118 284.349C531.53 279.378 531.209 274.156 531.211 269.159L531.425 248.436L531.428 180.352L531.349 88.6084L531.194 52.2871L531.121 38.2051C531.049 36.661 530.706 35.305 530.44 33.8017C530.126 32.0231 530.071 30.5048 528.851 29.0529ZM388.4 26.0987C389.657 26.689 390.991 26.5227 392.338 26.5679L399.014 26.6717L399.014 26.9358L391.617 26.9358C393.334 27.7343 487.599 27.2539 497.942 27.1264C502.495 27.0703 507.483 27.5399 511.932 27.0678L512.38 27.1404C514.78 27.5862 517.719 26.8065 520.182 26.6768C517.691 26.0061 514.714 26.0858 512.144 26.0718L500.698 26.0799L474.962 26.0935L417.481 26.0998L388.4 26.0987ZM140.084 233.932L151.958 224.422C151.732 224.115 151.616 223.904 151.241 223.787C150.756 224.022 150.388 224.528 149.986 224.634C149.473 224.768 149.143 225.246 148.815 225.632C148.052 225.728 147.616 226.43 146.953 226.817C146.189 227.263 145.648 228.276 144.827 228.676C144.415 228.876 144.234 229.189 143.98 229.554C143.674 229.594 143.59 229.54 143.373 229.772C142.726 230.463 141.914 230.77 141.317 231.468C140.919 231.934 140.572 231.877 140.269 232.515L139.566 232.783C139.637 233.249 139.837 233.545 140.084 233.932ZM362.442 175.208C362.261 174.851 362.044 174.429 361.989 174.026C361.841 172.943 362.025 170.837 362.654 170.046L361.635 169.835C360.917 170.328 360.743 171.049 360.606 171.914C360.495 172.617 360.723 173.105 360.866 173.762C360.902 173.927 360.824 174.27 360.801 174.422L361.573 175.257L362.442 175.208ZM416.695 128.127L420.312 125.338L419.222 124.715C418.707 125.006 418.372 125.49 417.887 125.728C417.341 125.996 417.044 126.568 416.438 126.889C416.486 127.316 416.586 127.713 416.695 128.127Z"/>
	<path d="M416.695 128.127C416.586 127.713 416.486 127.316 416.438 126.889C417.044 126.568 417.341 125.996 417.887 125.728C418.372 125.49 418.707 125.006 419.222 124.715L420.312 125.338L416.695 128.127Z"/>
	<path d="M362.442 175.208L361.573 175.257L360.801 174.422C360.824 174.27 360.902 173.927 360.866 173.762C360.723 173.105 360.495 172.617 360.606 171.914C360.743 171.049 360.917 170.328 361.635 169.835L362.654 170.046C362.025 170.837 361.841 172.943 361.989 174.026C362.044 174.429 362.261 174.851 362.442 175.208Z"/>
	<path d="M140.084 233.932C139.837 233.545 139.637 233.249 139.566 232.783L140.269 232.515C140.572 231.877 140.919 231.934 141.317 231.468C141.914 230.77 142.726 230.463 143.373 229.772C143.59 229.54 143.674 229.594 143.98 229.554C144.234 229.189 144.415 228.876 144.827 228.676C145.648 228.276 146.189 227.263 146.953 226.817C147.616 226.43 148.052 225.728 148.815 225.632C149.143 225.246 149.473 224.768 149.986 224.634C150.388 224.528 150.756 224.022 151.241 223.787C151.616 223.904 151.732 224.115 151.958 224.422L140.084 233.932Z"/>
	<path d="M388.4 26.0987L417.481 26.0998L474.962 26.0935L500.698 26.0799L512.144 26.0718C514.714 26.0858 517.691 26.0061 520.182 26.6768C517.719 26.8065 514.78 27.5862 512.38 27.1404L511.932 27.0678C507.483 27.5399 502.495 27.0703 497.942 27.1264C487.599 27.2539 393.334 27.7343 391.617 26.9358L399.014 26.9358L399.014 26.6717L392.338 26.5679C390.991 26.5227 389.657 26.689 388.4 26.0987Z"/>
	<path d="M528.851 29.0529C530.071 30.5048 530.126 32.0231 530.44 33.8017C530.706 35.305 531.049 36.661 531.121 38.2051L531.194 52.2871L531.349 88.6084L531.428 180.352L531.425 248.436L531.211 269.159C531.209 274.156 531.53 279.378 531.118 284.349L530.032 290.751C529.904 290.211 529.841 289.777 529.48 289.332C529.227 289.021 529.36 288.464 529.378 288.066C529.437 286.715 529.852 285.545 529.972 284.227C530.181 281.933 530.043 279.515 530.055 277.208L530.318 246.334L530.32 94.298L530.089 52.1938L530.055 41.7743C530.04 41.4088 529.803 41.1842 529.791 40.7978C529.76 39.7394 529.978 38.3344 529.512 37.3668C528.975 36.2526 529.554 35.0111 529.149 33.913C528.976 33.4408 529.116 32.9995 528.952 32.5128C528.829 32.1457 528.805 32.0641 528.909 31.6884L528.983 31.4414L528.455 30.7649C528.397 30.035 528.464 29.6773 528.851 29.0529Z"/>
	<path fill="#010001" fill-opacity="0.97254902" d="M19.6905 37.5117L19.9573 38.5538L20.0194 37.3668L20.3403 37.3668C20.4612 37.4988 20.6428 37.5943 20.7029 37.7629C20.9571 38.4755 20.6321 40.6159 20.6195 41.46L20.5753 52.9534L20.5689 221.606L20.5657 268.119L20.6183 278.169C20.6673 280.01 21.0276 282.353 20.7587 284.144C20.6928 284.583 20.106 285.073 19.8992 285.647C18.9216 281.232 19.3218 275.861 19.3197 271.322L19.3153 252.032L19.3178 173.73L19.3238 82.6573L19.3187 54.7027C19.3214 49.0433 19.0326 43.1384 19.6905 37.5117Z"/>
	<path d="M295.238 127.367C294.465 129.351 293.02 131.223 291.662 132.849C286.596 138.913 279.056 143.463 271.367 145.251C268.192 145.989 264.875 146.209 261.633 146.456C260.7 146.527 259.727 146.29 258.798 146.201C253.651 145.709 248.83 143.844 244.919 140.444C239.381 135.632 236.381 128.711 235.897 121.437C235.692 118.365 235.563 114.714 235.974 111.662C237.137 103.018 241.098 95.0816 246.843 88.5975C254.874 79.5332 266.006 75.6742 277.87 75.1497C284.097 74.8744 290.055 76.5323 294.751 80.7183C296.97 82.672 298.967 85.4931 299.947 88.2956C300.443 89.4158 300.797 90.4815 301.078 91.6735C303.511 103.714 301.713 116.677 295.35 127.305L295.238 127.367ZM249.579 107.977C248.357 114.566 248.248 122.696 252.188 128.445C253.132 129.822 254.196 131.044 255.465 132.131C257.002 133.221 258.72 134.23 260.555 134.712C265.362 135.973 270.319 134.555 274.494 132.039C281.988 127.522 287.157 120.333 289.251 111.836C290.741 105.792 290.794 98.2118 287.491 92.7912C285.725 89.8929 282.587 87.9122 279.319 87.115C273.02 85.5788 266.306 87.9184 260.926 91.2205C254.957 94.8841 251.204 101.343 249.579 107.977ZM301.078 91.6735L300.74 92.1882L300.35 92.0305L300.295 92.2121C300.198 92.503 300.238 92.3982 300.036 92.6907L300.137 92.9845C300.617 94.4849 300.041 96.2743 300.499 97.832C300.767 98.7417 300.539 99.7988 300.545 100.744C300.58 106.136 300.419 111.571 298.516 116.684C298.291 117.288 298.297 117.984 297.992 118.554C297.417 119.627 297.236 120.77 296.596 121.804C296.249 122.364 295.766 123.681 295.558 124.331C295.27 125.228 294.636 125.902 294.343 126.86L294.671 127.414L294.982 127.188L295.238 127.367L295.35 127.305C301.713 116.677 303.511 103.714 301.078 91.6735ZM255.465 132.131C254.196 131.044 253.132 129.822 252.188 128.445C248.248 122.696 248.357 114.566 249.579 107.977L249.378 107.86L248.905 107.545L248.773 109.261C248.45 108.86 248.484 108.153 248.443 107.647C248.186 108.952 247.497 111.892 247.782 113.055L247.921 113.949L247.612 114.082C247.419 115.62 247.063 119.488 247.842 120.796C248.461 121.837 247.868 123.222 248.46 124.248C248.914 125.034 249.197 125.422 249.055 126.36L249.183 126.452C249.89 126.992 249.888 127.576 250.292 128.273C250.77 129.1 251.767 130.202 252.462 130.834C252.632 130.99 252.729 131.166 252.852 131.359C253.12 131.777 253.374 131.949 253.81 132.17L254.026 132.686L254.787 132.674L254.979 132.467C255.25 132.188 255.127 132.279 255.465 132.131ZM294.751 80.7183L294.531 80.8956C294.289 81.0852 294.109 81.1486 293.804 81.2034L293.796 81.5707C294.516 81.9789 294.628 82.4856 295.153 82.8169C295.877 83.2739 296.635 84.5103 296.997 85.2949C297.245 85.8342 297.397 86.2484 297.871 86.617C298.676 87.2441 298.989 87.8061 299.947 88.2956C298.967 85.4931 296.97 82.672 294.751 80.7183Z"/>
	<path fill="#010001" fill-opacity="0.97254902" d="M294.751 80.7183C296.97 82.672 298.967 85.4931 299.947 88.2956C298.989 87.8061 298.676 87.2441 297.871 86.617C297.397 86.2484 297.245 85.8342 296.997 85.2949C296.635 84.5103 295.877 83.2739 295.153 82.8169C294.628 82.4856 294.516 81.9789 293.796 81.5707L293.804 81.2034C294.109 81.1486 294.289 81.0852 294.531 80.8956L294.751 80.7183Z"/>
	<path d="M255.465 132.131C255.127 132.279 255.25 132.188 254.979 132.467L254.787 132.674L254.026 132.686L253.81 132.17C253.374 131.949 253.12 131.777 252.852 131.359C252.729 131.166 252.632 130.99 252.462 130.834C251.767 130.202 250.77 129.1 250.292 128.273C249.888 127.576 249.89 126.992 249.183 126.452L249.055 126.36C249.197 125.422 248.914 125.034 248.46 124.248C247.868 123.222 248.461 121.837 247.842 120.796C247.063 119.488 247.419 115.62 247.612 114.082L247.921 113.949L247.782 113.055C247.497 111.892 248.186 108.952 248.443 107.647C248.484 108.153 248.45 108.86 248.773 109.261L248.905 107.545L249.378 107.86L249.579 107.977C248.357 114.566 248.248 122.696 252.188 128.445C253.132 129.822 254.196 131.044 255.465 132.131Z"/>
	<path d="M301.078 91.6735C303.511 103.714 301.713 116.677 295.35 127.305L295.238 127.367L294.982 127.188L294.671 127.414L294.343 126.86C294.636 125.902 295.27 125.228 295.558 124.331C295.766 123.681 296.249 122.364 296.596 121.804C297.236 120.77 297.417 119.627 297.992 118.554C298.297 117.984 298.291 117.288 298.516 116.684C300.419 111.571 300.58 106.136 300.545 100.744C300.539 99.7988 300.767 98.7417 300.499 97.832C300.041 96.2743 300.617 94.4849 300.137 92.9845L300.036 92.6907C300.238 92.3982 300.198 92.503 300.295 92.2121L300.35 92.0305L300.74 92.1882L301.078 91.6735Z"/>
	<path d="M213.18 101.095C215.734 84.9196 223.808 68.3466 237.331 58.5084C247.064 51.4271 258.683 46.8881 270.674 45.5725C274.125 45.1939 277.811 45.2568 281.287 45.2911C284.634 45.3242 288.172 45.2357 291.481 45.7639C304.575 47.8539 318.014 54.414 327.427 63.7962C330.318 66.679 332.916 70.0984 335.305 73.41C340.195 80.1876 342.862 87.7145 344.235 95.8753C344.477 97.3173 344.905 98.7842 345.04 100.233C345.307 103.11 345.225 106.122 345.193 109.008C345.164 111.598 345.252 114.291 344.861 116.858C344.396 119.911 343.915 123.067 342.941 126.003C340.927 132.067 336.953 137.409 331.759 141.128C327.337 144.295 321.314 145.829 315.955 144.929C312.097 144.28 308.665 142.127 306.409 138.908C301.783 132.306 303.642 122.712 305.013 115.295L307.058 101.598L308.696 92.3163C309.222 88.7745 309.173 85.1821 310.242 81.7026C310.729 80.1197 311.688 78.1417 313.124 77.2079C314.267 76.4647 315.857 76.0868 317.199 76.3904C318.32 76.6441 319.356 77.4201 319.944 78.3999C320.674 79.6175 321.122 80.6946 321.157 82.1277C321.268 86.6965 319.937 91.3573 319.249 95.8572L315.23 123.228C315.053 124.505 314.961 125.809 314.726 127.074C314.636 127.554 314.255 128.585 314.316 129.012C314.36 129.327 314.805 129.979 314.962 130.279C315.887 132.049 316.521 133.072 318.602 133.577C320.779 134.104 323.187 133.1 324.991 131.932C330.08 128.634 332.494 122.076 333.673 116.397C336.187 104.289 332.591 90.0953 325.814 79.9169C317.653 67.6591 304.877 59.9271 290.543 57.1057C275.833 54.2104 259.216 57.4386 246.738 65.8783C243.295 68.2071 239.932 70.8406 237.148 73.9444C231.203 80.5718 226.588 90.6456 224.902 99.3535C222.099 113.833 223.66 128.916 232.148 141.36C240.054 152.949 252.566 160.553 266.287 163.094C270.552 163.884 274.889 164.517 279.237 164.561C286.538 164.636 294.661 162.934 301.539 160.535C302.949 160.043 304.453 159.488 305.812 158.868C309.054 157.39 312.175 155.502 315.563 154.387C315.945 154.262 317.021 153.779 317.38 153.813C318.721 153.941 320.723 155.557 321.448 156.621C322.575 158.275 322.278 160.101 322.131 161.986C316.97 169.385 300.223 172.615 291.724 174.142C274.392 177.256 253.512 174.203 238.816 164.058C225.022 154.535 216.365 140.906 213.527 124.371L213.174 121.611C212.425 118.627 212.512 115.406 212.505 112.347C212.495 108.637 212.449 104.746 213.18 101.095ZM213.18 101.095C212.449 104.746 212.495 108.637 212.505 112.347C212.512 115.406 212.425 118.627 213.174 121.611C213.23 120.802 213.219 119.893 213.411 119.107C213.903 117.085 213.57 114.717 213.52 112.631L213.609 105.379C213.567 103.936 213.24 102.553 213.18 101.095Z"/>
	<path d="M213.18 101.095C213.24 102.553 213.567 103.936 213.609 105.379L213.52 112.631C213.57 114.717 213.903 117.085 213.411 119.107C213.219 119.893 213.23 120.802 213.174 121.611C212.425 118.627 212.512 115.406 212.505 112.347C212.495 108.637 212.449 104.746 213.18 101.095Z"/>
</svg>
