<?xml version="1.0" encoding="utf-8" ?>
<svg xmlns="http://www.w3.org/2000/svg" xmlns:xlink="http://www.w3.org/1999/xlink" width="388" height="404">
	<path fill="#E081EF" transform="scale(0.847326 0.847326)" d="M223.094 374.001L232.758 373.967C256.382 373.883 265.853 383.67 265.907 406.593L265.903 430.367C265.854 441.516 262.202 454.841 250.204 458.633C244.117 460.557 237.718 460.684 231.409 460.695L215.993 460.697L204.946 460.699C181.921 460.669 173.564 450.645 173.363 427.507L173.337 409.794C173.336 399.02 172.538 390.549 180.938 382.12C188.613 374.419 199.741 374.056 209.886 374.037L223.094 374.001Z"/>
	<path fill="#E081EF" transform="scale(0.847326 0.847326)" d="M376.736 94.7746L376.793 94.8165C383.257 110.872 386.577 126.556 386.507 143.792C386.494 147.015 386.762 150.7 386.15 153.861L384.684 163.188C377.951 197.422 357.391 218.793 331.741 239.732L309.828 257.462C291.908 271.871 273.397 288.48 266.257 311.218C264.941 315.408 264.723 319.659 264.174 323.976C262.663 335.842 249.885 333.453 241.218 333.458L196.561 333.448C190.857 333.442 183.304 334.523 179.645 328.923C175.885 323.166 177.238 310.911 178.543 304.465C188.83 253.636 228.215 243.407 262.691 214.221C279.396 200.08 294.533 180.512 298.878 158.612C305.534 125.067 285.6 94.5942 252.84 85.9377C214.532 75.8152 168.997 98.6217 153.427 135.044C149.107 145.151 146.964 150.92 135.328 153.903C128.725 155.595 121.808 154.942 115.035 154.93C101.872 154.907 88.1584 155.947 77.3552 146.917C64.4241 136.108 68.5637 121.833 74.9338 108.548C119.321 15.9753 262.841 -17.1126 342.728 48.7943L351.665 56.6804C360.685 64.1615 373.631 84.5029 376.736 94.7746Z"/>
	<path fill="#8088FF" transform="scale(0.847326 0.847326)" d="M351.665 56.6804C360.685 64.1615 373.631 84.5029 376.736 94.7746C374.641 93.7882 368.425 80.4177 366.818 77.792C364.129 73.4007 360.854 69.4671 357.654 65.452L354 60.8181C353.05 59.6265 351.634 58.2792 351.665 56.6804Z"/>
</svg>
